<?xml version="1.0" encoding="UTF-8" standalone="no"?>
<!-- Created with Inkscape (http://www.inkscape.org/) -->

<svg
   xmlns:dc="http://purl.org/dc/elements/1.1/"
   xmlns:cc="http://creativecommons.org/ns#"
   xmlns:rdf="http://www.w3.org/1999/02/22-rdf-syntax-ns#"
   xmlns:svg="http://www.w3.org/2000/svg"
   xmlns="http://www.w3.org/2000/svg"
   xmlns:xlink="http://www.w3.org/1999/xlink"
   xmlns:sodipodi="http://sodipodi.sourceforge.net/DTD/sodipodi-0.dtd"
   xmlns:inkscape="http://www.inkscape.org/namespaces/inkscape"
   width="11in"
   height="8.5in"
   viewBox="0 0 279.4 215.9"
   version="1.1"
   id="svg8"
   inkscape:version="0.92.4 (unknown)"
   sodipodi:docname="demo-storyboard.svg">
  <defs
     id="defs2">
    <clipPath
       id="clipPath161462"
       clipPathUnits="userSpaceOnUse">
      <path
         inkscape:connector-curvature="0"
         id="path161460"
         d="m 1032.96,2313.28 -333.905,-372.74 229.562,-597.75 286.953,-272.01 415.65,-193.51 426.52,73.21 293.68,-701.64 h 332.56 L 2477.24,727.012 2800.11,486.23 3187,650.969 v 256.429 l 385.07,239.412 -69.57,568.83 -440.82,622.99 -1155.7,301.75 z" />
    </clipPath>
    <linearGradient
       spreadMethod="pad"
       y2="0"
       x2="1"
       y1="0"
       x1="0"
       gradientTransform="matrix(19.301722,0,0,19.301722,15.494207,67.505163)"
       gradientUnits="userSpaceOnUse"
       id="linearGradient243972"
       xlink:href="#linearGradient161468"
       inkscape:collect="always" />
    <linearGradient
       id="linearGradient161468"
       spreadMethod="pad"
       gradientTransform="matrix(2873.01,0,0,-2873.01,699.055,1444.61)"
       gradientUnits="userSpaceOnUse"
       y2="0"
       x2="1"
       y1="0"
       x1="0">
      <stop
         id="stop161464"
         offset="0"
         style="stop-opacity:1;stop-color:#3a7cc7" />
      <stop
         id="stop161466"
         offset="1"
         style="stop-opacity:1;stop-color:#7ad4ed" />
    </linearGradient>
  </defs>
  <sodipodi:namedview
     id="base"
     pagecolor="#ffffff"
     bordercolor="#666666"
     borderopacity="1.0"
     inkscape:pageopacity="0.0"
     inkscape:pageshadow="2"
     inkscape:zoom="2"
     inkscape:cx="465.92857"
     inkscape:cy="535.43294"
     inkscape:document-units="in"
     inkscape:current-layer="layer1"
     showgrid="false"
     units="in"
     showguides="true"
     inkscape:guide-bbox="true"
     inkscape:snap-global="false"
     inkscape:window-width="2560"
     inkscape:window-height="1369"
     inkscape:window-x="0"
     inkscape:window-y="34"
     inkscape:window-maximized="1">
    <sodipodi:guide
       position="215.52615,203.17829"
       orientation="0,1"
       id="guide1531"
       inkscape:locked="false" />
    <sodipodi:guide
       position="12.534941,268.09806"
       orientation="1,0"
       id="guide1533"
       inkscape:locked="false" />
    <sodipodi:guide
       position="266.97553,265.10464"
       orientation="1,0"
       id="guide1535"
       inkscape:locked="false" />
  </sodipodi:namedview>
  <metadata
     id="metadata5">
    <rdf:RDF>
      <cc:Work
         rdf:about="">
        <dc:format>image/svg+xml</dc:format>
        <dc:type
           rdf:resource="http://purl.org/dc/dcmitype/StillImage" />
        <dc:title></dc:title>
      </cc:Work>
    </rdf:RDF>
  </metadata>
  <g
     inkscape:label="Layer 1"
     inkscape:groupmode="layer"
     id="layer1"
     transform="translate(0,-81.1)">
    <text
       xml:space="preserve"
       style="font-style:normal;font-weight:normal;font-size:5.0687108px;line-height:1.25;font-family:sans-serif;letter-spacing:0px;word-spacing:0px;fill:#000000;fill-opacity:1;stroke:none;stroke-width:0.26458332"
       x="34.705555"
       y="103.60399"
       id="text1421"><tspan
         sodipodi:role="line"
         id="tspan1419"
         x="34.705555"
         y="103.60399"
         style="font-style:normal;font-variant:normal;font-weight:normal;font-stretch:normal;font-family:Overpass;-inkscape-font-specification:Overpass;stroke-width:0.26458332"><tspan
   style="-inkscape-font-specification:'Overpass Light';font-family:Overpass;font-weight:300;font-style:normal;font-stretch:normal;font-variant:normal"
   id="tspan1557">Summit Demo Storyboard: </tspan>Minimum Viable Product</tspan></text>
    <rect
       y="58.555954"
       x="14.530501"
       height="18.520859"
       width="78.581345"
       id="rect244687"
       style="opacity:1;fill:none;fill-opacity:1;stroke:none;stroke-width:0.26458368;stroke-linecap:square;stroke-linejoin:bevel;stroke-miterlimit:4;stroke-dasharray:none;stroke-dashoffset:0;stroke-opacity:1"
       inkscape:export-filename="/home/duffy/Repositories/ChRIS_store_ui/src/assets/img/chris_logo-white.png"
       inkscape:export-xdpi="96"
       inkscape:export-ydpi="96" />
    <g
       id="g1529"
       transform="matrix(0.74205143,0,0,0.74205143,4.1938492,50.128818)"
       style="stroke-width:1.34761548">
      <g
         style="fill:#509bd4;fill-opacity:1;stroke-width:4.81727839"
         transform="matrix(4.5450694,0,0,4.5450694,24.336973,113.12634)"
         id="g244340"
         inkscape:export-filename="/home/duffy/Repositories/ChRIS_store_ui/src/assets/img/chris-plugin-store_logo.png"
         inkscape:export-xdpi="105.08642"
         inkscape:export-ydpi="105.08642">
        <path
           inkscape:connector-curvature="0"
           id="path244330"
           style="fill:#509bd4;fill-opacity:1;fill-rule:nonzero;stroke:none;stroke-width:0.00669067"
           d="m -2.6631705,-8.1974663 c -0.044549,-0.034651 -0.076743,-0.079422 -0.09663,-0.134287 -0.019925,-0.054784 -0.029849,-0.1138256 -0.029849,-0.177065 0,-0.058578 0.010129,-0.1155706 0.030341,-0.1710983 0.02026,-0.055528 0.052783,-0.1014355 0.097657,-0.1377361 0.044842,-0.036391 0.1016971,-0.054531 0.1704926,-0.054531 0.064058,0 0.1186946,0.0165 0.1638967,0.049444 0.045209,0.032996 0.077235,0.073004 0.096139,0.1201564 l -0.1376354,0.061515 c -0.019556,-0.028912 -0.038292,-0.050101 -0.056159,-0.063584 -0.01786,-0.013451 -0.03993,-0.020192 -0.066241,-0.020192 -0.04792,0 -0.082998,0.021754 -0.1052361,0.065125 -0.022274,0.043375 -0.033387,0.093713 -0.033387,0.1508999 0,0.035633 0.00506,0.06997 0.015154,0.1029131 0.010124,0.033002 0.025646,0.060027 0.046564,0.081298 0.020913,0.021189 0.046521,0.031789 0.076904,0.031789 0.02429,0 0.046031,-0.00797 0.065252,-0.023733 0.019227,-0.01585 0.037591,-0.038197 0.055127,-0.067104 l 0.1406449,0.052466 c -0.057311,0.1237897 -0.1443445,0.1857194 -0.261024,0.1857194 -0.070151,0 -0.1275101,-0.017326 -0.1720108,-0.051998" />
        <path
           inkscape:connector-curvature="0"
           id="path244332"
           style="fill:#509bd4;fill-opacity:1;fill-rule:nonzero;stroke:none;stroke-width:0.00669067"
           d="m -2.1452641,-8.862737 h 0.146733 v 0.2877974 c 0.033015,-0.039679 0.079909,-0.059559 0.1406436,-0.059559 0.047877,0 0.089709,0.015122 0.1254465,0.045418 0.035738,0.030306 0.053647,0.079432 0.053647,0.147349 v 0.2861639 H -1.8255271 V -8.383169 c 0,-0.038354 -0.00622,-0.06629 -0.018692,-0.083766 -0.012523,-0.01751 -0.033598,-0.026298 -0.063248,-0.026298 -0.060725,0 -0.091064,0.036063 -0.091064,0.1080216 v 0.2296444 h -0.146733 v -0.7071697" />
        <path
           inkscape:connector-curvature="0"
           id="path244334"
           style="fill:#509bd4;fill-opacity:1;fill-rule:nonzero;stroke:none;stroke-width:0.00669067"
           d="m -1.2386074,-8.5514787 c 0.028324,0 0.048711,-0.00773 0.061227,-0.023161 0.012475,-0.015537 0.018685,-0.035735 0.018685,-0.060632 0,-0.023484 -0.00621,-0.043197 -0.018685,-0.059046 -0.012516,-0.015769 -0.032903,-0.023664 -0.061227,-0.023664 h -0.1932533 v 0.1665031 z m -0.347069,-0.3118805 h 0.3450498 c 0.084988,0 0.1465338,0.02119 0.1846507,0.063584 0.038089,0.042379 0.057148,0.097233 0.057148,0.1645026 0,0.041732 -0.01148,0.082468 -0.034369,0.1221456 -0.022931,0.03976 -0.054313,0.067583 -0.094116,0.083766 l 0.1325592,0.2725352 h -0.1720037 l -0.128499,-0.2492756 h -0.1366037 v 0.2492756 h -0.1538157 v -0.7065337" />
        <path
           sodipodi:nodetypes="ccccc"
           inkscape:connector-curvature="0"
           id="path244336"
           style="fill:#509bd4;fill-opacity:1;fill-rule:nonzero;stroke:none;stroke-width:0.00669067"
           d="m -0.84573181,-8.1568254 v -0.7065337 h 0.14831802 v 0.7065337 h -0.14831802" />
        <path
           inkscape:connector-curvature="0"
           id="path244338"
           style="fill:#509bd4;fill-opacity:1;fill-rule:nonzero;stroke:none;stroke-width:0.00669067"
           d="m -0.50424041,-8.198447 c -0.0495686,-0.03672 -0.0851961,-0.087311 -0.10675754,-0.1519415 l 0.13758562,-0.051502 c 0.0162235,0.034339 0.0374667,0.061764 0.0637726,0.082295 0.0263198,0.020536 0.0553084,0.030803 0.0870075,0.030803 0.0330544,0 0.0590287,-0.00624 0.0779209,-0.018731 0.0188643,-0.01239 0.0283244,-0.030395 0.0283244,-0.05396 0,-0.022169 -0.0106082,-0.039344 -0.0318654,-0.051496 -0.0212433,-0.012072 -0.0554876,-0.025548 -0.10270516,-0.040325 -0.04925,-0.016184 -0.089013,-0.031455 -0.11939845,-0.045915 -0.0303438,-0.014457 -0.0566497,-0.035894 -0.0789306,-0.06416 -0.0222391,-0.028244 -0.033387,-0.065201 -0.033387,-0.1109587 0,-0.037028 0.009789,-0.070633 0.029348,-0.1009459 0.0195564,-0.030296 0.048047,-0.054352 0.0855138,-0.072179 0.0374249,-0.017822 0.0817656,-0.026709 0.13303534,-0.026709 0.0633992,0 0.11670164,0.016513 0.15985266,0.049444 0.0431925,0.032942 0.0718495,0.075327 0.08601168,0.1271576 l -0.13758562,0.044432 c -0.0222948,-0.050516 -0.0610611,-0.075735 -0.1163558,-0.075735 -0.0276612,0 -0.0489184,0.00494 -0.0637308,0.014625 -0.0148682,0.00978 -0.0222809,0.024057 -0.0222809,0.042956 0,0.016102 0.009271,0.029084 0.0278404,0.038849 0.0185188,0.00978 0.0494023,0.022008 0.092553,0.036812 0.0499281,0.016166 0.0912257,0.032101 0.12396257,0.047951 0.0326819,0.015768 0.0612274,0.038863 0.08549984,0.069155 0.02424459,0.030228 0.03640223,0.069572 0.03640223,0.1180235 0,0.044438 -0.01161792,0.083135 -0.03490854,0.1160619 -0.02326273,0.033018 -0.05479653,0.058082 -0.09457251,0.075246 -0.0398178,0.017158 -0.0846843,0.025699 -0.1345844,0.025699 -0.0688064,0 -0.12800101,-0.018322 -0.17756943,-0.054951" />
      </g>
      <path
         inkscape:connector-curvature="0"
         id="path243834"
         d="m 23.63097,59.72511 0.744524,2.360117 c 0.0105,-4.6e-4 0.02045,-0.0031 0.03099,-0.0031 0.390144,0 0.706476,0.316331 0.706476,0.706475 0,0.02642 -0.0049,0.05207 -0.0078,0.07772 l 3.463311,1.348512 c 0.12827,-0.178562 0.336169,-0.295758 0.572973,-0.295758 0.08407,0 0.16383,0.01655 0.238252,0.04369 l 1.609369,-2.302637 z m -0.364033,0.01165 -5.15967,1.86558 2.914432,2.1241 c 0.235458,-0.243586 0.563346,-0.395173 0.928547,-0.395173 0.361011,0 0.686842,0.148082 0.921538,0.386639 l 0.881939,-0.659918 c -0.03404,-0.08306 -0.0541,-0.17399 -0.0541,-0.269392 0,-0.25555 0.137414,-0.477647 0.340766,-0.60165 z m -5.503594,2.049577 -1.938578,2.375662 2.217267,0.882701 c 0.128778,-0.176022 0.335052,-0.291922 0.569824,-0.291922 0.268656,0 0.498907,0.151892 0.618744,0.372059 l 1.439392,-0.36101 c -0.005,-0.04572 -0.01397,-0.09093 -0.01397,-0.137922 0,-0.22352 0.06172,-0.43053 0.16129,-0.614071 z m 13.396814,0.242316 -1.489863,2.131848 c 0.09601,0.108966 0.156972,0.247396 0.171958,0.399821 l 1.169975,0.189738 c 0.07645,-0.17399 0.22098,-0.309474 0.399822,-0.376631 z m 0.369367,0.156718 0.230632,2.152041 c 0.336575,0.04902 0.595503,0.331978 0.603224,0.680059 l 1.535608,0.357175 z m -6.546251,1.008482 -7.72e-4,7.8e-4 c -0.08865,0.126492 -0.218948,0.220472 -0.370129,0.267131 l 0.07061,1.87955 c 0.318262,0.06858 0.557429,0.351434 0.557429,0.690194 0,0.08941 -0.01853,0.17399 -0.04902,0.252984 l 1.243736,0.885799 c 0.122682,-0.103886 0.27973,-0.17018 0.453365,-0.17018 0.0922,0 0.180594,0.01917 0.261035,0.05105 l 1.444041,-1.985137 c -0.09779,-0.121666 -0.158242,-0.273583 -0.158242,-0.440969 0,-0.0287 0.0053,-0.05537 0.0085,-0.08306 z m -1.017778,0.142748 -0.888162,0.66454 c 0.10287,0.185674 0.166878,0.396748 0.166878,0.624154 0,0.16002 -0.03277,0.312522 -0.08636,0.454203 l 0.860984,0.469722 c 0.08458,-0.09093 0.192278,-0.156718 0.314427,-0.193548 l -0.07061,-1.874875 c -0.11176,-0.02289 -0.211074,-0.07518 -0.297256,-0.144526 z m -8.123799,1.20876 1.356309,3.53086 1.550416,1.363268 -0.257632,-3.285533 c -0.332384,-0.0574 -0.585368,-0.345338 -0.585368,-0.694055 0,-0.03048 0.0048,-0.05994 0.0085,-0.08941 z m 13.947252,0.361011 c -0.108712,0.249936 -0.357581,0.425424 -0.647497,0.425424 -0.09601,0 -0.186182,-0.01917 -0.269392,-0.05334 l -1.440917,1.980464 c 0.101092,0.122428 0.164338,0.277037 0.164338,0.447954 0,0.08941 -0.01852,0.174752 -0.04902,0.253746 l 2.054251,1.461897 c 0.122682,-0.10414 0.27973,-0.169418 0.45339,-0.169418 0.125222,0 0.2413,0.03505 0.343814,0.0922 l 1.040308,-1.077595 c -0.06655,-0.107442 -0.106934,-0.232156 -0.106934,-0.367868 0,-0.296875 0.18415,-0.550672 0.443306,-0.655244 l -0.20117,-1.513865 C 31.24447,65.690849 30.987803,65.428492 30.95778,65.096438 Z m -9.039128,0.198374 -1.431595,0.35946 c -0.0017,0.307975 -0.20193,0.566446 -0.478282,0.661442 l 0.267868,3.418284 2.08374,-3.874016 c -0.196088,-0.142748 -0.350723,-0.336982 -0.441757,-0.565175 z m 11.532008,0.253746 c -0.07747,0.14859 -0.203962,0.265963 -0.360248,0.329311 l 0.200406,1.514652 c 0.102616,0.01221 0.198882,0.0447 0.282778,0.09601 l 1.581455,-1.544142 -1.703349,-0.39596 z m -9.291436,0.03023 c -0.235458,0.320522 -0.61209,0.531012 -1.040334,0.531012 -0.15875,0 -0.309092,-0.03226 -0.449529,-0.08458 l -2.176881,4.046378 2.330627,1.291844 2.305025,-0.373558 c 0.03226,-0.279705 0.225806,-0.507594 0.486766,-0.590017 l -0.0729,-3.492048 c -0.312522,-0.0729 -0.544983,-0.352603 -0.544983,-0.687044 0,-0.05994 0.0092,-0.117602 0.02332,-0.172974 z m 11.187303,0.669213 -1.529411,1.491361 c 0.05969,0.103886 0.09703,0.223012 0.09703,0.351054 0,0.309499 -0.200406,0.568757 -0.477469,0.66454 l 0.145796,1.814322 c 0.134366,0.02565 0.254254,0.09093 0.34953,0.180848 l 1.793367,-1.072947 z m -9.189738,0.510083 c -0.07645,0.06452 -0.166116,0.11303 -0.264821,0.140462 l 0.0729,3.478848 c 0.03099,0.0061 0.05994,0.01713 0.08941,0.02743 l 1.464996,-2.054251 c -0.103378,-0.122682 -0.167894,-0.280085 -0.167894,-0.45339 0,-0.08941 0.01775,-0.17399 0.04826,-0.252984 z m 2.354707,1.676908 c -0.122682,0.103886 -0.27973,0.167894 -0.453416,0.167894 -0.08966,0 -0.174752,-0.01761 -0.253746,-0.04826 l -1.456436,2.041805 c 0.113792,0.12573 0.18542,0.290779 0.18542,0.473608 0,0.06071 -0.01054,0.118618 -0.02504,0.174752 l 1.539468,0.845464 c 0.129286,-0.137668 0.311379,-0.224282 0.514731,-0.224282 0.143002,0 0.27587,0.0414 0.387376,0.114808 l 1.649755,-1.505331 c -0.05156,-0.09779 -0.08306,-0.206756 -0.08306,-0.325145 0,-0.08941 0.01869,-0.173482 0.04902,-0.252222 z m 4.348378,0.267132 -1.039571,1.074522 c 0.06782,0.108712 0.108712,0.23622 0.108712,0.373583 0,0.05156 -0.0059,0.101854 -0.0163,0.150114 l 1.003046,0.500761 c 0.08331,-0.09601 0.192024,-0.168148 0.315951,-0.207772 l -0.14529,-1.808131 c -0.08179,-0.01412 -0.156972,-0.04343 -0.226822,-0.08255 z m -1.104798,1.909089 c -0.12954,0.149352 -0.318618,0.24638 -0.5318,0.24638 -0.14478,0 -0.278943,-0.0442 -0.391312,-0.118618 l -1.647419,1.503782 c 0.05258,0.09906 0.08458,0.210312 0.08458,0.330098 0,0.101092 -0.02162,0.196596 -0.05994,0.283515 l 1.680058,0.972769 2.381046,-0.987526 -0.0085,-0.899795 c -0.299568,-0.08204 -0.520904,-0.352984 -0.520904,-0.678561 0,-0.05156 0.0059,-0.101854 0.0163,-0.150114 z m -5.414312,0.940943 c -0.02565,0.02769 -0.05359,0.05258 -0.08382,0.07569 l 1.604695,3.994354 h 1.850009 L 27.53591,73.073587 c -0.04572,0.0094 -0.09296,0.01475 -0.141986,0.01475 -0.390119,0 -0.706476,-0.316307 -0.706476,-0.706476 0,-0.06071 0.0097,-0.118618 0.02401,-0.174752 z"
         style="fill:url(#linearGradient243972);fill-opacity:1;fill-rule:nonzero;stroke:none;stroke-width:0.07142246" />
    </g>
    <rect
       style="opacity:0.71399997;fill:#f2f2f2;fill-opacity:1;stroke-width:0.26458332;stroke-miterlimit:4;stroke-dasharray:none"
       id="rect1537"
       width="59.80225"
       height="50.799999"
       x="12.722029"
       y="117.33354" />
    <rect
       y="202.00027"
       x="12.722029"
       height="50.799999"
       width="59.80225"
       id="rect1539"
       style="opacity:0.71399997;fill:#f2f2f2;fill-opacity:1;stroke-width:0.26458332;stroke-miterlimit:4;stroke-dasharray:none" />
    <rect
       y="117.33354"
       x="77.507797"
       height="50.799999"
       width="59.80225"
       id="rect1541"
       style="opacity:0.71399997;fill:#f2f2f2;fill-opacity:1;stroke-width:0.26458332;stroke-miterlimit:4;stroke-dasharray:none" />
    <rect
       style="opacity:0.71399997;fill:#f2f2f2;fill-opacity:1;stroke-width:0.26458332;stroke-miterlimit:4;stroke-dasharray:none"
       id="rect1543"
       width="59.80225"
       height="50.799999"
       x="77.507797"
       y="202.00027" />
    <rect
       style="opacity:0.71399997;fill:#f2f2f2;fill-opacity:1;stroke-width:0.26458332;stroke-miterlimit:4;stroke-dasharray:none"
       id="rect1545"
       width="59.80225"
       height="50.799999"
       x="142.29358"
       y="117.33354" />
    <rect
       y="202.00027"
       x="142.29358"
       height="50.799999"
       width="59.80225"
       id="rect1547"
       style="opacity:0.71399997;fill:#f2f2f2;fill-opacity:1;stroke-width:0.26458332;stroke-miterlimit:4;stroke-dasharray:none" />
    <rect
       y="117.33354"
       x="207.07941"
       height="50.799999"
       width="59.80225"
       id="rect1549"
       style="opacity:0.71399997;fill:#f2f2f2;fill-opacity:1;stroke-width:0.26458332;stroke-miterlimit:4;stroke-dasharray:none" />
    <rect
       style="opacity:0.71399997;fill:#f2f2f2;fill-opacity:1;stroke-width:0.26458332;stroke-miterlimit:4;stroke-dasharray:none"
       id="rect1551"
       width="59.80225"
       height="50.799999"
       x="207.07941"
       y="202.00027" />
  </g>
</svg>
