<?xml version="1.0" encoding="UTF-8" standalone="no"?>
<svg
   xmlns:dc="http://purl.org/dc/elements/1.1/"
   xmlns:cc="http://creativecommons.org/ns#"
   xmlns:rdf="http://www.w3.org/1999/02/22-rdf-syntax-ns#"
   xmlns:svg="http://www.w3.org/2000/svg"
   xmlns="http://www.w3.org/2000/svg"
   xmlns:xlink="http://www.w3.org/1999/xlink"
   xmlns:sodipodi="http://sodipodi.sourceforge.net/DTD/sodipodi-0.dtd"
   xmlns:inkscape="http://www.inkscape.org/namespaces/inkscape"
   version="1.1"
   id="svg97467"
   width="2000"
   height="1333"
   viewBox="0 0 2000 1333"
   sodipodi:docname="bkgd-chris-nodes-3.svg"
   inkscape:version="1.0.2 (e86c870879, 2021-01-15)"
   inkscape:export-filename="/home/duffy/SparkleShare/github.com/cube-design/_common-assets/bkgd-chris-nodes_no-logo.png"
   inkscape:export-xdpi="96"
   inkscape:export-ydpi="96">
  <metadata
     id="metadata97473">
    <rdf:RDF>
      <cc:Work
         rdf:about="">
        <dc:format>image/svg+xml</dc:format>
        <dc:type
           rdf:resource="http://purl.org/dc/dcmitype/StillImage" />
        <dc:title />
      </cc:Work>
    </rdf:RDF>
  </metadata>
  <defs
     id="defs97471">
    <linearGradient
       x1="0"
       y1="0"
       x2="1"
       y2="0"
       gradientUnits="userSpaceOnUse"
       gradientTransform="matrix(2873.01,0,0,-2873.01,699.055,1444.61)"
       spreadMethod="pad"
       id="linearGradient161468">
      <stop
         style="stop-opacity:1;stop-color:#3a7cc7"
         offset="0"
         id="stop161464" />
      <stop
         style="stop-opacity:1;stop-color:#7ad4ed"
         offset="1"
         id="stop161466" />
    </linearGradient>
    <linearGradient
       inkscape:collect="always"
       xlink:href="#linearGradient161468"
       id="linearGradient97728"
       gradientUnits="userSpaceOnUse"
       gradientTransform="matrix(72.95139,0,0,72.95139,709.28536,1156.7155)"
       x1="0"
       y1="0"
       x2="1"
       y2="0"
       spreadMethod="pad" />
    <linearGradient
       inkscape:collect="always"
       xlink:href="#linearGradient161468"
       id="linearGradient98304"
       x1="-399.24905"
       y1="142.67834"
       x2="1600.7509"
       y2="142.67834"
       gradientUnits="userSpaceOnUse"
       gradientTransform="matrix(1.001001,0,0,1.0067618,-0.60134192,2.5352281)" />
  </defs>
  <sodipodi:namedview
     pagecolor="#ffffff"
     bordercolor="#666666"
     borderopacity="1"
     objecttolerance="10"
     gridtolerance="10"
     guidetolerance="10"
     inkscape:pageopacity="0"
     inkscape:pageshadow="2"
     inkscape:window-width="2560"
     inkscape:window-height="1369"
     id="namedview97469"
     showgrid="false"
     fit-margin-top="0"
     fit-margin-left="0"
     fit-margin-right="0"
     fit-margin-bottom="0"
     inkscape:zoom="1.598"
     inkscape:cx="523.75359"
     inkscape:cy="1033.4253"
     inkscape:window-x="2560"
     inkscape:window-y="34"
     inkscape:window-maximized="1"
     inkscape:current-layer="g97475"
     inkscape:document-rotation="0" />
  <g
     inkscape:groupmode="layer"
     inkscape:label="Image"
     id="g97475"
     transform="translate(399.24905,523.82166)">
    <rect
       style="fill:url(#linearGradient98304);fill-opacity:1;stroke:none;stroke-width:2;stroke-linecap:round;stroke-linejoin:round"
       id="rect97479"
       width="2000"
       height="1340"
       x="-399.24905"
       y="-523.82166" />
    <path
       id="rect7139"
       style="fill:#ffffff;fill-opacity:0.113211;stroke:none;stroke-width:2;stroke-linecap:round;stroke-linejoin:round"
       d="m -399.24905,-523.82166 v 76.36523 l 65.25,14.60352 c 6.01671,-13.4029 19.46995,-22.74259 35.11328,-22.74219 5.99878,10e-5 11.6758,1.37377 16.73633,3.82227 l 128.02344,-54.99219 c 0.60856,-6.24465 2.71535,-12.0479 5.94726,-17.05664 z m 315.75977,0 c 3.87595,6.00527 6.13454,13.15302 6.13476,20.83203 4e-5,1.6367 -0.1142,3.24513 -0.3125,4.82813 l 234.83008,67.90429 c 5.52052,-14.488 19.53468,-24.78465 35.96094,-24.78515 9.55099,-2e-4 18.28269,3.48744 25.00976,9.24804 l 73.03516,-78.02734 z m 395.20507,0 -84.21484,89.97266 c 2.61942,5.1985 4.10334,11.06675 4.10352,17.28515 1.1e-4,4.5887 -0.80591,8.98766 -2.2793,13.06836 l 148.0957,106.28321 c 12.32892,-18.7404 33.48154,-31.16828 57.57813,-31.32618 0.15169,-5e-4 0.30339,-5e-4 0.45507,0 17.16677,0 32.86768,6.24371 44.98633,16.56641 l 49.90235,-34.74023 c -0.25479,-1.78871 -0.39457,-3.61561 -0.39453,-5.47461 1.9e-4,-7.5697 2.19578,-14.62232 5.9707,-20.57422 l -92.06445,-151.06055 z m 149.70508,0 85.25977,139.89648 c 6.18786,-4.248 13.67527,-6.74033 21.74804,-6.74023 14.21322,5e-4 26.6181,7.71358 33.28127,19.17578 l 265.918,-43.46094 c 1.3574,-14.2187 10.4497,-26.17609 23.0234,-31.62109 l -8.7168,-40.88477 c -13.4773,-5.9858 -22.8812,-19.47848 -22.8809,-35.17578 0,-0.39887 0.0192,-0.7935 0.0313,-1.18945 z m 474.56248,0 c 0.0122,0.39587 0.0293,0.7906 0.0293,1.18945 5e-4,21.1042 -16.9909,38.23155 -38.039,38.46875 l 7.3457,34.44922 c 0.2029,-0.003 0.4037,-0.0156 0.6074,-0.0156 9.6184,3e-4 18.4048,3.53904 25.1504,9.37304 l 110.03715,-83.46484 z m 129.95125,0 -125.63095,95.29102 c 1.8544,3.6818 3.1355,7.6999 3.7246,11.9414 l 172.48445,-23.0625 c 2.4708,-9.8515 8.7383,-18.19366 17.1582,-23.38476 l -13.0411,-60.78516 z m 70.0352,0 11.914,55.53906 c 1.94,-0.3012 3.9267,-0.45908 5.9512,-0.45898 12.7982,3e-4 24.1295,6.25469 31.125,15.86719 l 135.1875,-51.4668 -0.055,-1.4375 -39.9081,-18.04297 z m 180.6269,0 2.8379,1.2832 -0.051,-1.2832 z m 5.7773,0 32.3731,17.24805 6.1387,2.77539 -0.5431,0.20703 112.7988,60.0957 c 7.0122,-7.3889 16.9197,-12.0042 27.9103,-12.0039 12.1558,3e-4 22.9874,5.64291 30.0389,14.44531 l 69.6603,-61.66992 v -21.09766 h -5.8125 z m 19.3614,27.3125 -6.1758,2.35352 7.2363,184.19531 c 6.5293,1.1375 12.4915,3.91624 17.4472,7.90234 l 105.3087,-100.08984 c -1.919,-4.5751 -2.9803,-9.5991 -2.9805,-14.8711 -10e-5,-4.8492 0.904,-9.48441 2.541,-13.75781 z m -1494.18757,5.34961 -116.40235,50.00195 c 5.28049,6.5877 8.44746,14.94337 8.44727,24.04297 0,0.2437 -0.0145,0.48396 -0.0195,0.72656 l 193.13281,43.22266 c 4.96657,-15.5053 19.49222,-26.73282 36.64648,-26.73242 14.3938,4e-4 26.93206,7.90948 33.53125,19.61328 l 149.88867,-35.62695 -235.18945,-68.00977 c -6.62915,11.5928 -19.10507,19.41171 -33.41601,19.41211 -17.12383,4e-4 -31.62752,-11.18769 -36.61914,-26.65039 z m 1473.22067,2.63281 -129.5137,49.30469 c 0.6863,2.8757 1.0586,5.87318 1.0587,8.95898 2e-4,7.8016 -2.3283,15.05524 -6.3184,21.11914 l 121.877,110.99219 c 5.2263,-5.6625 12.1298,-9.7446 19.9238,-11.4707 z m 279.9825,5.83399 -62.6095,55.42773 c 0.8993,3.2629 1.389,6.69544 1.3887,10.24414 -4e-4,21.2508 -17.2277,38.47792 -38.4784,38.47852 h -0.047 l -15.0371,147.66015 c 17.3687,1.1401 31.5895,13.79701 35.0919,30.41211 l 79.6914,-19.82031 z m -2000.00005,50.60742 v 285.60742 c 1.27416,-0.12736 2.56534,-0.19534 3.87305,-0.19531 7.80429,-1e-4 15.0618,2.32966 21.12695,6.32226 l 168.69922,-61.68164 c 0.43005,-6.8143 2.63151,-13.14416 6.15234,-18.53906 l -102.39453,-158.18555 c -19.89241,-1.4869 -35.57365,-18.08472 -35.57422,-38.35742 0,-0.374 0.0187,-0.74383 0.0293,-1.11523 z m 1515.04495,7.66406 -172.68755,23.08789 c -3.5313,13.2742 -13.9764,23.72422 -27.248,27.26172 l 27.8847,101.81641 c 4.0352,-1.4368 8.3779,-2.22637 12.9063,-2.22657 6.2612,-10e-5 12.1675,1.50521 17.3926,4.15821 l 143.68745,-146.59961 c -0.8856,-2.3963 -1.5404,-4.90435 -1.9355,-7.49805 z m 10.0956,20.59961 -139.99015,142.83203 c 5.7502,6.7244 9.2307,15.44688 9.2305,24.98828 -10e-5,1.6074 -0.1113,3.18844 -0.3028,4.74414 l 70.48055,12.32422 c 4.9268,-15.5715 19.4865,-26.86083 36.6875,-26.86133 14.2644,-3e-4 26.7074,7.76678 33.3535,19.29688 l 163.002,-38.3711 c -0.4413,-2.33169 -0.6816,-4.73521 -0.6817,-7.19531 -2e-4,-4.5734 0.8016,-8.95824 2.2656,-13.02734 L 1175.4698,-398.4408 c -6.1653,4.2001 -13.6122,6.6579 -21.6348,6.6582 -11.0082,2e-4 -20.9294,-4.62946 -27.9435,-12.03906 z m -1389.50578,2.08984 c -4.15388,9.5097 -12.03562,17.01492 -21.80274,20.66602 l 96.80078,149.54687 c 6.13055,-4.126 13.51358,-6.53535 21.45899,-6.53515 5.16446,1e-4 10.08823,1.02559 14.58789,2.87109 l 84.78125,-116.16797 c -0.59575,-2.2029 -0.99787,-4.48342 -1.19336,-6.82422 z m 421.25781,0.082 -150.0918,35.67382 c 0.17673,1.4963 0.27934,3.0148 0.2793,4.5586 -2.7e-4,9.4472 -3.41131,18.09421 -9.06055,24.79101 l 39.78711,27.58594 c 6.56113,-5.1984 14.85001,-8.31075 23.87109,-8.31055 21.25163,6e-4 38.47903,17.22887 38.47852,38.48047 -7e-5,2.3103 -0.21516,4.56928 -0.60547,6.76758 l 102.72656,43.97266 c 4.03949,-7.2938 10.37832,-13.12957 18.03907,-16.54297 l -25.36914,-133.50391 c -0.85176,0.057 -1.70821,0.0937 -2.57422,0.0937 -15.96321,-5e-4 -29.65446,-9.72151 -35.48047,-23.5664 z m 711.48042,1.65624 -262.539,42.90626 c 0.2043,1.60609 0.3222,3.23879 0.3222,4.90039 10e-5,0.6241 -0.0175,1.24442 -0.0468,1.86132 l 178.4394,76.20703 c 6.3484,-8.3795 16.0487,-14.0745 27.1055,-15.0957 l 57.1328,-109.52344 c -0.1432,-0.4165 -0.2849,-0.83306 -0.4141,-1.25586 z m -647.58394,9.375 c -3.19571,3.498 -7.03183,6.39725 -11.31836,8.52735 l 25.48633,134.11914 c 0.33263,-0.008 0.66337,-0.0254 0.99805,-0.0254 16.54549,-4e-4 30.64918,10.44406 36.08594,25.09766 l 94.32617,-23.99024 c -0.70506,-3.9688 -1.09376,-8.04735 -1.09375,-12.21875 -2e-4,-8.66 1.60008,-16.9444 4.49804,-24.5918 z m 1252.55479,1.04883 -104.1896,99.02735 c 3.0097,5.4856 4.725,11.78187 4.7246,18.48047 -4e-4,20.5297 -16.0791,37.30051 -36.33,38.41601 l -8.7168,182.10352 c 0.1079,0 0.2141,-0.01 0.3222,-0.01 5.2066,2e-4 10.168,1.03996 14.6974,2.91406 l 106.6718,-122.70312 c -4.0045,-6.0711 -6.342,-13.33935 -6.3418,-21.15625 5e-4,-16.7878 10.7556,-31.056 25.748,-36.3125 l 15.5488,-152.69336 c -4.5564,-1.9037 -8.6653,-4.65911 -12.1346,-8.06641 z m -595.32825,5.57617 -50.4199,96.64844 c 13.5021,4.5789 23.6368,16.44097 25.7188,30.91406 l 65.0976,11.76954 c 1.7486,-7.5992 5.7418,-14.33627 11.252,-19.47657 l -29.8555,-109.01367 c -8.4537,-1.1804 -16.0297,-5.09889 -21.793,-10.8418 z m -938.77927,47.43165 -80.04297,109.67773 c 7.02478,6.9717 11.37718,16.63165 11.37695,27.31055 -1.1e-4,4.5311 -0.7901,8.87686 -2.22851,12.91406 L 7.22361,-92.23186 c 6.45663,-9.1768 16.81722,-15.39876 28.67187,-16.25586 l 11.53125,-134.93945 c -13.79812,-5.8469 -23.47806,-19.51396 -23.47851,-35.44336 -1.7e-4,-6.7846 1.7618,-13.15465 4.84375,-18.68945 l -42.36524,-29.375 c -5.14591,2.5531 -10.94034,3.99589 -17.07422,3.99609 -11.77381,3e-4 -22.30665,-5.29284 -29.36523,-13.62304 z m 663.16797,0.96484 c -6.19547,12.9473 -19.4154,21.89022 -34.72657,21.89062 -2.33781,1e-4 -4.62284,-0.21984 -6.8457,-0.61914 l 0.24219,90.42188 c 3.6366,-1.1393 7.50528,-1.75596 11.51758,-1.75586 21.25084,6e-4 38.4779,17.22772 38.4785,38.47851 2e-4,8.85391 -2.9979,17.00356 -8.0234,23.50586 l 73.6797,44.0254 c 6.6772,-9.45271 17.5017,-15.76084 29.83,-16.26954 l 72.8438,-100.97265 c -1.7003,-4.3439 -2.6444,-9.06727 -2.6445,-14.01367 -10e-5,-3.3512 0.4294,-6.60178 1.2343,-9.70118 z m -67.54883,3.49805 -44.74805,31.15234 c 8.8002,11.6354 14.02542,26.12479 14.02539,41.83789 2e-5,11.5065 -2.81514,22.3491 -7.76953,31.9043 l 40.89453,24.77343 c 2.07462,-4.7997 5.10142,-9.08797 8.83789,-12.63867 l -0.28125,-105.45507 c -4.40876,-3.05 -8.14979,-6.99412 -10.95898,-11.57422 z m -440.77539,73.9707 v 0.004 c -6.84085,10.664 -18.79211,17.73592 -32.40235,17.73632 -0.06943,0 -0.13768,-0.009 -0.20703,-0.01 l -11.42773,133.74609 c 7.48204,2.4745 13.94723,7.17407 18.60547,13.32617 l 132.28515,-100.25586 c -2.21371,-4.8569 -3.45687,-10.24964 -3.45703,-15.93554 -3e-5,-1.4374 0.0867,-2.8535 0.24024,-4.25 z m 1209.24797,7.32422 -163.9238,38.58398 c 0.2048,1.6073 0.3222,3.2413 0.3224,4.9043 0,6.1267 -1.4393,11.91514 -3.9865,17.05664 l 51.7228,26.98828 c 6.9826,-9.7314 18.3842,-16.07782 31.2754,-16.07812 21.2516,-5e-4 38.4797,17.22691 38.4805,38.47851 10e-5,12.4607 -5.9277,23.53196 -15.1114,30.56445 l 58.7305,71.1836 c 3.5708,-3.8794 7.9305,-7.01688 12.8223,-9.17188 l 8.9726,-187.46875 c -7.9572,-2.7986 -14.7163,-8.13361 -19.3048,-15.04101 z m -450.81435,9.46875 c -4.2546,16.6209 -19.3304,28.9077 -37.2774,28.9082 -10.5239,3e-4 -20.0568,-4.22832 -27.0039,-11.07422 l -65.2773,90.48828 c 11.2322,4.6797 19.7621,14.53023 22.6347,26.57813 l 183.7891,10.88086 c 1.9236,-5.5621 5.0778,-10.5503 9.1504,-14.625 l 0.1582,-91.41016 c -10.7502,-5.388 -18.6203,-15.6592 -20.707,-27.9082 z m -481.94143,8.85156 -96.17579,24.46484 c -0.63436,16.5361 -11.69437,30.39665 -26.80078,35.18555 l 14.52149,163.38867 c 2.71804,-1.353 5.61788,-2.39212 8.65429,-3.07422 l 111.45508,-201.1582 c -4.8242,-5.5674 -8.78389,-11.90064 -11.65429,-18.80664 z m 618.70893,15.61523 c -6.639,11.5571 -19.0963,19.34611 -33.3808,19.34571 -0.7451,0 -1.4841,-0.0264 -2.2188,-0.0684 l -0.1367,78.12109 c 3.8353,-1.2818 7.9348,-1.98643 12.2012,-1.98633 3.8951,10e-5 7.6538,0.58386 11.1973,1.66016 l 87.09955,-77.67969 c -0.5555,-2.1065 -0.9321,-4.28402 -1.123,-6.51562 l -39.1915,-6.85352 z m -501.21675,2.17188 c -8.27548,9.9321 -19.27368,17.50636 -31.8457,21.60156 l 99.63477,206.13672 -9.68555,-172.26172 c -7.33282,-6.9323 -11.93967,-16.71212 -12.04688,-27.57422 z m 1111.9356,9.86523 -79.5879,19.79297 c -2.8941,14.7324 -14.1929,26.44261 -28.6992,29.94141 l 0.6738,184.02734 c 13.087,6.1428 22.1526,19.43426 22.1524,34.84766 0,0.6248 -0.017,1.24578 -0.047,1.86328 L 1600.751,96.0533 Z M 394.3154,-203.18693 288.64548,-12.476 c 17.0814,3.9289 29.82271,19.21819 29.82227,37.49219 0,0.2574 -0.0145,0.51138 -0.0195,0.76758 l 224.21093,30.29297 c 1.93222,-6.3469 5.46403,-11.99217 10.1211,-16.48047 L 441.81348,-189.9799 c -2.09547,0.1904 -4.21429,0.30078 -6.35938,0.30078 -15.40074,0 -29.62381,-5.02271 -41.13867,-13.50781 z m -597.78125,16.36132 -159.28125,58.24024 c 3.70373,5.9135 5.85175,12.90038 5.85157,20.39258 -4.5e-4,15.9973 -9.76417,29.71092 -23.65625,35.51562 l 73.51757,116.13281 c 6.53355,-5.117 14.75694,-8.17558 23.69922,-8.17578 7.20732,-2e-4 13.94812,1.9858 19.71485,5.4336 L 0.26657,-68.60096 c -0.01963,-0.5047 -0.03904,-1.01003 -0.03906,-1.51953 -6e-5,-2.7903 0.30315,-5.50916 0.86719,-8.13086 l -139.7168,-95.51172 c -7.04081,7.7795 -17.21622,12.66757 -28.53515,12.66797 -16.7822,4e-4 -31.047,-10.74617 -36.3086,-25.73047 z m 1275.19925,3.25782 -80.11725,71.45507 c 8.1771,7.0565 13.35965,17.48832 13.35935,29.13672 -6e-4,21.2508 -17.22765,38.47792 -38.47845,38.47852 -12.6794,3e-4 -23.9249,-6.13315 -30.9356,-15.59375 l -51.2968,50.86914 c 10.8045,6.8133 17.9879,18.8453 17.9883,32.5625 10e-5,4.4659 -0.7691,8.75028 -2.168,12.73828 l 56.1562,27.8125 c 6.7955,-10.8916 18.8788,-18.14423 32.6621,-18.14453 14.10945,-4e-4 26.43855,7.59847 33.13675,18.92187 l 80.8321,-25.7207 c 0,-0.2257 -0.018,-0.44918 -0.018,-0.67578 7e-4,-19.646 14.7279,-35.84123 33.7423,-38.17773 l 48.5839,-123.54883 c -2.6603,-5.2306 -4.17,-11.14572 -4.1698,-17.41602 10e-5,-2.9999 0.3542,-5.9144 1.0039,-8.71679 l -54.8615,-28.62305 c -6.7464,5.8365 -15.5351,9.3753 -25.1561,9.375 -12.287,-3e-4 -23.2189,-5.76662 -30.2637,-14.73242 z m -861.28518,2.16601 -134.42383,101.87891 c 0.7558,3.0095 1.16218,6.15834 1.16211,9.40234 0,0.1238 -0.0086,0.24564 -0.0098,0.36914 L 243.831,11.82088 c 1.23717,-3.3892 2.94474,-6.55087 5.03125,-9.41797 l -15.42969,-173.58984 c -8.85622,-0.7471 -16.85566,-4.48835 -22.98437,-10.21485 z m 1251.39068,20.77149 -104.672,120.40234 c 6.9319,6.9589 11.2165,16.5563 11.2169,27.1543 2e-4,6.6499 -1.6872,12.90588 -4.6562,18.36328 l 82.705,34.88476 c 7.0408,-9.0487 18.0257,-14.87725 30.3789,-14.87695 0.4402,0 0.876,0.0182 1.3125,0.0332 l -0.6601,-179.80664 c -5.723,-0.8883 -11.0292,-3.03679 -15.625,-6.15429 z m -870.07233,7.23828 c -5.47177,2.9901 -11.74893,4.6912 -18.42382,4.6914 -3.78672,1e-4 -7.44191,-0.55697 -10.89844,-1.57617 l 10.10547,179.72856 c 2.24721,-0.4085 4.55875,-0.63282 6.92383,-0.63282 2.4119,1.1e-4 4.7677,0.23166 7.05664,0.65626 l 85.3418,-116.56641 c -0.9253,-3.306 -1.4315,-6.78727 -1.4316,-10.38867 -1e-4,-2.8689 0.3225,-5.66177 0.9179,-8.35157 z m 604.35943,43.08984 -43.9121,111.66602 c 15.9514,4.6948 27.5992,19.4366 27.5996,36.9082 5e-4,21.2523 -17.2282,38.48097 -38.4805,38.48047 -15.7742,-4e-4 -29.3233,-9.49638 -35.2636,-23.08008 L 1026.999,78.8326 c 0.2475,1.7638 0.3849,3.56243 0.3848,5.39453 -2e-4,6.7065 -1.7198,13.01 -4.7363,18.5 l 142.9569,74.3164 c 6.786,-10.9373 18.8971,-18.2242 32.715,-18.22461 1.8421,1e-5 3.6508,0.13838 5.4237,0.38868 L 1299.0694,9.94978 c -4.8014,-6.4203 -7.6448,-14.38963 -7.6446,-23.02343 0,-4.3155 0.721,-8.46099 2.0312,-12.33399 l -64.4862,-78.16211 c -3.0333,0.7684 -6.2087,1.17979 -9.4805,1.17969 -8.7889,-2e-4 -16.8849,-2.95281 -23.3633,-7.91211 z m -449.21295,18.92578 c -0.9905,6.2115 -3.4655,11.92759 -7.0527,16.77149 l 94.3847,73.27929 c 7.0588,-8.4408 17.6654,-13.8128 29.5293,-13.8125 1.6401,0 3.2519,0.11536 4.8379,0.31446 l 60.3184,-59.81836 c -0.4311,-1.9514 -0.7155,-3.95752 -0.8379,-6.00781 z m -67.1855,18.94922 -78.8731,107.73242 c 10.3089,6.9032 17.0973,18.65379 17.0977,31.99219 2e-4,7.6978 -2.2691,14.8606 -6.1621,20.875 l 79.6562,51.04492 c 4.2197,-16.6723 19.3188,-29.01016 37.3027,-29.00976 7.0616,2e-4 13.6729,1.91242 19.3614,5.23242 l 77.623,-86.26758 c -0.2892,-1.9021 -0.4395,-3.84903 -0.4394,-5.83203 10e-5,-3.9356 0.5935,-7.73289 1.6914,-11.30859 l -98.4297,-76.42188 c -5.7495,3.4192 -12.4619,5.38887 -19.6367,5.38867 -11.6791,-3e-4 -22.1346,-5.21078 -29.1914,-13.42578 z m -1078.9766,2.49609 v 214.4336 l 80.45703,-55.77344 c -1.9452,-4.6015 -3.02133,-9.65885 -3.02148,-14.96875 -3e-5,-1.4548 0.0889,-2.88778 0.24609,-4.30078 l -3.33789,-3.36133 4.25781,-1.76367 c 0.78783,-3.1288 1.95762,-6.10555 3.45899,-8.87695 l -79.25782,-125.19922 c -0.94432,-0.0258 -1.87657,-0.0968 -2.80273,-0.18946 z m 473.18359,15.29102 c -4.42731,10.0586 -13.02912,17.86334 -23.61718,21.21094 L 73.4072,127.61193 c 11.43922,0.4114 21.60505,5.8079 28.38477,14.0918 L 242.89939,35.26623 c -0.69489,-2.5195 -1.13965,-5.14144 -1.30664,-7.83984 z M 3.83884,-53.8451 -251.61819,51.97717 c 4.26237,6.1945 6.76384,13.6955 6.76367,21.7832 -3.9e-4,13.972 -7.44865,26.20256 -18.58984,32.94336 l 96.52148,97.20117 c 3.83818,-2.9655 8.24951,-5.21931 13.04297,-6.57031 L 8.40134,-46.42518 c -1.78631,-2.2813 -3.3219,-4.76702 -4.5625,-7.41992 z m 16.02344,17.26953 -155.31055,233.29297 c 8.02663,1.692 15.13031,5.88281 20.45899,11.72461 L 34.249,173.50451 c -0.47277,-2.4099 -0.72649,-4.89886 -0.72657,-7.44726 -3.9e-4,-16.5359 10.43208,-30.63248 25.07227,-36.07618 L 35.39743,-31.79432 c -5.60849,-0.4782 -10.87219,-2.15615 -15.53515,-4.78125 z M 1353.5439,17.27795 c -6.5238,5.0887 -14.7239,8.12871 -23.6387,8.12891 -7.125,2e-4 -13.7927,-1.94306 -19.5155,-5.31836 l -92.1466,144.2832 c 3.3314,2.02 6.3258,4.53725 8.8946,7.43945 l 213.459,-95.00781 c -1.4637,-4.0684 -2.2654,-8.45289 -2.2657,-13.02539 0,-3.5196 0.4822,-6.92506 1.3673,-10.16406 z M 315.22165,40.48498 c -4.93781,11.2288 -15.07849,19.65298 -27.375,22.20508 l 51.58399,77.0625 c 6.54176,-5.1413 14.78425,-8.2165 23.75,-8.2168 9.84407,-2e-4 18.81991,3.70075 25.625,9.78125 L 541.29783,72.06896 c -0.0437,-0.35219 -0.089,-0.70349 -0.12305,-1.05859 z m 516.6172,4.32813 -72.4863,80.55859 c 4.937,6.4707 7.8752,14.54891 7.875,23.31641 -2e-4,7.2615 -2.0136,14.05255 -5.5098,19.84765 l 88.4434,46.94141 c 6.0844,-13.2347 19.45,-22.42929 34.9707,-22.42969 3.8276,0 7.5222,0.56682 11.0117,1.60742 l 59.0332,-91.89844 c -3.0263,-5.4967 -4.7518,-11.81119 -4.752,-18.52929 0,-2.1208 0.1778,-4.19896 0.5078,-6.22656 l -58.5097,-28.97852 c -7.0448,7.854 -17.2674,12.79853 -28.6485,12.79883 -13.3009,3e-4 -25.024,-6.74821 -31.9355,-17.00781 z M 249.79392,48.85607 108.89939,155.13342 c 1.02383,3.4637 1.58212,7.12813 1.58203,10.92383 -1.9e-4,6.6706 -1.699,12.94476 -4.68555,18.41406 l 83.76367,72.33008 135.32032,-83.14453 c -0.11264,-1.1991 -0.1777,-2.41203 -0.17774,-3.64063 -1.6e-4,-6.6458 1.68478,-12.89851 4.65039,-18.35351 L 269.32712,61.98693 c -7.82043,-2.2512 -14.61538,-6.91096 -19.5332,-13.13086 z M 1511.585,80.26037 c -6.1746,13.0028 -19.4219,21.99579 -34.7735,21.99609 -3.9753,10e-5 -7.8105,-0.60355 -11.418,-1.72265 l -14.9316,74.23047 c 17.942,3.2655 31.5492,18.9613 31.5489,37.8457 -10e-5,2.0417 -0.1623,4.0444 -0.4689,6 l 119.2091,31.88867 V 111.97326 Z m -965.5235,6.11719 -148.06641,67.24023 c 2.34751,4.9753 3.66616,10.53224 3.66602,16.39844 -2.4e-4,8.5048 -2.76532,16.36087 -7.4375,22.73047 l 95.64843,73.23242 c 7.00497,-9.517 18.2806,-15.69686 31.00391,-15.69726 8.02705,-2e-4 15.47705,2.45996 21.64453,6.66406 L 684.32125,152.46545 601.09275,99.13146 c -6.16215,4.19341 -13.60353,6.64629 -21.61914,6.64649 -14.30679,3e-4 -26.78089,-7.81359 -33.41211,-19.40039 z m 902.3516,3.36328 -213.6837,95.10742 c 1.335,3.9054 2.0703,8.08957 2.0704,12.44727 4e-4,14.7643 -8.319,27.57845 -20.5216,34.03125 l 116.8302,205.52344 h 0.1035 c 2.743,-10e-5 5.4175,0.29229 7.9981,0.83789 l 76.3652,-196.67579 c -7.6945,-7.0357 -12.5232,-17.15444 -12.5234,-28.40234 -5e-4,-18.3555 12.8543,-33.70062 30.0508,-37.54492 l 16.5332,-82.20117 c -1.1319,-0.9805 -2.2122,-2.01845 -3.2227,-3.12305 z m -1758.77934,11.39648 -88.88281,61.61524 v 247.71289 l 2.01953,1.47851 c 6.91723,-10.2228 18.61994,-16.9417 31.89258,-16.9414 6.53413,2e-4 12.68473,1.63421 18.07422,4.50781 L -180.1885,245.75256 c -0.63035,-2.0374 -1.08571,-4.15176 -1.3711,-6.31836 l -0.41211,0.0957 0.35547,-0.53515 c -0.18231,-1.5189 -0.28706,-3.06091 -0.28711,-4.62891 -1.6e-4,-6.965 1.8597,-13.49105 5.09571,-19.12695 L -279.29788,112.026 c -1.32731,0.1388 -2.67316,0.21299 -4.03711,0.21289 -10.5375,-3e-4 -20.08218,-4.23967 -27.03125,-11.10157 z m 1323.05854,13.32032 c -6.5483,5.1596 -14.80525,8.24834 -23.78905,8.24804 -8.8703,-2e-4 -17.033,-3.00983 -23.541,-8.05273 l -55.9199,87.05078 c 6.1329,5.0049 10.6872,11.8628 12.8203,19.7207 l 237.80865,-28.31445 c 0.069,-0.6396 0.1536,-1.2744 0.2539,-1.9043 z M 693.56935,164.28186 553.11814,267.76818 c 1.62888,2.4965 2.97845,5.19017 3.99804,8.04297 l 289.55857,-43.42773 c -0.006,-0.286 -0.0215,-0.56992 -0.0215,-0.85742 1e-4,-0.3079 0.0165,-0.61187 0.0235,-0.91797 l -95.4824,-50.67578 c -6.3188,4.5475 -14.066,7.23417 -22.4454,7.23437 -15.6989,4e-4 -29.1948,-9.40506 -35.1796,-22.88476 z m -653.49223,23.25976 -147.07226,34.4336 c 1.32254,3.8894 2.05088,8.05392 2.05078,12.39062 -6e-4,21.2508 -17.22767,38.47792 -38.47852,38.47852 -11.74594,3e-4 -22.25615,-5.26836 -29.31445,-13.56446 l -162.81641,149.84375 c 3.69858,4.5172 6.38346,9.8919 7.72461,15.7793 l 147.4043,1.96875 c 3.43044,-17.7356 19.03195,-31.13221 37.76953,-31.13281 2.75265,0 5.43644,0.29445 8.02539,0.84375 L 47.62986,195.83068 c -2.90173,-2.3779 -5.44976,-5.17046 -7.55274,-8.28906 z m 289.33594,0.9336 -127.94141,78.61132 73.9043,63.8125 c 5.87836,-6.8142 14.09938,-11.54975 23.41797,-12.93945 l 34.82617,-123.31445 c -1.59238,-1.9092 -3.00407,-3.97392 -4.20703,-6.16992 z m -233.23633,7.50976 c -6.38991,5.1678 -14.46593,8.32454 -23.27539,8.52734 L 58.05759,323.61584 c 5.37328,0.5823 10.41149,2.27374 14.88867,4.83594 l 103.20313,-63.41211 z m 286.79102,7.03516 c -5.78227,3.4739 -12.55035,5.47481 -19.78711,5.47461 -6.02284,-2e-4 -11.72102,-1.38652 -16.79688,-3.85352 L 314.1572,318.75061 c 11.75596,3.0329 21.33011,11.48545 25.91211,22.53125 l 142.4707,-49.33008 c -0.0866,-1.0535 -0.1426,-2.11551 -0.14258,-3.19141 9e-5,-3.0385 0.36342,-5.99077 1.0293,-8.82617 z m -325.53516,4.32812 -177.61914,195.64063 c 2.99614,2.1594 5.66827,4.73659 7.93164,7.65039 L 15.56345,358.23107 c 1.47826,-15.7793 12.48064,-28.78544 27.20312,-33.21484 z m 1103.94541,0.71289 -238.08605,28.34766 c -1.8963,14.9625 -12.3752,27.24184 -26.3555,31.74414 l 29.4395,108.40039 c 3.5631,-1.0895 7.3439,-1.67959 11.2637,-1.67969 10.976,-2e-4 20.8705,4.60291 27.8808,11.97461 l 117.04895,-49.08984 c 2.1236,-17.661 16.2014,-31.63911 33.912,-33.59961 l 50.1934,-84.97656 c -2.3269,-3.3583 -4.1282,-7.1032 -5.2968,-11.1211 z m 16.4238,21.78321 -44.9141,76.03515 c 15.3071,5.0816 26.352,19.50468 26.3516,36.51758 -2e-4,6.0585 -1.4038,11.78812 -3.8986,16.88672 l 144.9512,96.11523 c 4.0785,-6.7219 10.1605,-12.08841 17.4141,-15.28711 L 1201.4776,235.63732 c -1.0429,0.0846 -2.0936,0.14063 -3.1582,0.14063 -7.5455,-2e-4 -14.5778,-2.18089 -20.5176,-5.93359 z m 298.5234,2.89843 c -6.7716,11.0057 -18.9249,18.34601 -32.795,18.34571 -4.5303,-2e-4 -8.8752,-0.79042 -12.9121,-2.22852 l -75.6191,194.75586 c 5.6886,3.9152 10.2659,9.31974 13.1796,15.65234 l 181.8185,-55.88476 c 1.936,-19.4398 18.3378,-34.6216 38.2871,-34.6211 4.3678,1.2e-4 8.5549,0.74867 12.4668,2.0918 V 266.026 Z M 849.93065,247.06506 559.30759,290.651 c -0.73652,15.228 -10.32473,28.12838 -23.73047,33.67578 l 91.11913,175.66016 c 5.193,-2.6124 11.0542,-4.0916 17.2637,-4.0918 5.056,-1e-4 9.88,0.9835 14.3027,2.7559 l 193.4922,-247.98832 c -0.6681,-1.16291 -1.2782,-2.36246 -1.8242,-3.59766 z m 11.8945,15.07422 -190.957,244.73826 c 1.4022,1.3723 2.7046,2.846 3.8848,4.418 l 224.4492,-96.37697 c -0.0209,-0.5201 -0.0411,-1.0411 -0.041,-1.5664 3e-4,-11.7982 5.317,-22.3498 13.6777,-29.40821 l -30.9824,-114.08593 c -7.4949,-0.6326 -14.3778,-3.40765 -20.0313,-7.71875 z M 188.0615,275.32482 84.69822,338.83459 c 3.47934,4.651 5.92056,10.11945 7.00781,16.06055 l 174.35351,0.24023 c 0.0852,-3.7916 0.71251,-7.44798 1.81836,-10.89258 z m 298.61718,31.06836 -143.6875,49.75 c -0.0341,10.2619 -4.08823,19.57148 -10.66601,26.45118 l 59.93945,59.60742 c 6.99215,-7.1952 16.76631,-11.67218 27.5918,-11.67188 1.94038,0 3.84574,0.14653 5.70898,0.42383 l 64.25,-119.48828 c -1.17204,-1.6008 -2.21953,-3.29697 -3.13672,-5.07227 z m 14.58008,15.46875 -61.43359,114.24805 c 11.0979,6.7507 18.50937,18.95914 18.50976,32.89844 3.3e-4,15.20432 -8.82025,28.34562 -21.62109,34.59572 l 37.98438,72.6387 c 5.2444,-2.6782 11.17794,-4.1994 17.4707,-4.1993 12.48237,4e-4 23.57137,5.9486 30.60156,15.1602 l 82.94337,-48.6309 c -0.1498,-1.3799 -0.2325,-2.7794 -0.2324,-4.1992 2e-4,-9.5279 3.4709,-18.2407 9.207,-24.9609 L 520.18064,327.22326 c -6.90432,-0.123 -13.36371,-2.06003 -18.92188,-5.36133 z m 582.64444,31.60157 -110.27925,46.25 c 1.6082,4.24 2.496,8.83487 2.4961,13.63867 2e-4,7.6394 -2.2354,14.75208 -6.0742,20.73828 L 1110.001,543.11584 c 7.031,-9.1994 18.1113,-15.1383 30.584,-15.1387 10.9928,-2e-4 20.9018,4.6164 27.914,12.0078 l 127.4042,-55.2148 c -0.7617,-3.0205 -1.1697,-6.1824 -1.1698,-9.43946 0,-1.8226 0.1358,-3.61218 0.3809,-5.36718 l -148.8926,-98.72852 c -6.785,5.9952 -15.6949,9.64033 -25.4609,9.64063 -17.4041,4e-4 -32.1026,-11.55591 -36.8576,-27.41211 z M 91.50095,369.89709 c -1.92109,9.0411 -7.01941,16.90215 -14.06836,22.37305 l 38.37305,53.27343 c 5.77173,-3.4561 12.52152,-5.44746 19.73828,-5.44726 9.15391,2e-4 17.55667,3.20321 24.16211,8.54101 l 97.92578,-78.51562 z m -74.23438,3.84766 -122.79687,50.34765 c 0.87821,3.227 1.35538,6.6197 1.35547,10.125 2e-5,1.1244 -0.0598,2.23409 -0.1543,3.33399 l 88.05664,11.01367 35.9043,-69.14258 c -0.93265,-1.8146 -1.72683,-3.70983 -2.36524,-5.67773 z m 255.26368,3.66015 -103.20118,82.74414 c 2.99075,5.4722 4.69318,11.75018 4.69336,18.4258 5.1e-4,21.2516 -17.22688,38.4799 -38.47851,38.4805 -2.88304,0 -5.68866,-0.3267 -8.39063,-0.9278 l -11.29101,86.3926 c 7.08453,0.2746 13.6731,2.4644 19.27148,6.0664 l 247.57617,-129.5273 c -0.86507,-3.20494 -1.33405,-6.57252 -1.33398,-10.05082 1.4e-4,-4.9018 0.92647,-9.58489 2.59766,-13.89649 l -64.14649,-63.79297 c -4.693,2.0383 -9.86784,3.17363 -15.31055,3.17383 -13.33449,3e-4 -25.08174,-6.78459 -31.98632,-17.08789 z M 29.98923,392.026 -0.40139,450.54748 100.29392,463.14123 c 1.16557,-2.658 2.61762,-5.16134 4.32617,-7.46484 L 63.82126,399.03576 c -3.17539,0.8482 -6.51037,1.30654 -9.95312,1.30664 -9.02428,2e-4 -17.31666,-3.1146 -23.87891,-8.3164 z m 1521.52347,26.58398 -179.8575,55.28125 c 0.018,0.4784 0.037,0.95675 0.037,1.43945 0,3.02446 -0.3597,5.96376 -1.0194,8.78716 l 181.7715,184.2519 c 4.2086,-2.9748 9.0364,-5.13 14.2578,-6.2226 l 5.6893,-219.86333 c -9.9369,-4.5139 -17.6194,-13.11873 -20.8788,-23.67383 z m -648.70905,11.08594 -221.5566,95.13672 c 0.7784,3.0509 1.1933,6.2476 1.1934,9.541 0,0.467 -0.0187,0.9296 -0.0352,1.3926 l 127.0625,26.8242 c 5.146,-15.1924 19.5109,-26.1323 36.4414,-26.1328 1.4845,0 2.946,0.0923 4.3867,0.2559 l 55.6582,-101.53325 c -1.1945,-1.7308 -2.248,-3.56427 -3.1504,-5.48437 z m -1230.207,10.21289 c -2.78949,16.5798 -16.17654,29.552 -32.95898,31.7207 l 52.54101,173.15623 c 3.7523,-1.7266 7.82548,-2.8753 12.11133,-3.3125 l 120.01953,-187.52537 c -2.19837,-3.6731 -3.80476,-7.74002 -4.67968,-12.07422 z m 1928.15435,3.73437 c -3.9112,1.33936 -8.1017,2.07801 -12.4668,2.07813 -0.3268,0 -0.6497,-0.0154 -0.9746,-0.0254 l -5.5996,216.29292 c 7.2726,1.3544 13.8256,4.7525 19.041,9.5762 z m -641.16605,1.3125 c -6.2256,4.3311 -13.7866,6.87716 -21.9453,6.87696 -7.5256,-2e-4 -14.5408,-2.1698 -20.4707,-5.9043 l -52.3496,95.5 c 11.6803,6.6056 19.5699,19.1315 19.5703,33.5078 1e-4,4.7209 -0.8528,9.2409 -2.4082,13.4199 l 290.55275,133.0586 c 1.4259,-4.8533 3.7802,-9.306 6.8613,-13.1562 l -43.9707,-103.6778 c -18.8089,-2.5234 -33.3179,-18.6234 -33.3184,-38.123 0,-3.2947 0.4144,-6.4928 1.1934,-9.5449 z m -1358.834,6.7168 v 275.56836 l 70.5625,-36.6738 c -1.00368,-3.432 -1.55263,-7.0581 -1.55273,-10.8145 -2.1e-4,-9.761 3.64153,-18.6672 9.63086,-25.4512 l -55.82032,-183.97066 c -9.84899,-2.96021 -18.03431,-9.75969 -22.82031,-18.6582 z m 290.64844,0.45898 c -2.03362,3.8579 -4.70073,7.32809 -7.86719,10.27149 l 67.02148,50.04689 25.80274,-49.68947 z m 100.82812,12.61329 -29.49609,56.80079 124.01953,92.6113 c 3.81349,-3.9256 8.45606,-7.0378 13.64648,-9.0586 l 12.47266,-95.4375 c -9.57965,-6.9992 -15.80695,-18.313 -15.80664,-31.0859 1e-5,-0.2397 0.01318,-0.4762 0.01758,-0.7149 z m -157.43359,0.64453 -113.92969,178.01176 c 15.04892,5.2262 25.85583,19.523 25.85547,36.3515 -2.1e-4,7.36 -2.06995,14.236 -5.6543,20.082 l 67.10352,31.4219 c 6.78828,-10.9279 18.89402,-18.2073 32.70508,-18.207 1.80571,0 3.57885,0.1343 5.31836,0.375 l 97.35547,-187.4844 -73.97071,-55.23826 c -3.84417,1.2884 -7.95446,1.99619 -12.23242,1.99609 -8.4255,-2e-4 -16.21319,-2.71539 -22.55078,-7.30859 z m 554.5918,27.10746 -243.00977,127.1367 c 4.07378,6.1053 6.45136,13.4378 6.45117,21.3281 -2.6e-4,9.2023 -3.2343,17.6464 -8.62305,24.2676 l 127.22657,122.539 c 6.8568,-10.581 18.75939,-17.5882 32.30664,-17.5878 0.50102,0 0.99776,0.02 1.49414,0.039 l 154.57812,-138.8848 c -3.8679,-6.0014 -6.12125,-13.1418 -6.12109,-20.8124 2.4e-4,-9.4426 3.40666,-18.0859 9.05078,-24.7813 l -40.94726,-78.3008 c -0.64116,0.032 -1.28651,0.0488 -1.93555,0.0488 -12.40619,3e-4 -23.43377,-5.877 -30.4707,-14.9921 z m 912.97068,5.8242 -125.7812,54.5117 c 1.6048,4.2366 2.4903,8.8261 2.4903,13.625 -5e-4,17.5567 -11.763,32.3557 -27.8341,36.9746 l 40.2188,94.834 c 5.372,-2.8489 11.4957,-4.4689 18,-4.4688 4.2261,2e-4 8.288,0.6924 12.0917,1.9512 l 89.1193,-189.248 c -3.1636,-2.2928 -5.9689,-5.0499 -8.3048,-8.1797 z m 61.5137,0.2578 c -3.783,4.9807 -8.7524,9.0057 -14.4863,11.666 l 49.7637,91.0918 c 3.9522,-1.3711 8.1923,-2.1268 12.6113,-2.127 21.2516,-5e-4 38.48,17.2269 38.4805,38.4786 5e-4,21.2524 -17.2282,38.4809 -38.4805,38.4804 -10.7367,-3e-4 -20.4422,-4.4021 -27.4219,-11.4941 l -136.4337,68.6016 c -0.3354,13.1309 -7.2432,24.6195 -17.5625,31.3066 l 36.2482,43.59558 h 189.4647 l 86.1954,-87.58578 c -3.8577,-5.9958 -6.1051,-13.1259 -6.1055,-20.7852 -2e-4,-7.5635 2.19,-14.6116 5.9591,-20.5605 z m -39.5762,14.1797 -89.6738,190.4277 c 4.5778,3.9645 8.2093,8.9878 10.5137,14.6934 l 130.9258,-65.8321 c -1.7868,-4.4382 -2.7794,-9.2816 -2.7794,-14.3593 5e-4,-11.4405 4.9982,-21.7097 12.9238,-28.7578 l -51.9784,-95.1465 c -0.3379,0.008 -0.6738,0.0254 -1.0137,0.0254 -3.0713,-1e-4 -6.0545,-0.3709 -8.918,-1.0508 z m -1368.56639,22.2773 -95.23242,183.3926 c 5.70216,3.3875 10.44876,8.2061 13.75586,13.9609 l 201.64844,-92.6269 c 0.14031,-4.5763 1.07611,-8.9491 2.67968,-12.9883 z m 723.23044,15.3321 c -1.6424,3.588 -3.8128,6.882 -6.4238,9.7753 l 184.1016,208.543 c 6.255,-4.3974 13.8727,-6.9865 22.0996,-6.9863 16.2168,-4e-4 30.0802,10.0361 35.7441,24.2324 l 257.50595,-44.8848 c -0.2821,-1.2093 -0.5069,-2.4411 -0.6719,-3.6914 L 874.01465,601.20764 c -7.0226,7.5094 -17.0129,12.2092 -28.1055,12.209 -20.3856,-6e-4 -37.0575,-15.8562 -38.3828,-35.9063 z m -68.5488,2.8398 -81.02734,47.5078 c 0.823,3.1312 1.26554,6.4172 1.26562,9.8067 4.5e-4,21.2515 -17.22692,38.4798 -38.47851,38.4804 -8.15464,2e-4 -15.71175,-2.544 -21.93555,-6.8711 l -147.86719,132.8574 c 11.42889,6.337 19.27155,19.32467 19.79883,33.18937 h 256.36524 l 24.4102,-241.57997 c -5.1785,-3.3851 -9.4884,-7.9813 -12.5313,-13.3906 z m 50.0586,15.9316 c -5.0028,2.3796 -10.5991,3.715 -16.5078,3.7149 -2.2235,-10e-5 -4.3993,-0.1985 -6.5195,-0.5606 l -23.8321,235.88468 h 227.293 c -0.4176,-2.27111 -0.6466,-5.60808 -0.6465,-7.99988 2e-4,-7.5813 2.2027,-14.644 5.9883,-20.6016 z m -581.92383,85.9161 -199.50391,91.6406 c 0.19869,1.5841 0.31246,3.194 0.3125,4.832 5.1e-4,21.2516 -17.22688,38.4799 -38.47851,38.4805 -8.5976,2e-4 -16.53516,-2.8211 -22.94141,-7.586 l -19.69726,25.75577 h 467.05273 c 0.0544,-1.3978 0.18249,-3.77627 0.38086,-5.13267 L 132.57517,674.85414 c -5.42523,2.9236 -11.63171,4.5857 -18.22656,4.5859 -16.27481,4e-4 -30.17951,-10.1079 -35.80469,-24.3847 z m -400.28516,48.8046 -77.50781,40.2832 v 64.03508 h 178.3125 l 28.69141,-37.06038 c -3.40224,-5.7394 -5.3615,-12.4342 -5.36133,-19.5899 6e-5,-2.1045 0.17488,-4.1669 0.5,-6.1797 l -72.66602,-34.0254 c -6.23402,4.35 -13.81011,6.9084 -21.98828,6.9082 -12.12148,-3e-4 -22.9275,-5.6114 -29.98047,-14.3711 z m 1922.49224,24.1875 c -6.8624,6.3515 -16.0391,10.2386 -26.127,10.2383 -8.1676,2e-4 -15.7354,-2.5509 -21.9648,-6.8906 l -75.4415,76.78308 123.5333,2.5e-4 v -6.81238 z m -422.252,27.0899 -261.29685,45.5469 c -0.0287,2.2163 -0.2545,5.38307 -0.6426,7.49398 h 330.32815 l -31.3984,-37.89638 c -1.9681,0.3104 -3.9839,0.4746 -6.0391,0.4746 -12.69,3e-4 -23.9418,-6.145 -30.9512,-15.6191 z"
       sodipodi:nodetypes="cccccccccsccscccccsccccccsccccccccccsccccccccccccccccccccccccccccccccccsccccccccccsccccsccsccccscccscccccccsccccccccccccsccccccscccccsccsccsccsccccsccccccscccscccccscccscccccccccccccccccccsccsccsccccccccccsccccscccccsccssccccsccccscccccccsccccscccccccscccccccsccccccccccccccccsccscccccccccccccccscccccsccccsscccsccsccscccscccssccsccscccccsccsccccsccccscccsccsccccsccsccsccccssccsccsccsccsccccsccccccsccsccsccsccccscccccccccccccccscccccccccsccccsccccscccccsccccccsccsccsccscccscccsccccsccsccccccsccscccscccsccsccscccccccscccccscccccsccccccccccsccscccssccccsccccccccccccccccsccccsccccccccccccscccccccsccccsccsccccscccccccscccccccccccccccccccccscccccsccsccccccccsccsccsccsccccscccccsccccccssccccsccsccccccscccsccccscccsccscccccccccccscccccsccsccccscccccscccccccccccccsccccsccscccscccsccsccscccccccccscccccccssccccccscccccccccscccccccccccccccsccccsscccccccscccsccccsscccccsccccccsccsccsccccccccccsc" />
  </g>
</svg>
