<?xml version="1.0" encoding="UTF-8" standalone="no"?>
<svg
   xmlns:dc="http://purl.org/dc/elements/1.1/"
   xmlns:cc="http://creativecommons.org/ns#"
   xmlns:rdf="http://www.w3.org/1999/02/22-rdf-syntax-ns#"
   xmlns:svg="http://www.w3.org/2000/svg"
   xmlns="http://www.w3.org/2000/svg"
   xmlns:xlink="http://www.w3.org/1999/xlink"
   xmlns:sodipodi="http://sodipodi.sourceforge.net/DTD/sodipodi-0.dtd"
   xmlns:inkscape="http://www.inkscape.org/namespaces/inkscape"
   version="1.1"
   id="svg97467"
   width="2000"
   height="1333"
   viewBox="0 0 2000 1333"
   sodipodi:docname="bkgd-chris-nodes-2.svg"
   inkscape:version="1.0.2 (e86c870879, 2021-01-15)"
   inkscape:export-filename="/home/duffy/SparkleShare/github.com/cube-design/_common-assets/bkgd-chris-nodes_no-logo.png"
   inkscape:export-xdpi="96"
   inkscape:export-ydpi="96">
  <metadata
     id="metadata97473">
    <rdf:RDF>
      <cc:Work
         rdf:about="">
        <dc:format>image/svg+xml</dc:format>
        <dc:type
           rdf:resource="http://purl.org/dc/dcmitype/StillImage" />
        <dc:title></dc:title>
      </cc:Work>
    </rdf:RDF>
  </metadata>
  <defs
     id="defs97471">
    <linearGradient
       x1="0"
       y1="0"
       x2="1"
       y2="0"
       gradientUnits="userSpaceOnUse"
       gradientTransform="matrix(2873.01,0,0,-2873.01,699.055,1444.61)"
       spreadMethod="pad"
       id="linearGradient161468">
      <stop
         style="stop-opacity:1;stop-color:#3a7cc7"
         offset="0"
         id="stop161464" />
      <stop
         style="stop-opacity:1;stop-color:#7ad4ed"
         offset="1"
         id="stop161466" />
    </linearGradient>
    <linearGradient
       inkscape:collect="always"
       xlink:href="#linearGradient161468"
       id="linearGradient97728"
       gradientUnits="userSpaceOnUse"
       gradientTransform="matrix(72.95139,0,0,72.95139,709.28536,1156.7155)"
       x1="0"
       y1="0"
       x2="1"
       y2="0"
       spreadMethod="pad" />
    <linearGradient
       inkscape:collect="always"
       xlink:href="#linearGradient161468"
       id="linearGradient98304"
       x1="-399.24905"
       y1="142.67834"
       x2="1600.7509"
       y2="142.67834"
       gradientUnits="userSpaceOnUse"
       gradientTransform="matrix(1.001001,0,0,1.0007513,-0.60134192,-0.60720108)" />
  </defs>
  <sodipodi:namedview
     pagecolor="#ffffff"
     bordercolor="#666666"
     borderopacity="1"
     objecttolerance="10"
     gridtolerance="10"
     guidetolerance="10"
     inkscape:pageopacity="0"
     inkscape:pageshadow="2"
     inkscape:window-width="2560"
     inkscape:window-height="1369"
     id="namedview97469"
     showgrid="false"
     fit-margin-top="0"
     fit-margin-left="0"
     fit-margin-right="0"
     fit-margin-bottom="0"
     inkscape:zoom="0.28248916"
     inkscape:cx="1399.2491"
     inkscape:cy="1896.2106"
     inkscape:window-x="2560"
     inkscape:window-y="34"
     inkscape:window-maximized="1"
     inkscape:current-layer="g97475"
     inkscape:document-rotation="0" />
  <g
     inkscape:groupmode="layer"
     inkscape:label="Image"
     id="g97475"
     transform="translate(399.24905,523.82166)">
    <rect
       style="fill:url(#linearGradient98304);fill-opacity:1;stroke:none;stroke-width:2;stroke-linecap:round;stroke-linejoin:round"
       id="rect97479"
       width="2000"
       height="1332"
       x="-399.24905"
       y="-523.82166"
       ry="5.8165326" />
    <rect
       style="fill:#ffffff;fill-opacity:0.113211;stroke:none;stroke-width:2;stroke-linecap:round;stroke-linejoin:round"
       id="rect7139"
       width="2000"
       height="1331"
       x="-399.24905"
       y="-523.82166"
       ry="5.8121657" />
    <circle
       style="fill:#cc0000;fill-opacity:1;stroke:none;stroke-width:5;stroke-linecap:round;stroke-linejoin:round"
       id="circle7708"
       cx="-398.26743"
       cy="-115.16698"
       r="38.47958" />
    <g
       id="g1120">
      <g
         id="g1038">
        <circle
           style="fill:#cc0000;fill-opacity:1;stroke:none;stroke-width:5;stroke-linecap:round;stroke-linejoin:round"
           id="path7704"
           cx="-298.88586"
           cy="-417.11539"
           r="38.47958" />
        <circle
           style="fill:#cc0000;fill-opacity:1;stroke:none;stroke-width:5;stroke-linecap:round;stroke-linejoin:round"
           id="circle7706"
           cx="-157.15787"
           cy="-199.57385"
           r="38.47958" />
        <circle
           style="fill:#cc0000;fill-opacity:1;stroke:none;stroke-width:5;stroke-linecap:round;stroke-linejoin:round"
           id="circle7710"
           cx="-283.33456"
           cy="73.760178"
           r="38.47958" />
        <circle
           style="fill:#cc0000;fill-opacity:1;stroke:none;stroke-width:5;stroke-linecap:round;stroke-linejoin:round"
           id="circle7712"
           cx="-143.42322"
           cy="234.36507"
           r="38.47958" />
        <circle
           style="fill:#cc0000;fill-opacity:1;stroke:none;stroke-width:5;stroke-linecap:round;stroke-linejoin:round"
           id="circle7714"
           cx="54.70731"
           cy="-70.121201"
           r="38.47958" />
        <circle
           style="fill:#cc0000;fill-opacity:1;stroke:none;stroke-width:5;stroke-linecap:round;stroke-linejoin:round"
           id="circle7716"
           cx="92.002197"
           cy="180.05649"
           r="38.47958" />
        <circle
           style="fill:#cc0000;fill-opacity:1;stroke:none;stroke-width:5;stroke-linecap:round;stroke-linejoin:round"
           id="circle7718"
           cx="279.98862"
           cy="25.015732"
           r="38.47958" />
        <circle
           style="fill:#cc0000;fill-opacity:1;stroke:none;stroke-width:5;stroke-linecap:round;stroke-linejoin:round"
           id="circle7720"
           cx="363.18112"
           cy="170.01544"
           r="38.47958" />
        <circle
           style="fill:#cc0000;fill-opacity:1;stroke:none;stroke-width:5;stroke-linecap:round;stroke-linejoin:round"
           id="circle7722"
           cx="579.47339"
           cy="67.298187"
           r="38.47958" />
        <circle
           style="fill:#cc0000;fill-opacity:1;stroke:none;stroke-width:5;stroke-linecap:round;stroke-linejoin:round"
           id="circle7724"
           cx="530.87671"
           cy="284.76096"
           r="38.47958" />
        <circle
           style="fill:#cc0000;fill-opacity:1;stroke:none;stroke-width:5;stroke-linecap:round;stroke-linejoin:round"
           id="circle7726"
           cx="728.74841"
           cy="148.68785"
           r="38.47958" />
        <circle
           style="fill:#cc0000;fill-opacity:1;stroke:none;stroke-width:5;stroke-linecap:round;stroke-linejoin:round"
           id="circle7728"
           cx="885.1319"
           cy="231.52675"
           r="38.47958" />
        <circle
           style="fill:#cc0000;fill-opacity:1;stroke:none;stroke-width:5;stroke-linecap:round;stroke-linejoin:round"
           id="circle7730"
           cx="988.90387"
           cy="84.226738"
           r="38.47958" />
        <circle
           style="fill:#cc0000;fill-opacity:1;stroke:none;stroke-width:5;stroke-linecap:round;stroke-linejoin:round"
           id="circle7732"
           cx="1214.3196"
           cy="197.29768"
           r="38.47958" />
        <circle
           style="fill:#cc0000;fill-opacity:1;stroke:none;stroke-width:5;stroke-linecap:round;stroke-linejoin:round"
           id="circle7734"
           cx="1500.8108"
           cy="63.77702"
           r="38.47958" />
        <circle
           style="fill:#cc0000;fill-opacity:1;stroke:none;stroke-width:5;stroke-linecap:round;stroke-linejoin:round"
           id="circle7736"
           cx="1461.5308"
           cy="206.60963"
           r="38.47958" />
        <circle
           style="fill:#cc0000;fill-opacity:1;stroke:none;stroke-width:5;stroke-linecap:round;stroke-linejoin:round"
           id="circle7738"
           cx="1329.9049"
           cy="-13.073189"
           r="38.47958" />
        <circle
           style="fill:#cc0000;fill-opacity:1;stroke:none;stroke-width:5;stroke-linecap:round;stroke-linejoin:round"
           id="circle7740"
           cx="1495.4122"
           cy="-192.49707"
           r="38.47958" />
        <circle
           style="fill:#cc0000;fill-opacity:1;stroke:none;stroke-width:5;stroke-linecap:round;stroke-linejoin:round"
           id="circle7742"
           cx="1515.051"
           cy="-417.0199"
           r="38.47958" />
        <circle
           style="fill:#cc0000;fill-opacity:1;stroke:none;stroke-width:5;stroke-linecap:round;stroke-linejoin:round"
           id="circle7744"
           cx="1348.1497"
           cy="-272.064"
           r="38.47958" />
        <circle
           style="fill:#cc0000;fill-opacity:1;stroke:none;stroke-width:5;stroke-linecap:round;stroke-linejoin:round"
           id="circle7746"
           cx="1219.49"
           cy="-140.86957"
           r="38.47958" />
        <circle
           style="fill:#cc0000;fill-opacity:1;stroke:none;stroke-width:5;stroke-linecap:round;stroke-linejoin:round"
           id="circle7748"
           cx="1141.3339"
           cy="38.272465"
           r="38.47958" />
        <circle
           style="fill:#cc0000;fill-opacity:1;stroke:none;stroke-width:5;stroke-linecap:round;stroke-linejoin:round"
           id="circle7750"
           cx="863.7738"
           cy="23.340532"
           r="38.47958" />
        <circle
           style="fill:#cc0000;fill-opacity:1;stroke:none;stroke-width:5;stroke-linecap:round;stroke-linejoin:round"
           id="circle7752"
           cx="966.49615"
           cy="-82.976311"
           r="38.47958" />
        <circle
           style="fill:#cc0000;fill-opacity:1;stroke:none;stroke-width:5;stroke-linecap:round;stroke-linejoin:round"
           id="circle7754"
           cx="708.91919"
           cy="-97.480438"
           r="38.47958" />
        <circle
           style="fill:#cc0000;fill-opacity:1;stroke:none;stroke-width:5;stroke-linecap:round;stroke-linejoin:round"
           id="circle7756"
           cx="573.34204"
           cy="-187.1805"
           r="38.47958" />
        <circle
           style="fill:#cc0000;fill-opacity:1;stroke:none;stroke-width:5;stroke-linecap:round;stroke-linejoin:round"
           id="circle7758"
           cx="568.42792"
           cy="-352.1861"
           r="38.47958" />
        <circle
           style="fill:#cc0000;fill-opacity:1;stroke:none;stroke-width:5;stroke-linecap:round;stroke-linejoin:round"
           id="circle7760"
           cx="815.98651"
           cy="-250.90662"
           r="38.47958" />
        <circle
           style="fill:#cc0000;fill-opacity:1;stroke:none;stroke-width:5;stroke-linecap:round;stroke-linejoin:round"
           id="circle7762"
           cx="956.65149"
           cy="-236.0015"
           r="38.47958" />
        <circle
           style="fill:#cc0000;fill-opacity:1;stroke:none;stroke-width:5;stroke-linecap:round;stroke-linejoin:round"
           id="circle7764"
           cx="1101.998"
           cy="-207.31506"
           r="38.47958" />
        <circle
           style="fill:#cc0000;fill-opacity:1;stroke:none;stroke-width:5;stroke-linecap:round;stroke-linejoin:round"
           id="circle7766"
           cx="1163.8341"
           cy="-428.26221"
           r="38.47958" />
        <circle
           style="fill:#cc0000;fill-opacity:1;stroke:none;stroke-width:5;stroke-linecap:round;stroke-linejoin:round"
           id="circle7768"
           cx="913.92651"
           cy="-415.25009"
           r="38.47958" />
        <circle
           style="fill:#cc0000;fill-opacity:1;stroke:none;stroke-width:5;stroke-linecap:round;stroke-linejoin:round"
           id="circle7770"
           cx="897.53387"
           cy="-522.63129"
           r="38.47958" />
        <circle
           style="fill:#cc0000;fill-opacity:1;stroke:none;stroke-width:5;stroke-linecap:round;stroke-linejoin:round"
           id="circle7772"
           cx="897.53387"
           cy="-522.63129"
           r="38.47958" />
        <circle
           style="fill:#cc0000;fill-opacity:1;stroke:none;stroke-width:5;stroke-linecap:round;stroke-linejoin:round"
           id="circle7774"
           cx="258.707"
           cy="-209.51794"
           r="38.47958" />
        <circle
           style="fill:#cc0000;fill-opacity:1;stroke:none;stroke-width:5;stroke-linecap:round;stroke-linejoin:round"
           id="circle7776"
           cx="90.428452"
           cy="-278.87112"
           r="38.47958" />
        <circle
           style="fill:#cc0000;fill-opacity:1;stroke:none;stroke-width:5;stroke-linecap:round;stroke-linejoin:round"
           id="circle7778"
           cx="211.12497"
           cy="-416.56302"
           r="38.47958" />
        <circle
           style="fill:#cc0000;fill-opacity:1;stroke:none;stroke-width:5;stroke-linecap:round;stroke-linejoin:round"
           id="circle7780"
           cx="-30.648344"
           cy="-361.41776"
           r="38.47958" />
        <circle
           style="fill:#cc0000;fill-opacity:1;stroke:none;stroke-width:5;stroke-linecap:round;stroke-linejoin:round"
           id="circle7782"
           cx="-115.83336"
           cy="-502.98901"
           r="38.47958" />
        <circle
           style="fill:#cc0000;fill-opacity:1;stroke:none;stroke-width:5;stroke-linecap:round;stroke-linejoin:round"
           id="circle7784"
           cx="1343.2126"
           cy="-469.33002"
           r="38.47958"
           transform="scale(1,-1)" />
        <circle
           style="fill:#cc0000;fill-opacity:1;stroke:none;stroke-width:5;stroke-linecap:round;stroke-linejoin:round"
           id="circle7786"
           cx="114.34821"
           cy="-640.96088"
           r="38.47958"
           transform="scale(1,-1)" />
        <circle
           style="fill:#cc0000;fill-opacity:1;stroke:none;stroke-width:5;stroke-linecap:round;stroke-linejoin:round"
           id="circle7788"
           cx="419.85587"
           cy="-469.00916"
           r="38.47958"
           transform="scale(1,-1)" />
        <circle
           style="fill:#cc0000;fill-opacity:1;stroke:none;stroke-width:5;stroke-linecap:round;stroke-linejoin:round"
           id="circle7790"
           cx="303.73651"
           cy="-808.65887"
           r="38.47958"
           transform="scale(1,-1)" />
        <circle
           style="fill:#cc0000;fill-opacity:1;stroke:none;stroke-width:5;stroke-linecap:round;stroke-linejoin:round"
           id="circle7792"
           cx="-365.33771"
           cy="-433.48218"
           r="38.47958"
           transform="scale(1,-1)" />
        <circle
           style="fill:#cc0000;fill-opacity:1;stroke:none;stroke-width:5;stroke-linecap:round;stroke-linejoin:round"
           id="circle7794"
           cx="1134.7603"
           cy="-348.39645"
           r="38.47958"
           transform="scale(1,-1)" />
        <circle
           style="fill:#cc0000;fill-opacity:1;stroke:none;stroke-width:5;stroke-linecap:round;stroke-linejoin:round"
           id="circle7796"
           cx="316.51639"
           cy="-356.01349"
           r="38.47958"
           transform="scale(1,-1)" />
        <circle
           style="fill:#cc0000;fill-opacity:1;stroke:none;stroke-width:5;stroke-linecap:round;stroke-linejoin:round"
           id="circle7798"
           cx="1423.759"
           cy="-635.68872"
           r="38.47958"
           transform="scale(1,-1)" />
        <circle
           style="fill:#cc0000;fill-opacity:1;stroke:none;stroke-width:5;stroke-linecap:round;stroke-linejoin:round"
           id="circle7800"
           cx="-281.76044"
           cy="-679.75195"
           r="38.47958"
           transform="scale(1,-1)" />
        <circle
           style="fill:#cc0000;fill-opacity:1;stroke:none;stroke-width:5;stroke-linecap:round;stroke-linejoin:round"
           id="circle7802"
           cx="492.16809"
           cy="-610.52271"
           r="38.47958"
           transform="scale(1,-1)" />
        <circle
           style="fill:#cc0000;fill-opacity:1;stroke:none;stroke-width:5;stroke-linecap:round;stroke-linejoin:round"
           id="circle7804"
           cx="651.96057"
           cy="-534.37457"
           r="38.47958"
           transform="scale(1,-1)" />
        <circle
           style="fill:#cc0000;fill-opacity:1;stroke:none;stroke-width:5;stroke-linecap:round;stroke-linejoin:round"
           id="circle7806"
           cx="857.90985"
           cy="-580.93713"
           r="38.47958"
           transform="scale(1,-1)" />
        <circle
           style="fill:#cc0000;fill-opacity:1;stroke:none;stroke-width:5;stroke-linecap:round;stroke-linejoin:round"
           id="circle7808"
           cx="937.6402"
           cy="-413.353"
           r="38.47958"
           transform="scale(1,-1)" />
        <circle
           style="fill:#cc0000;fill-opacity:1;stroke:none;stroke-width:5;stroke-linecap:round;stroke-linejoin:round"
           id="circle7810"
           cx="143.54358"
           cy="-482.57516"
           r="38.47958"
           transform="scale(1,-1)" />
        <circle
           style="fill:#cc0000;fill-opacity:1;stroke:none;stroke-width:5;stroke-linecap:round;stroke-linejoin:round"
           id="circle7812"
           cx="-142.65501"
           cy="-434.21777"
           r="38.47958"
           transform="scale(1,-1)" />
        <circle
           style="fill:#cc0000;fill-opacity:1;stroke:none;stroke-width:5;stroke-linecap:round;stroke-linejoin:round"
           id="circle7814"
           cx="878.73535"
           cy="-800.17926"
           r="38.47958"
           transform="scale(1,-1)" />
        <circle
           style="fill:#cc0000;fill-opacity:1;stroke:none;stroke-width:5;stroke-linecap:round;stroke-linejoin:round"
           id="circle7816"
           cx="1213.4493"
           cy="-732.27643"
           r="38.47958"
           transform="scale(1,-1)" />
        <circle
           style="fill:#cc0000;fill-opacity:1;stroke:none;stroke-width:5;stroke-linecap:round;stroke-linejoin:round"
           id="circle7818"
           cx="1588.2836"
           cy="-407.24182"
           r="38.47958"
           transform="scale(1,-1)" />
        <circle
           style="fill:#cc0000;fill-opacity:1;stroke:none;stroke-width:5;stroke-linecap:round;stroke-linejoin:round"
           id="circle7820"
           cx="-155.12688"
           cy="-759.5285"
           r="38.47958"
           transform="scale(1,-1)" />
        <circle
           style="fill:#cc0000;fill-opacity:1;stroke:none;stroke-width:5;stroke-linecap:round;stroke-linejoin:round"
           id="circle7822"
           cx="53.867249"
           cy="-361.86346"
           r="38.47958"
           transform="scale(1,-1)" />
        <circle
           style="fill:#cc0000;fill-opacity:1;stroke:none;stroke-width:5;stroke-linecap:round;stroke-linejoin:round"
           id="circle83"
           cx="1154.5859"
           cy="-566.45679"
           r="38.47958"
           transform="scale(1,-1)" />
        <circle
           style="fill:#cc0000;fill-opacity:1;stroke:none;stroke-width:5;stroke-linecap:round;stroke-linejoin:round"
           id="circle85"
           cx="1596.624"
           cy="-699.8064"
           r="38.47958"
           transform="scale(1,-1)" />
        <circle
           style="fill:#cc0000;fill-opacity:1;stroke:none;stroke-width:5;stroke-linecap:round;stroke-linejoin:round"
           id="circle87"
           cx="435.45386"
           cy="-259.10947"
           r="69.429588" />
      </g>
      <g
         id="g974">
        <g
           id="g950"
           style="stroke:#cc0000">
          <path
             style="fill:none;stroke:#cc0000;stroke-width:15;stroke-linecap:butt;stroke-linejoin:miter;stroke-miterlimit:4;stroke-dasharray:none;stroke-opacity:1"
             d="m 215.68743,-418.40444 40.39538,212.58123"
             id="path914" />
          <path
             style="fill:none;stroke:#cc0000;stroke-width:15;stroke-linecap:butt;stroke-linejoin:miter;stroke-miterlimit:4;stroke-dasharray:none;stroke-opacity:1"
             d="M 78.37143,-283.43752 59.37958,-61.16261"
             id="path916" />
          <path
             style="fill:none;stroke:#cc0000;stroke-width:15;stroke-linecap:butt;stroke-linejoin:miter;stroke-miterlimit:4;stroke-dasharray:none;stroke-opacity:1"
             d="m 1167.1028,-436.17727 -200.11135,204.16876 -142.5279,-25.77057 -112.2865,155.64994 254.562,15.06978 0.2524,-144.94915 140.28525,24.53038 L 970.75955,-85.72647 863.48655,20.65076 735.13145,163.30274 587.23446,68.52641 369.04863,167.60594"
             id="path918" />
          <path
             style="fill:none;stroke:#cc0000;stroke-width:15;stroke-linecap:butt;stroke-linejoin:miter;stroke-miterlimit:4;stroke-dasharray:none;stroke-opacity:1"
             d="M 712.17705,-102.12914 867.29395,18.30249 997.05555,82.5686 897.05695,238.24253 724.69955,146.7632 529.59086,290.52217 431.86475,472.27131 507.36673,616.65414 654.13025,530.60484 529.59086,290.52217 900.14655,234.94769 947.89235,410.7601 659.84465,534.44594 893.67385,234.76112 1208.3118,197.30117 996.30845,87.09089 1149.629,38.30432 l 72.9865,-185.60175 -115.3389,-60.1807"
             id="path920" />
          <path
             style="fill:none;stroke:#cc0000;stroke-width:15;stroke-linecap:butt;stroke-linejoin:miter;stroke-miterlimit:4;stroke-dasharray:none;stroke-opacity:1"
             d="m 1352.3002,-265.15436 -12.2648,256.20809 164.7675,-189.53234 0.9649,263.38285 -165.7576,-69.91203 -117.3948,-142.28964"
             id="path922" />
          <path
             style="fill:none;stroke:#cc0000;stroke-width:15;stroke-linecap:butt;stroke-linejoin:miter;stroke-miterlimit:4;stroke-dasharray:none;stroke-opacity:1"
             d="m 1648.5907,113.914 -161.9526,-57.59995 -31.6985,157.59256 307.4122,82.23328 -161.4082,105.57726 -256.3515,78.79319 -218.1318,-144.63936 81.8514,-138.56981 151.0814,265.78697 96.5206,-248.59061"
             id="path924" />
          <path
             style="fill:none;stroke:#cc0000;stroke-width:15;stroke-linecap:butt;stroke-linejoin:miter;stroke-miterlimit:4;stroke-dasharray:none;stroke-opacity:1"
             d="M 1505.7679,64.90424 1208.3117,197.30117 1340.0354,-8.94627"
             id="path926" />
          <path
             style="fill:none;stroke:#cc0000;stroke-width:15;stroke-linecap:butt;stroke-linejoin:miter;stroke-miterlimit:4;stroke-dasharray:none;stroke-opacity:1"
             d="m 1126.4603,335.87098 -178.56795,74.88912 -90.6444,165.35974 -197.4033,-41.6739 234.8533,266.0333 -596.55912,4.1635 -176.5481,-170.0444"
             id="path928" />
          <path
             style="fill:none;stroke:#cc0000;stroke-width:15;stroke-linecap:butt;stroke-linejoin:miter;stroke-miterlimit:4;stroke-dasharray:none;stroke-opacity:1"
             d="m 507.36673,616.65414 -209.2279,187.9886"
             id="path930" />
          <path
             style="fill:none;stroke:#cc0000;stroke-width:15;stroke-linecap:butt;stroke-linejoin:miter;stroke-miterlimit:4;stroke-dasharray:none;stroke-opacity:1"
             d="m 654.13025,530.60484 -49.7444,490.27656"
             id="path932" />
          <path
             style="fill:none;stroke:#cc0000;stroke-width:15;stroke-linecap:butt;stroke-linejoin:miter;stroke-miterlimit:4;stroke-dasharray:none;stroke-opacity:1"
             d="m 857.24795,576.11984 365.17755,167.2339 -75.1973,-177.3095 197.3639,-85.5339 88.2068,161.4572 -206.5465,103.8571 133.1407,-282.7365 233.8262,237.0217 7.7244,-298.39269"
             id="path934" />
          <g
             id="g956">
            <path
               style="fill:none;stroke:#cc0000;stroke-width:15;stroke-linecap:butt;stroke-linejoin:miter;stroke-miterlimit:4;stroke-dasharray:none;stroke-opacity:1"
               d="m -445.63582,-454.62798 415.00875,92.87611 125.14178,86.76994 161.5681,69.15872 188.87702,-48.04159 -229.2724,-164.53964 -248.33554,59.02769 -120.65245,165.32265 -150.07446,-231.84872 188.53565,-80.9852 330.87466,95.67936 196.97763,-210.44304 161.76773,265.43145 350.5882,-57.29698 -25.2331,-118.33108 271.79465,-66.61821 -258.71115,196.23744 253.88355,-33.94819 -37.0746,-172.80504 231.3359,104.58889 -191.1799,72.78041 187.016,170.31363 -9.8753,-251.38601 184.7851,98.45018 161.2307,-142.73748 -10.8554,329.05791 -189.1489,47.04003 24.6156,-241.72005 -165.6518,157.44044 -245.0236,57.67623 -140.28515,-24.53038 -53.6958,-196.05639 -88.8321,170.28582 L 583.52684,-360.67599 436.15315,-258.07865 278.5243,26.41205 257.40251,-211.24323 59.37958,-61.16261 -152.61953,-206.08907 -397.25955,-116.63943 -272.8567,79.87388 -566.01862,283.0959 -356.37588,436.49729 -131.78122,229.7971 -291.70552,68.74798 56.8603,-75.64243 l -202.08446,303.54844 246.19221,-57.6396 -240.03704,264.39003 -221.24397,-2.95378 77.09263,254.07898 -231.50821,120.321 237.16039,109.4294 130.72568,-164.2933 -146.35474,-68.5318 L -135.64484,436.53499 60.10166,356.27403 -150.06179,760.99694 124.0426,635.08854 145.11815,473.80751 -141.78662,437.92125 121.59073,634.59834 431.86475,472.27131 311.50356,352.57548 151.81909,480.60804 65.81434,361.20813 90.69733,161.55285 55.82666,-81.64182 282.95616,29.53296 97.17271,169.66663 315.27989,357.99551 369.04863,167.60594 52.15836,362.31448 321.184,362.68048 529.59086,290.52217 369.04863,167.60594 273.29214,24.55057 594.83206,67.99101 431.24681,-270.45511 l 141.75695,85.87652 14.2307,253.105 124.94259,-170.65555 -137.74815,-82.31031 -0.452,-169.18309"
               id="path89"
               sodipodi:nodetypes="cccccccccccccccccccccccccccccccccccccccccccccccccccccccccccccccccccccccccccccccccccc" />
            <path
               style="fill:none;stroke:#cc0000;stroke-width:15;stroke-linecap:butt;stroke-linejoin:miter;stroke-miterlimit:4;stroke-dasharray:none;stroke-opacity:1"
               d="m 894.69795,800.47924 327.72745,-57.1255 151.0456,177.499 219.7482,-220.7429"
               id="path952" />
          </g>
        </g>
        <path
           style="fill:none;stroke:#cc0000;stroke-width:15;stroke-linecap:butt;stroke-linejoin:miter;stroke-miterlimit:4;stroke-dasharray:none;stroke-opacity:1"
           d="M 947.89235,410.7601 1147.2283,566.04424"
           id="path936" />
      </g>
    </g>
    <path
       id="circle1353"
       style="fill:#8ae234;fill-opacity:1;stroke:none;stroke-width:5;stroke-linecap:round;stroke-linejoin:round"
       d="M 793.53125 1569.8398 L 623.7832 1751.1914 A 38.47958 38.47958 0 0 0 610.37305 1748.7793 A 38.47958 38.47958 0 0 0 572.94141 1778.3438 L 321.58984 1705.6621 A 38.47958 38.47958 0 0 0 321.89453 1700.832 A 38.47958 38.47958 0 0 0 283.41602 1662.3535 A 38.47958 38.47958 0 0 0 245.12305 1697.0566 L 117.08789 1752.0547 A 38.47958 38.47958 0 0 0 100.36328 1748.2266 A 38.47958 38.47958 0 0 0 65.25 1770.9688 L -64.748047 1741.875 L -68.023438 1756.5137 L 61.898438 1785.5879 A 38.47958 38.47958 0 0 0 61.882812 1786.707 A 38.47958 38.47958 0 0 0 97.464844 1825.0762 L 205.58008 1992.0996 A 38.47958 38.47958 0 0 0 204.12695 1997.9766 L 32.265625 2060.8145 A 38.47958 38.47958 0 0 0 15.873047 2057.1484 A 38.47958 38.47958 0 0 0 -19.109375 2079.5996 L -29.322266 2083.334 L -22.572266 2093.9961 A 38.47958 38.47958 0 0 0 -22.607422 2095.6289 A 38.47958 38.47958 0 0 0 0.8984375 2131.0742 L 82.0625 2259.2871 A 38.47958 38.47958 0 0 0 78.609375 2268.1543 L 74.34375 2269.9199 L 77.677734 2273.2773 A 38.47958 38.47958 0 0 0 77.435547 2277.582 A 38.47958 38.47958 0 0 0 80.464844 2292.5449 L -199.69531 2486.7539 L -3.875 2630.041 A 38.47958 38.47958 0 0 0 -4.5683594 2637.3047 A 38.47958 38.47958 0 0 0 22.818359 2674.1484 L 81.914062 2868.9102 A 38.47958 38.47958 0 0 0 79.009766 2883.5742 A 38.47958 38.47958 0 0 0 79.009766 2883.6211 L 75.123047 2889.6934 L 77.476562 2890.7949 L -152.51172 3010.3262 L 103.88477 3128.6309 L 215.20117 2988.7305 A 38.47958 38.47958 0 0 0 244.12305 3001.8301 A 38.47958 38.47958 0 0 0 282.60156 2963.3496 A 38.47958 38.47958 0 0 0 280.09375 2949.6895 L 477.79102 2858.877 A 38.47958 38.47958 0 0 0 513.59766 2883.2617 A 38.47958 38.47958 0 0 0 531.82031 2878.6719 L 664.91797 3006.8672 A 38.47958 38.47958 0 0 0 664.50586 3012.4805 A 38.47958 38.47958 0 0 0 702.98633 3050.9609 A 38.47958 38.47958 0 0 0 741.46484 3012.4805 A 38.47958 38.47958 0 0 0 721.61328 2978.8125 L 869.47852 2845.957 A 38.47958 38.47958 0 0 0 891.41797 2852.8242 A 38.47958 38.47958 0 0 0 929.89648 2814.3438 A 38.47958 38.47958 0 0 0 928.62695 2804.541 L 1015.8594 2753.3945 A 38.47958 38.47958 0 0 0 1022.8223 2764.1719 L 976.17383 3223.9473 L 991.09766 3225.4609 L 1036.9121 2773.9199 A 38.47958 38.47958 0 0 0 1051.209 2776.6758 A 38.47958 38.47958 0 0 0 1061.707 2775.2148 L 1245.4863 2983.3945 A 38.47958 38.47958 0 0 0 1239.5039 3004 A 38.47958 38.47958 0 0 0 1277.9844 3042.4805 A 38.47958 38.47958 0 0 0 1316.4629 3004.5039 L 1581.2988 2958.3398 A 38.47958 38.47958 0 0 0 1612.6992 2974.5781 A 38.47958 38.47958 0 0 0 1615.0801 2974.5039 L 1752.2891 3135.7402 L 1963.168 2923.9043 A 38.47958 38.47958 0 0 0 1995.873 2942.1074 A 38.47958 38.47958 0 0 0 2034.3535 2903.6289 A 38.47958 38.47958 0 0 0 1995.873 2865.1484 A 38.47958 38.47958 0 0 0 1980.8965 2868.1836 L 1986.5586 2649.5312 A 38.47958 38.47958 0 0 0 1987.5332 2649.543 A 38.47958 38.47958 0 0 0 2026.0117 2611.0625 A 38.47958 38.47958 0 0 0 2019.0957 2589.0547 L 2159.75 2497.0527 L 1895.7715 2426.4375 A 38.47958 38.47958 0 0 0 1899.2598 2410.4316 A 38.47958 38.47958 0 0 0 1860.7793 2371.9512 A 38.47958 38.47958 0 0 0 1850.7793 2373.2754 L 1867.8125 2288.5938 A 38.47958 38.47958 0 0 0 1900.0605 2306.0781 A 38.47958 38.47958 0 0 0 1930.5352 2291.0879 L 2025.3281 2324.8027 L 2030.3535 2310.6699 L 1937.2285 2277.5488 A 38.47958 38.47958 0 0 0 1938.5391 2267.5996 A 38.47958 38.47958 0 0 0 1900.0605 2229.1191 A 38.47958 38.47958 0 0 0 1892.375 2229.8945 L 1891.7168 2049.6914 A 38.47958 38.47958 0 0 0 1894.6621 2049.8047 A 38.47958 38.47958 0 0 0 1932.8926 2015.6797 L 2069.0449 1981.8184 L 2080.6602 1629.6875 L 1937.6973 1756.2539 A 38.47958 38.47958 0 0 0 1914.3008 1748.3223 A 38.47958 38.47958 0 0 0 1882.2148 1765.5605 L 1759.5918 1700.2305 L 1760.1348 1700.0234 L 1753.9961 1697.248 L 1718.5684 1678.373 L 1718.6836 1681.2832 L 1553.4473 1606.5781 L 1549.3926 1598.0723 L 1539.8223 1600.418 L 1498.8281 1581.8848 L 1504.6543 1609.0391 L 1323.4492 1653.4512 A 38.47958 38.47958 0 0 0 1296.7832 1642.7109 A 38.47958 38.47958 0 0 0 1258.3027 1681.1895 A 38.47958 38.47958 0 0 0 1281.1836 1716.3652 L 1290.0254 1757.834 A 38.47958 38.47958 0 0 0 1274.707 1787.5918 L 1000.9629 1832.332 A 38.47958 38.47958 0 0 0 967.67773 1813.1562 A 38.47958 38.47958 0 0 0 945.92773 1819.8926 L 793.53125 1569.8398 z M 790.99414 1594.5 L 935.16406 1831.0547 A 38.47958 38.47958 0 0 0 929.19727 1851.6348 A 38.47958 38.47958 0 0 0 929.58984 1857.1113 L 879.70312 1891.8418 A 69.429588 69.429588 0 0 0 834.70312 1875.2832 A 69.429588 69.429588 0 0 0 834.24805 1875.2832 A 69.429588 69.429588 0 0 0 776.66602 1906.6055 L 641.63281 1809.6973 A 38.47958 38.47958 0 0 0 648.85352 1787.2578 A 38.47958 38.47958 0 0 0 636.77344 1759.2637 L 790.99414 1594.5 z M 1545.1953 1619.3086 L 1719.3418 1698.043 L 1719.3965 1699.4805 L 1590.4922 1748.5547 A 38.47958 38.47958 0 0 0 1563.084 1737.0801 A 38.47958 38.47958 0 0 0 1548.1152 1740.1133 L 1525.418 1634.3125 L 1545.1953 1619.3086 z M 1507.8008 1623.7109 L 1508.75 1628.127 L 1337.0293 1758.3789 A 38.47958 38.47958 0 0 0 1313.1758 1750.0918 A 38.47958 38.47958 0 0 0 1303.9512 1751.2129 L 1297.2246 1719.666 A 38.47958 38.47958 0 0 0 1335.2617 1681.1895 A 38.47958 38.47958 0 0 0 1332.4258 1666.6953 L 1507.8008 1623.7109 z M 1512.2227 1644.3203 L 1534.7852 1749.4844 A 38.47958 38.47958 0 0 0 1526.8203 1762.6914 L 1351.5762 1786.123 A 38.47958 38.47958 0 0 0 1346.7734 1769.8145 L 1512.2227 1644.3203 z M 2064.5215 1664.0098 L 2054.4258 1969.9961 L 1931.5996 2000.543 A 38.47958 38.47958 0 0 0 1894.6621 1972.8457 A 38.47958 38.47958 0 0 0 1885.1035 1974.0527 L 1900.5137 1822.7266 A 38.47958 38.47958 0 0 0 1914.3008 1825.2812 A 38.47958 38.47958 0 0 0 1952.7793 1786.8027 A 38.47958 38.47958 0 0 0 1947.5996 1767.5215 L 2064.5215 1664.0098 z M 1740.9844 1707.3125 L 1876.5156 1779.5215 A 38.47958 38.47958 0 0 0 1875.8203 1786.8027 A 38.47958 38.47958 0 0 0 1876.0488 1790.9844 L 1764.3047 1897.1895 A 38.47958 38.47958 0 0 0 1747.3984 1893.2773 A 38.47958 38.47958 0 0 0 1742.0371 1893.6543 L 1734.8086 1709.666 L 1740.9844 1707.3125 z M 246.79883 1712.6621 A 38.47958 38.47958 0 0 0 283.41602 1739.3125 A 38.47958 38.47958 0 0 0 316.83594 1719.9023 L 552.02148 1787.9102 L 402.13672 1823.5352 A 38.47958 38.47958 0 0 0 368.60156 1803.9238 A 38.47958 38.47958 0 0 0 331.95898 1830.6562 L 138.83398 1787.4355 A 38.47958 38.47958 0 0 0 138.8418 1786.707 A 38.47958 38.47958 0 0 0 130.40234 1762.6602 L 246.79883 1712.6621 z M 1720.0176 1715.2949 L 1727.2344 1898.9863 A 38.47958 38.47958 0 0 0 1714.2715 1912.1816 L 1592.0566 1800.8809 A 38.47958 38.47958 0 0 0 1601.5625 1775.5586 A 38.47958 38.47958 0 0 0 1598.8691 1761.416 L 1720.0176 1715.2949 z M 1524.6875 1778.1094 A 38.47958 38.47958 0 0 0 1524.7559 1778.9648 L 1373.2949 1933.4961 A 38.47958 38.47958 0 0 0 1355.9004 1929.3398 A 38.47958 38.47958 0 0 0 1342.9961 1931.5703 L 1314.3652 1827.0312 A 38.47958 38.47958 0 0 0 1349.4004 1801.5469 L 1524.6875 1778.1094 z M 1529.9395 1795.1055 A 38.47958 38.47958 0 0 0 1563.084 1814.0391 A 38.47958 38.47958 0 0 0 1579.9492 1810.1445 L 1709.125 1927.7832 A 38.47958 38.47958 0 0 0 1708.9199 1931.7578 A 38.47958 38.47958 0 0 0 1709.1816 1936.2285 L 1534.6016 1977.3223 A 38.47958 38.47958 0 0 0 1501.2461 1958.0273 A 38.47958 38.47958 0 0 0 1464.5645 1984.8887 L 1394.0879 1972.5664 A 38.47958 38.47958 0 0 0 1394.3809 1967.8203 A 38.47958 38.47958 0 0 0 1385.1562 1942.8242 L 1529.9395 1795.1055 z M 573.49219 1798.2246 A 38.47958 38.47958 0 0 0 594.29492 1822.2188 L 623.67578 1976.8262 A 38.47958 38.47958 0 0 0 620.96875 1983.6914 L 524.06641 1942.2129 A 38.47958 38.47958 0 0 0 528.15625 1924.9512 A 38.47958 38.47958 0 0 0 489.67773 1886.4707 A 38.47958 38.47958 0 0 0 455.58398 1907.1074 L 398.02539 1867.1992 A 38.47958 38.47958 0 0 0 407.08008 1842.4043 A 38.47958 38.47958 0 0 0 406.80859 1837.8438 L 573.49219 1798.2246 z M 135.63086 1802.0898 L 330.25781 1845.6445 A 38.47958 38.47958 0 0 0 331.46289 1852.4688 L 248.39453 1966.2891 A 38.47958 38.47958 0 0 0 242.0918 1965.7676 A 38.47958 38.47958 0 0 0 214.17188 1977.7676 L 113.82812 1822.752 A 38.47958 38.47958 0 0 0 135.63086 1802.0898 z M 1269.543 1803.6367 L 1211.6562 1914.6035 A 38.47958 38.47958 0 0 0 1184.5469 1929.7031 L 1006.1113 1853.498 A 38.47958 38.47958 0 0 0 1006.1562 1851.6348 A 38.47958 38.47958 0 0 0 1005.8418 1846.7344 L 1269.543 1803.6367 z M 1881.3359 1806.6543 A 38.47958 38.47958 0 0 0 1886.3965 1813.2969 L 1869.166 1982.5059 A 38.47958 38.47958 0 0 0 1856.1816 2011.3242 A 38.47958 38.47958 0 0 0 1858.207 2023.6426 L 1743.8477 2155.1875 A 38.47958 38.47958 0 0 0 1729.1543 2152.2695 A 38.47958 38.47958 0 0 0 1728.832 2152.2715 L 1737.6074 1968.9688 A 38.47958 38.47958 0 0 0 1747.3984 1970.2363 A 38.47958 38.47958 0 0 0 1785.8789 1931.7578 A 38.47958 38.47958 0 0 0 1776.3633 1906.4258 L 1881.3359 1806.6543 z M 1282.3242 1811.5684 A 38.47958 38.47958 0 0 0 1297.959 1823.9141 L 1329.6621 1939.6758 A 38.47958 38.47958 0 0 0 1318.4082 1959.1602 L 1253.3145 1947.3906 A 38.47958 38.47958 0 0 0 1227.5977 1916.4766 L 1282.3242 1811.5684 z M 630.41211 1820.1094 L 769.77344 1920.1211 A 69.429588 69.429588 0 0 0 765.27344 1944.7129 A 69.429588 69.429588 0 0 0 766.35938 1956.9336 L 691.75391 1975.9082 A 38.47958 38.47958 0 0 0 657.95508 1955.8242 A 38.47958 38.47958 0 0 0 636.23047 1962.5449 L 610.23242 1825.7383 A 38.47958 38.47958 0 0 0 610.37305 1825.7383 A 38.47958 38.47958 0 0 0 630.41211 1820.1094 z M 339.23242 1867.2656 A 38.47958 38.47958 0 0 0 368.60156 1880.8828 A 38.47958 38.47958 0 0 0 385.67578 1876.8867 L 450 1921.4883 L 434.71289 2100.3789 A 38.47958 38.47958 0 0 0 418.16016 2119.5801 L 276.01367 2022.4082 A 38.47958 38.47958 0 0 0 280.57031 2004.248 A 38.47958 38.47958 0 0 0 262.88867 1971.873 L 339.23242 1867.2656 z M 1002.3984 1868.2227 L 1178 1943.2168 A 38.47958 38.47958 0 0 0 1176.7559 1952.916 A 38.47958 38.47958 0 0 0 1179.3984 1966.9297 L 1106.5625 2067.8945 A 38.47958 38.47958 0 0 0 1076.7207 2084.168 L 1003.0527 2040.1504 A 38.47958 38.47958 0 0 0 1011.0703 2016.6406 A 38.47958 38.47958 0 0 0 972.5918 1978.1621 A 38.47958 38.47958 0 0 0 961.07422 1979.9277 L 960.83203 1889.5 A 38.47958 38.47958 0 0 0 967.67773 1890.1152 A 38.47958 38.47958 0 0 0 1002.3984 1868.2227 z M 934.85742 1871.7227 A 38.47958 38.47958 0 0 0 945.81445 1883.3008 L 946.0957 1988.7363 A 38.47958 38.47958 0 0 0 937.26172 2001.3926 L 896.36523 1976.6191 A 69.429588 69.429588 0 0 0 904.13281 1944.7129 A 69.429588 69.429588 0 0 0 890.10938 1902.873 L 934.85742 1871.7227 z M 1713.8203 1950.5469 A 38.47958 38.47958 0 0 0 1722.9492 1961.4707 L 1713.6582 2155.5273 A 38.47958 38.47958 0 0 0 1700.8359 2164.6973 L 1642.1113 2093.5195 A 38.47958 38.47958 0 0 0 1657.2188 2062.9512 A 38.47958 38.47958 0 0 0 1618.7383 2024.4727 A 38.47958 38.47958 0 0 0 1587.457 2040.5469 L 1535.7402 2013.5625 A 38.47958 38.47958 0 0 0 1539.7266 1996.5059 A 38.47958 38.47958 0 0 0 1539.4121 1991.5996 L 1713.8203 1950.5469 z M 462.4375 1952.127 A 38.47958 38.47958 0 0 0 489.67773 1963.4297 A 38.47958 38.47958 0 0 0 514.43359 1954.4062 L 616.79297 1998.2207 L 477.83984 2103.5312 A 38.47958 38.47958 0 0 0 453.95703 2095.2207 A 38.47958 38.47958 0 0 0 450.19531 2095.4062 L 462.4375 1952.127 z M 1252.5059 1962.4863 L 1317.9766 1974.3242 A 38.47958 38.47958 0 0 0 1338.6875 2002.2324 L 1338.5293 2093.6445 A 38.47958 38.47958 0 0 0 1329.3809 2108.2676 L 1145.5898 2097.3867 A 38.47958 38.47958 0 0 0 1122.9512 2070.8145 L 1188.2305 1980.3242 A 38.47958 38.47958 0 0 0 1215.2363 1991.3945 A 38.47958 38.47958 0 0 0 1252.5059 1962.4863 z M 770.58008 1971.3359 A 69.429588 69.429588 0 0 0 782.2168 1990.1621 L 670.77344 2191.3008 A 38.47958 38.47958 0 0 0 662.11719 2194.377 L 647.63086 2031.3711 A 38.47958 38.47958 0 0 0 657.95508 2032.7832 A 38.47958 38.47958 0 0 0 696.43555 1994.3047 A 38.47958 38.47958 0 0 0 696.2207 1990.25 L 770.58008 1971.3359 z M 1389.2852 1986.9531 L 1423.7285 1992.9766 L 1462.9121 1999.8281 A 38.47958 38.47958 0 0 0 1464.0469 2006.3418 L 1376.9395 2084.0293 A 38.47958 38.47958 0 0 0 1365.7461 2082.3652 A 38.47958 38.47958 0 0 0 1353.5449 2084.3496 L 1353.6816 2006.2344 A 38.47958 38.47958 0 0 0 1355.9004 2006.2988 A 38.47958 38.47958 0 0 0 1389.2852 1986.9531 z M 888.06836 1989.1289 L 934.11328 2017.0234 A 38.47958 38.47958 0 0 0 946.16992 2044.6152 L 955.85352 2216.8633 L 856.21875 2010.7246 A 69.429588 69.429588 0 0 0 888.06836 1989.1289 z M 793.56055 2000.6387 A 69.429588 69.429588 0 0 0 834.70312 2014.1426 A 69.429588 69.429588 0 0 0 841.06641 2013.8496 L 952.02539 2243.4102 A 38.47958 38.47958 0 0 0 941.91406 2259.9004 L 717.70898 2229.6074 A 38.47958 38.47958 0 0 0 717.7168 2228.8379 A 38.47958 38.47958 0 0 0 687.89648 2191.3438 L 793.56055 2000.6387 z M 623.69141 2011.8145 A 38.47958 38.47958 0 0 0 631.78125 2022.5078 L 648.10938 2206.2168 A 38.47958 38.47958 0 0 0 643.08984 2215.6484 L 491.63281 2141.5137 A 38.47958 38.47958 0 0 0 492.43555 2133.7012 A 38.47958 38.47958 0 0 0 487.57227 2114.9766 L 623.69141 2011.8145 z M 204.79297 2013.7031 A 38.47958 38.47958 0 0 0 242.0918 2042.7266 A 38.47958 38.47958 0 0 0 266.44531 2034.0371 L 408.82031 2131.3652 L 135.62695 2244.5352 A 38.47958 38.47958 0 0 0 115.91406 2239.1016 A 38.47958 38.47958 0 0 0 92.210938 2247.2695 L 20.404297 2133.8398 A 38.47958 38.47958 0 0 0 54.353516 2095.6289 A 38.47958 38.47958 0 0 0 46.044922 2071.748 L 204.79297 2013.7031 z M 1470.9766 2020.2598 A 38.47958 38.47958 0 0 0 1501.2461 2034.9863 A 38.47958 38.47958 0 0 0 1526.4121 2025.6152 L 1581.2598 2054.2324 A 38.47958 38.47958 0 0 0 1580.2598 2062.9512 A 38.47958 38.47958 0 0 0 1584.4297 2080.3711 L 1535.8496 2203.9062 A 38.47958 38.47958 0 0 0 1502.1035 2242.0938 A 38.47958 38.47958 0 0 0 1502.1113 2242.7734 L 1421.2891 2268.4902 A 38.47958 38.47958 0 0 0 1388.1523 2249.5684 A 38.47958 38.47958 0 0 0 1355.4883 2267.7109 L 1299.334 2239.9004 A 38.47958 38.47958 0 0 0 1301.502 2227.1621 A 38.47958 38.47958 0 0 0 1283.5156 2194.5957 L 1334.8105 2143.7305 A 38.47958 38.47958 0 0 0 1365.7461 2159.3242 A 38.47958 38.47958 0 0 0 1404.2246 2120.8457 A 38.47958 38.47958 0 0 0 1390.8711 2091.7031 L 1470.9766 2020.2598 z M 1866.2402 2037.2656 A 38.47958 38.47958 0 0 0 1876.6973 2045.3555 L 1877.4004 2236.5 A 38.47958 38.47958 0 0 0 1864.9551 2251.8438 L 1860.709 2250.334 L 1762.9707 2209.1094 A 38.47958 38.47958 0 0 0 1767.6328 2190.748 A 38.47958 38.47958 0 0 0 1756.416 2163.5938 L 1866.2402 2037.2656 z M 991.00781 2050.4258 L 1070.6074 2097.9883 A 38.47958 38.47958 0 0 0 1069.6895 2106.3418 A 38.47958 38.47958 0 0 0 1071.1191 2116.7324 L 985.78125 2233.293 A 38.47958 38.47958 0 0 0 978.72266 2232.6406 A 38.47958 38.47958 0 0 0 971.79883 2233.2695 L 961.69336 2053.5449 A 38.47958 38.47958 0 0 0 972.5918 2055.1211 A 38.47958 38.47958 0 0 0 991.00781 2050.4258 z M 1595.373 2093.5234 A 38.47958 38.47958 0 0 0 1618.7383 2101.4316 A 38.47958 38.47958 0 0 0 1628.2129 2100.2461 L 1692.7051 2178.4141 A 38.47958 38.47958 0 0 0 1690.6738 2190.748 A 38.47958 38.47958 0 0 0 1698.3203 2213.7676 L 1602.127 2364.3828 A 38.47958 38.47958 0 0 0 1577.5859 2387.4863 L 1421.8926 2306.5469 A 38.47958 38.47958 0 0 0 1426.6328 2288.0488 A 38.47958 38.47958 0 0 0 1426.252 2282.6523 L 1505.3203 2257.4922 A 38.47958 38.47958 0 0 0 1540.582 2280.5742 A 38.47958 38.47958 0 0 0 1579.0625 2242.0938 A 38.47958 38.47958 0 0 0 1551.4629 2205.1855 L 1595.373 2093.5234 z M 1146.1602 2112.4453 L 1327.3359 2123.1719 A 38.47958 38.47958 0 0 0 1328.1797 2129.1816 L 1267.8691 2188.9902 A 38.47958 38.47958 0 0 0 1263.0234 2188.6836 A 38.47958 38.47958 0 0 0 1233.4922 2202.4961 L 1139.1094 2129.2168 A 38.47958 38.47958 0 0 0 1146.1602 2112.4453 z M 1078.9707 2131.4023 A 38.47958 38.47958 0 0 0 1108.168 2144.8203 A 38.47958 38.47958 0 0 0 1127.8047 2139.4316 L 1226.2422 2215.8574 A 38.47958 38.47958 0 0 0 1224.543 2227.1621 A 38.47958 38.47958 0 0 0 1224.9883 2232.9883 L 1147.3633 2319.2578 A 38.47958 38.47958 0 0 0 1127.998 2314.0293 A 38.47958 38.47958 0 0 0 1090.7012 2343.0449 L 1011.0449 2291.998 A 38.47958 38.47958 0 0 0 1017.2012 2271.1191 A 38.47958 38.47958 0 0 0 1000.1016 2239.1289 L 1078.9707 2131.4023 z M 416.20703 2144.543 L 245.36914 2401.1562 A 38.47958 38.47958 0 0 0 232.32031 2407.7207 L 135.80078 2310.5234 A 38.47958 38.47958 0 0 0 154.39453 2277.582 A 38.47958 38.47958 0 0 0 147.63477 2255.7969 L 416.20703 2144.543 z M 485.77148 2155.3438 L 640.83398 2231.2441 A 38.47958 38.47958 0 0 0 642.14844 2239.0879 L 499.90234 2346.3828 A 38.47958 38.47958 0 0 0 491.25195 2345.3984 A 38.47958 38.47958 0 0 0 475.16406 2348.9238 L 449.79102 2171.9531 A 38.47958 38.47958 0 0 0 453.95703 2172.1797 A 38.47958 38.47958 0 0 0 485.77148 2155.3438 z M 424.75977 2158.7637 A 38.47958 38.47958 0 0 0 433.85547 2166.5117 L 461.52148 2359.4492 A 38.47958 38.47958 0 0 0 454.52344 2372.4023 L 284.26172 2412.2637 A 38.47958 38.47958 0 0 0 263.79688 2400.543 L 424.75977 2158.7637 z M 1752.8027 2221.1035 L 1857.2285 2265.1465 L 1855.5195 2273.6484 L 1637.2559 2370.7949 A 38.47958 38.47958 0 0 0 1620.6211 2363.293 L 1709.6387 2223.9121 A 38.47958 38.47958 0 0 0 1729.1543 2229.2285 A 38.47958 38.47958 0 0 0 1752.8027 2221.1035 z M 714.46875 2244.3066 L 940.42188 2274.832 A 38.47958 38.47958 0 0 0 940.53906 2275.8945 L 788.06055 2345.1348 A 38.47958 38.47958 0 0 0 762.42969 2335.3574 A 38.47958 38.47958 0 0 0 738.67383 2343.5664 L 687.0918 2266.5059 A 38.47958 38.47958 0 0 0 714.46875 2244.3066 z M 1231.0898 2248.6309 A 38.47958 38.47958 0 0 0 1263.0234 2265.6426 A 38.47958 38.47958 0 0 0 1291.6758 2252.8457 L 1350.1816 2281.8223 A 38.47958 38.47958 0 0 0 1349.6738 2288.0488 A 38.47958 38.47958 0 0 0 1354.4277 2306.5742 L 1295.3906 2398.4785 A 38.47958 38.47958 0 0 0 1284.3809 2396.8691 A 38.47958 38.47958 0 0 0 1249.4102 2419.2988 L 1160.9629 2372.3555 A 38.47958 38.47958 0 0 0 1166.4766 2352.5098 A 38.47958 38.47958 0 0 0 1158.6055 2329.1895 L 1231.0898 2248.6309 z M 649.03711 2252.6816 A 38.47958 38.47958 0 0 0 668.57812 2265.8105 L 728.60742 2355.4902 A 38.47958 38.47958 0 0 0 723.95117 2373.8379 A 38.47958 38.47958 0 0 0 724.125 2377.4805 L 588.80859 2460.623 L 523.76367 2404.457 A 38.47958 38.47958 0 0 0 529.73047 2383.8789 A 38.47958 38.47958 0 0 0 515.11914 2353.6953 L 649.03711 2252.6816 z M 945.30664 2290.2012 A 38.47958 38.47958 0 0 0 978.72266 2309.5996 A 38.47958 38.47958 0 0 0 1000.3418 2302.9531 L 1083.5703 2356.2871 L 949.29688 2455.2207 A 38.47958 38.47958 0 0 0 930.125 2450.1035 A 38.47958 38.47958 0 0 0 894.53906 2473.9473 L 793.47461 2396.5703 A 38.47958 38.47958 0 0 0 800.91016 2373.8379 A 38.47958 38.47958 0 0 0 797.24023 2357.4395 L 945.30664 2290.2012 z M 1851.8926 2291.6797 L 1833.457 2383.3379 A 38.47958 38.47958 0 0 0 1822.3008 2410.4316 A 38.47958 38.47958 0 0 0 1824.8418 2424.1836 L 1743.1113 2634.6777 A 38.47958 38.47958 0 0 0 1742.4609 2634.6719 A 38.47958 38.47958 0 0 0 1730.1035 2636.7109 L 1617.916 2439.3516 A 38.47958 38.47958 0 0 0 1652.0488 2401.1191 A 38.47958 38.47958 0 0 0 1647.3613 2382.7148 L 1851.8926 2291.6797 z M 88.880859 2304.9609 A 38.47958 38.47958 0 0 0 115.91406 2316.0605 A 38.47958 38.47958 0 0 0 119.95117 2315.8477 L 222.4375 2419.0566 A 38.47958 38.47958 0 0 0 217.3457 2438.1875 A 38.47958 38.47958 0 0 0 217.62695 2442.8262 L 217.27734 2443.3516 L 217.68164 2443.2559 A 38.47958 38.47958 0 0 0 219.06836 2449.5664 L 51.986328 2603.334 A 38.47958 38.47958 0 0 0 33.912109 2598.8242 A 38.47958 38.47958 0 0 0 2.0214844 2615.7676 L -173.8418 2487.084 L 88.880859 2304.9609 z M 1411.9512 2318.2852 L 1562.5098 2396.5527 L 1321.5098 2425.2461 A 38.47958 38.47958 0 0 0 1308.6934 2405.5234 L 1364.6055 2318.4805 A 38.47958 38.47958 0 0 0 1388.1523 2326.5273 A 38.47958 38.47958 0 0 0 1411.9512 2318.2852 z M 1092.8184 2368.1035 A 38.47958 38.47958 0 0 0 1127.998 2390.9883 A 38.47958 38.47958 0 0 0 1150.4512 2383.7578 L 1245.9121 2434.4238 A 38.47958 38.47958 0 0 0 1245.9023 2435.3477 A 38.47958 38.47958 0 0 0 1245.9121 2436.207 L 967.125 2478.0195 A 38.47958 38.47958 0 0 0 960.8125 2465.3672 L 1092.8184 2368.1035 z M 453.01172 2388.1602 A 38.47958 38.47958 0 0 0 453.67578 2392.166 L 264.61523 2600.4062 A 38.47958 38.47958 0 0 0 256.59375 2599.5605 A 38.47958 38.47958 0 0 0 218.82422 2630.6934 L 71.421875 2628.7246 A 38.47958 38.47958 0 0 0 63.697266 2612.9434 L 226.50586 2463.1055 A 38.47958 38.47958 0 0 0 255.82617 2476.666 A 38.47958 38.47958 0 0 0 294.30469 2438.1875 A 38.47958 38.47958 0 0 0 292.25586 2425.7969 L 453.01172 2388.1602 z M 728.66797 2392.293 A 38.47958 38.47958 0 0 0 732.86914 2398.4688 L 696.74219 2526.3867 A 38.47958 38.47958 0 0 0 682.10938 2541.1836 L 600.7207 2470.9082 L 728.66797 2392.293 z M 782.21484 2406.8398 L 891.70312 2490.668 A 38.47958 38.47958 0 0 0 891.82812 2492.2988 L 749.61523 2541.5391 A 38.47958 38.47958 0 0 0 715.76562 2521.3555 A 38.47958 38.47958 0 0 0 713.73438 2521.4102 L 745.63477 2408.457 A 38.47958 38.47958 0 0 0 762.42969 2412.3164 A 38.47958 38.47958 0 0 0 782.21484 2406.8398 z M 1572.707 2410.4453 L 1567.8008 2418.127 L 1569.1621 2417.5215 L 1503.2773 2529.0625 A 38.47958 38.47958 0 0 0 1500.1816 2533.8789 L 1364.7793 2590.666 A 38.47958 38.47958 0 0 0 1336.8887 2578.6953 A 38.47958 38.47958 0 0 0 1325.627 2580.3809 L 1296.1855 2471.9727 A 38.47958 38.47958 0 0 0 1322.5508 2440.2285 L 1572.707 2410.4453 z M 456.68164 2411.1699 L 442.01562 2528.8418 A 38.47958 38.47958 0 0 0 414.80859 2562.0527 L 287.00195 2614.459 A 38.47958 38.47958 0 0 0 279.06836 2606.8047 L 456.68164 2411.1699 z M 513.41016 2415.3359 L 575.39844 2468.8613 L 472.19727 2532.2715 A 38.47958 38.47958 0 0 0 457.30664 2527.4336 L 471.11328 2416.666 A 38.47958 38.47958 0 0 0 491.25195 2422.3574 A 38.47958 38.47958 0 0 0 513.41016 2415.3359 z M 1582.7031 2424.0957 A 38.47958 38.47958 0 0 0 1599.2305 2436.8281 L 1717.1094 2644.2051 A 38.47958 38.47958 0 0 0 1705.3301 2663.0586 L 1567.291 2571.5273 A 38.47958 38.47958 0 0 0 1572.4883 2552.2188 A 38.47958 38.47958 0 0 0 1534.0098 2513.7383 A 38.47958 38.47958 0 0 0 1529.6016 2513.9922 L 1582.7031 2424.0957 z M 1835.1348 2439.1172 A 38.47958 38.47958 0 0 0 1860.7793 2448.9102 A 38.47958 38.47958 0 0 0 1886.123 2439.3848 L 2123.4531 2502.8711 L 2007.9297 2578.4355 A 38.47958 38.47958 0 0 0 1987.5332 2572.584 A 38.47958 38.47958 0 0 0 1949.248 2607.2051 L 1778.5059 2659.6836 A 38.47958 38.47958 0 0 0 1757.9434 2637.9238 L 1835.1348 2439.1172 z M 1249.1797 2450.8867 A 38.47958 38.47958 0 0 0 1251.002 2454.4883 L 1059.0352 2700.5215 A 38.47958 38.47958 0 0 0 1051.209 2699.7168 A 38.47958 38.47958 0 0 0 1027.9023 2707.5801 L 934.15234 2526.8496 A 38.47958 38.47958 0 0 0 968.35156 2493.0039 L 1249.1797 2450.8867 z M 1261.0723 2465.9648 A 38.47958 38.47958 0 0 0 1281.1074 2473.6875 L 1312.0859 2587.7578 A 38.47958 38.47958 0 0 0 1298.4102 2617.1738 A 38.47958 38.47958 0 0 0 1298.4414 2618.7441 L 1079.9199 2712.5762 A 38.47958 38.47958 0 0 0 1073.2656 2706.666 L 1261.0723 2465.9648 z M 587.31055 2479.1465 L 677.39648 2556.9316 A 38.47958 38.47958 0 0 0 677.35547 2557.5273 L 675.55664 2558.9707 L 490.95898 2558.7168 A 38.47958 38.47958 0 0 0 483.94531 2542.6582 L 587.31055 2479.1465 z M 893.13281 2507.7207 L 824.81445 2634.7793 A 38.47958 38.47958 0 0 0 819.10547 2634.3516 A 38.47958 38.47958 0 0 0 791.50586 2646.0176 L 737.06836 2591.8789 A 38.47958 38.47958 0 0 0 754.24414 2559.8359 A 38.47958 38.47958 0 0 0 754.03906 2555.8809 L 893.13281 2507.7207 z M 904.85352 2517.5996 A 38.47958 38.47958 0 0 0 915.96289 2524.3613 L 1017.3789 2719.8652 A 38.47958 38.47958 0 0 0 1012.7324 2737.8398 L 922.02344 2791.0215 A 38.47958 38.47958 0 0 0 891.41797 2775.8652 A 38.47958 38.47958 0 0 0 873.94727 2780.0605 L 835.96094 2707.4199 A 38.47958 38.47958 0 0 0 857.58398 2672.8301 A 38.47958 38.47958 0 0 0 839.07031 2639.9375 L 904.85352 2517.5996 z M 1495.5293 2552.0957 A 38.47958 38.47958 0 0 0 1495.5293 2552.2188 A 38.47958 38.47958 0 0 0 1534.0098 2590.6973 A 38.47958 38.47958 0 0 0 1557.2617 2582.877 L 1704.7227 2680.6523 A 38.47958 38.47958 0 0 0 1705.5664 2684.0781 L 1577.2031 2739.709 A 38.47958 38.47958 0 0 0 1553.834 2731.7988 A 38.47958 38.47958 0 0 0 1518.7969 2754.375 L 1369.3008 2637.916 A 38.47958 38.47958 0 0 0 1375.3691 2617.1738 A 38.47958 38.47958 0 0 0 1372.8711 2603.5371 L 1495.5293 2552.0957 z M 490.74805 2573.7188 L 656.88086 2573.9434 L 559.72266 2651.8438 A 38.47958 38.47958 0 0 0 542.79297 2647.918 A 38.47958 38.47958 0 0 0 519.60938 2655.6875 L 476.6875 2596.0996 A 38.47958 38.47958 0 0 0 490.74805 2573.7188 z M 680.18359 2574.4863 A 38.47958 38.47958 0 0 0 715.76562 2598.3145 A 38.47958 38.47958 0 0 0 721.78906 2597.8398 L 783.22266 2658.9336 A 38.47958 38.47958 0 0 0 780.625 2672.8301 A 38.47958 38.47958 0 0 0 781.96289 2682.8809 L 534.39062 2812.4043 A 38.47958 38.47958 0 0 0 515.11133 2806.332 L 526.24609 2721.1387 A 38.47958 38.47958 0 0 0 542.79297 2724.877 A 38.47958 38.47958 0 0 0 581.27148 2686.3965 A 38.47958 38.47958 0 0 0 571.93945 2661.2754 L 680.18359 2574.4863 z M 416.51758 2577.5645 A 38.47958 38.47958 0 0 0 418.87891 2583.25 L 382.97656 2652.3867 L 294.92773 2641.373 A 38.47958 38.47958 0 0 0 295.07422 2638.0391 A 38.47958 38.47958 0 0 0 293.7168 2627.916 L 416.51758 2577.5645 z M 429.23438 2595.8555 A 38.47958 38.47958 0 0 0 453.11719 2604.1641 A 38.47958 38.47958 0 0 0 463.06641 2602.8535 L 509.43164 2667.2207 A 38.47958 38.47958 0 0 0 508.92188 2668.1367 L 398.84766 2654.3691 L 429.23438 2595.8555 z M 1950.7715 2622.4297 A 38.47958 38.47958 0 0 0 1971.6406 2646.1074 L 1965.5918 2879.8867 A 38.47958 38.47958 0 0 0 1962.9902 2883.6426 L 1775.2305 2693.3223 A 38.47958 38.47958 0 0 0 1780.9121 2674.6367 L 1950.7715 2622.4297 z M 1302.0547 2633.5176 A 38.47958 38.47958 0 0 0 1305.2031 2639.0039 L 1245.3848 2748.125 A 38.47958 38.47958 0 0 0 1221.9629 2769.207 L 1089.5684 2741.2598 A 38.47958 38.47958 0 0 0 1089.5684 2741.2578 A 38.47958 38.47958 0 0 0 1089.6895 2738.1953 A 38.47958 38.47958 0 0 0 1087.5723 2725.6152 L 1302.0547 2633.5176 z M 71.849609 2643.7305 L 218.88477 2645.6953 A 38.47958 38.47958 0 0 0 223.55859 2657.7695 L 101.41602 2848.6113 A 38.47958 38.47958 0 0 0 93.025391 2853.873 L 38.890625 2675.459 A 38.47958 38.47958 0 0 0 71.849609 2643.7305 z M 1358.8379 2648.7793 L 1515.3594 2770.7148 A 38.47958 38.47958 0 0 0 1531.9199 2801.9062 L 1580.1367 2915.5957 A 38.47958 38.47958 0 0 0 1575.3438 2926.8672 L 1293.3809 2797.7422 A 38.47958 38.47958 0 0 0 1295.6387 2784.7578 A 38.47958 38.47958 0 0 0 1263.2383 2746.7637 L 1316.4141 2649.7539 A 38.47958 38.47958 0 0 0 1336.8887 2655.6543 A 38.47958 38.47958 0 0 0 1358.8379 2648.7793 z M 290.65039 2655.9551 L 375.60547 2666.582 L 349.80273 2716.2715 L 282.78711 2666.2285 A 38.47958 38.47958 0 0 0 290.65039 2655.9551 z M 391.47656 2668.5664 L 504.49219 2682.7031 A 38.47958 38.47958 0 0 0 504.3125 2686.3965 A 38.47958 38.47958 0 0 0 512.55078 2710.1875 L 499.64648 2808.9219 A 38.47958 38.47958 0 0 0 485.99414 2817.9727 L 361.98047 2725.3672 L 391.47656 2668.5664 z M 234.04102 2669.2148 A 38.47958 38.47958 0 0 0 256.59375 2676.5195 A 38.47958 38.47958 0 0 0 268.82617 2674.5234 L 342.79688 2729.7617 L 241.43164 2924.9648 A 38.47958 38.47958 0 0 0 214.73828 2938.5059 L 147.86523 2907.1914 A 38.47958 38.47958 0 0 0 155.96875 2883.5742 A 38.47958 38.47958 0 0 0 121.35156 2845.2891 L 234.04102 2669.2148 z M 788.62891 2696.3223 A 38.47958 38.47958 0 0 0 819.10547 2711.3105 A 38.47958 38.47958 0 0 0 821.04102 2711.2617 L 861.98438 2789.5586 A 38.47958 38.47958 0 0 0 852.9375 2814.3438 A 38.47958 38.47958 0 0 0 859.05469 2835.1582 L 704.49023 2974.0312 A 38.47958 38.47958 0 0 0 702.98633 2974.002 A 38.47958 38.47958 0 0 0 670.67383 2991.584 L 543.45508 2869.0527 A 38.47958 38.47958 0 0 0 552.07617 2844.7832 A 38.47958 38.47958 0 0 0 545.625 2823.4551 L 788.62891 2696.3223 z M 1712.5762 2697.3887 A 38.47958 38.47958 0 0 0 1714.8125 2699.9121 L 1621.2559 2898.584 A 38.47958 38.47958 0 0 0 1612.6992 2897.6191 A 38.47958 38.47958 0 0 0 1591.502 2903.9824 L 1551.0762 2808.6582 A 38.47958 38.47958 0 0 0 1553.834 2808.7578 A 38.47958 38.47958 0 0 0 1592.3145 2770.2793 A 38.47958 38.47958 0 0 0 1587.4785 2751.6035 L 1712.5762 2697.3887 z M 1765.0176 2704.3262 L 1957.6094 2899.5488 A 38.47958 38.47958 0 0 0 1957.3926 2903.6289 A 38.47958 38.47958 0 0 0 1957.6641 2908.1738 L 1753.1543 3113.6094 L 1630.9316 2969.9824 A 38.47958 38.47958 0 0 0 1651.1777 2936.0977 A 38.47958 38.47958 0 0 0 1651.1641 2935.0801 L 1793.0957 2863.7148 A 38.47958 38.47958 0 0 0 1823.0078 2877.9902 A 38.47958 38.47958 0 0 0 1861.4883 2839.5098 A 38.47958 38.47958 0 0 0 1823.0078 2801.0312 A 38.47958 38.47958 0 0 0 1800.2246 2808.5039 L 1747.1445 2711.3457 A 38.47958 38.47958 0 0 0 1765.0176 2704.3262 z M 1727.332 2708.5312 A 38.47958 38.47958 0 0 0 1728.8516 2709.1426 L 1789.6211 2820.3828 A 38.47958 38.47958 0 0 0 1784.5293 2839.5098 A 38.47958 38.47958 0 0 0 1786.1133 2850.4355 L 1647.6699 2920.0488 A 38.47958 38.47958 0 0 0 1634.9531 2904.709 L 1727.332 2708.5312 z M 354.97656 2738.8574 L 477.82812 2830.5957 A 38.47958 38.47958 0 0 0 475.13672 2843.5898 L 272.04688 2936.8789 A 38.47958 38.47958 0 0 0 257.19531 2927.1602 L 354.97656 2738.8574 z M 1085.4668 2755.7227 L 1218.6895 2783.8477 A 38.47958 38.47958 0 0 0 1218.6797 2784.7578 A 38.47958 38.47958 0 0 0 1257.1582 2823.2383 A 38.47958 38.47958 0 0 0 1285.5977 2810.6777 L 1574.8711 2943.1504 A 38.47958 38.47958 0 0 0 1575.082 2944.1973 L 1313.7305 2989.752 A 38.47958 38.47958 0 0 0 1277.9844 2965.5215 A 38.47958 38.47958 0 0 0 1255.8809 2972.502 L 1075.4297 2768.0957 A 38.47958 38.47958 0 0 0 1085.4668 2755.7227 z M 84.808594 2903.8887 A 38.47958 38.47958 0 0 0 117.48828 2922.0527 A 38.47958 38.47958 0 0 0 135.10938 2917.7812 L 207.46094 2951.6621 A 38.47958 38.47958 0 0 0 205.64258 2963.3496 A 38.47958 38.47958 0 0 0 207.31055 2974.5547 L 99.478516 3110.0781 L -118.44531 3009.5254 L 84.808594 2903.8887 z "
       transform="translate(-399.24905,-523.82166)" />
  </g>
</svg>
