<?xml version="1.0" encoding="UTF-8" standalone="no"?>
<svg
   xmlns:dc="http://purl.org/dc/elements/1.1/"
   xmlns:cc="http://creativecommons.org/ns#"
   xmlns:rdf="http://www.w3.org/1999/02/22-rdf-syntax-ns#"
   xmlns:svg="http://www.w3.org/2000/svg"
   xmlns="http://www.w3.org/2000/svg"
   xmlns:xlink="http://www.w3.org/1999/xlink"
   xmlns:sodipodi="http://sodipodi.sourceforge.net/DTD/sodipodi-0.dtd"
   xmlns:inkscape="http://www.inkscape.org/namespaces/inkscape"
   version="1.1"
   id="svg97467"
   width="2000"
   height="1333"
   viewBox="0 0 2000 1333"
   sodipodi:docname="bkgd-chris-nodes-3.svg"
   inkscape:version="1.0.2 (e86c870879, 2021-01-15)"
   inkscape:export-filename="/home/duffy/SparkleShare/github.com/cube-design/_common-assets/bkgd-chris-nodes_no-logo.png"
   inkscape:export-xdpi="96"
   inkscape:export-ydpi="96">
  <metadata
     id="metadata97473">
    <rdf:RDF>
      <cc:Work
         rdf:about="">
        <dc:format>image/svg+xml</dc:format>
        <dc:type
           rdf:resource="http://purl.org/dc/dcmitype/StillImage" />
        <dc:title></dc:title>
      </cc:Work>
    </rdf:RDF>
  </metadata>
  <defs
     id="defs97471">
    <linearGradient
       x1="0"
       y1="0"
       x2="1"
       y2="0"
       gradientUnits="userSpaceOnUse"
       gradientTransform="matrix(2873.01,0,0,-2873.01,699.055,1444.61)"
       spreadMethod="pad"
       id="linearGradient161468">
      <stop
         style="stop-opacity:1;stop-color:#3a7cc7"
         offset="0"
         id="stop161464" />
      <stop
         style="stop-opacity:1;stop-color:#7ad4ed"
         offset="1"
         id="stop161466" />
    </linearGradient>
    <linearGradient
       inkscape:collect="always"
       xlink:href="#linearGradient161468"
       id="linearGradient97728"
       gradientUnits="userSpaceOnUse"
       gradientTransform="matrix(72.95139,0,0,72.95139,709.28536,1156.7155)"
       x1="0"
       y1="0"
       x2="1"
       y2="0"
       spreadMethod="pad" />
    <linearGradient
       inkscape:collect="always"
       xlink:href="#linearGradient161468"
       id="linearGradient98304"
       x1="-399.24905"
       y1="142.67834"
       x2="1600.7509"
       y2="142.67834"
       gradientUnits="userSpaceOnUse"
       gradientTransform="matrix(1.001001,0,0,1.0007513,-0.60134192,-0.60720108)" />
  </defs>
  <sodipodi:namedview
     pagecolor="#ffffff"
     bordercolor="#666666"
     borderopacity="1"
     objecttolerance="10"
     gridtolerance="10"
     guidetolerance="10"
     inkscape:pageopacity="0"
     inkscape:pageshadow="2"
     inkscape:window-width="2560"
     inkscape:window-height="1369"
     id="namedview97469"
     showgrid="false"
     fit-margin-top="0"
     fit-margin-left="0"
     fit-margin-right="0"
     fit-margin-bottom="0"
     inkscape:zoom="0.56497832"
     inkscape:cx="1399.2491"
     inkscape:cy="837.76292"
     inkscape:window-x="2560"
     inkscape:window-y="34"
     inkscape:window-maximized="1"
     inkscape:current-layer="g97475"
     inkscape:document-rotation="0" />
  <g
     inkscape:groupmode="layer"
     inkscape:label="Image"
     id="g97475"
     transform="translate(399.24905,523.82166)">
    <rect
       style="fill:url(#linearGradient98304);fill-opacity:1;stroke:none;stroke-width:2;stroke-linecap:round;stroke-linejoin:round"
       id="rect97479"
       width="2000"
       height="1332"
       x="-399.24905"
       y="-523.82166"
       ry="5.8165326" />
    <path
       id="rect7139"
       style="fill:#ffffff;fill-opacity:0.113211;stroke:none;stroke-width:2;stroke-linecap:round;stroke-linejoin:round"
       d="M 5.8125 0 C 2.5925602 0 0 2.5925602 0 5.8125 L 0 76.365234 L 65.25 90.96875 C 71.26671 77.56585 84.719951 68.226162 100.36328 68.226562 C 106.36206 68.226663 112.03908 69.600328 117.09961 72.048828 L 245.12305 17.056641 C 245.73161 10.811994 247.8384 5.00874 251.07031 0 L 5.8125 0 z M 315.75977 0 C 319.63572 6.0052663 321.89431 13.153023 321.89453 20.832031 C 321.89457 22.468731 321.78033 24.077156 321.58203 25.660156 L 556.41211 93.564453 C 561.93263 79.076453 575.94679 68.779797 592.37305 68.779297 C 601.92404 68.779097 610.65574 72.266744 617.38281 78.027344 L 690.41797 0 L 315.75977 0 z M 710.96484 0 L 626.75 89.972656 C 629.36942 95.171156 630.85334 101.03941 630.85352 107.25781 C 630.85363 111.84651 630.04761 116.24547 628.57422 120.32617 L 776.66992 226.60938 C 788.99884 207.86898 810.15146 195.4411 834.24805 195.2832 C 834.39974 195.2827 834.55144 195.2827 834.70312 195.2832 C 851.86989 195.2832 867.5708 201.52691 879.68945 211.84961 L 929.5918 177.10938 C 929.33701 175.32067 929.19723 173.49377 929.19727 171.63477 C 929.19746 164.06507 931.39305 157.01245 935.16797 151.06055 L 843.10352 0 L 710.96484 0 z M 860.66992 0 L 945.92969 139.89648 C 952.11755 135.64848 959.60496 133.15615 967.67773 133.15625 C 981.89095 133.15675 994.29583 140.86983 1000.959 152.33203 L 1266.877 108.87109 C 1268.2344 94.652394 1277.3267 82.695 1289.9004 77.25 L 1281.1836 36.365234 C 1267.7063 30.379434 1258.3024 16.886753 1258.3027 1.1894531 C 1258.3027 0.79058433 1258.3219 0.39594624 1258.334 0 L 860.66992 0 z M 1335.2324 0 C 1335.2446 0.39587495 1335.2617 0.79060054 1335.2617 1.1894531 C 1335.2622 22.293653 1318.2708 39.421003 1297.2227 39.658203 L 1304.5684 74.107422 C 1304.7713 74.104422 1304.9721 74.091797 1305.1758 74.091797 C 1314.7942 74.092097 1323.5806 77.630844 1330.3262 83.464844 L 1440.3633 0 L 1335.2324 0 z M 1465.1836 0 L 1339.5527 95.291016 C 1341.4071 98.972816 1342.6882 102.99092 1343.2773 107.23242 L 1515.7617 84.169922 C 1518.2325 74.318422 1524.5 65.976256 1532.9199 60.785156 L 1519.8789 0 L 1465.1836 0 z M 1535.2188 0 L 1547.1328 55.539062 C 1549.0728 55.237863 1551.0595 55.079978 1553.084 55.080078 C 1565.8822 55.080378 1577.2135 61.334766 1584.209 70.947266 L 1719.3965 19.480469 L 1719.3418 18.042969 L 1679.4336 0 L 1535.2188 0 z M 1715.8457 0 L 1718.6836 1.2832031 L 1718.6328 0 L 1715.8457 0 z M 1721.623 0 L 1753.9961 17.248047 L 1760.1348 20.023438 L 1759.5918 20.230469 L 1872.3906 80.326172 C 1879.4027 72.937272 1889.3102 68.321966 1900.3008 68.322266 C 1912.4566 68.322566 1923.2883 73.965178 1930.3398 82.767578 L 2000 21.097656 L 2000 5.8125 C 2000 2.5925602 1997.4074 0 1994.1875 0 L 1721.623 0 z M 1740.9844 27.3125 L 1734.8086 29.666016 L 1742.0449 213.86133 C 1748.5742 214.99883 1754.5365 217.77757 1759.4922 221.76367 L 1864.8008 121.67383 C 1862.8818 117.09873 1861.8205 112.07473 1861.8203 106.80273 C 1861.8202 101.95353 1862.7243 97.318322 1864.3613 93.044922 L 1740.9844 27.3125 z M 246.79688 32.662109 L 130.39453 82.664062 C 135.67502 89.251762 138.84199 97.607431 138.8418 106.70703 C 138.8418 106.95073 138.82727 107.19099 138.82227 107.43359 L 331.95508 150.65625 C 336.92165 135.15095 351.4473 123.92343 368.60156 123.92383 C 382.99536 123.92423 395.53362 131.83331 402.13281 143.53711 L 552.02148 107.91016 L 316.83203 39.900391 C 310.20288 51.493191 297.72696 59.3121 283.41602 59.3125 C 266.29219 59.3129 251.7885 48.124809 246.79688 32.662109 z M 1720.0176 35.294922 L 1590.5039 84.599609 C 1591.1901 87.475309 1591.5624 90.472794 1591.5625 93.558594 C 1591.5627 101.36019 1589.2342 108.61383 1585.2441 114.67773 L 1707.1211 225.66992 C 1712.3474 220.00742 1719.2509 215.92532 1727.0449 214.19922 L 1720.0176 35.294922 z M 2000 41.128906 L 1937.3906 96.556641 C 1938.2899 99.819541 1938.7795 103.25208 1938.7793 106.80078 C 1938.7788 128.05158 1921.5515 145.2787 1900.3008 145.2793 L 1900.2539 145.2793 L 1885.2168 292.93945 C 1902.5855 294.07955 1916.8062 306.73646 1920.3086 323.35156 L 2000 303.53125 L 2000 41.128906 z M 0 91.736328 L 0 377.34375 C 1.2741577 377.21639 2.5653429 377.14841 3.8730469 377.14844 C 11.677337 377.14834 18.93485 379.4781 25 383.4707 L 193.69922 321.78906 C 194.12927 314.97476 196.33073 308.6449 199.85156 303.25 L 97.457031 145.06445 C 77.564621 143.57755 61.883382 126.97973 61.882812 106.70703 C 61.882812 106.33303 61.901509 105.9632 61.912109 105.5918 L 0 91.736328 z M 1515.0449 99.400391 L 1342.3574 122.48828 C 1338.8261 135.76248 1328.381 146.2125 1315.1094 149.75 L 1342.9941 251.56641 C 1347.0293 250.12961 1351.372 249.34004 1355.9004 249.33984 C 1362.1616 249.33974 1368.0679 250.84505 1373.293 253.49805 L 1516.9805 106.89844 C 1516.0948 104.50214 1515.44 101.99409 1515.0449 99.400391 z M 1525.1406 120 L 1385.1504 262.83203 C 1390.9006 269.55643 1394.3811 278.27891 1394.3809 287.82031 C 1394.3808 289.42771 1394.2696 291.00875 1394.0781 292.56445 L 1464.5586 304.88867 C 1469.4854 289.31717 1484.0451 278.02784 1501.2461 278.02734 C 1515.5105 278.02704 1527.9535 285.79412 1534.5996 297.32422 L 1697.6016 258.95312 C 1697.1603 256.62143 1696.92 254.21791 1696.9199 251.75781 C 1696.9197 247.18441 1697.7215 242.79957 1699.1855 238.73047 L 1574.7188 125.38086 C 1568.5535 129.58096 1561.1066 132.03876 1553.084 132.03906 C 1542.0758 132.03926 1532.1546 127.4096 1525.1406 120 z M 135.63477 122.08984 C 131.48089 131.59954 123.59915 139.10476 113.83203 142.75586 L 210.63281 292.30273 C 216.76336 288.17673 224.14639 285.76738 232.0918 285.76758 C 237.25626 285.76768 242.18003 286.79317 246.67969 288.63867 L 331.46094 172.4707 C 330.86519 170.2678 330.46307 167.98728 330.26758 165.64648 L 135.63477 122.08984 z M 556.89258 122.17188 L 406.80078 157.8457 C 406.97751 159.342 407.08012 160.8605 407.08008 162.4043 C 407.07981 171.8515 403.66877 180.49851 398.01953 187.19531 L 437.80664 214.78125 C 444.36777 209.58285 452.65665 206.4705 461.67773 206.4707 C 482.92936 206.4713 500.15676 223.69957 500.15625 244.95117 C 500.15618 247.26147 499.94109 249.52045 499.55078 251.71875 L 602.27734 295.69141 C 606.31683 288.39761 612.65566 282.56184 620.31641 279.14844 L 594.94727 145.64453 C 594.09551 145.70153 593.23906 145.73828 592.37305 145.73828 C 576.40984 145.73778 562.71859 136.01677 556.89258 122.17188 z M 1268.373 123.82812 L 1005.834 166.73438 C 1006.0383 168.34047 1006.1562 169.97317 1006.1562 171.63477 C 1006.1563 172.25887 1006.1387 172.87919 1006.1094 173.49609 L 1184.5488 249.70312 C 1190.8972 241.32362 1200.5975 235.62862 1211.6543 234.60742 L 1268.7871 125.08398 C 1268.6439 124.66748 1268.5022 124.25092 1268.373 123.82812 z M 620.78906 133.20312 C 617.59335 136.70112 613.75723 139.60037 609.4707 141.73047 L 634.95703 275.84961 C 635.28966 275.84161 635.6204 275.82422 635.95508 275.82422 C 652.50057 275.82382 666.60426 286.26828 672.04102 300.92188 L 766.36719 276.93164 C 765.66213 272.96284 765.27343 268.88429 765.27344 264.71289 C 765.27324 256.05289 766.87352 247.76849 769.77148 240.12109 L 620.78906 133.20312 z M 1873.3438 134.25195 L 1769.1543 233.2793 C 1772.164 238.7649 1773.8792 245.06117 1773.8789 251.75977 C 1773.8784 272.28947 1757.7997 289.06028 1737.5488 290.17578 L 1728.832 472.2793 C 1728.9399 472.2793 1729.0462 472.26953 1729.1543 472.26953 C 1734.3609 472.26973 1739.3222 473.30949 1743.8516 475.18359 L 1850.5234 352.48047 C 1846.5189 346.40937 1844.1814 339.14112 1844.1816 331.32422 C 1844.1821 314.53642 1854.9372 300.26822 1869.9297 295.01172 L 1885.4785 142.31836 C 1880.9221 140.41466 1876.8131 137.65925 1873.3438 134.25195 z M 1278.0156 139.82812 L 1227.5957 236.47656 C 1241.0978 241.05546 1251.2325 252.91753 1253.3145 267.39062 L 1318.4121 279.16016 C 1320.1607 271.56096 1324.1539 264.82389 1329.6641 259.68359 L 1299.8086 150.66992 C 1291.3549 149.48952 1283.7789 145.57103 1278.0156 139.82812 z M 339.23633 187.25977 L 259.19336 296.9375 C 266.21814 303.9092 270.57054 313.56915 270.57031 324.24805 C 270.5702 328.77915 269.78021 333.12491 268.3418 337.16211 L 406.47266 431.58984 C 412.92929 422.41304 423.28988 416.19108 435.14453 415.33398 L 446.67578 280.39453 C 432.87766 274.54763 423.19772 260.88057 423.19727 244.95117 C 423.1971 238.16657 424.95907 231.79652 428.04102 226.26172 L 385.67578 196.88672 C 380.52987 199.43982 374.73544 200.88261 368.60156 200.88281 C 356.82775 200.88311 346.29491 195.58997 339.23633 187.25977 z M 1002.4043 188.22461 C 996.20883 201.17191 982.9889 210.11483 967.67773 210.11523 C 965.33992 210.11533 963.05489 209.89539 960.83203 209.49609 L 961.07422 299.91797 C 964.71082 298.77867 968.5795 298.16201 972.5918 298.16211 C 993.84264 298.16271 1011.0697 315.38983 1011.0703 336.64062 C 1011.0705 345.49453 1008.0724 353.64418 1003.0469 360.14648 L 1076.7266 404.17188 C 1083.4038 394.71917 1094.2283 388.41104 1106.5566 387.90234 L 1179.4004 286.92969 C 1177.7001 282.58579 1176.756 277.86242 1176.7559 272.91602 C 1176.7558 269.56482 1177.1853 266.31424 1177.9902 263.21484 L 1002.4043 188.22461 z M 934.85547 191.72266 L 890.10742 222.875 C 898.90762 234.5104 904.13284 248.99979 904.13281 264.71289 C 904.13283 276.21939 901.31767 287.06199 896.36328 296.61719 L 937.25781 321.39062 C 939.33243 316.59092 942.35923 312.30265 946.0957 308.75195 L 945.81445 203.29688 C 941.40569 200.24688 937.66466 196.30276 934.85547 191.72266 z M 494.08008 265.69336 L 494.08008 265.69727 C 487.23923 276.36127 475.28797 283.43319 461.67773 283.43359 C 461.6083 283.43359 461.54005 283.42423 461.4707 283.42383 L 450.04297 417.16992 C 457.52501 419.64442 463.9902 424.34399 468.64844 430.49609 L 600.93359 330.24023 C 598.71988 325.38333 597.47672 319.99059 597.47656 314.30469 C 597.47653 312.86729 597.56329 311.45119 597.7168 310.05469 L 494.08008 265.69336 z M 1703.3281 273.01758 L 1539.4043 311.60156 C 1539.6091 313.20886 1539.7264 314.84286 1539.7266 316.50586 C 1539.7266 322.63256 1538.2874 328.421 1535.7402 333.5625 L 1587.4629 360.55078 C 1594.4455 350.81938 1605.8471 344.47296 1618.7383 344.47266 C 1639.9899 344.47216 1657.218 361.69957 1657.2188 382.95117 C 1657.2189 395.41187 1651.2911 406.48313 1642.1074 413.51562 L 1700.8379 484.69922 C 1704.4087 480.81982 1708.7684 477.68234 1713.6602 475.52734 L 1722.6328 288.05859 C 1714.6756 285.25999 1707.9165 279.92498 1703.3281 273.01758 z M 1252.5137 282.48633 C 1248.2591 299.10723 1233.1833 311.39403 1215.2363 311.39453 C 1204.7124 311.39483 1195.1795 307.16621 1188.2324 300.32031 L 1122.9551 390.80859 C 1134.1873 395.48829 1142.7172 405.33882 1145.5898 417.38672 L 1329.3789 428.26758 C 1331.3025 422.70548 1334.4567 417.71728 1338.5293 413.64258 L 1338.6875 322.23242 C 1327.9373 316.84442 1320.0672 306.57322 1317.9805 294.32422 L 1252.5137 282.48633 z M 770.57227 291.33789 L 674.39648 315.80273 C 673.76212 332.33883 662.70211 346.19938 647.5957 350.98828 L 662.11719 514.37695 C 664.83523 513.02395 667.73507 511.98483 670.77148 511.30273 L 782.22656 310.14453 C 777.40236 304.57713 773.44267 298.24389 770.57227 291.33789 z M 1389.2812 306.95312 C 1382.6422 318.51022 1370.1849 326.29923 1355.9004 326.29883 C 1355.1553 326.29883 1354.4163 326.27247 1353.6816 326.23047 L 1353.5449 404.35156 C 1357.3802 403.06976 1361.4797 402.36513 1365.7461 402.36523 C 1369.6412 402.36533 1373.3999 402.94909 1376.9434 404.02539 L 1464.043 326.3457 C 1463.4875 324.2392 1463.1108 322.06168 1462.9199 319.83008 L 1423.7285 312.97656 L 1389.2812 306.95312 z M 888.06445 309.125 C 879.78897 319.0571 868.79077 326.63136 856.21875 330.72656 L 955.85352 536.86328 L 946.16797 364.60156 C 938.83515 357.66926 934.2283 347.88944 934.12109 337.02734 L 888.06445 309.125 z M 2000 318.99023 L 1920.4121 338.7832 C 1917.518 353.5156 1906.2192 365.22581 1891.7129 368.72461 L 1892.3867 552.75195 C 1905.4737 558.89475 1914.5393 572.18621 1914.5391 587.59961 C 1914.5391 588.22441 1914.5222 588.84539 1914.4922 589.46289 L 2000 619.875 L 2000 318.99023 z M 793.56445 320.63477 L 687.89453 511.3457 C 704.97593 515.2746 717.71724 530.56389 717.7168 548.83789 C 717.7168 549.09529 717.70227 549.34927 717.69727 549.60547 L 941.9082 579.89844 C 943.84042 573.55154 947.37223 567.90627 952.0293 563.41797 L 841.0625 333.8418 C 838.96703 334.0322 836.84821 334.14258 834.70312 334.14258 C 819.30238 334.14258 805.07931 329.11987 793.56445 320.63477 z M 195.7832 336.99609 L 36.501953 395.23633 C 40.205683 401.14983 42.353696 408.13671 42.353516 415.62891 C 42.353066 431.62621 32.589346 445.33983 18.697266 451.14453 L 92.214844 567.27734 C 98.748394 562.16034 106.97178 559.10176 115.91406 559.10156 C 123.12138 559.10136 129.86218 561.08736 135.62891 564.53516 L 399.51562 455.2207 C 399.49599 454.716 399.47658 454.21067 399.47656 453.70117 C 399.4765 450.91087 399.77971 448.19201 400.34375 445.57031 L 260.62695 350.05859 C 253.58614 357.83809 243.41073 362.72616 232.0918 362.72656 C 215.3096 362.72696 201.0448 351.98039 195.7832 336.99609 z M 1470.9824 340.25391 L 1390.8652 411.70898 C 1399.0423 418.76548 1404.2249 429.1973 1404.2246 440.8457 C 1404.224 462.0965 1386.9969 479.32362 1365.7461 479.32422 C 1353.0667 479.32452 1341.8212 473.19107 1334.8105 463.73047 L 1283.5137 514.59961 C 1294.3182 521.41291 1301.5016 533.44491 1301.502 547.16211 C 1301.5021 551.62801 1300.7329 555.91239 1299.334 559.90039 L 1355.4902 587.71289 C 1362.2857 576.82129 1374.369 569.56866 1388.1523 569.56836 C 1402.2618 569.56796 1414.5909 577.16683 1421.2891 588.49023 L 1502.1211 562.76953 C 1502.1171 562.54383 1502.1035 562.32035 1502.1035 562.09375 C 1502.1041 542.44775 1516.8313 526.25252 1535.8457 523.91602 L 1584.4297 400.36719 C 1581.7694 395.13659 1580.2596 389.22147 1580.2598 382.95117 C 1580.2599 379.95127 1580.614 377.03677 1581.2637 374.23438 L 1526.4023 345.61133 C 1519.6558 351.44783 1510.8671 354.98663 1501.2461 354.98633 C 1488.9591 354.98603 1478.0272 349.21971 1470.9824 340.25391 z M 609.69727 342.41992 L 475.27344 444.29883 C 476.02924 447.30833 476.43562 450.45717 476.43555 453.70117 C 476.43555 453.82497 476.42698 453.94681 476.42578 454.07031 L 643.08008 535.64258 C 644.31725 532.25338 646.02482 529.09171 648.11133 526.22461 L 632.68164 352.63477 C 623.82542 351.88767 615.82598 348.14642 609.69727 342.41992 z M 1861.0879 363.19141 L 1756.416 483.59375 C 1763.3478 490.55265 1767.6324 500.15005 1767.6328 510.74805 C 1767.633 517.39795 1765.9456 523.65393 1762.9766 529.11133 L 1845.6816 563.99609 C 1852.7224 554.94739 1863.7073 549.11884 1876.0605 549.11914 C 1876.5007 549.11914 1876.9365 549.13734 1877.373 549.15234 L 1876.7129 369.3457 C 1870.9899 368.4574 1865.6837 366.30891 1861.0879 363.19141 z M 991.01562 370.42969 C 985.54385 373.41979 979.26669 375.12089 972.5918 375.12109 C 968.80508 375.12119 965.14989 374.56412 961.69336 373.54492 L 971.79883 553.27344 C 974.04604 552.86494 976.35758 552.64062 978.72266 552.64062 C 981.13456 552.64073 983.49036 552.87228 985.7793 553.29688 L 1071.1211 436.73047 C 1070.1958 433.42447 1069.6896 429.9432 1069.6895 426.3418 C 1069.6894 423.4729 1070.012 420.68003 1070.6074 417.99023 L 991.01562 370.42969 z M 1595.375 413.51953 L 1551.4629 525.18555 C 1567.4143 529.88035 1579.0621 544.62215 1579.0625 562.09375 C 1579.063 583.34605 1561.8343 600.57472 1540.582 600.57422 C 1524.8078 600.57382 1511.2587 591.07784 1505.3184 577.49414 L 1426.248 602.6543 C 1426.4955 604.4181 1426.6329 606.21673 1426.6328 608.04883 C 1426.6326 614.75533 1424.913 621.05883 1421.8965 626.54883 L 1564.8535 700.86523 C 1571.6395 689.92793 1583.7505 682.64103 1597.5684 682.64062 C 1599.4105 682.64063 1601.2192 682.779 1602.9922 683.0293 L 1698.3184 533.77148 C 1693.517 527.35118 1690.6736 519.38185 1690.6738 510.74805 C 1690.6738 506.43255 1691.3948 502.28706 1692.7051 498.41406 L 1628.2188 420.25195 C 1625.1856 421.02035 1622.0101 421.43174 1618.7383 421.43164 C 1609.9494 421.43144 1601.8534 418.47883 1595.375 413.51953 z M 1146.1621 432.44531 C 1145.1716 438.65681 1142.6966 444.3729 1139.1094 449.2168 L 1233.4941 522.49609 C 1240.5529 514.05529 1251.1595 508.68329 1263.0234 508.68359 C 1264.6635 508.68359 1266.2753 508.79895 1267.8613 508.99805 L 1328.1797 449.17969 C 1327.7486 447.22829 1327.4642 445.22217 1327.3418 443.17188 L 1146.1621 432.44531 z M 1078.9766 451.39453 L 1000.1035 559.12695 C 1010.4124 566.03015 1017.2008 577.78074 1017.2012 591.11914 C 1017.2014 598.81694 1014.9321 605.97974 1011.0391 611.99414 L 1090.6953 663.03906 C 1094.915 646.36676 1110.0141 634.0289 1127.998 634.0293 C 1135.0596 634.0295 1141.6709 635.94172 1147.3594 639.26172 L 1224.9824 552.99414 C 1224.6932 551.09204 1224.5429 549.14511 1224.543 547.16211 C 1224.5431 543.22651 1225.1365 539.42922 1226.2344 535.85352 L 1127.8047 459.43164 C 1122.0552 462.85084 1115.3428 464.82051 1108.168 464.82031 C 1096.4889 464.82001 1086.0334 459.60953 1078.9766 451.39453 z M 0 453.89062 L 0 668.32422 L 80.457031 612.55078 C 78.511831 607.94928 77.435697 602.89193 77.435547 597.58203 C 77.435517 596.12723 77.524431 594.69425 77.681641 593.28125 L 74.34375 589.91992 L 78.601562 588.15625 C 79.389392 585.02745 80.559177 582.0507 82.060547 579.2793 L 2.8027344 454.08008 C 1.8584106 454.05424 0.9261622 453.98328 0 453.89062 z M 473.18359 469.18164 C 468.75628 479.24024 460.15447 487.04498 449.56641 490.39258 L 472.65625 651.43359 C 484.09547 651.84499 494.2613 657.24149 501.04102 665.52539 L 642.14844 559.08789 C 641.45355 556.56839 641.00879 553.94645 640.8418 551.24805 L 473.18359 469.18164 z M 403.08789 469.97656 L 147.63086 575.79883 C 151.89323 581.99333 154.3947 589.49433 154.39453 597.58203 C 154.39414 611.55403 146.94588 623.78459 135.80469 630.52539 L 232.32617 727.72656 C 236.16435 724.76106 240.57568 722.50725 245.36914 721.15625 L 407.65039 477.39648 C 405.86408 475.11518 404.32849 472.62946 403.08789 469.97656 z M 419.11133 487.24609 L 263.80078 720.53906 C 271.82741 722.23106 278.93109 726.42187 284.25977 732.26367 L 433.49805 697.32617 C 433.02528 694.91627 432.77156 692.42731 432.77148 689.87891 C 432.77109 673.34301 443.20356 659.24643 457.84375 653.80273 L 434.64648 492.02734 C 429.03799 491.54914 423.77429 489.87119 419.11133 487.24609 z M 1752.793 541.09961 C 1746.2692 546.18831 1738.0691 549.22832 1729.1543 549.22852 C 1722.0293 549.22872 1715.3615 547.28546 1709.6387 543.91016 L 1617.4922 688.19336 C 1620.8236 690.21336 1623.8179 692.73061 1626.3867 695.63281 L 1839.8457 600.625 C 1838.382 596.5566 1837.5803 592.17211 1837.5801 587.59961 C 1837.5801 584.08001 1838.0622 580.67455 1838.9473 577.43555 L 1752.793 541.09961 z M 714.4707 564.30664 C 709.53289 575.53544 699.39221 583.95962 687.0957 586.51172 L 738.67969 663.57422 C 745.22145 658.43292 753.46394 655.35772 762.42969 655.35742 C 772.27376 655.35722 781.2496 659.05817 788.05469 665.13867 L 940.54688 595.89062 C 940.50322 595.53843 940.45783 595.18713 940.42383 594.83203 L 714.4707 564.30664 z M 1231.0879 568.63477 L 1158.6016 649.19336 C 1163.5386 655.66406 1166.4768 663.74227 1166.4766 672.50977 C 1166.4764 679.77127 1164.463 686.56232 1160.9668 692.35742 L 1249.4102 739.29883 C 1255.4946 726.06413 1268.8602 716.86954 1284.3809 716.86914 C 1288.2085 716.86914 1291.9031 717.43596 1295.3926 718.47656 L 1354.4258 626.57812 C 1351.3995 621.08142 1349.674 614.76693 1349.6738 608.04883 C 1349.6738 605.92803 1349.8516 603.84987 1350.1816 601.82227 L 1291.6719 572.84375 C 1284.6271 580.69775 1274.4045 585.64228 1263.0234 585.64258 C 1249.7225 585.64288 1237.9994 578.89437 1231.0879 568.63477 z M 649.04297 572.67773 L 508.14844 678.95508 C 509.17227 682.41878 509.73056 686.08321 509.73047 689.87891 C 509.73028 696.54951 508.03147 702.82367 505.04492 708.29297 L 588.80859 780.62305 L 724.12891 697.47852 C 724.01627 696.27942 723.95121 695.06649 723.95117 693.83789 C 723.95101 687.19209 725.63595 680.93938 728.60156 675.48438 L 668.57617 585.80859 C 660.75574 583.55739 653.96079 578.89763 649.04297 572.67773 z M 1910.834 604.08203 C 1904.6594 617.08483 1891.4121 626.07782 1876.0605 626.07812 C 1872.0852 626.07822 1868.2501 625.47457 1864.6426 624.35547 L 1849.7109 698.58594 C 1867.6529 701.85144 1881.2601 717.54724 1881.2598 736.43164 C 1881.2597 738.47334 1881.0975 740.47604 1880.791 742.43164 L 2000 774.32031 L 2000 635.79492 L 1910.834 604.08203 z M 945.31055 610.19922 L 797.24414 677.43945 C 799.59165 682.41475 800.9103 687.97169 800.91016 693.83789 C 800.90992 702.34269 798.14484 710.19876 793.47266 716.56836 L 889.12109 789.80078 C 896.12606 780.28378 907.40169 774.10392 920.125 774.10352 C 928.15205 774.10332 935.60205 776.56348 941.76953 780.76758 L 1083.5703 676.28711 L 1000.3418 622.95312 C 994.17965 627.14653 986.73827 629.59941 978.72266 629.59961 C 964.41587 629.59991 951.94177 621.78602 945.31055 610.19922 z M 1847.6621 613.5625 L 1633.9785 708.66992 C 1635.3135 712.57532 1636.0487 716.75949 1636.0488 721.11719 C 1636.0492 735.88149 1627.7298 748.69564 1615.5273 755.14844 L 1732.3574 960.67188 L 1732.4609 960.67188 C 1735.2039 960.67178 1737.8784 960.96417 1740.459 961.50977 L 1816.8242 764.83398 C 1809.1297 757.79828 1804.301 747.67954 1804.3008 736.43164 C 1804.3003 718.07614 1817.1551 702.73102 1834.3516 698.88672 L 1850.8848 616.68555 C 1849.7529 615.70505 1848.6726 614.6671 1847.6621 613.5625 z M 88.882812 624.95898 L 0 686.57422 L 0 934.28711 L 2.0195312 935.76562 C 8.9367613 925.54282 20.639469 918.82392 33.912109 918.82422 C 40.446239 918.82442 46.596838 920.45843 51.986328 923.33203 L 219.06055 769.57422 C 218.4302 767.53682 217.97484 765.42246 217.68945 763.25586 L 217.27734 763.35156 L 217.63281 762.81641 C 217.4505 761.29751 217.34575 759.7555 217.3457 758.1875 C 217.34554 751.2225 219.2054 744.69645 222.44141 739.06055 L 119.95117 635.84766 C 118.62386 635.98646 117.27801 636.06065 115.91406 636.06055 C 105.37656 636.06025 95.831883 631.82088 88.882812 624.95898 z M 1411.9414 638.2793 C 1405.3931 643.4389 1397.1361 646.52764 1388.1523 646.52734 C 1379.282 646.52714 1371.1193 643.51751 1364.6113 638.47461 L 1308.6914 725.52539 C 1314.8243 730.53029 1319.3786 737.38819 1321.5117 745.24609 L 1559.3203 716.93164 C 1559.3896 716.29204 1559.4739 715.65724 1559.5742 715.02734 L 1411.9414 638.2793 z M 1092.8184 688.10352 L 952.36719 791.58984 C 953.99607 794.08634 955.34564 796.78001 956.36523 799.63281 L 1245.9238 756.20508 C 1245.9176 755.91908 1245.9023 755.63516 1245.9023 755.34766 C 1245.9024 755.03976 1245.9188 754.73579 1245.9258 754.42969 L 1150.4434 703.75391 C 1144.1246 708.30141 1136.3774 710.98808 1127.998 710.98828 C 1112.2991 710.98868 1098.8032 701.58322 1092.8184 688.10352 z M 439.32617 711.36328 L 292.25391 745.79688 C 293.57645 749.68628 294.30479 753.8508 294.30469 758.1875 C 294.30409 779.4383 277.07702 796.66542 255.82617 796.66602 C 244.08023 796.66632 233.57002 791.39766 226.51172 783.10156 L 63.695312 932.94531 C 67.393892 937.46251 70.078772 942.83721 71.419922 948.72461 L 218.82422 950.69336 C 222.25466 932.95776 237.85617 919.56115 256.59375 919.56055 C 259.3464 919.56055 262.03019 919.855 264.61914 920.4043 L 446.87891 719.65234 C 443.97718 717.27444 441.42915 714.48188 439.32617 711.36328 z M 728.66211 712.29688 L 600.7207 790.9082 L 674.625 854.7207 C 680.50336 847.9065 688.72438 843.17095 698.04297 841.78125 L 732.86914 718.4668 C 731.27676 716.5576 729.86507 714.49288 728.66211 712.29688 z M 495.42578 719.80664 C 489.03587 724.97444 480.95985 728.13118 472.15039 728.33398 L 457.30664 847.4375 C 462.67992 848.0198 467.71813 849.71124 472.19531 852.27344 L 575.39844 788.86133 L 495.42578 719.80664 z M 782.2168 726.8418 C 776.43453 730.3157 769.66645 732.31661 762.42969 732.31641 C 756.40685 732.31621 750.70867 730.92989 745.63281 728.46289 L 713.40625 842.57227 C 725.16221 845.60517 734.73636 854.05772 739.31836 865.10352 L 881.78906 815.77344 C 881.70248 814.71994 881.64646 813.65793 881.64648 812.58203 C 881.64657 809.54353 882.0099 806.59126 882.67578 803.75586 L 782.2168 726.8418 z M 456.68164 731.16992 L 279.0625 926.81055 C 282.05864 928.96995 284.73077 931.54714 286.99414 934.46094 L 414.8125 882.05273 C 416.29076 866.27343 427.29314 853.26729 442.01562 848.83789 L 456.68164 731.16992 z M 1560.627 731.88281 L 1322.541 760.23047 C 1320.6447 775.19297 1310.1658 787.47231 1296.1855 791.97461 L 1325.625 900.375 C 1329.1881 899.2855 1332.9689 898.69541 1336.8887 898.69531 C 1347.8647 898.69511 1357.7592 903.29822 1364.7695 910.66992 L 1481.8184 861.58008 C 1483.942 843.91908 1498.0199 829.94097 1515.7305 827.98047 L 1565.9238 743.00391 C 1563.5969 739.64561 1561.7956 735.90071 1560.627 731.88281 z M 1577.0508 753.66602 L 1532.1367 829.70117 C 1547.4438 834.78277 1558.4887 849.20585 1558.4883 866.21875 C 1558.4881 872.27725 1557.0846 878.00687 1554.5898 883.10547 L 1699.541 979.2207 C 1703.6194 972.4988 1709.7015 967.13229 1716.9551 963.93359 L 1600.7266 759.45898 C 1599.6837 759.54358 1598.633 759.59961 1597.5684 759.59961 C 1590.0229 759.59941 1582.9906 757.41872 1577.0508 753.66602 z M 1875.5742 756.56445 C 1868.8026 767.57015 1856.6494 774.91046 1842.7793 774.91016 C 1838.2489 774.90996 1833.9041 774.11974 1829.8672 772.68164 L 1754.248 967.4375 C 1759.9366 971.3527 1764.514 976.75724 1767.4277 983.08984 L 1949.2461 927.20508 C 1951.1821 907.76528 1967.5839 892.58348 1987.5332 892.58398 C 1991.901 892.5841 1996.0882 893.33265 2000 894.67578 L 2000 789.84766 L 1875.5742 756.56445 z M 1249.1797 770.88672 L 958.55664 814.47266 C 957.82012 829.70066 948.23191 842.60104 934.82617 848.14844 L 1025.9453 1023.8086 C 1031.1383 1021.1962 1036.9995 1019.717 1043.209 1019.7168 C 1048.265 1019.7167 1053.089 1020.7003 1057.5117 1022.4727 L 1251.0039 774.48438 C 1250.3358 773.32147 1249.7257 772.12192 1249.1797 770.88672 z M 1261.0742 785.96094 L 1070.1172 1030.6992 C 1071.5194 1032.0715 1072.8218 1033.5452 1074.002 1035.1172 L 1298.4512 938.74023 C 1298.4303 938.22013 1298.4101 937.69913 1298.4102 937.17383 C 1298.4105 925.37563 1303.7272 914.82403 1312.0879 907.76562 L 1281.1055 793.67969 C 1273.6106 793.04709 1266.7277 790.27204 1261.0742 785.96094 z M 587.31055 799.14648 L 483.94727 862.65625 C 487.42661 867.30725 489.86783 872.7757 490.95508 878.7168 L 665.30859 878.95703 C 665.39378 875.16543 666.0211 871.50905 667.12695 868.06445 L 587.31055 799.14648 z M 885.92773 830.21484 L 742.24023 879.96484 C 742.20613 890.22674 738.152 899.53632 731.57422 906.41602 L 791.51367 966.02344 C 798.50582 958.82824 808.27998 954.35126 819.10547 954.35156 C 821.04585 954.35156 822.95121 954.49809 824.81445 954.77539 L 889.06445 835.28711 C 887.89241 833.68631 886.84492 831.99014 885.92773 830.21484 z M 900.50781 845.68359 L 839.07422 959.93164 C 850.17212 966.68234 857.58359 978.89078 857.58398 992.83008 C 857.58431 1008.0344 848.76373 1021.1757 835.96289 1027.4258 L 873.94727 1100.0645 C 879.19167 1097.3863 885.12521 1095.8651 891.41797 1095.8652 C 903.90034 1095.8656 914.98934 1101.8138 922.01953 1111.0254 L 1004.9629 1062.3945 C 1004.8131 1061.0146 1004.7304 1059.6151 1004.7305 1058.1953 C 1004.7307 1048.6674 1008.2014 1039.9546 1013.9375 1033.2344 L 919.42969 851.04492 C 912.52537 850.92192 906.06598 848.98489 900.50781 845.68359 z M 1483.1523 877.28516 L 1372.873 923.53516 C 1374.4812 927.77516 1375.369 932.37003 1375.3691 937.17383 C 1375.3693 944.81323 1373.1337 951.92591 1369.2949 957.91211 L 1509.25 1066.9375 C 1516.281 1057.7381 1527.3613 1051.7992 1539.834 1051.7988 C 1550.8268 1051.7986 1560.7358 1056.4152 1567.748 1063.8066 L 1695.1523 1008.5918 C 1694.3906 1005.5713 1693.9825 1002.4094 1693.9824 999.15234 C 1693.9824 997.32974 1694.1182 995.54016 1694.3633 993.78516 L 1545.4707 895.05664 C 1538.6857 901.05184 1529.7758 904.69697 1520.0098 904.69727 C 1502.6057 904.69767 1487.9072 893.14136 1483.1523 877.28516 z M 490.75 893.71875 C 488.82891 902.75985 483.73059 910.6209 476.68164 916.0918 L 515.05469 969.36523 C 520.82642 965.90913 527.57621 963.91777 534.79297 963.91797 C 543.94688 963.91817 552.34964 967.12118 558.95508 972.45898 L 656.88086 893.94336 L 490.75 893.71875 z M 416.51562 897.56641 L 293.71875 947.91406 C 294.59696 951.14106 295.07413 954.53376 295.07422 958.03906 C 295.07424 959.16346 295.01442 960.27315 294.91992 961.37305 L 382.97656 972.38672 L 418.88086 903.24414 C 417.94821 901.42954 417.15403 899.53431 416.51562 897.56641 z M 671.7793 901.22656 L 568.57812 983.9707 C 571.56887 989.4429 573.2713 995.72088 573.27148 1002.3965 C 573.27199 1023.6481 556.0446 1040.8764 534.79297 1040.877 C 531.90993 1040.877 529.10431 1040.5503 526.40234 1039.9492 L 515.11133 1126.3418 C 522.19586 1126.6164 528.78443 1128.8062 534.38281 1132.4082 L 781.95898 1002.8809 C 781.09391 999.67596 780.62493 996.30838 780.625 992.83008 C 780.62514 987.92828 781.55147 983.24519 783.22266 978.93359 L 719.07617 915.14062 C 714.38317 917.17892 709.20833 918.31425 703.76562 918.31445 C 690.43113 918.31475 678.68388 911.52986 671.7793 901.22656 z M 429.23828 915.84766 L 398.84766 974.36914 L 499.54297 986.96289 C 500.70854 984.30489 502.16059 981.80155 503.86914 979.49805 L 463.07031 922.85742 C 459.89492 923.70562 456.55994 924.16396 453.11719 924.16406 C 444.09291 924.16426 435.80053 921.04946 429.23828 915.84766 z M 1950.7617 942.43164 L 1770.9043 997.71289 C 1770.9223 998.19129 1770.9414 998.66964 1770.9414 999.15234 C 1770.9414 1002.1768 1770.5816 1005.1161 1769.9219 1007.9395 L 1951.6934 1192.1914 C 1955.902 1189.2166 1960.7298 1187.0614 1965.9512 1185.9688 L 1971.6406 966.10547 C 1961.7036 961.59157 1954.0211 952.98674 1950.7617 942.43164 z M 1302.0527 953.51758 L 1080.4961 1048.6543 C 1081.2745 1051.7052 1081.6894 1054.9019 1081.6895 1058.1953 C 1081.6895 1058.6623 1081.6708 1059.1249 1081.6543 1059.5879 L 1208.7168 1086.4121 C 1213.8628 1071.2197 1228.2277 1060.2798 1245.1582 1060.2793 C 1246.6427 1060.2793 1248.1042 1060.3716 1249.5449 1060.5352 L 1305.2031 959.00195 C 1304.0086 957.27115 1302.9551 955.43768 1302.0527 953.51758 z M 71.845703 963.73047 C 69.056213 980.31027 55.669159 993.28247 38.886719 995.45117 L 91.427734 1168.6074 C 95.180034 1166.8808 99.253213 1165.7321 103.53906 1165.2949 L 223.55859 977.76953 C 221.36022 974.09643 219.75383 970.02951 218.87891 965.69531 L 71.845703 963.73047 z M 2000 967.46484 C 1996.0889 968.8042 1991.8983 969.54285 1987.5332 969.54297 C 1987.2064 969.54297 1986.8835 969.52758 1986.5586 969.51758 L 1980.959 1185.8105 C 1988.2316 1187.1649 1994.7847 1190.563 2000 1195.3867 L 2000 967.46484 z M 1358.834 968.77734 C 1352.6084 973.10844 1345.0474 975.6545 1336.8887 975.6543 C 1329.3631 975.6541 1322.3479 973.4845 1316.418 969.75 L 1264.0684 1065.25 C 1275.7487 1071.8556 1283.6383 1084.3815 1283.6387 1098.7578 C 1283.6388 1103.4787 1282.7859 1107.9987 1281.2305 1112.1777 L 1571.7832 1245.2363 C 1573.2091 1240.383 1575.5634 1235.9303 1578.6445 1232.0801 L 1534.6738 1128.4023 C 1515.8649 1125.8789 1501.356 1109.7789 1501.3555 1090.2793 C 1501.3555 1086.9846 1501.7698 1083.7865 1502.5488 1080.7344 L 1358.834 968.77734 z M 0 975.49414 L 0 1251.0625 L 70.5625 1214.3887 C 69.55882 1210.9567 69.009866 1207.3306 69.009766 1203.5742 C 69.009556 1193.8132 72.651295 1184.907 78.640625 1178.123 L 22.820312 994.15234 C 12.971324 991.19213 4.7859978 984.39265 0 975.49414 z M 290.64844 975.95312 C 288.61482 979.81102 285.94771 983.28121 282.78125 986.22461 L 349.80273 1036.2715 L 375.60547 986.58203 L 290.64844 975.95312 z M 391.47656 988.56641 L 361.98047 1045.3672 L 486 1137.9785 C 489.81349 1134.0529 494.45606 1130.9407 499.64648 1128.9199 L 512.11914 1033.4824 C 502.53949 1026.4832 496.31219 1015.1694 496.3125 1002.3965 C 496.31251 1002.1568 496.32568 1001.9203 496.33008 1001.6816 L 391.47656 988.56641 z M 234.04297 989.21094 L 120.11328 1167.2227 C 135.1622 1172.4489 145.96911 1186.7457 145.96875 1203.5742 C 145.96854 1210.9342 143.8988 1217.8102 140.31445 1223.6562 L 207.41797 1255.0781 C 214.20625 1244.1502 226.31199 1236.8708 240.12305 1236.8711 C 241.92876 1236.8711 243.7019 1237.0054 245.44141 1237.2461 L 342.79688 1049.7617 L 268.82617 994.52344 C 264.982 995.81184 260.87171 996.51963 256.59375 996.51953 C 248.16825 996.51933 240.38056 993.80414 234.04297 989.21094 z M 788.63477 1016.3184 L 545.625 1143.4551 C 549.69878 1149.5604 552.07636 1156.8929 552.07617 1164.7832 C 552.07591 1173.9855 548.84187 1182.4296 543.45312 1189.0508 L 670.67969 1311.5898 C 677.53649 1301.0088 689.43908 1294.0016 702.98633 1294.002 C 703.48735 1294.002 703.98409 1294.022 704.48047 1294.041 L 859.05859 1155.1562 C 855.19069 1149.1548 852.93734 1142.0144 852.9375 1134.3438 C 852.93774 1124.9012 856.34416 1116.2579 861.98828 1109.5625 L 821.04102 1031.2617 C 820.39986 1031.2937 819.75451 1031.3105 819.10547 1031.3105 C 806.69928 1031.3108 795.6717 1025.4335 788.63477 1016.3184 z M 1701.6055 1022.1426 L 1575.8242 1076.6543 C 1577.429 1080.8909 1578.3145 1085.4804 1578.3145 1090.2793 C 1578.314 1107.836 1566.5516 1122.635 1550.4805 1127.2539 L 1590.6992 1222.0879 C 1596.0712 1219.239 1602.1949 1217.619 1608.6992 1217.6191 C 1612.9253 1217.6193 1616.9872 1218.3115 1620.791 1219.5703 L 1709.9102 1030.3223 C 1706.7466 1028.0295 1703.9414 1025.2724 1701.6055 1022.1426 z M 1763.1191 1022.4004 C 1759.3361 1027.3811 1754.3667 1031.4061 1748.6328 1034.0664 L 1798.3965 1125.1582 C 1802.3487 1123.7871 1806.5888 1123.0314 1811.0078 1123.0312 C 1832.2594 1123.0307 1849.4878 1140.2581 1849.4883 1161.5098 C 1849.4888 1182.7622 1832.2601 1199.9907 1811.0078 1199.9902 C 1800.2711 1199.9899 1790.5656 1195.5881 1783.5859 1188.4961 L 1647.1523 1257.0977 C 1646.8168 1270.2286 1639.909 1281.7172 1629.5898 1288.4043 L 1665.8379 1331 L 1855.3027 1331 L 1941.498 1244.4141 C 1937.6403 1238.4183 1935.3929 1231.2882 1935.3926 1223.6289 C 1935.3924 1216.0654 1937.5825 1209.0173 1941.3516 1203.0684 L 1763.1191 1022.4004 z M 1723.543 1036.5801 L 1633.8691 1227.0078 C 1638.4469 1230.9723 1642.0784 1235.9956 1644.3828 1241.7012 L 1775.3086 1175.8691 C 1773.5218 1171.4309 1772.5293 1166.5875 1772.5293 1161.5098 C 1772.5297 1150.0693 1777.5275 1139.8001 1785.4531 1132.752 L 1733.4746 1037.6055 C 1733.1367 1037.6135 1732.8008 1037.6309 1732.4609 1037.6309 C 1729.3896 1037.6308 1726.4064 1037.26 1723.543 1036.5801 z M 354.97656 1058.8574 L 259.74414 1242.25 C 265.4463 1245.6375 270.1929 1250.4561 273.5 1256.2109 L 475.14844 1163.584 C 475.28875 1159.0077 476.22455 1154.6349 477.82812 1150.5957 L 354.97656 1058.8574 z M 1078.207 1074.1895 C 1076.5646 1077.7775 1074.3942 1081.0715 1071.7832 1083.9648 L 1255.8848 1292.5078 C 1262.1398 1288.1104 1269.7575 1285.5213 1277.9844 1285.5215 C 1294.2012 1285.5211 1308.0646 1295.5576 1313.7285 1309.7539 L 1571.2344 1264.8691 C 1570.9523 1263.6598 1570.7275 1262.428 1570.5625 1261.1777 L 1273.2637 1125.0293 C 1266.2411 1132.5387 1256.2508 1137.2385 1245.1582 1137.2383 C 1224.7726 1137.2377 1208.1007 1121.3821 1206.7754 1101.332 L 1078.207 1074.1895 z M 1009.6582 1077.0293 L 928.63086 1124.5371 C 929.45386 1127.6683 929.8964 1130.9543 929.89648 1134.3438 C 929.89693 1155.5953 912.66956 1172.8236 891.41797 1172.8242 C 883.26333 1172.8244 875.70622 1170.2802 869.48242 1165.9531 L 721.61523 1298.8105 C 733.04412 1305.1475 740.88678 1317.1353 741.41406 1331 L 997.7793 1331 L 1022.1895 1090.4199 C 1017.011 1087.0348 1012.7011 1082.4386 1009.6582 1077.0293 z M 1059.7168 1092.9609 C 1054.714 1095.3405 1049.1177 1096.6759 1043.209 1096.6758 C 1040.9855 1096.6757 1038.8097 1096.4773 1036.6895 1096.1152 L 1012.8574 1331 L 1240.1504 1331 C 1239.7328 1328.7289 1239.5038 1326.3918 1239.5039 1324 C 1239.5041 1316.4187 1241.7066 1309.356 1245.4922 1303.3984 L 1059.7168 1092.9609 z M 477.79297 1178.877 L 278.28906 1270.5176 C 278.48775 1272.1017 278.60152 1273.7116 278.60156 1275.3496 C 278.60207 1296.6012 261.37468 1313.8295 240.12305 1313.8301 C 231.52545 1313.8303 223.58789 1311.009 217.18164 1306.2441 L 197.48438 1331 L 664.53711 1331 C 664.59154 1329.6022 664.7196 1328.2236 664.91797 1326.8672 L 531.82422 1198.6758 C 526.39899 1201.5994 520.19251 1203.2615 513.59766 1203.2617 C 497.32285 1203.2621 483.41815 1193.1538 477.79297 1178.877 z M 77.507812 1227.6816 L 0 1267.9648 L 0 1325.1875 C 0 1328.4074 2.5925602 1331 5.8125 1331 L 178.3125 1331 L 207.00391 1294.9395 C 203.60167 1289.2001 201.64241 1282.5053 201.64258 1275.3496 C 201.64264 1273.2451 201.81746 1271.1827 202.14258 1269.1699 L 129.47656 1235.1445 C 123.24254 1239.4945 115.66645 1242.0529 107.48828 1242.0527 C 95.366801 1242.0524 84.560783 1236.4413 77.507812 1227.6816 z M 2000 1251.8691 C 1993.1376 1258.2206 1983.961 1262.1077 1973.873 1262.1074 C 1965.7054 1262.1076 1958.1376 1259.5565 1951.9082 1255.2168 L 1876.4668 1331 L 1994.1875 1331 C 1997.4074 1331 2000 1328.4074 2000 1325.1875 L 2000 1251.8691 z M 1577.748 1278.959 L 1316.4512 1324.5059 C 1316.4225 1326.7222 1316.1967 1328.8891 1315.8086 1331 L 1646.1367 1331 L 1614.7383 1294.1035 C 1612.7702 1294.4139 1610.7544 1294.5781 1608.6992 1294.5781 C 1596.0092 1294.5784 1584.7574 1288.4331 1577.748 1278.959 z "
       transform="translate(-399.24905,-523.82166)" />
  </g>
</svg>
