<?xml version="1.0" encoding="UTF-8" standalone="no"?>
<svg
   xmlns:dc="http://purl.org/dc/elements/1.1/"
   xmlns:cc="http://creativecommons.org/ns#"
   xmlns:rdf="http://www.w3.org/1999/02/22-rdf-syntax-ns#"
   xmlns:svg="http://www.w3.org/2000/svg"
   xmlns="http://www.w3.org/2000/svg"
   xmlns:xlink="http://www.w3.org/1999/xlink"
   xmlns:sodipodi="http://sodipodi.sourceforge.net/DTD/sodipodi-0.dtd"
   xmlns:inkscape="http://www.inkscape.org/namespaces/inkscape"
   version="1.1"
   id="svg97467"
   width="2000"
   height="1333"
   viewBox="0 0 2000 1333"
   sodipodi:docname="bkgd-chris-nodes-2.svg"
   inkscape:version="1.0.2 (e86c870879, 2021-01-15)"
   inkscape:export-filename="/home/duffy/SparkleShare/github.com/cube-design/_common-assets/bkgd-chris-nodes_no-logo.png"
   inkscape:export-xdpi="96"
   inkscape:export-ydpi="96">
  <metadata
     id="metadata97473">
    <rdf:RDF>
      <cc:Work
         rdf:about="">
        <dc:format>image/svg+xml</dc:format>
        <dc:type
           rdf:resource="http://purl.org/dc/dcmitype/StillImage" />
        <dc:title />
      </cc:Work>
    </rdf:RDF>
  </metadata>
  <defs
     id="defs97471">
    <linearGradient
       x1="0"
       y1="0"
       x2="1"
       y2="0"
       gradientUnits="userSpaceOnUse"
       gradientTransform="matrix(2873.01,0,0,-2873.01,699.055,1444.61)"
       spreadMethod="pad"
       id="linearGradient161468">
      <stop
         style="stop-opacity:1;stop-color:#3a7cc7"
         offset="0"
         id="stop161464" />
      <stop
         style="stop-opacity:1;stop-color:#7ad4ed"
         offset="1"
         id="stop161466" />
    </linearGradient>
    <linearGradient
       inkscape:collect="always"
       xlink:href="#linearGradient161468"
       id="linearGradient97728"
       gradientUnits="userSpaceOnUse"
       gradientTransform="matrix(72.95139,0,0,72.95139,709.28536,1156.7155)"
       x1="0"
       y1="0"
       x2="1"
       y2="0"
       spreadMethod="pad" />
    <linearGradient
       inkscape:collect="always"
       xlink:href="#linearGradient161468"
       id="linearGradient98304"
       x1="-399.24905"
       y1="142.67834"
       x2="1600.7509"
       y2="142.67834"
       gradientUnits="userSpaceOnUse"
       gradientTransform="matrix(1.001001,0,0,1.0007513,-0.60134192,-0.60720108)" />
  </defs>
  <sodipodi:namedview
     pagecolor="#ffffff"
     bordercolor="#666666"
     borderopacity="1"
     objecttolerance="10"
     gridtolerance="10"
     guidetolerance="10"
     inkscape:pageopacity="0"
     inkscape:pageshadow="2"
     inkscape:window-width="2560"
     inkscape:window-height="1369"
     id="namedview97469"
     showgrid="false"
     fit-margin-top="0"
     fit-margin-left="0"
     fit-margin-right="0"
     fit-margin-bottom="0"
     inkscape:zoom="0.56497832"
     inkscape:cx="1399.2491"
     inkscape:cy="2322.7757"
     inkscape:window-x="2560"
     inkscape:window-y="34"
     inkscape:window-maximized="1"
     inkscape:current-layer="g97475"
     inkscape:document-rotation="0" />
  <g
     inkscape:groupmode="layer"
     inkscape:label="Image"
     id="g97475"
     transform="translate(399.24905,523.82166)">
    <rect
       style="fill:url(#linearGradient98304);fill-opacity:1;stroke:none;stroke-width:2;stroke-linecap:round;stroke-linejoin:round"
       id="rect97479"
       width="2000"
       height="1332"
       x="-399.24905"
       y="-523.82166"
       ry="5.8165326" />
    <rect
       style="fill:#ffffff;fill-opacity:0.113211;stroke:none;stroke-width:2;stroke-linecap:round;stroke-linejoin:round"
       id="rect7139"
       width="2000"
       height="1331"
       x="-399.24905"
       y="-523.82166"
       ry="5.8121657" />
    <circle
       style="fill:#cc0000;fill-opacity:1;stroke:none;stroke-width:5;stroke-linecap:round;stroke-linejoin:round"
       id="circle7708"
       cx="-398.26743"
       cy="-115.16698"
       r="38.47958" />
    <g
       id="g1120">
      <g
         id="g1038">
        <circle
           style="fill:#cc0000;fill-opacity:1;stroke:none;stroke-width:5;stroke-linecap:round;stroke-linejoin:round"
           id="path7704"
           cx="-298.88586"
           cy="-417.11539"
           r="38.47958" />
        <circle
           style="fill:#cc0000;fill-opacity:1;stroke:none;stroke-width:5;stroke-linecap:round;stroke-linejoin:round"
           id="circle7706"
           cx="-157.15787"
           cy="-199.57385"
           r="38.47958" />
        <circle
           style="fill:#cc0000;fill-opacity:1;stroke:none;stroke-width:5;stroke-linecap:round;stroke-linejoin:round"
           id="circle7710"
           cx="-283.33456"
           cy="73.760178"
           r="38.47958" />
        <circle
           style="fill:#cc0000;fill-opacity:1;stroke:none;stroke-width:5;stroke-linecap:round;stroke-linejoin:round"
           id="circle7712"
           cx="-143.42322"
           cy="234.36507"
           r="38.47958" />
        <circle
           style="fill:#cc0000;fill-opacity:1;stroke:none;stroke-width:5;stroke-linecap:round;stroke-linejoin:round"
           id="circle7714"
           cx="54.70731"
           cy="-70.121201"
           r="38.47958" />
        <circle
           style="fill:#cc0000;fill-opacity:1;stroke:none;stroke-width:5;stroke-linecap:round;stroke-linejoin:round"
           id="circle7716"
           cx="92.002197"
           cy="180.05649"
           r="38.47958" />
        <circle
           style="fill:#cc0000;fill-opacity:1;stroke:none;stroke-width:5;stroke-linecap:round;stroke-linejoin:round"
           id="circle7718"
           cx="279.98862"
           cy="25.015732"
           r="38.47958" />
        <circle
           style="fill:#cc0000;fill-opacity:1;stroke:none;stroke-width:5;stroke-linecap:round;stroke-linejoin:round"
           id="circle7720"
           cx="363.18112"
           cy="170.01544"
           r="38.47958" />
        <circle
           style="fill:#cc0000;fill-opacity:1;stroke:none;stroke-width:5;stroke-linecap:round;stroke-linejoin:round"
           id="circle7722"
           cx="579.47339"
           cy="67.298187"
           r="38.47958" />
        <circle
           style="fill:#cc0000;fill-opacity:1;stroke:none;stroke-width:5;stroke-linecap:round;stroke-linejoin:round"
           id="circle7724"
           cx="530.87671"
           cy="284.76096"
           r="38.47958" />
        <circle
           style="fill:#cc0000;fill-opacity:1;stroke:none;stroke-width:5;stroke-linecap:round;stroke-linejoin:round"
           id="circle7726"
           cx="728.74841"
           cy="148.68785"
           r="38.47958" />
        <circle
           style="fill:#cc0000;fill-opacity:1;stroke:none;stroke-width:5;stroke-linecap:round;stroke-linejoin:round"
           id="circle7728"
           cx="885.1319"
           cy="231.52675"
           r="38.47958" />
        <circle
           style="fill:#cc0000;fill-opacity:1;stroke:none;stroke-width:5;stroke-linecap:round;stroke-linejoin:round"
           id="circle7730"
           cx="988.90387"
           cy="84.226738"
           r="38.47958" />
        <circle
           style="fill:#cc0000;fill-opacity:1;stroke:none;stroke-width:5;stroke-linecap:round;stroke-linejoin:round"
           id="circle7732"
           cx="1214.3196"
           cy="197.29768"
           r="38.47958" />
        <circle
           style="fill:#cc0000;fill-opacity:1;stroke:none;stroke-width:5;stroke-linecap:round;stroke-linejoin:round"
           id="circle7734"
           cx="1500.8108"
           cy="63.77702"
           r="38.47958" />
        <circle
           style="fill:#cc0000;fill-opacity:1;stroke:none;stroke-width:5;stroke-linecap:round;stroke-linejoin:round"
           id="circle7736"
           cx="1461.5308"
           cy="206.60963"
           r="38.47958" />
        <circle
           style="fill:#cc0000;fill-opacity:1;stroke:none;stroke-width:5;stroke-linecap:round;stroke-linejoin:round"
           id="circle7738"
           cx="1329.9049"
           cy="-13.073189"
           r="38.47958" />
        <circle
           style="fill:#cc0000;fill-opacity:1;stroke:none;stroke-width:5;stroke-linecap:round;stroke-linejoin:round"
           id="circle7740"
           cx="1495.4122"
           cy="-192.49707"
           r="38.47958" />
        <circle
           style="fill:#cc0000;fill-opacity:1;stroke:none;stroke-width:5;stroke-linecap:round;stroke-linejoin:round"
           id="circle7742"
           cx="1515.051"
           cy="-417.0199"
           r="38.47958" />
        <circle
           style="fill:#cc0000;fill-opacity:1;stroke:none;stroke-width:5;stroke-linecap:round;stroke-linejoin:round"
           id="circle7744"
           cx="1348.1497"
           cy="-272.064"
           r="38.47958" />
        <circle
           style="fill:#cc0000;fill-opacity:1;stroke:none;stroke-width:5;stroke-linecap:round;stroke-linejoin:round"
           id="circle7746"
           cx="1219.49"
           cy="-140.86957"
           r="38.47958" />
        <circle
           style="fill:#cc0000;fill-opacity:1;stroke:none;stroke-width:5;stroke-linecap:round;stroke-linejoin:round"
           id="circle7748"
           cx="1141.3339"
           cy="38.272465"
           r="38.47958" />
        <circle
           style="fill:#cc0000;fill-opacity:1;stroke:none;stroke-width:5;stroke-linecap:round;stroke-linejoin:round"
           id="circle7750"
           cx="863.7738"
           cy="23.340532"
           r="38.47958" />
        <circle
           style="fill:#cc0000;fill-opacity:1;stroke:none;stroke-width:5;stroke-linecap:round;stroke-linejoin:round"
           id="circle7752"
           cx="966.49615"
           cy="-82.976311"
           r="38.47958" />
        <circle
           style="fill:#cc0000;fill-opacity:1;stroke:none;stroke-width:5;stroke-linecap:round;stroke-linejoin:round"
           id="circle7754"
           cx="708.91919"
           cy="-97.480438"
           r="38.47958" />
        <circle
           style="fill:#cc0000;fill-opacity:1;stroke:none;stroke-width:5;stroke-linecap:round;stroke-linejoin:round"
           id="circle7756"
           cx="573.34204"
           cy="-187.1805"
           r="38.47958" />
        <circle
           style="fill:#cc0000;fill-opacity:1;stroke:none;stroke-width:5;stroke-linecap:round;stroke-linejoin:round"
           id="circle7758"
           cx="568.42792"
           cy="-352.1861"
           r="38.47958" />
        <circle
           style="fill:#cc0000;fill-opacity:1;stroke:none;stroke-width:5;stroke-linecap:round;stroke-linejoin:round"
           id="circle7760"
           cx="815.98651"
           cy="-250.90662"
           r="38.47958" />
        <circle
           style="fill:#cc0000;fill-opacity:1;stroke:none;stroke-width:5;stroke-linecap:round;stroke-linejoin:round"
           id="circle7762"
           cx="956.65149"
           cy="-236.0015"
           r="38.47958" />
        <circle
           style="fill:#cc0000;fill-opacity:1;stroke:none;stroke-width:5;stroke-linecap:round;stroke-linejoin:round"
           id="circle7764"
           cx="1101.998"
           cy="-207.31506"
           r="38.47958" />
        <circle
           style="fill:#cc0000;fill-opacity:1;stroke:none;stroke-width:5;stroke-linecap:round;stroke-linejoin:round"
           id="circle7766"
           cx="1163.8341"
           cy="-428.26221"
           r="38.47958" />
        <circle
           style="fill:#cc0000;fill-opacity:1;stroke:none;stroke-width:5;stroke-linecap:round;stroke-linejoin:round"
           id="circle7768"
           cx="913.92651"
           cy="-415.25009"
           r="38.47958" />
        <circle
           style="fill:#cc0000;fill-opacity:1;stroke:none;stroke-width:5;stroke-linecap:round;stroke-linejoin:round"
           id="circle7770"
           cx="897.53387"
           cy="-522.63129"
           r="38.47958" />
        <circle
           style="fill:#cc0000;fill-opacity:1;stroke:none;stroke-width:5;stroke-linecap:round;stroke-linejoin:round"
           id="circle7772"
           cx="897.53387"
           cy="-522.63129"
           r="38.47958" />
        <circle
           style="fill:#cc0000;fill-opacity:1;stroke:none;stroke-width:5;stroke-linecap:round;stroke-linejoin:round"
           id="circle7774"
           cx="258.707"
           cy="-209.51794"
           r="38.47958" />
        <circle
           style="fill:#cc0000;fill-opacity:1;stroke:none;stroke-width:5;stroke-linecap:round;stroke-linejoin:round"
           id="circle7776"
           cx="90.428452"
           cy="-278.87112"
           r="38.47958" />
        <circle
           style="fill:#cc0000;fill-opacity:1;stroke:none;stroke-width:5;stroke-linecap:round;stroke-linejoin:round"
           id="circle7778"
           cx="211.12497"
           cy="-416.56302"
           r="38.47958" />
        <circle
           style="fill:#cc0000;fill-opacity:1;stroke:none;stroke-width:5;stroke-linecap:round;stroke-linejoin:round"
           id="circle7780"
           cx="-30.648344"
           cy="-361.41776"
           r="38.47958" />
        <circle
           style="fill:#cc0000;fill-opacity:1;stroke:none;stroke-width:5;stroke-linecap:round;stroke-linejoin:round"
           id="circle7782"
           cx="-115.83336"
           cy="-502.98901"
           r="38.47958" />
        <circle
           style="fill:#cc0000;fill-opacity:1;stroke:none;stroke-width:5;stroke-linecap:round;stroke-linejoin:round"
           id="circle7784"
           cx="1343.2126"
           cy="-469.33002"
           r="38.47958"
           transform="scale(1,-1)" />
        <circle
           style="fill:#cc0000;fill-opacity:1;stroke:none;stroke-width:5;stroke-linecap:round;stroke-linejoin:round"
           id="circle7786"
           cx="114.34821"
           cy="-640.96088"
           r="38.47958"
           transform="scale(1,-1)" />
        <circle
           style="fill:#cc0000;fill-opacity:1;stroke:none;stroke-width:5;stroke-linecap:round;stroke-linejoin:round"
           id="circle7788"
           cx="419.85587"
           cy="-469.00916"
           r="38.47958"
           transform="scale(1,-1)" />
        <circle
           style="fill:#cc0000;fill-opacity:1;stroke:none;stroke-width:5;stroke-linecap:round;stroke-linejoin:round"
           id="circle7790"
           cx="303.73651"
           cy="-808.65887"
           r="38.47958"
           transform="scale(1,-1)" />
        <circle
           style="fill:#cc0000;fill-opacity:1;stroke:none;stroke-width:5;stroke-linecap:round;stroke-linejoin:round"
           id="circle7792"
           cx="-365.33771"
           cy="-433.48218"
           r="38.47958"
           transform="scale(1,-1)" />
        <circle
           style="fill:#cc0000;fill-opacity:1;stroke:none;stroke-width:5;stroke-linecap:round;stroke-linejoin:round"
           id="circle7794"
           cx="1134.7603"
           cy="-348.39645"
           r="38.47958"
           transform="scale(1,-1)" />
        <circle
           style="fill:#cc0000;fill-opacity:1;stroke:none;stroke-width:5;stroke-linecap:round;stroke-linejoin:round"
           id="circle7796"
           cx="316.51639"
           cy="-356.01349"
           r="38.47958"
           transform="scale(1,-1)" />
        <circle
           style="fill:#cc0000;fill-opacity:1;stroke:none;stroke-width:5;stroke-linecap:round;stroke-linejoin:round"
           id="circle7798"
           cx="1423.759"
           cy="-635.68872"
           r="38.47958"
           transform="scale(1,-1)" />
        <circle
           style="fill:#cc0000;fill-opacity:1;stroke:none;stroke-width:5;stroke-linecap:round;stroke-linejoin:round"
           id="circle7800"
           cx="-281.76044"
           cy="-679.75195"
           r="38.47958"
           transform="scale(1,-1)" />
        <circle
           style="fill:#cc0000;fill-opacity:1;stroke:none;stroke-width:5;stroke-linecap:round;stroke-linejoin:round"
           id="circle7802"
           cx="492.16809"
           cy="-610.52271"
           r="38.47958"
           transform="scale(1,-1)" />
        <circle
           style="fill:#cc0000;fill-opacity:1;stroke:none;stroke-width:5;stroke-linecap:round;stroke-linejoin:round"
           id="circle7804"
           cx="651.96057"
           cy="-534.37457"
           r="38.47958"
           transform="scale(1,-1)" />
        <circle
           style="fill:#cc0000;fill-opacity:1;stroke:none;stroke-width:5;stroke-linecap:round;stroke-linejoin:round"
           id="circle7806"
           cx="857.90985"
           cy="-580.93713"
           r="38.47958"
           transform="scale(1,-1)" />
        <circle
           style="fill:#cc0000;fill-opacity:1;stroke:none;stroke-width:5;stroke-linecap:round;stroke-linejoin:round"
           id="circle7808"
           cx="937.6402"
           cy="-413.353"
           r="38.47958"
           transform="scale(1,-1)" />
        <circle
           style="fill:#cc0000;fill-opacity:1;stroke:none;stroke-width:5;stroke-linecap:round;stroke-linejoin:round"
           id="circle7810"
           cx="143.54358"
           cy="-482.57516"
           r="38.47958"
           transform="scale(1,-1)" />
        <circle
           style="fill:#cc0000;fill-opacity:1;stroke:none;stroke-width:5;stroke-linecap:round;stroke-linejoin:round"
           id="circle7812"
           cx="-142.65501"
           cy="-434.21777"
           r="38.47958"
           transform="scale(1,-1)" />
        <circle
           style="fill:#cc0000;fill-opacity:1;stroke:none;stroke-width:5;stroke-linecap:round;stroke-linejoin:round"
           id="circle7814"
           cx="878.73535"
           cy="-800.17926"
           r="38.47958"
           transform="scale(1,-1)" />
        <circle
           style="fill:#cc0000;fill-opacity:1;stroke:none;stroke-width:5;stroke-linecap:round;stroke-linejoin:round"
           id="circle7816"
           cx="1213.4493"
           cy="-732.27643"
           r="38.47958"
           transform="scale(1,-1)" />
        <circle
           style="fill:#cc0000;fill-opacity:1;stroke:none;stroke-width:5;stroke-linecap:round;stroke-linejoin:round"
           id="circle7818"
           cx="1588.2836"
           cy="-407.24182"
           r="38.47958"
           transform="scale(1,-1)" />
        <circle
           style="fill:#cc0000;fill-opacity:1;stroke:none;stroke-width:5;stroke-linecap:round;stroke-linejoin:round"
           id="circle7820"
           cx="-155.12688"
           cy="-759.5285"
           r="38.47958"
           transform="scale(1,-1)" />
        <circle
           style="fill:#cc0000;fill-opacity:1;stroke:none;stroke-width:5;stroke-linecap:round;stroke-linejoin:round"
           id="circle7822"
           cx="53.867249"
           cy="-361.86346"
           r="38.47958"
           transform="scale(1,-1)" />
        <circle
           style="fill:#cc0000;fill-opacity:1;stroke:none;stroke-width:5;stroke-linecap:round;stroke-linejoin:round"
           id="circle83"
           cx="1154.5859"
           cy="-566.45679"
           r="38.47958"
           transform="scale(1,-1)" />
        <circle
           style="fill:#cc0000;fill-opacity:1;stroke:none;stroke-width:5;stroke-linecap:round;stroke-linejoin:round"
           id="circle85"
           cx="1596.624"
           cy="-699.8064"
           r="38.47958"
           transform="scale(1,-1)" />
        <circle
           style="fill:#cc0000;fill-opacity:1;stroke:none;stroke-width:5;stroke-linecap:round;stroke-linejoin:round"
           id="circle87"
           cx="435.45386"
           cy="-259.10947"
           r="69.429588" />
      </g>
      <g
         id="g974">
        <g
           id="g950"
           style="stroke:#cc0000">
          <path
             style="fill:none;stroke:#cc0000;stroke-width:15;stroke-linecap:butt;stroke-linejoin:miter;stroke-miterlimit:4;stroke-dasharray:none;stroke-opacity:1"
             d="m 215.68743,-418.40444 40.39538,212.58123"
             id="path914" />
          <path
             style="fill:none;stroke:#cc0000;stroke-width:15;stroke-linecap:butt;stroke-linejoin:miter;stroke-miterlimit:4;stroke-dasharray:none;stroke-opacity:1"
             d="M 78.37143,-283.43752 59.37958,-61.16261"
             id="path916" />
          <path
             style="fill:none;stroke:#cc0000;stroke-width:15;stroke-linecap:butt;stroke-linejoin:miter;stroke-miterlimit:4;stroke-dasharray:none;stroke-opacity:1"
             d="m 1167.1028,-436.17727 -200.11135,204.16876 -142.5279,-25.77057 -112.2865,155.64994 254.562,15.06978 0.2524,-144.94915 140.28525,24.53038 L 970.75955,-85.72647 863.48655,20.65076 735.13145,163.30274 587.23446,68.52641 369.04863,167.60594"
             id="path918" />
          <path
             style="fill:none;stroke:#cc0000;stroke-width:15;stroke-linecap:butt;stroke-linejoin:miter;stroke-miterlimit:4;stroke-dasharray:none;stroke-opacity:1"
             d="M 712.17705,-102.12914 867.29395,18.30249 997.05555,82.5686 897.05695,238.24253 724.69955,146.7632 529.59086,290.52217 431.86475,472.27131 507.36673,616.65414 654.13025,530.60484 529.59086,290.52217 900.14655,234.94769 947.89235,410.7601 659.84465,534.44594 893.67385,234.76112 1208.3118,197.30117 996.30845,87.09089 1149.629,38.30432 l 72.9865,-185.60175 -115.3389,-60.1807"
             id="path920" />
          <path
             style="fill:none;stroke:#cc0000;stroke-width:15;stroke-linecap:butt;stroke-linejoin:miter;stroke-miterlimit:4;stroke-dasharray:none;stroke-opacity:1"
             d="m 1352.3002,-265.15436 -12.2648,256.20809 164.7675,-189.53234 0.9649,263.38285 -165.7576,-69.91203 -117.3948,-142.28964"
             id="path922" />
          <path
             style="fill:none;stroke:#cc0000;stroke-width:15;stroke-linecap:butt;stroke-linejoin:miter;stroke-miterlimit:4;stroke-dasharray:none;stroke-opacity:1"
             d="m 1648.5907,113.914 -161.9526,-57.59995 -31.6985,157.59256 307.4122,82.23328 -161.4082,105.57726 -256.3515,78.79319 -218.1318,-144.63936 81.8514,-138.56981 151.0814,265.78697 96.5206,-248.59061"
             id="path924" />
          <path
             style="fill:none;stroke:#cc0000;stroke-width:15;stroke-linecap:butt;stroke-linejoin:miter;stroke-miterlimit:4;stroke-dasharray:none;stroke-opacity:1"
             d="M 1505.7679,64.90424 1208.3117,197.30117 1340.0354,-8.94627"
             id="path926" />
          <path
             style="fill:none;stroke:#cc0000;stroke-width:15;stroke-linecap:butt;stroke-linejoin:miter;stroke-miterlimit:4;stroke-dasharray:none;stroke-opacity:1"
             d="m 1126.4603,335.87098 -178.56795,74.88912 -90.6444,165.35974 -197.4033,-41.6739 234.8533,266.0333 -596.55912,4.1635 -176.5481,-170.0444"
             id="path928" />
          <path
             style="fill:none;stroke:#cc0000;stroke-width:15;stroke-linecap:butt;stroke-linejoin:miter;stroke-miterlimit:4;stroke-dasharray:none;stroke-opacity:1"
             d="m 507.36673,616.65414 -209.2279,187.9886"
             id="path930" />
          <path
             style="fill:none;stroke:#cc0000;stroke-width:15;stroke-linecap:butt;stroke-linejoin:miter;stroke-miterlimit:4;stroke-dasharray:none;stroke-opacity:1"
             d="m 654.13025,530.60484 -49.7444,490.27656"
             id="path932" />
          <path
             style="fill:none;stroke:#cc0000;stroke-width:15;stroke-linecap:butt;stroke-linejoin:miter;stroke-miterlimit:4;stroke-dasharray:none;stroke-opacity:1"
             d="m 857.24795,576.11984 365.17755,167.2339 -75.1973,-177.3095 197.3639,-85.5339 88.2068,161.4572 -206.5465,103.8571 133.1407,-282.7365 233.8262,237.0217 7.7244,-298.39269"
             id="path934" />
          <g
             id="g956">
            <path
               style="fill:none;stroke:#cc0000;stroke-width:15;stroke-linecap:butt;stroke-linejoin:miter;stroke-miterlimit:4;stroke-dasharray:none;stroke-opacity:1"
               d="m -445.63582,-454.62798 415.00875,92.87611 125.14178,86.76994 161.5681,69.15872 188.87702,-48.04159 -229.2724,-164.53964 -248.33554,59.02769 -120.65245,165.32265 -150.07446,-231.84872 188.53565,-80.9852 330.87466,95.67936 196.97763,-210.44304 161.76773,265.43145 350.5882,-57.29698 -25.2331,-118.33108 271.79465,-66.61821 -258.71115,196.23744 253.88355,-33.94819 -37.0746,-172.80504 231.3359,104.58889 -191.1799,72.78041 187.016,170.31363 -9.8753,-251.38601 184.7851,98.45018 161.2307,-142.73748 -10.8554,329.05791 -189.1489,47.04003 24.6156,-241.72005 -165.6518,157.44044 -245.0236,57.67623 -140.28515,-24.53038 -53.6958,-196.05639 -88.8321,170.28582 L 583.52684,-360.67599 436.15315,-258.07865 278.5243,26.41205 257.40251,-211.24323 59.37958,-61.16261 -152.61953,-206.08907 -397.25955,-116.63943 -272.8567,79.87388 -566.01862,283.0959 -356.37588,436.49729 -131.78122,229.7971 -291.70552,68.74798 56.8603,-75.64243 l -202.08446,303.54844 246.19221,-57.6396 -240.03704,264.39003 -221.24397,-2.95378 77.09263,254.07898 -231.50821,120.321 237.16039,109.4294 130.72568,-164.2933 -146.35474,-68.5318 L -135.64484,436.53499 60.10166,356.27403 -150.06179,760.99694 124.0426,635.08854 145.11815,473.80751 -141.78662,437.92125 121.59073,634.59834 431.86475,472.27131 311.50356,352.57548 151.81909,480.60804 65.81434,361.20813 90.69733,161.55285 55.82666,-81.64182 282.95616,29.53296 97.17271,169.66663 315.27989,357.99551 369.04863,167.60594 52.15836,362.31448 321.184,362.68048 529.59086,290.52217 369.04863,167.60594 273.29214,24.55057 594.83206,67.99101 431.24681,-270.45511 l 141.75695,85.87652 14.2307,253.105 124.94259,-170.65555 -137.74815,-82.31031 -0.452,-169.18309"
               id="path89"
               sodipodi:nodetypes="cccccccccccccccccccccccccccccccccccccccccccccccccccccccccccccccccccccccccccccccccccc" />
            <path
               style="fill:none;stroke:#cc0000;stroke-width:15;stroke-linecap:butt;stroke-linejoin:miter;stroke-miterlimit:4;stroke-dasharray:none;stroke-opacity:1"
               d="m 894.69795,800.47924 327.72745,-57.1255 151.0456,177.499 219.7482,-220.7429"
               id="path952" />
          </g>
        </g>
        <path
           style="fill:none;stroke:#cc0000;stroke-width:15;stroke-linecap:butt;stroke-linejoin:miter;stroke-miterlimit:4;stroke-dasharray:none;stroke-opacity:1"
           d="M 947.89235,410.7601 1147.2283,566.04424"
           id="path936" />
      </g>
    </g>
    <path
       id="circle1353"
       style="fill:#cc0000;fill-opacity:1;stroke:none;stroke-width:5;stroke-linecap:round;stroke-linejoin:round"
       d="M 813.53125 1569.8398 L 636.48047 1758.9922 A 38.47958 38.47958 0 0 0 610.37305 1748.7793 A 38.47958 38.47958 0 0 0 574.61719 1773.0449 L 321.88477 1699.9629 A 38.47958 38.47958 0 0 0 283.41602 1662.3535 A 38.47958 38.47958 0 0 0 244.93555 1700.832 A 38.47958 38.47958 0 0 0 245.23242 1705.6016 L 125.07617 1757.2129 A 38.47958 38.47958 0 0 0 100.36328 1748.2266 A 38.47958 38.47958 0 0 0 67.335938 1766.959 L -44.748047 1741.875 L -48.023438 1756.5137 L 62.279297 1781.1973 A 38.47958 38.47958 0 0 0 61.882812 1786.707 A 38.47958 38.47958 0 0 0 100.36328 1825.1855 A 38.47958 38.47958 0 0 0 115.52148 1822.0742 L 215.46289 1976.4707 A 38.47958 38.47958 0 0 0 203.61133 2004.248 A 38.47958 38.47958 0 0 0 203.63086 2005.4707 L -9.3222656 2083.334 L 93.738281 2246.1348 A 38.47958 38.47958 0 0 0 77.435547 2277.582 A 38.47958 38.47958 0 0 0 86.414062 2302.2852 L -179.69531 2486.7539 L 0.34375 2618.4941 A 38.47958 38.47958 0 0 0 -4.5683594 2637.3047 A 38.47958 38.47958 0 0 0 33.912109 2675.7832 A 38.47958 38.47958 0 0 0 42.984375 2674.6973 L 96.564453 2851.2812 A 38.47958 38.47958 0 0 0 79.009766 2883.5742 A 38.47958 38.47958 0 0 0 82.136719 2898.7676 L -132.51172 3010.3262 L 123.88477 3128.6309 L 227.70508 2998.1504 A 38.47958 38.47958 0 0 0 244.12305 3001.8301 A 38.47958 38.47958 0 0 0 282.60156 2963.3496 A 38.47958 38.47958 0 0 0 282.21289 2957.9023 L 481.68164 2866.2773 A 38.47958 38.47958 0 0 0 513.59766 2883.2617 A 38.47958 38.47958 0 0 0 542.73047 2869.916 L 670.06445 2992.5605 A 38.47958 38.47958 0 0 0 664.50586 3012.4805 A 38.47958 38.47958 0 0 0 702.98633 3050.9609 A 38.47958 38.47958 0 0 0 741.33398 3015.6582 L 1017.502 3013.7305 L 996.17383 3223.9473 L 1011.0977 3225.4609 L 1032.5898 3013.625 L 1240.3828 3012.1738 A 38.47958 38.47958 0 0 0 1277.9844 3042.4805 A 38.47958 38.47958 0 0 0 1316.2539 3008.0254 L 1583.7129 2961.4043 A 38.47958 38.47958 0 0 0 1612.6992 2974.5781 A 38.47958 38.47958 0 0 0 1631.1367 2969.8711 L 1772.2891 3135.7402 L 1972.7422 2934.3789 A 38.47958 38.47958 0 0 0 1995.873 2942.1074 A 38.47958 38.47958 0 0 0 2034.3535 2903.6289 A 38.47958 38.47958 0 0 0 2000.9668 2865.4863 L 2006.6895 2644.4336 A 38.47958 38.47958 0 0 0 2026.0117 2611.0625 A 38.47958 38.47958 0 0 0 2024.0391 2598.9043 L 2179.75 2497.0527 L 1897.6094 2421.5801 A 38.47958 38.47958 0 0 0 1899.2598 2410.4316 A 38.47958 38.47958 0 0 0 1870.7793 2373.2754 L 1884.9199 2302.9746 A 38.47958 38.47958 0 0 0 1900.0605 2306.0781 A 38.47958 38.47958 0 0 0 1934.2305 2285.2891 L 2045.3281 2324.8027 L 2050.3535 2310.6699 L 1938.4004 2270.8535 A 38.47958 38.47958 0 0 0 1938.5391 2267.5996 A 38.47958 38.47958 0 0 0 1912.3809 2231.1445 L 1911.7012 2045.8242 A 38.47958 38.47958 0 0 0 1931.9316 2020.8926 L 2089.0449 1981.8184 L 2100.6602 1629.6875 L 1946.6777 1766.0098 A 38.47958 38.47958 0 0 0 1914.3008 1748.3223 A 38.47958 38.47958 0 0 0 1888.5 1758.2539 L 1779.5918 1700.2305 L 1780.1348 1700.0234 L 1773.9961 1697.248 L 1738.5684 1678.373 L 1738.6836 1681.2832 L 1573.4473 1606.5781 L 1569.3926 1598.0723 L 1559.8223 1600.418 L 1518.8281 1581.8848 L 1524.6543 1609.0391 L 1327.0762 1657.4648 A 38.47958 38.47958 0 0 0 1296.7832 1642.7109 A 38.47958 38.47958 0 0 0 1258.3027 1681.1895 A 38.47958 38.47958 0 0 0 1296.7832 1719.6699 A 38.47958 38.47958 0 0 0 1301.8164 1719.3379 L 1308.4375 1750.3848 A 38.47958 38.47958 0 0 0 1274.6953 1788.5723 A 38.47958 38.47958 0 0 0 1274.7637 1790.8516 L 1002.5371 1835.3438 A 38.47958 38.47958 0 0 0 967.67773 1813.1562 A 38.47958 38.47958 0 0 0 962.07227 1813.5684 L 813.53125 1569.8398 z M 810.99414 1594.5 L 947.67383 1818.7656 A 38.47958 38.47958 0 0 0 929.19727 1851.6348 A 38.47958 38.47958 0 0 0 933.12695 1868.5723 L 887.87891 1900.0723 A 69.429588 69.429588 0 0 0 834.70312 1875.2832 A 69.429588 69.429588 0 0 0 834.24805 1875.2832 A 69.429588 69.429588 0 0 0 783.86914 1897.4219 L 646.96289 1799.1699 A 38.47958 38.47958 0 0 0 648.85352 1787.2578 A 38.47958 38.47958 0 0 0 645.42773 1771.3867 L 810.99414 1594.5 z M 1565.1953 1619.3086 L 1739.3418 1698.043 L 1739.3965 1699.4805 L 1595.2051 1754.375 A 38.47958 38.47958 0 0 0 1567.5195 1737.3359 L 1545.418 1634.3125 L 1565.1953 1619.3086 z M 1527.8008 1623.7109 L 1528.75 1628.127 L 1345.25 1767.3145 A 38.47958 38.47958 0 0 0 1324.0469 1751.6602 L 1316.1152 1714.4609 A 38.47958 38.47958 0 0 0 1335.2617 1681.1895 A 38.47958 38.47958 0 0 0 1333.9473 1671.2246 L 1527.8008 1623.7109 z M 1532.2227 1644.3203 L 1552.4473 1738.5801 A 38.47958 38.47958 0 0 0 1525.9473 1765.4824 L 1351.6543 1788.7871 A 38.47958 38.47958 0 0 0 1351.6543 1788.5723 A 38.47958 38.47958 0 0 0 1351.043 1781.7461 L 1532.2227 1644.3203 z M 2084.5215 1664.0098 L 2074.4258 1969.9961 L 1932.6582 2005.2539 A 38.47958 38.47958 0 0 0 1905.0801 1974.2832 L 1920.3027 1824.8086 A 38.47958 38.47958 0 0 0 1952.7793 1786.8027 A 38.47958 38.47958 0 0 0 1952.3418 1781.0273 L 2084.5215 1664.0098 z M 1760.9844 1707.3125 L 1879.4727 1770.4414 A 38.47958 38.47958 0 0 0 1875.8203 1786.8027 A 38.47958 38.47958 0 0 0 1880.707 1805.5664 L 1775.543 1905.5176 A 38.47958 38.47958 0 0 0 1762.1367 1896.2109 L 1754.8086 1709.666 L 1760.9844 1707.3125 z M 319.26172 1714.8203 L 571.90039 1787.875 A 38.47958 38.47958 0 0 0 571.90234 1787.9395 L 404.19922 1827.7988 A 38.47958 38.47958 0 0 0 368.60156 1803.9238 A 38.47958 38.47958 0 0 0 333.54688 1826.5352 L 138.6543 1782.9199 A 38.47958 38.47958 0 0 0 134.72656 1769.3945 L 249.98438 1719.8848 A 38.47958 38.47958 0 0 0 283.41602 1739.3125 A 38.47958 38.47958 0 0 0 319.26172 1714.8203 z M 1740.0176 1715.2949 L 1747.0098 1893.2793 A 38.47958 38.47958 0 0 0 1723.0488 1901.9629 L 1599.1055 1789.0879 A 38.47958 38.47958 0 0 0 1601.5625 1775.5586 A 38.47958 38.47958 0 0 0 1600.8652 1768.2695 L 1740.0176 1715.2949 z M 1524.9551 1780.748 A 38.47958 38.47958 0 0 0 1529.5664 1794.4629 L 1384.6836 1942.2832 A 38.47958 38.47958 0 0 0 1362.543 1929.916 L 1332.8828 1821.6211 A 38.47958 38.47958 0 0 0 1348.2598 1804.375 L 1524.9551 1780.748 z M 137.16016 1797.957 L 330.14258 1841.1426 A 38.47958 38.47958 0 0 0 330.12109 1842.4043 A 38.47958 38.47958 0 0 0 340.01172 1868.1582 L 263.85156 1972.5137 A 38.47958 38.47958 0 0 0 242.0918 1965.7676 A 38.47958 38.47958 0 0 0 228.10742 1968.4004 L 127.89648 1813.5859 A 38.47958 38.47958 0 0 0 137.16016 1797.957 z M 1591.0234 1802.0156 L 1713.5 1913.5527 A 38.47958 38.47958 0 0 0 1708.9199 1931.7578 A 38.47958 38.47958 0 0 0 1709.9863 1940.7461 L 1536.6953 1981.5391 A 38.47958 38.47958 0 0 0 1501.248 1958.0273 A 38.47958 38.47958 0 0 0 1465.7715 1981.6035 L 1394.3594 1969.1152 A 38.47958 38.47958 0 0 0 1394.3809 1967.8203 A 38.47958 38.47958 0 0 0 1392.4512 1955.7871 L 1539.3848 1805.875 A 38.47958 38.47958 0 0 0 1563.084 1814.0391 A 38.47958 38.47958 0 0 0 1591.0234 1802.0156 z M 575.08594 1802.5996 A 38.47958 38.47958 0 0 0 610.37305 1825.7383 A 38.47958 38.47958 0 0 0 614.91406 1825.4688 L 640.48242 1960.0195 A 38.47958 38.47958 0 0 0 623.90234 1976.3867 L 526.86133 1934.8477 A 38.47958 38.47958 0 0 0 528.15625 1924.9512 A 38.47958 38.47958 0 0 0 489.67773 1886.4707 A 38.47958 38.47958 0 0 0 462.30859 1897.9023 L 404.00391 1857.4766 A 38.47958 38.47958 0 0 0 407.08008 1842.5332 L 575.08594 1802.5996 z M 1278.5859 1805.4277 A 38.47958 38.47958 0 0 0 1284.1953 1813.8867 L 1230.1699 1917.4531 A 38.47958 38.47958 0 0 0 1215.2363 1914.4355 A 38.47958 38.47958 0 0 0 1190.291 1923.6152 L 1014.582 1848.5742 L 1278.5859 1805.4277 z M 639.56641 1812.3262 L 774.89844 1909.4453 A 69.429588 69.429588 0 0 0 765.27344 1944.7129 A 69.429588 69.429588 0 0 0 767.39844 1961.7559 L 693.85742 1980.4609 A 38.47958 38.47958 0 0 0 657.95508 1955.8242 A 38.47958 38.47958 0 0 0 654.97461 1955.9395 L 629.28711 1820.7695 A 38.47958 38.47958 0 0 0 639.56641 1812.3262 z M 1890.4512 1816.998 A 38.47958 38.47958 0 0 0 1905.2852 1824.209 L 1890.123 1973.1152 A 38.47958 38.47958 0 0 0 1856.1816 2011.3242 A 38.47958 38.47958 0 0 0 1866.3027 2037.3359 L 1756.4805 2163.6602 A 38.47958 38.47958 0 0 0 1748.5801 2157.5332 L 1757.6133 1968.8555 A 38.47958 38.47958 0 0 0 1785.8789 1931.7578 A 38.47958 38.47958 0 0 0 1783.5566 1918.5957 L 1890.4512 1816.998 z M 1296.2852 1823.1445 A 38.47958 38.47958 0 0 0 1313.1758 1827.0508 A 38.47958 38.47958 0 0 0 1318.709 1826.6504 L 1347.1113 1930.3574 A 38.47958 38.47958 0 0 0 1319.375 1955.7188 L 1252.5801 1943.6406 A 38.47958 38.47958 0 0 0 1242.666 1925.9297 L 1296.2852 1823.1445 z M 1005.0469 1860.8125 L 1180.7461 1935.8496 A 38.47958 38.47958 0 0 0 1176.7559 1952.916 A 38.47958 38.47958 0 0 0 1189.1211 1981.1758 L 1124.0957 2071.3125 A 38.47958 38.47958 0 0 0 1108.168 2067.8613 A 38.47958 38.47958 0 0 0 1083.8809 2076.4961 L 1008.1836 2031.2637 A 38.47958 38.47958 0 0 0 1011.0703 2016.6406 A 38.47958 38.47958 0 0 0 981.07227 1979.1094 L 980.82617 1887.7988 A 38.47958 38.47958 0 0 0 1005.0469 1860.8125 z M 395.55273 1869.8672 L 454.04492 1910.4258 A 38.47958 38.47958 0 0 0 451.19727 1924.9512 A 38.47958 38.47958 0 0 0 467.04492 1956.0703 L 455.15234 2095.2402 A 38.47958 38.47958 0 0 0 453.95703 2095.2207 A 38.47958 38.47958 0 0 0 423.81836 2109.7773 L 279.90234 2011.3926 A 38.47958 38.47958 0 0 0 280.57031 2004.248 A 38.47958 38.47958 0 0 0 274.45312 1983.4316 L 352.03125 1877.1328 A 38.47958 38.47958 0 0 0 368.60156 1880.8828 A 38.47958 38.47958 0 0 0 395.55273 1869.8672 z M 942.23828 1880.5059 A 38.47958 38.47958 0 0 0 965.83203 1890.0703 L 966.07031 1978.7188 A 38.47958 38.47958 0 0 0 942.61328 1992.5176 L 900.46289 1966.9844 A 69.429588 69.429588 0 0 0 904.13281 1944.7129 A 69.429588 69.429588 0 0 0 896.22656 1912.5391 L 942.23828 1880.5059 z M 520.23828 1948.3301 L 619.62891 1990.873 A 38.47958 38.47958 0 0 0 619.47656 1994.3047 A 38.47958 38.47958 0 0 0 622.43555 2009.1016 L 486.04688 2112.4688 A 38.47958 38.47958 0 0 0 469.91406 2098.6875 L 481.54492 1962.5605 A 38.47958 38.47958 0 0 0 489.67773 1963.4297 A 38.47958 38.47958 0 0 0 520.23828 1948.3301 z M 1716.4609 1954.6348 A 38.47958 38.47958 0 0 0 1742.5449 1969.9277 L 1733.8008 2152.5508 A 38.47958 38.47958 0 0 0 1729.1543 2152.2695 A 38.47958 38.47958 0 0 0 1713.375 2155.6543 L 1652.3477 2081.6875 A 38.47958 38.47958 0 0 0 1657.2188 2062.9512 A 38.47958 38.47958 0 0 0 1618.7383 2024.4727 A 38.47958 38.47958 0 0 0 1593.9668 2033.5078 L 1538.8359 2004.7422 A 38.47958 38.47958 0 0 0 1539.7266 1996.5059 A 38.47958 38.47958 0 0 0 1539.7246 1996.2344 L 1716.4609 1954.6348 z M 1253.2285 1959 L 1317.5254 1970.625 A 38.47958 38.47958 0 0 0 1355.9004 2006.2988 A 38.47958 38.47958 0 0 0 1358.6816 2006.1973 L 1358.5469 2083.0449 A 38.47958 38.47958 0 0 0 1329.8008 2107.1074 L 1145.2832 2096.1855 A 38.47958 38.47958 0 0 0 1136.2793 2080.0645 L 1201.9512 1989.0293 A 38.47958 38.47958 0 0 0 1215.2363 1991.3945 A 38.47958 38.47958 0 0 0 1253.2285 1959 z M 772.66797 1975.8926 A 69.429588 69.429588 0 0 0 795.60938 2002.0879 L 690.38281 2192.0078 A 38.47958 38.47958 0 0 0 681.76758 2190.4414 L 667.64648 2031.543 A 38.47958 38.47958 0 0 0 696.42383 1995.2871 L 772.66797 1975.8926 z M 894.09961 1980.666 L 935.6582 2005.8438 A 38.47958 38.47958 0 0 0 934.11133 2016.6406 A 38.47958 38.47958 0 0 0 966.73438 2054.6719 L 975.85352 2216.8633 L 872.4707 2002.9707 A 69.429588 69.429588 0 0 0 894.09961 1980.666 z M 1390.9297 1983.7441 L 1443.7285 1992.9766 L 1462.7676 1996.3066 A 38.47958 38.47958 0 0 0 1462.7676 1996.5059 A 38.47958 38.47958 0 0 0 1469.959 2018.9062 L 1389.5547 2090.6172 A 38.47958 38.47958 0 0 0 1373.5469 2083.1641 L 1373.6895 2001.9395 A 38.47958 38.47958 0 0 0 1390.9297 1983.7441 z M 808.8457 2009.1484 A 69.429588 69.429588 0 0 0 834.70312 2014.1426 A 69.429588 69.429588 0 0 0 859.07422 2009.7246 L 967.61133 2234.2812 A 38.47958 38.47958 0 0 0 942.80273 2257.3184 L 717.66797 2226.9004 A 38.47958 38.47958 0 0 0 703.61719 2199.0684 L 808.8457 2009.1484 z M 1532.8086 2018.5176 L 1584.4609 2045.4688 A 38.47958 38.47958 0 0 0 1580.2598 2062.9512 A 38.47958 38.47958 0 0 0 1598.4277 2095.6328 L 1554.8809 2206.3711 A 38.47958 38.47958 0 0 0 1540.582 2203.6152 A 38.47958 38.47958 0 0 0 1502.1035 2242.0938 A 38.47958 38.47958 0 0 0 1502.7188 2248.9434 L 1423.9766 2274 A 38.47958 38.47958 0 0 0 1388.1523 2249.5684 A 38.47958 38.47958 0 0 0 1361.166 2260.6191 L 1301.3125 2230.9746 A 38.47958 38.47958 0 0 0 1301.502 2227.1621 A 38.47958 38.47958 0 0 0 1293.8691 2204.1621 L 1345.127 2153.334 A 38.47958 38.47958 0 0 0 1365.7461 2159.3242 A 38.47958 38.47958 0 0 0 1404.2246 2120.8457 A 38.47958 38.47958 0 0 0 1399.3047 2102.0176 L 1480.9531 2029.1992 A 38.47958 38.47958 0 0 0 1501.248 2034.9863 A 38.47958 38.47958 0 0 0 1532.8086 2018.5176 z M 207.06641 2020.1836 A 38.47958 38.47958 0 0 0 242.0918 2042.7266 A 38.47958 38.47958 0 0 0 274.10156 2025.5977 L 416.92773 2123.2363 A 38.47958 38.47958 0 0 0 415.47656 2133.7012 A 38.47958 38.47958 0 0 0 415.60547 2136.8398 L 142.65234 2249.9102 A 38.47958 38.47958 0 0 0 115.91406 2239.1016 A 38.47958 38.47958 0 0 0 107.61328 2240.0078 L 13.304688 2091.0312 L 207.06641 2020.1836 z M 630.81055 2021.5762 A 38.47958 38.47958 0 0 0 652.66211 2032.416 L 666.88086 2192.3945 A 38.47958 38.47958 0 0 0 647.02734 2207.7852 L 492.40234 2132.0996 A 38.47958 38.47958 0 0 0 491.83008 2126.9082 L 630.81055 2021.5762 z M 999.875 2043.7734 L 1074.2324 2088.2051 A 38.47958 38.47958 0 0 0 1069.6895 2106.3418 A 38.47958 38.47958 0 0 0 1079.7422 2132.2734 L 1001.0371 2239.7734 A 38.47958 38.47958 0 0 0 991.89453 2234.9648 L 981.71875 2054.0215 A 38.47958 38.47958 0 0 0 999.875 2043.7734 z M 1878.4512 2046.2227 A 38.47958 38.47958 0 0 0 1894.6621 2049.8047 A 38.47958 38.47958 0 0 0 1896.7148 2049.75 L 1897.373 2229.2129 A 38.47958 38.47958 0 0 0 1868.7188 2245.2773 L 1765.9688 2201.9395 A 38.47958 38.47958 0 0 0 1767.6328 2190.748 A 38.47958 38.47958 0 0 0 1764.9902 2176.7363 L 1878.4512 2046.2227 z M 1642.4473 2093.2578 L 1701.1289 2164.3828 A 38.47958 38.47958 0 0 0 1690.6738 2190.748 A 38.47958 38.47958 0 0 0 1711.2637 2224.8164 L 1622.5586 2363.7051 A 38.47958 38.47958 0 0 0 1613.5684 2362.6406 A 38.47958 38.47958 0 0 0 1581.8672 2379.3145 L 1425.3379 2297.9414 A 38.47958 38.47958 0 0 0 1426.623 2288.8984 L 1508.2344 2262.9297 A 38.47958 38.47958 0 0 0 1540.582 2280.5742 A 38.47958 38.47958 0 0 0 1579.0625 2242.0938 A 38.47958 38.47958 0 0 0 1567.6875 2214.7832 L 1612.4668 2100.916 A 38.47958 38.47958 0 0 0 1618.7383 2101.4316 A 38.47958 38.47958 0 0 0 1642.4473 2093.2578 z M 1146.3301 2111.2715 L 1327.2832 2121.9844 A 38.47958 38.47958 0 0 0 1334.2695 2142.9766 L 1282.7129 2194.1035 A 38.47958 38.47958 0 0 0 1263.0234 2188.6836 A 38.47958 38.47958 0 0 0 1242.9668 2194.3242 L 1144.8047 2118.1113 A 38.47958 38.47958 0 0 0 1146.3301 2111.2715 z M 1137.4062 2131.3574 L 1231.8145 2204.6562 A 38.47958 38.47958 0 0 0 1224.543 2227.1621 A 38.47958 38.47958 0 0 0 1231.0137 2248.5195 L 1158.5234 2329.082 A 38.47958 38.47958 0 0 0 1127.998 2314.0293 A 38.47958 38.47958 0 0 0 1094.8848 2332.9082 L 1015.5996 2282.0996 A 38.47958 38.47958 0 0 0 1017.2012 2271.1191 A 38.47958 38.47958 0 0 0 1011.4707 2250.918 L 1091.8184 2141.1719 A 38.47958 38.47958 0 0 0 1108.168 2144.8203 A 38.47958 38.47958 0 0 0 1137.4062 2131.3574 z M 489.85547 2147.5527 L 641.41797 2221.7402 A 38.47958 38.47958 0 0 0 640.75781 2228.8379 A 38.47958 38.47958 0 0 0 647.29492 2250.293 L 512.61914 2351.877 A 38.47958 38.47958 0 0 0 494.68164 2345.5527 L 469.36133 2168.9609 A 38.47958 38.47958 0 0 0 489.85547 2147.5527 z M 419.76562 2151.3535 A 38.47958 38.47958 0 0 0 425.89648 2160.0293 L 265.50781 2400.9473 A 38.47958 38.47958 0 0 0 255.82617 2399.707 A 38.47958 38.47958 0 0 0 245.70898 2401.0625 L 146.40234 2301.0566 A 38.47958 38.47958 0 0 0 154.39453 2277.582 A 38.47958 38.47958 0 0 0 151.33594 2262.5488 L 419.76562 2151.3535 z M 438.10352 2168.7617 A 38.47958 38.47958 0 0 0 453.95703 2172.1797 A 38.47958 38.47958 0 0 0 454.66797 2172.1719 L 479.75781 2347.1562 A 38.47958 38.47958 0 0 0 453.32617 2377.3652 L 287.41016 2416.209 A 38.47958 38.47958 0 0 0 279.12305 2407.5625 L 438.10352 2168.7617 z M 1758.8516 2215.2188 L 1862.5625 2258.9609 A 38.47958 38.47958 0 0 0 1861.5801 2267.5996 A 38.47958 38.47958 0 0 0 1863.332 2279.0723 L 1643.4883 2376.9238 A 38.47958 38.47958 0 0 0 1636.2949 2370.0684 L 1726.3105 2229.1211 A 38.47958 38.47958 0 0 0 1729.1543 2229.2285 A 38.47958 38.47958 0 0 0 1758.8516 2215.2188 z M 715.48828 2241.7422 L 940.25391 2272.1074 A 38.47958 38.47958 0 0 0 942.49414 2284.0879 L 793.83203 2351.5977 A 38.47958 38.47958 0 0 0 762.42969 2335.3574 A 38.47958 38.47958 0 0 0 753.83203 2336.332 L 702.42969 2259.541 A 38.47958 38.47958 0 0 0 715.48828 2241.7422 z M 1296.8496 2245.5039 L 1352.6758 2273.1523 A 38.47958 38.47958 0 0 0 1349.6738 2288.0488 A 38.47958 38.47958 0 0 0 1366.082 2319.5664 L 1310.0957 2406.7227 A 38.47958 38.47958 0 0 0 1284.3809 2396.8691 A 38.47958 38.47958 0 0 0 1254.3398 2411.3008 L 1164.791 2363.7715 A 38.47958 38.47958 0 0 0 1166.4766 2352.5098 A 38.47958 38.47958 0 0 0 1165.4727 2343.7832 L 1241.6289 2259.1465 A 38.47958 38.47958 0 0 0 1263.0234 2265.6426 A 38.47958 38.47958 0 0 0 1296.8496 2245.5039 z M 658.05859 2260.9629 A 38.47958 38.47958 0 0 0 679.23828 2267.3164 A 38.47958 38.47958 0 0 0 688.78125 2266.1133 L 739.97266 2342.5918 A 38.47958 38.47958 0 0 0 723.95117 2373.8379 A 38.47958 38.47958 0 0 0 726.7207 2388.1738 L 608.80859 2460.623 L 528.93555 2391.6543 A 38.47958 38.47958 0 0 0 529.73047 2383.8789 A 38.47958 38.47958 0 0 0 523.3125 2362.6016 L 658.05859 2260.9629 z M 1870.541 2292.2812 A 38.47958 38.47958 0 0 0 1871.541 2293.4316 L 1855.6777 2372.291 A 38.47958 38.47958 0 0 0 1822.3008 2410.4316 A 38.47958 38.47958 0 0 0 1838.1094 2441.5234 L 1761.2188 2639.5547 A 38.47958 38.47958 0 0 0 1749.291 2635.2832 L 1634.5273 2433.3906 A 38.47958 38.47958 0 0 0 1652.0488 2401.1191 A 38.47958 38.47958 0 0 0 1650.4746 2390.2305 L 1870.541 2292.2812 z M 1008.5664 2295.4082 L 1089.8457 2347.4922 A 38.47958 38.47958 0 0 0 1089.5176 2352.5098 A 38.47958 38.47958 0 0 0 1091.6309 2365.084 L 958.81836 2462.9414 A 38.47958 38.47958 0 0 0 930.125 2450.1035 A 38.47958 38.47958 0 0 0 900.92578 2463.5254 L 799.08398 2385.5508 A 38.47958 38.47958 0 0 0 800.91016 2373.8379 A 38.47958 38.47958 0 0 0 799.94922 2365.293 L 950.27344 2297.0273 A 38.47958 38.47958 0 0 0 978.72266 2309.5996 A 38.47958 38.47958 0 0 0 1008.5664 2295.4082 z M 135.08398 2310.9453 L 231.68164 2408.2246 A 38.47958 38.47958 0 0 0 217.3457 2438.1875 A 38.47958 38.47958 0 0 0 225.58203 2461.9766 L 62.75 2611.832 A 38.47958 38.47958 0 0 0 33.912109 2598.8242 A 38.47958 38.47958 0 0 0 10.123047 2607.0605 L -153.8418 2487.084 L 98.720703 2312.0039 A 38.47958 38.47958 0 0 0 115.91406 2316.0605 A 38.47958 38.47958 0 0 0 135.08398 2310.9453 z M 1418.7266 2311.4102 L 1575.9277 2393.1309 A 38.47958 38.47958 0 0 0 1575.2676 2397.4141 L 1322.0645 2427.5605 A 38.47958 38.47958 0 0 0 1319.5566 2419.7461 L 1379.998 2325.6543 A 38.47958 38.47958 0 0 0 1388.1523 2326.5273 A 38.47958 38.47958 0 0 0 1418.7266 2311.4102 z M 1157.6895 2376.9844 L 1247.4297 2424.6133 A 38.47958 38.47958 0 0 0 1245.9004 2435.3477 A 38.47958 38.47958 0 0 0 1246.0938 2439.1797 L 967.83203 2480.9121 A 38.47958 38.47958 0 0 0 966.4668 2475.9375 L 1099.2578 2378.0957 A 38.47958 38.47958 0 0 0 1127.998 2390.9883 A 38.47958 38.47958 0 0 0 1157.6895 2376.9844 z M 453.78711 2392.6602 A 38.47958 38.47958 0 0 0 460.36523 2406.8281 L 278.91016 2606.6914 A 38.47958 38.47958 0 0 0 256.59375 2599.5605 A 38.47958 38.47958 0 0 0 218.87695 2630.4258 L 71.359375 2628.457 A 38.47958 38.47958 0 0 0 70.423828 2625.1602 L 237.07227 2471.7871 A 38.47958 38.47958 0 0 0 255.82617 2476.666 A 38.47958 38.47958 0 0 0 294.30469 2438.1875 A 38.47958 38.47958 0 0 0 293.46484 2430.1973 L 453.78711 2392.6602 z M 791.71289 2398.7988 L 893.51562 2476.7422 A 38.47958 38.47958 0 0 0 891.64648 2488.582 A 38.47958 38.47958 0 0 0 893.03125 2498.8066 L 752.23242 2547.5566 A 38.47958 38.47958 0 0 0 732.64844 2525.2578 L 764.56055 2412.2578 A 38.47958 38.47958 0 0 0 791.71289 2398.7988 z M 734.91992 2400.7402 A 38.47958 38.47958 0 0 0 749.58203 2410.1074 L 718.14258 2521.4297 A 38.47958 38.47958 0 0 0 715.76562 2521.3555 A 38.47958 38.47958 0 0 0 690.30078 2530.9883 L 620.7207 2470.9082 L 734.91992 2400.7402 z M 522.68359 2406.0742 L 595.39844 2468.8613 L 480.99023 2539.1562 A 38.47958 38.47958 0 0 0 476.36133 2535.0215 L 490.4043 2422.3477 A 38.47958 38.47958 0 0 0 491.25195 2422.3574 A 38.47958 38.47958 0 0 0 522.68359 2406.0742 z M 1576.7637 2412.3438 A 38.47958 38.47958 0 0 0 1584.1797 2425.957 L 1532.3066 2513.7754 A 38.47958 38.47958 0 0 0 1496.4551 2543.8281 L 1369.6602 2597.0059 A 38.47958 38.47958 0 0 0 1345.4297 2579.6543 L 1313.1719 2460.8789 A 38.47958 38.47958 0 0 0 1322.1602 2442.6562 L 1576.7637 2412.3438 z M 471.48633 2416.8926 A 38.47958 38.47958 0 0 0 475.69727 2419.0742 L 462.08789 2528.2656 A 38.47958 38.47958 0 0 0 453.11719 2527.2051 A 38.47958 38.47958 0 0 0 414.63672 2565.6855 A 38.47958 38.47958 0 0 0 414.90625 2570.2148 L 291.08789 2620.9844 A 38.47958 38.47958 0 0 0 289.22461 2617.6465 L 471.48633 2416.8926 z M 1890.2734 2435.1445 L 2143.4531 2502.8711 L 2016.5977 2585.8477 A 38.47958 38.47958 0 0 0 1987.5332 2572.584 A 38.47958 38.47958 0 0 0 1949.0527 2611.0625 A 38.47958 38.47958 0 0 0 1949.123 2613.3906 L 1780.1367 2665.3301 A 38.47958 38.47958 0 0 0 1773.2344 2650.0508 L 1851.75 2447.8359 A 38.47958 38.47958 0 0 0 1860.7793 2448.9102 A 38.47958 38.47958 0 0 0 1890.2734 2435.1445 z M 1596.041 2435.375 A 38.47958 38.47958 0 0 0 1613.5684 2439.5996 A 38.47958 38.47958 0 0 0 1620.4531 2438.9785 L 1732.4453 2636 A 38.47958 38.47958 0 0 0 1709.8223 2652.7754 L 1571.4648 2561.0332 A 38.47958 38.47958 0 0 0 1572.4883 2552.2188 A 38.47958 38.47958 0 0 0 1548.1602 2516.4355 L 1596.041 2435.375 z M 1250.5488 2453.6797 A 38.47958 38.47958 0 0 0 1261.6895 2466.4238 L 1073.8906 2707.1113 A 38.47958 38.47958 0 0 0 1051.209 2699.7168 A 38.47958 38.47958 0 0 0 1044.1621 2700.3691 L 951.05078 2520.873 A 38.47958 38.47958 0 0 0 967.86914 2496.0742 L 1250.5488 2453.6797 z M 1300.2188 2470.418 L 1329.8027 2579.3535 A 38.47958 38.47958 0 0 0 1298.4102 2617.1738 A 38.47958 38.47958 0 0 0 1299.6387 2626.8184 L 1084.6387 2719.1387 A 38.47958 38.47958 0 0 0 1084.1641 2718.3281 L 1275.709 2472.8379 A 38.47958 38.47958 0 0 0 1284.3809 2473.8281 A 38.47958 38.47958 0 0 0 1300.2188 2470.418 z M 607.31055 2479.1465 L 681.19336 2542.9414 A 38.47958 38.47958 0 0 0 677.29492 2558.9453 L 490.95312 2558.6895 A 38.47958 38.47958 0 0 0 489.01562 2551.832 L 607.31055 2479.1465 z M 899.84375 2512.3223 A 38.47958 38.47958 0 0 0 906.91992 2519.2754 L 841.26562 2641.375 A 38.47958 38.47958 0 0 0 819.10547 2634.3516 A 38.47958 38.47958 0 0 0 803.22656 2637.7812 L 747.18359 2582.0488 A 38.47958 38.47958 0 0 0 754.13281 2562.7715 L 899.84375 2512.3223 z M 920.43359 2525.8203 A 38.47958 38.47958 0 0 0 930.125 2527.0625 A 38.47958 38.47958 0 0 0 937.03906 2526.4355 L 1030.1738 2705.9766 A 38.47958 38.47958 0 0 0 1012.7305 2738.1953 A 38.47958 38.47958 0 0 0 1014.1953 2748.707 L 927.04297 2799.8047 A 38.47958 38.47958 0 0 0 891.75391 2775.8672 L 849.92188 2695.873 A 38.47958 38.47958 0 0 0 857.58398 2672.8301 A 38.47958 38.47958 0 0 0 852.0625 2652.9707 L 920.43359 2525.8203 z M 1496.3535 2560.1367 A 38.47958 38.47958 0 0 0 1534.0098 2590.6973 A 38.47958 38.47958 0 0 0 1565.1387 2574.8379 L 1704.4453 2667.209 A 38.47958 38.47958 0 0 0 1703.9824 2673.1523 A 38.47958 38.47958 0 0 0 1708.6016 2691.4297 L 1583.4238 2745.6797 A 38.47958 38.47958 0 0 0 1553.8359 2731.7988 A 38.47958 38.47958 0 0 0 1525.623 2744.1113 L 1374.2891 2626.2227 A 38.47958 38.47958 0 0 0 1375.3691 2617.1738 A 38.47958 38.47958 0 0 0 1374.8828 2611.0801 L 1496.3535 2560.1367 z M 490.75391 2573.6914 L 676.88086 2573.9434 L 570.24805 2659.4395 A 38.47958 38.47958 0 0 0 542.79297 2647.918 A 38.47958 38.47958 0 0 0 534.64258 2648.793 L 487.38477 2583.1855 A 38.47958 38.47958 0 0 0 490.75391 2573.6914 z M 419.56055 2584.5176 A 38.47958 38.47958 0 0 0 431.47656 2597.502 L 402.97656 2652.3867 L 295.06445 2638.8887 A 38.47958 38.47958 0 0 0 295.07422 2638.0391 A 38.47958 38.47958 0 0 0 294.99609 2635.5918 L 419.56055 2584.5176 z M 686.82617 2585.1973 A 38.47958 38.47958 0 0 0 715.76562 2598.3145 A 38.47958 38.47958 0 0 0 736.29688 2592.377 L 790.88867 2646.668 A 38.47958 38.47958 0 0 0 780.625 2672.8301 A 38.47958 38.47958 0 0 0 785.46289 2691.5117 L 542.03906 2818.8672 A 38.47958 38.47958 0 0 0 534.32422 2812.3613 L 545.77344 2724.7617 A 38.47958 38.47958 0 0 0 581.27148 2686.3965 A 38.47958 38.47958 0 0 0 578.49805 2672.0527 L 686.82617 2585.1973 z M 477.64844 2595.3301 L 520.60156 2654.9609 A 38.47958 38.47958 0 0 0 510.28711 2665.8047 L 418.84766 2654.3691 L 445.33203 2603.3691 A 38.47958 38.47958 0 0 0 453.11719 2604.1641 A 38.47958 38.47958 0 0 0 477.64844 2595.3301 z M 1952.9375 2627.9102 A 38.47958 38.47958 0 0 0 1987.5332 2649.543 A 38.47958 38.47958 0 0 0 1991.5566 2649.3301 L 1985.9395 2866.4551 A 38.47958 38.47958 0 0 0 1972.5273 2873.0371 L 1782.4082 2680.3242 L 1952.9375 2627.9102 z M 1367.7578 2640.1465 L 1517.7266 2756.9785 A 38.47958 38.47958 0 0 0 1515.3555 2770.2793 A 38.47958 38.47958 0 0 0 1553.8359 2808.7578 A 38.47958 38.47958 0 0 0 1554.8203 2808.7461 L 1594.4609 2902.2148 A 38.47958 38.47958 0 0 0 1578.2148 2919.0234 L 1295.3477 2789.4844 A 38.47958 38.47958 0 0 0 1295.6387 2784.7578 A 38.47958 38.47958 0 0 0 1279.5605 2753.4707 L 1333.2754 2655.4824 A 38.47958 38.47958 0 0 0 1336.8887 2655.6543 A 38.47958 38.47958 0 0 0 1367.7578 2640.1465 z M 1306.166 2640.3398 A 38.47958 38.47958 0 0 0 1318.6094 2651.0332 L 1265.8516 2747.2734 A 38.47958 38.47958 0 0 0 1257.1582 2746.2793 A 38.47958 38.47958 0 0 0 1223.9062 2765.3965 L 1089.6719 2737.0586 A 38.47958 38.47958 0 0 0 1089.3926 2733.4219 L 1306.166 2640.3398 z M 71.892578 2643.4648 L 218.83203 2645.4277 A 38.47958 38.47958 0 0 0 235.5625 2670.2637 L 123.37695 2845.5488 A 38.47958 38.47958 0 0 0 117.48828 2845.0938 A 38.47958 38.47958 0 0 0 110.55273 2845.7246 L 56.716797 2668.2949 A 38.47958 38.47958 0 0 0 71.892578 2643.4648 z M 291.78906 2653.5938 L 395.60547 2666.582 L 369.80273 2716.2715 L 290.18164 2656.8145 A 38.47958 38.47958 0 0 0 291.78906 2653.5938 z M 280.42578 2668.25 L 362.79688 2729.7617 L 259.75781 2928.1895 A 38.47958 38.47958 0 0 0 244.12305 2924.8711 A 38.47958 38.47958 0 0 0 221.43164 2932.2754 L 152.32422 2899.9141 A 38.47958 38.47958 0 0 0 155.96875 2883.5742 A 38.47958 38.47958 0 0 0 137.77539 2850.875 L 249.75781 2675.9062 A 38.47958 38.47958 0 0 0 256.59375 2676.5195 A 38.47958 38.47958 0 0 0 280.42578 2668.25 z M 411.47656 2668.5664 L 504.80859 2680.2402 A 38.47958 38.47958 0 0 0 504.3125 2686.3965 A 38.47958 38.47958 0 0 0 530.87891 2722.9844 L 519.92188 2806.8262 A 38.47958 38.47958 0 0 0 513.59766 2806.3027 A 38.47958 38.47958 0 0 0 496.04102 2810.541 L 381.98047 2725.3672 L 411.47656 2668.5664 z M 1774.8145 2693.9824 L 1962.5879 2884.3203 A 38.47958 38.47958 0 0 0 1957.3926 2903.6289 A 38.47958 38.47958 0 0 0 1962.7285 2923.1758 L 1773.1543 3113.6094 L 1642.6523 2960.252 A 38.47958 38.47958 0 0 0 1649.9473 2945.748 L 1799.959 2870.3203 A 38.47958 38.47958 0 0 0 1823.0078 2877.9902 A 38.47958 38.47958 0 0 0 1861.4883 2839.5098 A 38.47958 38.47958 0 0 0 1823.0078 2801.0312 A 38.47958 38.47958 0 0 0 1816.4512 2801.5938 L 1763.7793 2705.1855 A 38.47958 38.47958 0 0 0 1774.8145 2693.9824 z M 795.47852 2703.2031 A 38.47958 38.47958 0 0 0 819.10547 2711.3105 A 38.47958 38.47958 0 0 0 838.36523 2706.1426 L 876.41797 2778.9102 A 38.47958 38.47958 0 0 0 852.9375 2814.3438 A 38.47958 38.47958 0 0 0 868.12891 2844.9766 L 720.07227 2978.0039 A 38.47958 38.47958 0 0 0 702.98633 2974.002 A 38.47958 38.47958 0 0 0 680.18555 2981.4844 L 550.28906 2856.3711 A 38.47958 38.47958 0 0 0 552.07617 2844.7832 A 38.47958 38.47958 0 0 0 549.79688 2831.7363 L 795.47852 2703.2031 z M 1718.6875 2703.4062 A 38.47958 38.47958 0 0 0 1730.2324 2709.6348 L 1637.4609 2906.6465 A 38.47958 38.47958 0 0 0 1612.6992 2897.6191 A 38.47958 38.47958 0 0 0 1608.8848 2897.8105 L 1569.6719 2805.3477 A 38.47958 38.47958 0 0 0 1592.3145 2770.2793 A 38.47958 38.47958 0 0 0 1590.5996 2758.9199 L 1718.6875 2703.4062 z M 1749.8223 2710.9199 L 1802.3398 2807.0527 A 38.47958 38.47958 0 0 0 1784.5293 2839.5098 A 38.47958 38.47958 0 0 0 1789.6621 2858.709 L 1650.459 2928.7031 A 38.47958 38.47958 0 0 0 1647.6992 2920.1113 L 1745.9473 2711.4707 A 38.47958 38.47958 0 0 0 1749.8223 2710.9199 z M 374.97656 2738.8574 L 483.96094 2820.2402 A 38.47958 38.47958 0 0 0 475.11719 2844.7832 A 38.47958 38.47958 0 0 0 475.88672 2852.4316 L 277.20312 2943.6973 A 38.47958 38.47958 0 0 0 272.11133 2936.9473 L 374.97656 2738.8574 z M 1087.1816 2751.8613 L 1219.0137 2779.6934 A 38.47958 38.47958 0 0 0 1218.6797 2784.7578 A 38.47958 38.47958 0 0 0 1257.1582 2823.2383 A 38.47958 38.47958 0 0 0 1290.5938 2803.8066 L 1574.293 2933.7266 A 38.47958 38.47958 0 0 0 1574.2188 2936.0977 A 38.47958 38.47958 0 0 0 1575.957 2947.5312 L 1314.8691 2993.041 A 38.47958 38.47958 0 0 0 1277.9844 2965.5215 A 38.47958 38.47958 0 0 0 1270.3867 2966.2793 L 1085.1094 2756.4043 A 38.47958 38.47958 0 0 0 1087.1816 2751.8613 z M 1021.043 2762.0801 A 38.47958 38.47958 0 0 0 1041.6758 2775.4746 L 1019.0254 2998.7188 L 739.60742 3000.6699 A 38.47958 38.47958 0 0 0 732.11719 2987.3438 L 882.89844 2851.8691 A 38.47958 38.47958 0 0 0 891.41797 2852.8242 A 38.47958 38.47958 0 0 0 929.87695 2815.5332 L 1021.043 2762.0801 z M 1075.4258 2768.0996 L 1255.875 2972.5059 A 38.47958 38.47958 0 0 0 1240.1152 2997.1758 L 1034.1133 2998.6133 L 1056.6719 2776.2852 A 38.47958 38.47958 0 0 0 1075.4258 2768.0996 z M 90.716797 2911.2109 A 38.47958 38.47958 0 0 0 117.48828 2922.0527 A 38.47958 38.47958 0 0 0 143.19727 2912.2031 L 210.91406 2943.9121 A 38.47958 38.47958 0 0 0 205.64258 2963.3496 A 38.47958 38.47958 0 0 0 215.64062 2989.2227 L 119.47852 3110.0781 L -98.445312 3009.5254 L 90.716797 2911.2109 z "
       transform="translate(-399.24905,-523.82166)" />
  </g>
</svg>
