<?xml version="1.0" encoding="UTF-8" standalone="no"?>
<svg
   xmlns:dc="http://purl.org/dc/elements/1.1/"
   xmlns:cc="http://creativecommons.org/ns#"
   xmlns:rdf="http://www.w3.org/1999/02/22-rdf-syntax-ns#"
   xmlns:svg="http://www.w3.org/2000/svg"
   xmlns="http://www.w3.org/2000/svg"
   xmlns:xlink="http://www.w3.org/1999/xlink"
   xmlns:sodipodi="http://sodipodi.sourceforge.net/DTD/sodipodi-0.dtd"
   xmlns:inkscape="http://www.inkscape.org/namespaces/inkscape"
   version="1.1"
   id="svg97467"
   width="2000"
   height="1333"
   viewBox="0 0 2000 1333"
   sodipodi:docname="bkgd-chris-nodes-2.svg"
   inkscape:version="1.0.2 (e86c870879, 2021-01-15)"
   inkscape:export-filename="/home/duffy/SparkleShare/github.com/cube-design/_common-assets/bkgd-chris-nodes_no-logo.png"
   inkscape:export-xdpi="96"
   inkscape:export-ydpi="96">
  <metadata
     id="metadata97473">
    <rdf:RDF>
      <cc:Work
         rdf:about="">
        <dc:format>image/svg+xml</dc:format>
        <dc:type
           rdf:resource="http://purl.org/dc/dcmitype/StillImage" />
        <dc:title />
      </cc:Work>
    </rdf:RDF>
  </metadata>
  <defs
     id="defs97471">
    <linearGradient
       x1="0"
       y1="0"
       x2="1"
       y2="0"
       gradientUnits="userSpaceOnUse"
       gradientTransform="matrix(2873.01,0,0,-2873.01,699.055,1444.61)"
       spreadMethod="pad"
       id="linearGradient161468">
      <stop
         style="stop-opacity:1;stop-color:#3a7cc7"
         offset="0"
         id="stop161464" />
      <stop
         style="stop-opacity:1;stop-color:#7ad4ed"
         offset="1"
         id="stop161466" />
    </linearGradient>
    <linearGradient
       inkscape:collect="always"
       xlink:href="#linearGradient161468"
       id="linearGradient97728"
       gradientUnits="userSpaceOnUse"
       gradientTransform="matrix(72.95139,0,0,72.95139,709.28536,1156.7155)"
       x1="0"
       y1="0"
       x2="1"
       y2="0"
       spreadMethod="pad" />
    <linearGradient
       inkscape:collect="always"
       xlink:href="#linearGradient161468"
       id="linearGradient98304"
       x1="-399.24905"
       y1="142.67834"
       x2="1600.7509"
       y2="142.67834"
       gradientUnits="userSpaceOnUse"
       gradientTransform="matrix(1.001001,0,0,1.0007513,-0.60134192,-0.60720108)" />
  </defs>
  <sodipodi:namedview
     pagecolor="#ffffff"
     bordercolor="#666666"
     borderopacity="1"
     objecttolerance="10"
     gridtolerance="10"
     guidetolerance="10"
     inkscape:pageopacity="0"
     inkscape:pageshadow="2"
     inkscape:window-width="2560"
     inkscape:window-height="1369"
     id="namedview97469"
     showgrid="false"
     fit-margin-top="0"
     fit-margin-left="0"
     fit-margin-right="0"
     fit-margin-bottom="0"
     inkscape:zoom="0.56497832"
     inkscape:cx="1399.2491"
     inkscape:cy="2531.6332"
     inkscape:window-x="2560"
     inkscape:window-y="34"
     inkscape:window-maximized="1"
     inkscape:current-layer="g97475"
     inkscape:document-rotation="0" />
  <g
     inkscape:groupmode="layer"
     inkscape:label="Image"
     id="g97475"
     transform="translate(399.24905,523.82166)">
    <path
       id="path1479"
       style="color:#000000;font-style:normal;font-variant:normal;font-weight:normal;font-stretch:normal;font-size:medium;line-height:normal;font-family:sans-serif;font-variant-ligatures:normal;font-variant-position:normal;font-variant-caps:normal;font-variant-numeric:normal;font-variant-alternates:normal;font-variant-east-asian:normal;font-feature-settings:normal;font-variation-settings:normal;text-indent:0;text-align:start;text-decoration:none;text-decoration-line:none;text-decoration-style:solid;text-decoration-color:#000000;letter-spacing:normal;word-spacing:normal;text-transform:none;writing-mode:lr-tb;direction:ltr;text-orientation:mixed;dominant-baseline:auto;baseline-shift:baseline;text-anchor:start;white-space:normal;shape-padding:0;shape-margin:0;inline-size:0;clip-rule:nonzero;display:inline;overflow:visible;visibility:visible;opacity:1;isolation:auto;mix-blend-mode:normal;color-interpolation:sRGB;color-interpolation-filters:linearRGB;solid-color:#000000;solid-opacity:1;vector-effect:none;fill:#cc0000;fill-opacity:1;fill-rule:nonzero;stroke:none;stroke-linecap:butt;stroke-linejoin:miter;stroke-miterlimit:4;stroke-dasharray:none;stroke-dashoffset:0;stroke-opacity:1;color-rendering:auto;image-rendering:auto;shape-rendering:auto;text-rendering:auto;enable-background:accumulate;stop-color:#000000;stop-opacity:1"
       d="m 394.2822,1046.0181 -195.33398,208.6856 -1.66602,-1.1953 -14.87305,3.5351 -317.74218,-91.8808 -193.53516,83.1328 -135.12891,-30.2422 -3.27539,14.6387 141.62305,31.6933 134.77734,208.2149 -237.69922,86.9121 115.11524,181.8437 -11.44922,4.7422 15.80273,15.9141 -289.84179,200.9199 212.92969,155.8066 70.77343,233.252 -8.88476,13.8809 2.35351,1.1015 -229.98828,119.5313 256.39649,118.3047 122.89648,-154.4532 273.67773,-125.7129 171.72657,165.4024 5.20312,-5.4024 5.01367,5.5782 208.66016,-187.4785 133.3633,-78.1934 -48.25197,475.5762 14.92387,1.5136 48.2519,-475.5722 228.9766,259.3769 5.623,-4.9648 1.2871,7.3887 318.93755,-55.5938 -4.7148,10.0117 12.9394,-6.5058 149.8907,176.1386 220.1562,-221.1543 7.0645,7.1621 8.0799,-312.0839 172.1603,-112.6114 -316.8204,-84.75 25.7677,-128.1035 16.4004,-7.2988 7.4609,3.1465 -0.01,-2.4688 132.7792,47.2246 5.0255,-14.1328 -137.8614,-49.0312 -0.8633,-235.6973 177.4161,-44.123 11.6153,-352.1309 -170.3711,150.8301 -5.1953,-2.7676 1.6191,-15.9121 -11.3087,10.75 -135.8125,-72.3574 0.5431,-0.2071 -6.1387,-2.7754 -35.4277,-18.875 0.1152,2.9102 -165.2363,-74.7051 -4.0548,-8.5058 -9.5702,2.3457 -40.9943,-18.5332 5.8262,27.1543 -234.12105,57.3828 20.4824,96.0527 -12.8047,24.5449 -309.3691,50.5625 -6.93946,-2.9648 -4.91601,3.4219 z m -2.53711,24.6602 153.6582,252.125 -122.31054,85.1484 -29.61719,-17.9414 3.18164,6.5821 -185.41797,-133.0684 z m 754.20121,24.8086 174.1464,78.7344 0.055,1.4375 -166.4082,63.3515 -27.5704,-128.5195 z m -37.3945,4.4023 0.9492,4.4161 -198.87705,150.8515 -21.6347,-101.4531 z m 4.4219,20.6094 25.0957,116.9668 -217.67395,29.1055 z m 552.2988,19.6895 -10.0957,305.9863 -162.8535,40.5019 -0.092,-25.1289 -8.5292,9.8106 20.5018,-201.3067 8.9766,4.7832 z m -1799.61725,40.875 287.11718,83.0254 -199.84179,47.5 -0.48828,-0.3379 -256.32227,-57.3633 z m 1476.08015,2.4277 142.9609,76.166 -140.9726,133.9863 -8.1641,-207.7988 z m -20.9669,7.9824 8.2345,209.6192 -164.7482,-150.0352 z m -194.2871,62.6758 -175.70505,179.2676 -41.1563,-150.2715 z m 20.0059,1.0176 170.7696,155.5156 -230.1993,54.1875 -124.72855,-21.8105 z m -1451.24026,13.8965 241.07813,53.9492 -105.31055,144.2988 -2.58594,-1.7676 -4.85156,1.7735 z m 486.78907,3.4882 8.57031,2.4786 35.48047,186.7089 -147.92188,-63.3164 -108.67578,-75.3515 z m 1306.40239,4.2442 -21.8125,214.2051 -138.0664,158.8144 10.498,-219.2773 6.3399,5.7734 -0.8906,-22.7168 z m -1281.88091,1.834 200.63672,143.9863 -0.19336,0.3496 -162.46484,41.3223 -0.86133,-9.6934 -3.21485,2.4375 z m 663.73636,1.1855 -69.2676,132.7832 -205.6934,-87.8457 z m 24.3242,5.336 41.9961,153.3437 -120.7871,-21.8398 67.8379,-130.0391 z m -943.69142,43.2988 99.82422,69.2168 -16.375,191.6308 -7.98438,-3.9082 2.05469,14.336 -2.32422,0.9629 -182.71875,-124.9082 z m 616.78516,0.8164 225.18556,96.1719 -102.7774,142.4668 -128.20113,-76.6055 -0.43164,-161.0156 z m -21.19727,11.041 0.38086,142.6445 -109.76562,-66.4941 z m -481.55078,67.2129 5.90234,4.0937 146.67774,62.7852 -163.99024,124.2852 -2.94531,-1.4414 6.15625,-9.2481 -7.48633,3.1016 z m 1259.36916,16.9082 -11.0411,230.6348 -102.08,-123.7266 0.8516,-2.1641 -103.4395,-53.9707 z m -515.77155,6.1543 130.92,23.6719 -0.2285,130.7304 -233.0079,-13.7929 100.7911,-139.7168 0.8671,0.3711 z m -375.16792,1.1465 112.3457,68.0605 10.86524,193.252 -125.96485,-260.6113 z m -17.11914,5.4512 142.52344,294.8671 0.35156,6.2579 -288.15039,-38.9317 z m -19.25586,3.8007 -133.18946,240.3868 -17.94726,-201.9434 z m 557.45902,15.9336 70.00185,12.2403 46.2383,8.0859 -116.45695,103.8633 z m 133.92185,24.6543 104.7695,54.6641 -69.2129,176.0058 -141.02145,44.8731 -123.8672,-61.3477 96.834,-96.0254 z m -857.26759,1.3535 18.83398,211.9024 -181.32226,-88.7539 z m -413.64648,2.5918 8.84374,13.6621 8.22852,-11.2734 175.01367,119.6406 -308.96093,127.9864 -106.55469,-168.3204 z m 1659.90617,20.3321 0.8322,226.6289 -16.7637,-5.9629 -131.4863,-55.459 142.5742,-164.002 z m -916.14836,2.5234 120.01761,71.7148 -107.71292,147.1231 z m 643.69146,38.9297 104.4141,126.5547 -120.6641,188.9297 -0.25,-0.4395 -2.9689,5.0254 -189.67765,-98.6055 139.51375,-44.3945 z m -489.04105,39.4883 218.709,12.9472 -88.7168,87.9786 z m -22.2207,1.7383 141.6562,109.9824 -115.1543,127.9785 -16.125,-8.5586 -6.7988,5.0098 -112.8027,-72.2871 -3.76566,-7.793 z m -638.41799,27.6914 193.18164,94.5586 0.14062,0.2089 -170.57617,128.6641 -31.125,-217.0801 z m -38.29688,4.5039 -178.69141,268.4101 -124.11523,-124.9883 3.17773,-2.2031 -8.57617,-13.5469 z m 15.12305,4.3496 31.05078,216.5527 -0.65625,5.2715 -210.94922,49.3867 z m 1288.88087,58.4648 137.0175,57.7891 -1.7089,8.5019 -248.1992,110.4707 z m -473.06835,23.4336 114.4648,56.6895 -5.5273,1.7597 7.1094,3.6953 -88.5801,137.8946 -2.8379,0.3379 -138.6914,-73.6114 z m -578.74807,7.291 273.91992,37.0059 -182.40625,82.832 0.82813,-2.9355 -10.2168,6.2773 -82.34375,-123.0156 z m -11.82031,9.795 81.15625,121.2441 -148.92188,91.5019 -99.23242,-85.6855 5.69336,-6.2695 156.76953,-118.25 0.43164,4.8632 z m 311.79883,34.5898 115.19725,73.8203 -174.64257,128.6777 -146.13085,-111.8828 196.81445,-89.3769 0.56055,9.9629 z m 883.5195,9.2129 -26.2226,130.3711 -88.3066,227.4316 -137.7031,-242.2461 12.9531,-1.5429 -7.7853,-4.0469 z m -1751.01169,4.9629 128.15039,129.0547 -11.75391,17.6543 11.45704,-2.6817 -203.66602,187.4356 -6.29883,-0.084 -192.61133,-140.9375 z m 1275.67184,3.2402 185.95715,96.6699 -268.59575,31.9785 z m -279.4589,65.0703 18.6035,11.9219 7.041,-7.8262 125.7949,66.7657 -310.89258,46.6269 z m -344.58013,19.1465 140.69531,107.7207 -189.66406,65.6699 z m -273.02344,1.9473 95.90821,82.8144 -119.97852,73.7188 18.7832,-150.709 z m -21.01562,0.834 -221.57422,244.0527 -189.99609,-2.5352 211.375,-194.5351 -0.0898,-0.09 z m 277.38672,0.9921 -44.8125,158.6739 -1.41406,1.1347 -88.91407,-76.7734 z m 836.84572,22.5723 -4.9062,7.6817 1.3613,-0.6055 -68.6466,116.2168 -168.37885,70.6172 -43.4765,-160.0918 z m -1116.02541,0.7246 -17.5625,140.916 -175.82617,72.0938 z m 1130.75591,4.9121 142.7617,251.1524 -3.6484,7.75 -1.957,0.8476 -208.8047,-138.455 z m 252.4004,10.9219 283.6152,75.8672 -146.4765,95.8105 -226.4454,69.6016 -3.1407,-3.1816 z m -565.80275,22.3477 0.541,0.2871 43.6211,160.623 -255.2207,109.5899 z m -19.6094,0.748 -216.291,277.207 -117.80472,-227.1015 z m -667.11525,29.0469 90.42383,78.0762 -2.17774,1.748 -217.67383,-0.2988 z m 305.82226,28.5742 -83.86133,155.9629 -94.67187,-94.1484 z m 15.58985,2.6836 112.24024,216.3711 -2.4805,-0.5234 4.7793,5.414 -133.64647,78.3574 -68.3789,-130.7597 2.42578,-1.2696 -3.29297,-3.2753 z m 596.18559,37.7578 203.2714,134.7832 -180.6016,78.2695 -185.71675,-144.6738 z M 41.51657,2049.8287 h 1.26563 l 68.17578,94.6465 -111.35937,-13.9277 z m 19.77149,0.027 196.34375,0.2657 -124.3418,99.6953 -0.0742,-0.1016 0.31641,-2.4141 -2.25781,-0.2832 z m 220.2832,0.2989 16.33985,0.021 1.38476,1.1954 0.10352,-0.3672 99.91797,99.3672 -285.72071,149.4824 16.79102,-128.4824 z m -257.55273,0.8203 -40.29102,77.5898 -114.125,-14.2754 z m 1549.15827,40.9765 -6.9962,270.3418 -203.0214,-205.791 z m -642.94145,10.1387 190.84965,148.6777 66.8906,157.7188 -340.27545,-155.8301 z m -19.3789,4.1484 -77.5078,141.3926 -168.7911,-35.6328 z m -1279.26761,13.1231 199.58789,2.666 0.51563,0.3848 -136.30079,212.9629 -65.16406,-214.7618 z m 233.83984,9.5215 110.92774,13.8769 -25.80274,49.6895 z m -21.6875,2.5254 99.80665,74.5312 -112.24219,216.1504 -127.75391,-59.8223 -2.43164,-8.0175 z m 148.48633,13.3359 124.47852,15.5703 -18.59961,142.3203 -135.375,-101.0898 z m 1354.76559,16.7266 215.6681,218.6152 -208.756,209.7012 -136.9589,-160.9453 206.1563,-103.6602 -86.5587,-158.4375 1.1347,-2.4102 z m -938.29684,0.9238 69.32617,132.5742 -199.70507,179.4317 -164.02539,-157.9825 z m 908.93354,9.3066 -112.4823,238.8633 -68.1074,-160.5976 z m 11.0021,11.8438 73.8652,135.209 -180.2032,90.6093 z m -1372.90439,31.4902 132.59961,99.0176 -241.66211,111.0078 z m 704.72854,11.4258 174.4199,36.8223 342.46095,156.83 -299.79295,52.2559 z m -965.11916,148.5234 126.03711,59.0176 -121.14453,152.2539 -217.92383,-100.5527 z" />
    <rect
       style="fill:url(#linearGradient98304);fill-opacity:1;stroke:none;stroke-width:2;stroke-linecap:round;stroke-linejoin:round"
       id="rect97479"
       width="2000"
       height="1332"
       x="-399.24905"
       y="-523.82166"
       ry="5.8165326" />
    <rect
       style="fill:#ffffff;fill-opacity:0.113211;stroke:none;stroke-width:2;stroke-linecap:round;stroke-linejoin:round"
       id="rect7139"
       width="2000"
       height="1331"
       x="-399.24905"
       y="-523.82166"
       ry="5.8121657" />
    <circle
       style="fill:#cc0000;fill-opacity:1;stroke:none;stroke-width:5;stroke-linecap:round;stroke-linejoin:round"
       id="circle7708"
       cx="-398.26743"
       cy="-115.16698"
       r="38.47958" />
    <g
       id="g1120">
      <g
         id="g1038">
        <circle
           style="fill:#cc0000;fill-opacity:1;stroke:none;stroke-width:5;stroke-linecap:round;stroke-linejoin:round"
           id="path7704"
           cx="-298.88586"
           cy="-417.11539"
           r="38.47958" />
        <circle
           style="fill:#cc0000;fill-opacity:1;stroke:none;stroke-width:5;stroke-linecap:round;stroke-linejoin:round"
           id="circle7706"
           cx="-157.15787"
           cy="-199.57385"
           r="38.47958" />
        <circle
           style="fill:#cc0000;fill-opacity:1;stroke:none;stroke-width:5;stroke-linecap:round;stroke-linejoin:round"
           id="circle7710"
           cx="-283.33456"
           cy="73.760178"
           r="38.47958" />
        <circle
           style="fill:#cc0000;fill-opacity:1;stroke:none;stroke-width:5;stroke-linecap:round;stroke-linejoin:round"
           id="circle7712"
           cx="-143.42322"
           cy="234.36507"
           r="38.47958" />
        <circle
           style="fill:#cc0000;fill-opacity:1;stroke:none;stroke-width:5;stroke-linecap:round;stroke-linejoin:round"
           id="circle7714"
           cx="54.70731"
           cy="-70.121201"
           r="38.47958" />
        <circle
           style="fill:#cc0000;fill-opacity:1;stroke:none;stroke-width:5;stroke-linecap:round;stroke-linejoin:round"
           id="circle7716"
           cx="92.002197"
           cy="180.05649"
           r="38.47958" />
        <circle
           style="fill:#cc0000;fill-opacity:1;stroke:none;stroke-width:5;stroke-linecap:round;stroke-linejoin:round"
           id="circle7718"
           cx="279.98862"
           cy="25.015732"
           r="38.47958" />
        <circle
           style="fill:#cc0000;fill-opacity:1;stroke:none;stroke-width:5;stroke-linecap:round;stroke-linejoin:round"
           id="circle7720"
           cx="363.18112"
           cy="170.01544"
           r="38.47958" />
        <circle
           style="fill:#cc0000;fill-opacity:1;stroke:none;stroke-width:5;stroke-linecap:round;stroke-linejoin:round"
           id="circle7722"
           cx="579.47339"
           cy="67.298187"
           r="38.47958" />
        <circle
           style="fill:#cc0000;fill-opacity:1;stroke:none;stroke-width:5;stroke-linecap:round;stroke-linejoin:round"
           id="circle7724"
           cx="530.87671"
           cy="284.76096"
           r="38.47958" />
        <circle
           style="fill:#cc0000;fill-opacity:1;stroke:none;stroke-width:5;stroke-linecap:round;stroke-linejoin:round"
           id="circle7726"
           cx="728.74841"
           cy="148.68785"
           r="38.47958" />
        <circle
           style="fill:#cc0000;fill-opacity:1;stroke:none;stroke-width:5;stroke-linecap:round;stroke-linejoin:round"
           id="circle7728"
           cx="885.1319"
           cy="231.52675"
           r="38.47958" />
        <circle
           style="fill:#cc0000;fill-opacity:1;stroke:none;stroke-width:5;stroke-linecap:round;stroke-linejoin:round"
           id="circle7730"
           cx="988.90387"
           cy="84.226738"
           r="38.47958" />
        <circle
           style="fill:#cc0000;fill-opacity:1;stroke:none;stroke-width:5;stroke-linecap:round;stroke-linejoin:round"
           id="circle7732"
           cx="1214.3196"
           cy="197.29768"
           r="38.47958" />
        <circle
           style="fill:#cc0000;fill-opacity:1;stroke:none;stroke-width:5;stroke-linecap:round;stroke-linejoin:round"
           id="circle7734"
           cx="1500.8108"
           cy="63.77702"
           r="38.47958" />
        <circle
           style="fill:#cc0000;fill-opacity:1;stroke:none;stroke-width:5;stroke-linecap:round;stroke-linejoin:round"
           id="circle7736"
           cx="1461.5308"
           cy="206.60963"
           r="38.47958" />
        <circle
           style="fill:#cc0000;fill-opacity:1;stroke:none;stroke-width:5;stroke-linecap:round;stroke-linejoin:round"
           id="circle7738"
           cx="1329.9049"
           cy="-13.073189"
           r="38.47958" />
        <circle
           style="fill:#cc0000;fill-opacity:1;stroke:none;stroke-width:5;stroke-linecap:round;stroke-linejoin:round"
           id="circle7740"
           cx="1495.4122"
           cy="-192.49707"
           r="38.47958" />
        <circle
           style="fill:#cc0000;fill-opacity:1;stroke:none;stroke-width:5;stroke-linecap:round;stroke-linejoin:round"
           id="circle7742"
           cx="1515.051"
           cy="-417.0199"
           r="38.47958" />
        <circle
           style="fill:#cc0000;fill-opacity:1;stroke:none;stroke-width:5;stroke-linecap:round;stroke-linejoin:round"
           id="circle7744"
           cx="1348.1497"
           cy="-272.064"
           r="38.47958" />
        <circle
           style="fill:#cc0000;fill-opacity:1;stroke:none;stroke-width:5;stroke-linecap:round;stroke-linejoin:round"
           id="circle7746"
           cx="1219.49"
           cy="-140.86957"
           r="38.47958" />
        <circle
           style="fill:#cc0000;fill-opacity:1;stroke:none;stroke-width:5;stroke-linecap:round;stroke-linejoin:round"
           id="circle7748"
           cx="1141.3339"
           cy="38.272465"
           r="38.47958" />
        <circle
           style="fill:#cc0000;fill-opacity:1;stroke:none;stroke-width:5;stroke-linecap:round;stroke-linejoin:round"
           id="circle7750"
           cx="863.7738"
           cy="23.340532"
           r="38.47958" />
        <circle
           style="fill:#cc0000;fill-opacity:1;stroke:none;stroke-width:5;stroke-linecap:round;stroke-linejoin:round"
           id="circle7752"
           cx="966.49615"
           cy="-82.976311"
           r="38.47958" />
        <circle
           style="fill:#cc0000;fill-opacity:1;stroke:none;stroke-width:5;stroke-linecap:round;stroke-linejoin:round"
           id="circle7754"
           cx="708.91919"
           cy="-97.480438"
           r="38.47958" />
        <circle
           style="fill:#cc0000;fill-opacity:1;stroke:none;stroke-width:5;stroke-linecap:round;stroke-linejoin:round"
           id="circle7756"
           cx="573.34204"
           cy="-187.1805"
           r="38.47958" />
        <circle
           style="fill:#cc0000;fill-opacity:1;stroke:none;stroke-width:5;stroke-linecap:round;stroke-linejoin:round"
           id="circle7758"
           cx="568.42792"
           cy="-352.1861"
           r="38.47958" />
        <circle
           style="fill:#cc0000;fill-opacity:1;stroke:none;stroke-width:5;stroke-linecap:round;stroke-linejoin:round"
           id="circle7760"
           cx="815.98651"
           cy="-250.90662"
           r="38.47958" />
        <circle
           style="fill:#cc0000;fill-opacity:1;stroke:none;stroke-width:5;stroke-linecap:round;stroke-linejoin:round"
           id="circle7762"
           cx="956.65149"
           cy="-236.0015"
           r="38.47958" />
        <circle
           style="fill:#cc0000;fill-opacity:1;stroke:none;stroke-width:5;stroke-linecap:round;stroke-linejoin:round"
           id="circle7764"
           cx="1101.998"
           cy="-207.31506"
           r="38.47958" />
        <circle
           style="fill:#cc0000;fill-opacity:1;stroke:none;stroke-width:5;stroke-linecap:round;stroke-linejoin:round"
           id="circle7766"
           cx="1163.8341"
           cy="-428.26221"
           r="38.47958" />
        <circle
           style="fill:#cc0000;fill-opacity:1;stroke:none;stroke-width:5;stroke-linecap:round;stroke-linejoin:round"
           id="circle7768"
           cx="913.92651"
           cy="-415.25009"
           r="38.47958" />
        <circle
           style="fill:#cc0000;fill-opacity:1;stroke:none;stroke-width:5;stroke-linecap:round;stroke-linejoin:round"
           id="circle7770"
           cx="897.53387"
           cy="-522.63129"
           r="38.47958" />
        <circle
           style="fill:#cc0000;fill-opacity:1;stroke:none;stroke-width:5;stroke-linecap:round;stroke-linejoin:round"
           id="circle7772"
           cx="897.53387"
           cy="-522.63129"
           r="38.47958" />
        <circle
           style="fill:#cc0000;fill-opacity:1;stroke:none;stroke-width:5;stroke-linecap:round;stroke-linejoin:round"
           id="circle7774"
           cx="258.707"
           cy="-209.51794"
           r="38.47958" />
        <circle
           style="fill:#cc0000;fill-opacity:1;stroke:none;stroke-width:5;stroke-linecap:round;stroke-linejoin:round"
           id="circle7776"
           cx="90.428452"
           cy="-278.87112"
           r="38.47958" />
        <circle
           style="fill:#cc0000;fill-opacity:1;stroke:none;stroke-width:5;stroke-linecap:round;stroke-linejoin:round"
           id="circle7778"
           cx="211.12497"
           cy="-416.56302"
           r="38.47958" />
        <circle
           style="fill:#cc0000;fill-opacity:1;stroke:none;stroke-width:5;stroke-linecap:round;stroke-linejoin:round"
           id="circle7780"
           cx="-30.648344"
           cy="-361.41776"
           r="38.47958" />
        <circle
           style="fill:#cc0000;fill-opacity:1;stroke:none;stroke-width:5;stroke-linecap:round;stroke-linejoin:round"
           id="circle7782"
           cx="-115.83336"
           cy="-502.98901"
           r="38.47958" />
        <circle
           style="fill:#cc0000;fill-opacity:1;stroke:none;stroke-width:5;stroke-linecap:round;stroke-linejoin:round"
           id="circle7784"
           cx="1343.2126"
           cy="-469.33002"
           r="38.47958"
           transform="scale(1,-1)" />
        <circle
           style="fill:#cc0000;fill-opacity:1;stroke:none;stroke-width:5;stroke-linecap:round;stroke-linejoin:round"
           id="circle7786"
           cx="114.34821"
           cy="-640.96088"
           r="38.47958"
           transform="scale(1,-1)" />
        <circle
           style="fill:#cc0000;fill-opacity:1;stroke:none;stroke-width:5;stroke-linecap:round;stroke-linejoin:round"
           id="circle7788"
           cx="419.85587"
           cy="-469.00916"
           r="38.47958"
           transform="scale(1,-1)" />
        <circle
           style="fill:#cc0000;fill-opacity:1;stroke:none;stroke-width:5;stroke-linecap:round;stroke-linejoin:round"
           id="circle7790"
           cx="303.73651"
           cy="-808.65887"
           r="38.47958"
           transform="scale(1,-1)" />
        <circle
           style="fill:#cc0000;fill-opacity:1;stroke:none;stroke-width:5;stroke-linecap:round;stroke-linejoin:round"
           id="circle7792"
           cx="-365.33771"
           cy="-433.48218"
           r="38.47958"
           transform="scale(1,-1)" />
        <circle
           style="fill:#cc0000;fill-opacity:1;stroke:none;stroke-width:5;stroke-linecap:round;stroke-linejoin:round"
           id="circle7794"
           cx="1134.7603"
           cy="-348.39645"
           r="38.47958"
           transform="scale(1,-1)" />
        <circle
           style="fill:#cc0000;fill-opacity:1;stroke:none;stroke-width:5;stroke-linecap:round;stroke-linejoin:round"
           id="circle7796"
           cx="316.51639"
           cy="-356.01349"
           r="38.47958"
           transform="scale(1,-1)" />
        <circle
           style="fill:#cc0000;fill-opacity:1;stroke:none;stroke-width:5;stroke-linecap:round;stroke-linejoin:round"
           id="circle7798"
           cx="1423.759"
           cy="-635.68872"
           r="38.47958"
           transform="scale(1,-1)" />
        <circle
           style="fill:#cc0000;fill-opacity:1;stroke:none;stroke-width:5;stroke-linecap:round;stroke-linejoin:round"
           id="circle7800"
           cx="-281.76044"
           cy="-679.75195"
           r="38.47958"
           transform="scale(1,-1)" />
        <circle
           style="fill:#cc0000;fill-opacity:1;stroke:none;stroke-width:5;stroke-linecap:round;stroke-linejoin:round"
           id="circle7802"
           cx="492.16809"
           cy="-610.52271"
           r="38.47958"
           transform="scale(1,-1)" />
        <circle
           style="fill:#cc0000;fill-opacity:1;stroke:none;stroke-width:5;stroke-linecap:round;stroke-linejoin:round"
           id="circle7804"
           cx="651.96057"
           cy="-534.37457"
           r="38.47958"
           transform="scale(1,-1)" />
        <circle
           style="fill:#cc0000;fill-opacity:1;stroke:none;stroke-width:5;stroke-linecap:round;stroke-linejoin:round"
           id="circle7806"
           cx="857.90985"
           cy="-580.93713"
           r="38.47958"
           transform="scale(1,-1)" />
        <circle
           style="fill:#cc0000;fill-opacity:1;stroke:none;stroke-width:5;stroke-linecap:round;stroke-linejoin:round"
           id="circle7808"
           cx="937.6402"
           cy="-413.353"
           r="38.47958"
           transform="scale(1,-1)" />
        <circle
           style="fill:#cc0000;fill-opacity:1;stroke:none;stroke-width:5;stroke-linecap:round;stroke-linejoin:round"
           id="circle7810"
           cx="143.54358"
           cy="-482.57516"
           r="38.47958"
           transform="scale(1,-1)" />
        <circle
           style="fill:#cc0000;fill-opacity:1;stroke:none;stroke-width:5;stroke-linecap:round;stroke-linejoin:round"
           id="circle7812"
           cx="-142.65501"
           cy="-434.21777"
           r="38.47958"
           transform="scale(1,-1)" />
        <circle
           style="fill:#cc0000;fill-opacity:1;stroke:none;stroke-width:5;stroke-linecap:round;stroke-linejoin:round"
           id="circle7814"
           cx="878.73535"
           cy="-800.17926"
           r="38.47958"
           transform="scale(1,-1)" />
        <circle
           style="fill:#cc0000;fill-opacity:1;stroke:none;stroke-width:5;stroke-linecap:round;stroke-linejoin:round"
           id="circle7816"
           cx="1213.4493"
           cy="-732.27643"
           r="38.47958"
           transform="scale(1,-1)" />
        <circle
           style="fill:#cc0000;fill-opacity:1;stroke:none;stroke-width:5;stroke-linecap:round;stroke-linejoin:round"
           id="circle7818"
           cx="1588.2836"
           cy="-407.24182"
           r="38.47958"
           transform="scale(1,-1)" />
        <circle
           style="fill:#cc0000;fill-opacity:1;stroke:none;stroke-width:5;stroke-linecap:round;stroke-linejoin:round"
           id="circle7820"
           cx="-155.12688"
           cy="-759.5285"
           r="38.47958"
           transform="scale(1,-1)" />
        <circle
           style="fill:#cc0000;fill-opacity:1;stroke:none;stroke-width:5;stroke-linecap:round;stroke-linejoin:round"
           id="circle7822"
           cx="53.867249"
           cy="-361.86346"
           r="38.47958"
           transform="scale(1,-1)" />
        <circle
           style="fill:#cc0000;fill-opacity:1;stroke:none;stroke-width:5;stroke-linecap:round;stroke-linejoin:round"
           id="circle83"
           cx="1154.5859"
           cy="-566.45679"
           r="38.47958"
           transform="scale(1,-1)" />
        <circle
           style="fill:#cc0000;fill-opacity:1;stroke:none;stroke-width:5;stroke-linecap:round;stroke-linejoin:round"
           id="circle85"
           cx="1596.624"
           cy="-699.8064"
           r="38.47958"
           transform="scale(1,-1)" />
        <circle
           style="fill:#cc0000;fill-opacity:1;stroke:none;stroke-width:5;stroke-linecap:round;stroke-linejoin:round"
           id="circle87"
           cx="435.45386"
           cy="-259.10947"
           r="69.429588" />
      </g>
      <g
         id="g974">
        <g
           id="g950"
           style="stroke:#cc0000">
          <path
             style="fill:none;stroke:#cc0000;stroke-width:15;stroke-linecap:butt;stroke-linejoin:miter;stroke-miterlimit:4;stroke-dasharray:none;stroke-opacity:1"
             d="m 215.68743,-418.40444 40.39538,212.58123"
             id="path914" />
          <path
             style="fill:none;stroke:#cc0000;stroke-width:15;stroke-linecap:butt;stroke-linejoin:miter;stroke-miterlimit:4;stroke-dasharray:none;stroke-opacity:1"
             d="M 78.37143,-283.43752 59.37958,-61.16261"
             id="path916" />
          <path
             style="fill:none;stroke:#cc0000;stroke-width:15;stroke-linecap:butt;stroke-linejoin:miter;stroke-miterlimit:4;stroke-dasharray:none;stroke-opacity:1"
             d="m 1167.1028,-436.17727 -200.11135,204.16876 -142.5279,-25.77057 -112.2865,155.64994 254.562,15.06978 0.2524,-144.94915 140.28525,24.53038 L 970.75955,-85.72647 863.48655,20.65076 735.13145,163.30274 587.23446,68.52641 369.04863,167.60594"
             id="path918" />
          <path
             style="fill:none;stroke:#cc0000;stroke-width:15;stroke-linecap:butt;stroke-linejoin:miter;stroke-miterlimit:4;stroke-dasharray:none;stroke-opacity:1"
             d="M 712.17705,-102.12914 867.29395,18.30249 997.05555,82.5686 897.05695,238.24253 724.69955,146.7632 529.59086,290.52217 431.86475,472.27131 507.36673,616.65414 654.13025,530.60484 529.59086,290.52217 900.14655,234.94769 947.89235,410.7601 659.84465,534.44594 893.67385,234.76112 1208.3118,197.30117 996.30845,87.09089 1149.629,38.30432 l 72.9865,-185.60175 -115.3389,-60.1807"
             id="path920" />
          <path
             style="fill:none;stroke:#cc0000;stroke-width:15;stroke-linecap:butt;stroke-linejoin:miter;stroke-miterlimit:4;stroke-dasharray:none;stroke-opacity:1"
             d="m 1352.3002,-265.15436 -12.2648,256.20809 164.7675,-189.53234 0.9649,263.38285 -165.7576,-69.91203 -117.3948,-142.28964"
             id="path922" />
          <path
             style="fill:none;stroke:#cc0000;stroke-width:15;stroke-linecap:butt;stroke-linejoin:miter;stroke-miterlimit:4;stroke-dasharray:none;stroke-opacity:1"
             d="m 1648.5907,113.914 -161.9526,-57.59995 -31.6985,157.59256 307.4122,82.23328 -161.4082,105.57726 -256.3515,78.79319 -218.1318,-144.63936 81.8514,-138.56981 151.0814,265.78697 96.5206,-248.59061"
             id="path924" />
          <path
             style="fill:none;stroke:#cc0000;stroke-width:15;stroke-linecap:butt;stroke-linejoin:miter;stroke-miterlimit:4;stroke-dasharray:none;stroke-opacity:1"
             d="M 1505.7679,64.90424 1208.3117,197.30117 1340.0354,-8.94627"
             id="path926" />
          <path
             style="fill:none;stroke:#cc0000;stroke-width:15;stroke-linecap:butt;stroke-linejoin:miter;stroke-miterlimit:4;stroke-dasharray:none;stroke-opacity:1"
             d="m 1126.4603,335.87098 -178.56795,74.88912 -90.6444,165.35974 -197.4033,-41.6739 234.8533,266.0333 -596.55912,4.1635 -176.5481,-170.0444"
             id="path928" />
          <path
             style="fill:none;stroke:#cc0000;stroke-width:15;stroke-linecap:butt;stroke-linejoin:miter;stroke-miterlimit:4;stroke-dasharray:none;stroke-opacity:1"
             d="m 507.36673,616.65414 -209.2279,187.9886"
             id="path930" />
          <path
             style="fill:none;stroke:#cc0000;stroke-width:15;stroke-linecap:butt;stroke-linejoin:miter;stroke-miterlimit:4;stroke-dasharray:none;stroke-opacity:1"
             d="m 654.13025,530.60484 -49.7444,490.27656"
             id="path932" />
          <path
             style="fill:none;stroke:#cc0000;stroke-width:15;stroke-linecap:butt;stroke-linejoin:miter;stroke-miterlimit:4;stroke-dasharray:none;stroke-opacity:1"
             d="m 857.24795,576.11984 365.17755,167.2339 -75.1973,-177.3095 197.3639,-85.5339 88.2068,161.4572 -206.5465,103.8571 133.1407,-282.7365 233.8262,237.0217 7.7244,-298.39269"
             id="path934" />
          <g
             id="g956">
            <path
               style="fill:none;stroke:#cc0000;stroke-width:15;stroke-linecap:butt;stroke-linejoin:miter;stroke-miterlimit:4;stroke-dasharray:none;stroke-opacity:1"
               d="m -445.63582,-454.62798 415.00875,92.87611 125.14178,86.76994 161.5681,69.15872 188.87702,-48.04159 -229.2724,-164.53964 -248.33554,59.02769 -120.65245,165.32265 -150.07446,-231.84872 188.53565,-80.9852 330.87466,95.67936 196.97763,-210.44304 161.76773,265.43145 350.5882,-57.29698 -25.2331,-118.33108 271.79465,-66.61821 -258.71115,196.23744 253.88355,-33.94819 -37.0746,-172.80504 231.3359,104.58889 -191.1799,72.78041 187.016,170.31363 -9.8753,-251.38601 184.7851,98.45018 161.2307,-142.73748 -10.8554,329.05791 -189.1489,47.04003 24.6156,-241.72005 -165.6518,157.44044 -245.0236,57.67623 -140.28515,-24.53038 -53.6958,-196.05639 -88.8321,170.28582 L 583.52684,-360.67599 436.15315,-258.07865 278.5243,26.41205 257.40251,-211.24323 59.37958,-61.16261 -152.61953,-206.08907 -397.25955,-116.63943 -272.8567,79.87388 -566.01862,283.0959 -356.37588,436.49729 -131.78122,229.7971 -291.70552,68.74798 56.8603,-75.64243 l -202.08446,303.54844 246.19221,-57.6396 -240.03704,264.39003 -221.24397,-2.95378 77.09263,254.07898 -231.50821,120.321 237.16039,109.4294 130.72568,-164.2933 -146.35474,-68.5318 L -135.64484,436.53499 60.10166,356.27403 -150.06179,760.99694 124.0426,635.08854 145.11815,473.80751 -141.78662,437.92125 121.59073,634.59834 431.86475,472.27131 311.50356,352.57548 151.81909,480.60804 65.81434,361.20813 90.69733,161.55285 55.82666,-81.64182 282.95616,29.53296 97.17271,169.66663 315.27989,357.99551 369.04863,167.60594 52.15836,362.31448 321.184,362.68048 529.59086,290.52217 369.04863,167.60594 273.29214,24.55057 594.83206,67.99101 431.24681,-270.45511 l 141.75695,85.87652 14.2307,253.105 124.94259,-170.65555 -137.74815,-82.31031 -0.452,-169.18309"
               id="path89"
               sodipodi:nodetypes="cccccccccccccccccccccccccccccccccccccccccccccccccccccccccccccccccccccccccccccccccccc" />
            <path
               style="fill:none;stroke:#cc0000;stroke-width:15;stroke-linecap:butt;stroke-linejoin:miter;stroke-miterlimit:4;stroke-dasharray:none;stroke-opacity:1"
               d="m 894.69795,800.47924 327.72745,-57.1255 151.0456,177.499 219.7482,-220.7429"
               id="path952" />
          </g>
        </g>
        <path
           style="fill:none;stroke:#cc0000;stroke-width:15;stroke-linecap:butt;stroke-linejoin:miter;stroke-miterlimit:4;stroke-dasharray:none;stroke-opacity:1"
           d="M 947.89235,410.7601 1147.2283,566.04424"
           id="path936" />
      </g>
    </g>
    <path
       id="circle1353"
       style="fill:#cc0000;fill-opacity:1;stroke:none;stroke-width:5;stroke-linecap:round;stroke-linejoin:round"
       d="m 1296.7832,1642.7109 c -21.2517,-5e-4 -38.48,17.2269 -38.4805,38.4786 -5e-4,21.2524 17.2281,38.4809 38.4805,38.4804 21.2516,-6e-4 38.479,-17.2288 38.4785,-38.4804 -5e-4,-21.2509 -17.2276,-38.478 -38.4785,-38.4786 z m -1013.36718,19.6426 c -21.25161,-5e-4 -38.47987,17.2269 -38.48047,38.4785 -5.1e-4,21.2524 17.22808,38.481 38.48047,38.4805 21.25163,-6e-4 38.47902,-17.2289 38.47851,-38.4805 -6e-4,-21.2508 -17.22766,-38.4779 -38.47851,-38.4785 z m 1269.66798,72.7266 c -21.2516,-5e-4 -38.4799,17.2269 -38.4805,38.4785 -5e-4,21.2524 17.2281,38.481 38.4805,38.4805 21.2516,-6e-4 38.479,-17.2289 38.4785,-38.4805 -6e-4,-21.2508 -17.2277,-38.4779 -38.4785,-38.4785 z m -1452.72072,13.1465 c -21.252352,-5e-4 -38.480921,17.228 -38.480468,38.4804 5.96e-4,21.2516 17.228858,38.479 38.480468,38.4785 21.25085,-6e-4 38.47792,-17.2277 38.47852,-38.4785 4.5e-4,-21.2516 -17.22693,-38.4798 -38.47852,-38.4804 z m 1799.93752,0.096 c -21.2524,-5e-4 -38.481,17.228 -38.4805,38.4804 6e-4,21.2516 17.2289,38.479 38.4805,38.4785 21.2508,-6e-4 38.4779,-17.2277 38.4785,-38.4785 5e-4,-21.2516 -17.2269,-38.4798 -38.4785,-38.4804 z m -1307.92775,0.457 c -21.25085,6e-4 -38.47792,17.2277 -38.47852,38.4785 -5.1e-4,21.2516 17.22689,38.4799 38.47852,38.4805 21.25239,5e-4 38.48098,-17.2281 38.48047,-38.4805 -6e-4,-21.2516 -17.22886,-38.479 -38.48047,-38.4785 z m 712.80275,5.3125 c -21.2524,-5e-4 -38.481,17.2281 -38.4805,38.4805 6e-4,21.2516 17.2289,38.479 38.4805,38.4785 21.2508,-6e-4 38.4779,-17.2277 38.4785,-38.4785 5e-4,-21.2516 -17.2269,-38.4799 -38.4785,-38.4805 z m -936.57424,49.832 c -21.25239,-5e-4 -38.48098,17.2281 -38.48047,38.4805 6e-4,21.2516 17.22886,38.479 38.48047,38.4785 21.25085,-6e-4 38.47792,-17.2277 38.47852,-38.4785 5.1e-4,-21.2516 -17.22689,-38.4799 -38.47852,-38.4805 z m 599.07617,9.2324 c -21.25165,-5e-4 -38.47992,17.227 -38.48046,38.4786 -4.5e-4,21.2523 17.22811,38.4809 38.48046,38.4804 21.25157,-6e-4 38.47897,-17.2288 38.47847,-38.4804 -5e-4,-21.2509 -17.2276,-38.478 -38.47847,-38.4786 z m -133.42968,62.127 c -38.16715,0.2501 -68.97549,31.2617 -68.97461,69.4297 -6e-5,38.345 31.0847,69.4298 69.42968,69.4297 38.34499,1e-4 69.42975,-31.0847 69.42969,-69.4297 6e-5,-38.345 -31.0847,-69.4298 -69.42969,-69.4297 -0.15169,-5e-4 -0.30338,-5e-4 -0.45507,0 z m -372.57032,11.1875 c -21.25239,-5e-4 -38.48097,17.2281 -38.48046,38.4805 6e-4,21.2516 17.22885,38.479 38.48046,38.4785 21.25085,-6e-4 38.47792,-17.2277 38.47852,-38.4785 5.1e-4,-21.2516 -17.22689,-38.4799 -38.47852,-38.4805 z m 1273.72067,6.8066 c -21.2516,6e-4 -38.479,17.2289 -38.4785,38.4805 6e-4,21.2508 17.2277,38.4779 38.4785,38.4785 21.2516,5e-4 38.4799,-17.2269 38.4805,-38.4785 5e-4,-21.2524 -17.2281,-38.481 -38.4805,-38.4805 z m -520.1621,21.1582 c -21.2524,-5e-4 -38.4809,17.2281 -38.4804,38.4805 6e-4,21.2516 17.2288,38.479 38.4804,38.4785 21.2508,-6e-4 38.4779,-17.2277 38.4785,-38.4785 5e-4,-21.2516 -17.2269,-38.4799 -38.4785,-38.4805 z m 140.6641,14.9043 c -21.2516,6e-4 -38.479,17.2289 -38.4785,38.4805 6e-4,21.2508 17.2277,38.4779 38.4785,38.4785 21.2516,5e-4 38.4799,-17.2269 38.4805,-38.4785 5e-4,-21.2524 -17.2281,-38.481 -38.4805,-38.4805 z m -719.94532,26.4844 c -21.25163,6e-4 -38.47903,17.2289 -38.47852,38.4805 6e-4,21.2508 17.22767,38.4779 38.47852,38.4785 21.25161,5e-4 38.47987,-17.2269 38.48047,-38.4785 5.1e-4,-21.2524 -17.22808,-38.481 -38.48047,-38.4805 z m 865.29102,2.2031 c -21.2509,6e-4 -38.478,17.2277 -38.4785,38.4786 -5e-4,21.2516 17.2269,38.4798 38.4785,38.4804 21.2524,5e-4 38.481,-17.228 38.4805,-38.4804 -5e-4,-21.2517 -17.2288,-38.4791 -38.4805,-38.4786 z m -1269.1543,7.7403 c -21.25235,-5e-4 -38.48092,17.228 -38.48047,38.4804 5.4e-4,21.2517 17.22882,38.4791 38.48047,38.4786 21.25088,-6e-4 38.47797,-17.2277 38.47851,-38.4786 4.5e-4,-21.2516 -17.22692,-38.4798 -38.47851,-38.4804 z m 1650.5703,7.0781 c -21.2516,-5e-4 -38.4799,17.2269 -38.4805,38.4785 -5e-4,21.2524 17.2281,38.481 38.4805,38.4805 21.2516,-6e-4 38.479,-17.2289 38.4785,-38.4805 -6e-4,-21.2508 -17.2277,-38.4779 -38.4785,-38.4785 z m -910.0703,5.3164 c -21.25161,-5e-4 -38.47987,17.2269 -38.48047,38.4785 -5.1e-4,21.2524 17.22808,38.481 38.48047,38.4805 21.25162,-6e-4 38.479,-17.2289 38.4785,-38.4805 -6e-4,-21.2508 -17.22766,-38.4779 -38.4785,-38.4785 z m 646.1465,46.3106 c -21.2508,6e-4 -38.4779,17.2277 -38.4785,38.4785 -5e-4,21.2516 17.2269,38.4798 38.4785,38.4804 21.2524,5e-4 38.481,-17.228 38.4805,-38.4804 -6e-4,-21.2516 -17.2289,-38.479 -38.4805,-38.4785 z M 3.873047,2057.1484 c -21.252392,-5e-4 -38.480977,17.2281 -38.480469,38.4805 5.96e-4,21.2516 17.228858,38.479 38.480469,38.4785 21.251611,5e-4 38.479873,-17.2269 38.480469,-38.4785 5.08e-4,-21.2524 -17.228077,-38.481 -38.480469,-38.4805 z M 1108.168,2067.8613 c -21.2516,6e-4 -38.479,17.2289 -38.4785,38.4805 6e-4,21.2508 17.2277,38.4779 38.4785,38.4785 21.2516,5e-4 38.4798,-17.2269 38.4804,-38.4785 5e-4,-21.2524 -17.228,-38.481 -38.4804,-38.4805 z m 257.5781,14.5039 c -21.2524,-5e-4 -38.481,17.2281 -38.4805,38.4805 6e-4,21.2516 17.2289,38.479 38.4805,38.4785 21.2508,-6e-4 38.4779,-17.2277 38.4785,-38.4785 5e-4,-21.2516 -17.2269,-38.4799 -38.4785,-38.4805 z m -927.78907,12.8555 c -21.25239,-5e-4 -38.48098,17.2281 -38.48047,38.4805 6e-4,21.2516 17.22886,38.479 38.48047,38.4785 21.25085,-6e-4 38.47792,-17.2277 38.47852,-38.4785 5.1e-4,-21.2516 -17.22689,-38.4799 -38.47852,-38.4805 z m 1291.19727,57.0488 c -21.2516,-5e-4 -38.4799,17.2269 -38.4805,38.4785 -5e-4,21.2524 17.2281,38.481 38.4805,38.4805 21.2516,-6e-4 38.479,-17.2289 38.4785,-38.4805 -6e-4,-21.2508 -17.2277,-38.4779 -38.4785,-38.4785 z m -466.1309,36.4141 c -21.2516,-5e-4 -38.4798,17.2269 -38.4804,38.4785 -5e-4,21.2524 17.228,38.481 38.4804,38.4805 21.2517,-5e-4 38.4791,-17.2288 38.4786,-38.4805 -6e-4,-21.2509 -17.2277,-38.478 -38.4786,-38.4785 z m -583.78512,1.6738 c -21.25239,-5e-4 -38.48098,17.2281 -38.48047,38.4805 6e-4,21.2516 17.22886,38.479 38.48047,38.4785 21.25085,-6e-4 38.47792,-17.2277 38.47852,-38.4785 5.1e-4,-21.2516 -17.22689,-38.4799 -38.47852,-38.4805 z m 861.34372,13.2578 c -21.2509,6e-4 -38.478,17.2277 -38.4785,38.4786 -5e-4,21.2516 17.2269,38.4798 38.4785,38.4804 21.2524,5e-4 38.481,-17.228 38.4805,-38.4804 -5e-4,-21.2517 -17.2288,-38.4791 -38.4805,-38.4786 z m 335.4785,25.5039 c -21.2524,-5e-4 -38.4809,17.2281 -38.4804,38.4805 6e-4,21.2516 17.2288,38.479 38.4804,38.4785 21.2509,-5e-4 38.478,-17.2276 38.4786,-38.4785 5e-4,-21.2517 -17.2269,-38.48 -38.4786,-38.4805 z m -897.33784,3.5215 c -21.25161,-5e-4 -38.47987,17.2269 -38.48047,38.4785 -5.1e-4,21.2524 17.22808,38.481 38.48047,38.4805 21.25164,-6e-4 38.47904,-17.2289 38.47854,-38.4805 -6e-4,-21.2509 -17.22768,-38.4779 -38.47854,-38.4785 z m -862.8086,6.461 c -21.251589,6e-4 -38.478966,17.2288 -38.478513,38.4804 5.96e-4,21.2508 17.227666,38.4779 38.478513,38.4785 21.25161,5e-4 38.47987,-17.2269 38.48047,-38.4785 4.5e-4,-21.2524 -17.22812,-38.4809 -38.48047,-38.4804 z m 1272.23824,10.4668 c -21.2516,6e-4 -38.479,17.2288 -38.4785,38.4804 6e-4,21.2508 17.2277,38.4779 38.4785,38.4785 21.2516,5e-4 38.4799,-17.2269 38.4805,-38.4785 5e-4,-21.2524 -17.2281,-38.4809 -38.4805,-38.4804 z m -260.1543,64.4609 c -21.2524,-5e-4 -38.4809,17.2281 -38.4804,38.4805 6e-4,21.2516 17.2288,38.479 38.4804,38.4785 21.2509,-5e-4 38.478,-17.2276 38.4786,-38.4785 5e-4,-21.2517 -17.2269,-38.48 -38.4786,-38.4805 z m -365.56831,21.3281 c -21.25163,6e-4 -38.47903,17.2289 -38.47852,38.4805 6e-4,21.2508 17.22767,38.4779 38.47852,38.4785 21.25161,5e-4 38.47987,-17.2269 38.48047,-38.4785 5.1e-4,-21.2524 -17.22808,-38.481 -38.48047,-38.4805 z m -291.17774,-3.959 c -21.25239,-5e-4 -38.48098,17.2281 -38.48047,38.4805 6e-4,21.2516 17.22886,38.479 38.48047,38.4785 21.25085,-6e-4 38.47792,-17.2277 38.47852,-38.4785 5.1e-4,-21.2516 -17.22689,-38.4799 -38.47852,-38.4805 z m 1126.31645,31.2422 c -21.2509,5e-4 -38.478,17.2276 -38.4786,38.4785 -5e-4,21.2517 17.2269,38.48 38.4786,38.4805 21.2524,5e-4 38.4809,-17.2281 38.4804,-38.4805 -6e-4,-21.2516 -17.2288,-38.479 -38.4804,-38.4785 z m 245.2109,15.3106 c -21.2516,6e-4 -38.479,17.2288 -38.4785,38.4804 5e-4,21.2509 17.2276,38.478 38.4785,38.4786 21.2517,5e-4 38.48,-17.2269 38.4805,-38.4786 5e-4,-21.2524 -17.2281,-38.4809 -38.4805,-38.4804 z m -558.3984,18.9179 c -21.2509,5e-4 -38.4781,17.2277 -38.4786,38.4786 -5e-4,21.2516 17.227,38.4799 38.4786,38.4804 21.2523,5e-4 38.4809,-17.2281 38.4804,-38.4804 -5e-4,-21.2516 -17.2288,-38.4791 -38.4804,-38.4786 z m -1028.55473,2.8379 c -21.25239,-5e-4 -38.48098,17.2281 -38.48047,38.4805 6e-4,21.2516 17.22886,38.479 38.48047,38.4785 21.25085,-6e-4 38.47792,-17.2277 38.47852,-38.4785 5.1e-4,-21.2516 -17.22689,-38.4799 -38.47852,-38.4805 z m 664.29883,54.3965 c -21.25085,6e-4 -38.47792,17.2277 -38.47852,38.4785 -5.1e-4,21.2516 17.22689,38.4799 38.47852,38.4805 21.25239,5e-4 38.48098,-17.2281 38.48047,-38.4805 -6e-4,-21.2516 -17.22886,-38.479 -38.48047,-38.4785 z m 599.8848,53.6348 c -21.2524,-5e-4 -38.481,17.2281 -38.4805,38.4805 6e-4,21.2516 17.2289,38.479 38.4805,38.4785 21.2508,-6e-4 38.4779,-17.2277 38.4785,-38.4785 5e-4,-21.2516 -17.2269,-38.4799 -38.4785,-38.4805 z m -816.24418,13.6172 c -21.25235,-5e-4 -38.48091,17.2281 -38.48046,38.4804 5.4e-4,21.2516 17.22881,38.4791 38.48046,38.4786 21.25089,-6e-4 38.47798,-17.2277 38.47852,-38.4786 4.5e-4,-21.2516 -17.22693,-38.4798 -38.47852,-38.4804 z m -250.64843,5.8496 c -21.25235,-5e-4 -38.48092,17.228 -38.48047,38.4804 5.4e-4,21.2517 17.22882,38.4791 38.48047,38.4786 21.25088,-6e-4 38.47797,-17.2277 38.47851,-38.4786 4.5e-4,-21.2516 -17.22692,-38.4798 -38.47851,-38.4804 z m 1534.41601,45.3789 c -21.2516,-5e-4 -38.4799,17.2269 -38.4805,38.4785 -5e-4,21.2524 17.2281,38.481 38.4805,38.4805 21.2516,-6e-4 38.479,-17.2289 38.4785,-38.4805 -6e-4,-21.2508 -17.2277,-38.4779 -38.4785,-38.4785 z m -650.6445,6.1113 c -21.2508,6e-4 -38.4779,17.2277 -38.4785,38.4785 -5e-4,21.2516 17.2269,38.4799 38.4785,38.4805 21.2524,5e-4 38.4809,-17.2281 38.4804,-38.4805 -6e-4,-21.2516 -17.2288,-38.479 -38.4804,-38.4785 z M 33.912109,2598.8242 c -21.252391,-5e-4 -38.4809765,17.2281 -38.4804684,38.4805 5.965e-4,21.2516 17.2288584,38.479 38.4804684,38.4785 21.250848,-6e-4 38.47792,-17.2277 38.478516,-38.4785 5.08e-4,-21.2516 -17.226887,-38.4799 -38.478516,-38.4805 z m 222.681641,0.7363 c -21.25089,6e-4 -38.47798,17.2277 -38.47852,38.4786 -4.5e-4,21.2516 17.22693,38.4798 38.47852,38.4804 21.25235,5e-4 38.48092,-17.228 38.48047,-38.4804 -5.4e-4,-21.2517 -17.22882,-38.4791 -38.48047,-38.4786 z m 562.51172,34.7911 c -21.25161,-5e-4 -38.47987,17.2269 -38.48047,38.4785 -4.5e-4,21.2524 17.22812,38.4809 38.48047,38.4804 21.25159,-6e-4 38.47896,-17.2288 38.47851,-38.4804 -6e-4,-21.2508 -17.22766,-38.4779 -38.47851,-38.4785 z m 913.35543,6.3203 c -21.2516,6e-4 -38.479,17.2288 -38.4785,38.4804 5e-4,21.2509 17.2276,38.478 38.4785,38.4786 21.2517,5e-4 38.48,-17.2269 38.4805,-38.4786 5e-4,-21.2524 -17.2281,-38.4809 -38.4805,-38.4804 z m -1197.66793,3.2461 c -21.25161,-5e-4 -38.47987,17.2269 -38.48047,38.4785 -5.1e-4,21.2524 17.22808,38.481 38.48047,38.4805 21.25163,-6e-4 38.47902,-17.2289 38.47851,-38.4805 -6e-4,-21.2508 -17.22766,-38.4779 -38.47851,-38.4785 z m 508.41603,55.7988 c -21.2508,6e-4 -38.4779,17.2277 -38.4785,38.4785 -5e-4,21.2516 17.2269,38.4799 38.4785,38.4805 21.2524,5e-4 38.481,-17.2281 38.4805,-38.4805 -6e-4,-21.2516 -17.2289,-38.479 -38.4805,-38.4785 z m 496.625,32.082 c -21.2516,6e-4 -38.479,17.2289 -38.4785,38.4805 6e-4,21.2508 17.2277,38.4779 38.4785,38.4785 21.2516,5e-4 38.4799,-17.2269 38.4805,-38.4785 5e-4,-21.2524 -17.2281,-38.481 -38.4805,-38.4805 z m -294.6758,8.4805 c -21.2508,6e-4 -38.4779,17.2277 -38.4785,38.4785 -5e-4,21.2516 17.2269,38.4799 38.4785,38.4805 21.2524,5e-4 38.481,-17.2281 38.4805,-38.4805 -6e-4,-21.2516 -17.2289,-38.479 -38.4805,-38.4785 z m -353.74023,35.5859 c -21.25165,-5e-4 -38.47993,17.2269 -38.48047,38.4786 -4.5e-4,21.2524 17.22812,38.4809 38.48047,38.4804 21.25159,-6e-4 38.47896,-17.2288 38.47851,-38.4804 -5.4e-4,-21.2509 -17.22763,-38.478 -38.47851,-38.4786 z m 919.58983,27.166 c -21.2509,6e-4 -38.478,17.2277 -38.4785,38.4786 -5e-4,21.2516 17.2269,38.4798 38.4785,38.4804 21.2524,5e-4 38.481,-17.228 38.4805,-38.4804 -5e-4,-21.2517 -17.2288,-38.4791 -38.4805,-38.4786 z m -1297.41014,3.2715 c -21.25239,-5e-4 -38.48098,17.2281 -38.48047,38.4805 6e-4,21.2516 17.22886,38.479 38.48047,38.4785 21.25085,-6e-4 38.47791,-17.2277 38.47851,-38.4785 5.1e-4,-21.2516 -17.22688,-38.4799 -38.47851,-38.4805 z m -406.10938,38.7911 c -21.251589,6e-4 -38.478967,17.2288 -38.478514,38.4804 5.96e-4,21.2508 17.227667,38.4779 38.478514,38.4785 21.25161,5e-4 38.47987,-17.2269 38.48047,-38.4785 4.5e-4,-21.2524 -17.22812,-38.4809 -38.48047,-38.4804 z m 1866.38472,20.0546 c -21.2524,-5e-4 -38.4809,17.2281 -38.4804,38.4805 6e-4,21.2516 17.2288,38.479 38.4804,38.4785 21.2516,5e-4 38.4799,-17.2269 38.4805,-38.4785 5e-4,-21.2524 -17.2281,-38.481 -38.4805,-38.4805 z m -365.1738,32.4707 c -21.2516,-5e-4 -38.4799,17.227 -38.4804,38.4786 -5e-4,21.2523 17.2281,38.4809 38.4804,38.4804 21.2516,-6e-4 38.479,-17.2288 38.4785,-38.4804 -5e-4,-21.2509 -17.2276,-38.478 -38.4785,-38.4786 z m -1368.57615,19.252 c -21.25161,-5e-4 -38.47987,17.2269 -38.48047,38.4785 -5.1e-4,21.2524 17.22808,38.481 38.48047,38.4805 21.25163,-6e-4 38.47902,-17.2289 38.47851,-38.4805 -6e-4,-21.2508 -17.22766,-38.4779 -38.47851,-38.4785 z m 1037.86135,48.6504 c -21.2516,-5e-4 -38.4799,17.2269 -38.4805,38.4785 -5e-4,21.2524 17.2281,38.481 38.4805,38.4805 21.2524,5e-4 38.4809,-17.2281 38.4804,-38.4805 -6e-4,-21.2516 -17.2288,-38.479 -38.4804,-38.4785 z m -574.99807,8.4805 c -21.25161,-5e-4 -38.47987,17.2269 -38.48047,38.4785 -4.5e-4,21.2524 17.22812,38.4809 38.48047,38.4804 21.25159,-6e-4 38.47896,-17.2288 38.47851,-38.4804 -6e-4,-21.2508 -17.22766,-38.4779 -38.47851,-38.4785 z"
       transform="translate(-399.24905,-523.82166)"
       sodipodi:nodetypes="sssssssssssssssssssssssssssssssssssssssssssssccssccsssssssssssssssssssssssssssssssssssssssssssssssssscscscsssssssssssssssssssssssssssssssssssssssssssssssssssssssssssssssssssssssssssssssssssssssssssssssssssssssssssssssssssssssssssssssssssssssssssssssssssssssssssssssssssssssssssssssssssscscscsssssssssscscscsssss" />
  </g>
</svg>
