<?xml version="1.0" encoding="UTF-8" standalone="no"?>
<svg
   xmlns:dc="http://purl.org/dc/elements/1.1/"
   xmlns:cc="http://creativecommons.org/ns#"
   xmlns:rdf="http://www.w3.org/1999/02/22-rdf-syntax-ns#"
   xmlns:svg="http://www.w3.org/2000/svg"
   xmlns="http://www.w3.org/2000/svg"
   xmlns:xlink="http://www.w3.org/1999/xlink"
   xmlns:sodipodi="http://sodipodi.sourceforge.net/DTD/sodipodi-0.dtd"
   xmlns:inkscape="http://www.inkscape.org/namespaces/inkscape"
   version="1.1"
   id="svg97467"
   width="2000"
   height="1333"
   viewBox="0 0 2000 1333"
   sodipodi:docname="bkgd-chris-nodes-3.svg"
   inkscape:version="1.0.2 (e86c870879, 2021-01-15)"
   inkscape:export-filename="/home/duffy/SparkleShare/github.com/cube-design/_common-assets/bkgd-chris-nodes_no-logo.png"
   inkscape:export-xdpi="96"
   inkscape:export-ydpi="96">
  <metadata
     id="metadata97473">
    <rdf:RDF>
      <cc:Work
         rdf:about="">
        <dc:format>image/svg+xml</dc:format>
        <dc:type
           rdf:resource="http://purl.org/dc/dcmitype/StillImage" />
        <dc:title></dc:title>
      </cc:Work>
    </rdf:RDF>
  </metadata>
  <defs
     id="defs97471">
    <linearGradient
       x1="0"
       y1="0"
       x2="1"
       y2="0"
       gradientUnits="userSpaceOnUse"
       gradientTransform="matrix(2873.01,0,0,-2873.01,699.055,1444.61)"
       spreadMethod="pad"
       id="linearGradient161468">
      <stop
         style="stop-opacity:1;stop-color:#3a7cc7"
         offset="0"
         id="stop161464" />
      <stop
         style="stop-opacity:1;stop-color:#7ad4ed"
         offset="1"
         id="stop161466" />
    </linearGradient>
    <linearGradient
       inkscape:collect="always"
       xlink:href="#linearGradient161468"
       id="linearGradient97728"
       gradientUnits="userSpaceOnUse"
       gradientTransform="matrix(72.95139,0,0,72.95139,709.28536,1156.7155)"
       x1="0"
       y1="0"
       x2="1"
       y2="0"
       spreadMethod="pad" />
    <linearGradient
       inkscape:collect="always"
       xlink:href="#linearGradient161468"
       id="linearGradient98304"
       x1="-399.24905"
       y1="142.67834"
       x2="1600.7509"
       y2="142.67834"
       gradientUnits="userSpaceOnUse"
       gradientTransform="matrix(1.001001,0,0,1.0007513,-0.60134192,-0.60720108)" />
  </defs>
  <sodipodi:namedview
     pagecolor="#ffffff"
     bordercolor="#666666"
     borderopacity="1"
     objecttolerance="10"
     gridtolerance="10"
     guidetolerance="10"
     inkscape:pageopacity="0"
     inkscape:pageshadow="2"
     inkscape:window-width="2560"
     inkscape:window-height="1369"
     id="namedview97469"
     showgrid="false"
     fit-margin-top="0"
     fit-margin-left="0"
     fit-margin-right="0"
     fit-margin-bottom="0"
     inkscape:zoom="0.56497832"
     inkscape:cx="1399.2491"
     inkscape:cy="765.19377"
     inkscape:window-x="2560"
     inkscape:window-y="34"
     inkscape:window-maximized="1"
     inkscape:current-layer="g97475"
     inkscape:document-rotation="0" />
  <g
     inkscape:groupmode="layer"
     inkscape:label="Image"
     id="g97475"
     transform="translate(399.24905,523.82166)">
    <rect
       style="fill:url(#linearGradient98304);fill-opacity:1;stroke:none;stroke-width:2;stroke-linecap:round;stroke-linejoin:round"
       id="rect97479"
       width="2000"
       height="1332"
       x="-399.24905"
       y="-523.82166"
       ry="5.8165326" />
    <rect
       style="fill:#ffffff;fill-opacity:0.113211;stroke:none;stroke-width:2;stroke-linecap:round;stroke-linejoin:round"
       id="rect7139"
       width="2000"
       height="1331"
       x="-399.24905"
       y="-523.82166"
       ry="5.8121657" />
    <path
       id="circle1353"
       style="fill:#73d216;fill-opacity:1;stroke:none;stroke-width:5;stroke-linecap:round;stroke-linejoin:round"
       d="m 414.2822,-633.98182 -177.05078,189.15235 a 38.47958,38.47958 0 0 0 -26.10742,-10.21289 38.47958,38.47958 0 0 0 -35.75586,24.26562 l -252.73242,-73.08203 a 38.47958,38.47958 0 0 0 -38.46875,-37.60937 38.47958,38.47958 0 0 0 -38.48047,38.47851 38.47958,38.47958 0 0 0 0.29687,4.76953 l -120.15625,51.61133 a 38.47958,38.47958 0 0 0 -24.71289,-8.98633 38.47958,38.47958 0 0 0 -33.02734,18.73242 l -112.08399,-25.08398 -3.27539,14.63867 110.30274,24.6836 a 38.47958,38.47958 0 0 0 -0.39649,5.50976 38.47958,38.47958 0 0 0 38.48047,38.47852 38.47958,38.47958 0 0 0 15.1582,-3.11133 l 99.94141,154.39648 a 38.47958,38.47958 0 0 0 -11.85156,27.77735 38.47958,38.47958 0 0 0 0.0195,1.22265 l -170.3418,62.28321 a 38.47958,38.47958 0 0 0 -32.30664,-17.57813 38.47958,38.47958 0 0 0 -38.48047,38.47852 38.47958,38.47958 0 0 0 38.48047,38.48047 38.47958,38.47958 0 0 0 15.38867,-3.21289 l 77.36719,122.21289 a 38.47958,38.47958 0 0 0 -16.30273,31.44726 38.47958,38.47958 0 0 0 8.97851,24.70313 l -266.10937,184.46875 180.03906,131.74023 a 38.47958,38.47958 0 0 0 -4.91211,18.81055 38.47958,38.47958 0 0 0 38.48047,38.47851 38.47958,38.47958 0 0 0 9.07227,-1.08593 l 53.58007,176.58393 a 38.47958,38.47958 0 0 0 -17.55468,32.293 38.47958,38.47958 0 0 0 3.12695,15.1934 l -214.64844,111.5586 256.39649,118.3047 103.82031,-130.4805 a 38.47958,38.47958 0 0 0 16.41797,3.6797 38.47958,38.47958 0 0 0 38.47851,-38.4805 38.47958,38.47958 0 0 0 -0.38867,-5.4473 l 199.46875,-91.625 a 38.47958,38.47958 0 0 0 31.91602,16.9844 38.47958,38.47958 0 0 0 29.13281,-13.3457 l 127.33398,122.6445 a 38.47958,38.47958 0 0 0 -5.55859,19.92 38.47958,38.47958 0 0 0 38.48047,38.4804 38.47958,38.47958 0 0 0 38.34765,-35.3027 l 276.16802,-1.9277 -21.32817,210.21676 14.92387,1.5136 21.4921,-211.83586 207.793,-1.4512 a 38.47958,38.47958 0 0 0 37.6016,30.3067 38.47958,38.47958 0 0 0 38.2695,-34.4551 l 267.45908,-46.6211 a 38.47958,38.47958 0 0 0 28.9863,13.1738 38.47958,38.47958 0 0 0 18.4375,-4.707 l 141.1524,165.8691 200.453,-201.3613 a 38.47958,38.47958 0 0 0 23.1309,7.7285 38.47958,38.47958 0 0 0 38.4804,-38.4785 38.47958,38.47958 0 0 0 -33.3867,-38.1426 l 5.7228,-221.05271 a 38.47958,38.47958 0 0 0 19.3222,-33.37109 38.47958,38.47958 0 0 0 -1.9726,-12.1582 L 1780.501,293.23107 1498.3604,217.75842 a 38.47958,38.47958 0 0 0 1.6504,-11.14844 38.47958,38.47958 0 0 0 -28.4806,-37.15625 l 14.1407,-70.30078 a 38.47958,38.47958 0 0 0 15.1406,3.10351 38.47958,38.47958 0 0 0 34.1699,-20.78906 l 111.0976,39.51367 5.0255,-14.13281 -111.9531,-39.8164 a 38.47958,38.47958 0 0 0 0.1387,-3.25391 38.47958,38.47958 0 0 0 -26.1582,-36.45508 l -0.6797,-185.32031 a 38.47958,38.47958 0 0 0 20.2304,-24.93164 l 157.1133,-39.07422 11.6153,-352.13086 -153.9826,136.32227 a 38.47958,38.47958 0 0 0 -32.3768,-17.6875 38.47958,38.47958 0 0 0 -25.8008,9.93164 l -108.9083,-58.02344 0.5431,-0.20703 -6.1387,-2.77539 -35.4277,-18.875 0.1152,2.91015 -165.2363,-74.70507 -4.0548,-8.50586 -9.5702,2.3457 -40.9943,-18.5332 5.8262,27.15429 -197.57805,48.42578 a 38.47958,38.47958 0 0 0 -30.293,-14.7539 38.47958,38.47958 0 0 0 -38.4805,38.47851 38.47958,38.47958 0 0 0 38.4805,38.48047 38.47958,38.47958 0 0 0 5.0332,-0.33203 l 6.6211,31.04688 a 38.47958,38.47958 0 0 0 -33.7422,38.1875 38.47958,38.47958 0 0 0 0.0684,2.27929 l -272.2266,44.49219 a 38.47958,38.47958 0 0 0 -34.85937,-22.1875 38.47958,38.47958 0 0 0 -5.60546,0.41211 z m -2.53711,24.66016 136.67969,224.26562 a 38.47958,38.47958 0 0 0 -18.47656,32.86915 38.47958,38.47958 0 0 0 3.92968,16.9375 l -45.24804,31.5 a 69.429588,69.429588 0 0 0 -53.17579,-24.78907 69.429588,69.429588 0 0 0 -0.45507,0 69.429588,69.429588 0 0 0 -50.37891,22.13868 l -136.90625,-98.25196 a 38.47958,38.47958 0 0 0 1.89063,-11.91211 38.47958,38.47958 0 0 0 -3.42579,-15.87109 z m 754.20121,24.80859 174.1464,78.73438 0.055,1.4375 -144.1915,54.89453 a 38.47958,38.47958 0 0 0 -27.6855,-17.03906 l -22.1016,-103.02344 z m -37.3945,4.40235 0.9492,4.41601 -183.50005,139.1875 a 38.47958,38.47958 0 0 0 -21.2031,-15.65429 l -7.9317,-37.19922 a 38.47958,38.47958 0 0 0 19.1465,-33.27149 38.47958,38.47958 0 0 0 -1.3144,-9.96484 z m 4.4219,20.60937 20.2246,94.25977 a 38.47958,38.47958 0 0 0 -26.5,26.90234 l -174.29305,23.30469 a 38.47958,38.47958 0 0 0 0,-0.21484 38.47958,38.47958 0 0 0 -0.6113,-6.82618 z m 552.2988,19.68946 -10.0957,305.98632 -141.7676,35.25782 a 38.47958,38.47958 0 0 0 -27.5782,-30.97071 l 15.2226,-149.47461 a 38.47958,38.47958 0 0 0 32.4766,-38.00586 38.47958,38.47958 0 0 0 -0.4375,-5.77539 z m -323.5371,43.30273 118.4883,63.12891 a 38.47958,38.47958 0 0 0 -3.6524,16.36132 38.47958,38.47958 0 0 0 4.8867,18.76368 l -105.1641,99.95117 a 38.47958,38.47958 0 0 0 -13.4062,-9.30664 l -7.3281,-186.54492 z m -1441.72273,7.50781 252.63867,73.05469 a 38.47958,38.47958 0 0 0 0.002,0.0645 L 4.95017,-376.02283 a 38.47958,38.47958 0 0 0 -35.59766,-23.875 38.47958,38.47958 0 0 0 -35.05468,22.61133 l -194.89258,-43.61524 a 38.47958,38.47958 0 0 0 -3.92774,-13.52539 l 115.25782,-49.50976 a 38.47958,38.47958 0 0 0 33.43164,19.42773 38.47958,38.47958 0 0 0 35.8457,-24.49219 z m 1420.75583,0.47461 6.9923,177.98438 a 38.47958,38.47958 0 0 0 -23.961,8.68359 l -123.9434,-112.875 a 38.47958,38.47958 0 0 0 2.4571,-13.5293 38.47958,38.47958 0 0 0 -0.6974,-7.28906 z m -215.0625,65.45313 a 38.47958,38.47958 0 0 0 4.6113,13.71484 l -144.88275,147.82031 a 38.47958,38.47958 0 0 0 -22.1406,-12.36718 l -29.6602,-108.29493 a 38.47958,38.47958 0 0 0 15.377,-17.24609 z m -1387.79489,17.20898 192.98242,43.18555 a 38.47958,38.47958 0 0 0 -0.02149,1.26172 38.47958,38.47958 0 0 0 9.89063,25.7539 l -76.16016,104.35547 a 38.47958,38.47958 0 0 0 -21.75976,-6.74609 38.47958,38.47958 0 0 0 -13.98438,2.63281 l -100.21094,-154.81445 a 38.47958,38.47958 0 0 0 9.26368,-15.62891 z m 1453.86329,4.05859 122.4766,111.53711 a 38.47958,38.47958 0 0 0 -4.5801,18.20508 38.47958,38.47958 0 0 0 1.0664,8.98828 l -173.291,40.79297 a 38.47958,38.47958 0 0 0 -35.4473,-23.51172 38.47958,38.47958 0 0 0 -35.4765,23.57618 l -71.41215,-12.48829 a 38.47958,38.47958 0 0 0 0.0215,-1.29492 38.47958,38.47958 0 0 0 -1.9297,-12.0332 l 146.93365,-149.91211 a 38.47958,38.47958 0 0 0 23.6992,8.16406 38.47958,38.47958 0 0 0 27.9394,-12.02344 z m -1015.93751,0.58399 a 38.47958,38.47958 0 0 0 35.28711,23.13867 38.47958,38.47958 0 0 0 4.54101,-0.26953 l 25.56836,134.55078 a 38.47958,38.47958 0 0 0 -16.58008,16.36719 L 127.61228,-268.974 a 38.47958,38.47958 0 0 0 1.29492,-9.89649 38.47958,38.47958 0 0 0 -38.47852,-38.48047 38.47958,38.47958 0 0 0 -27.36914,11.43164 L 4.75486,-346.3451 a 38.47958,38.47958 0 0 0 3.07617,-14.94336 z m 703.49996,2.82812 a 38.47958,38.47958 0 0 0 5.6094,8.45899 l -54.0254,103.5664 a 38.47958,38.47958 0 0 0 -14.9336,-3.01757 38.47958,38.47958 0 0 0 -24.9453,9.17968 l -175.709,-75.04101 z m -639.01949,6.89844 135.33203,97.11914 a 69.429588,69.429588 0 0 0 -9.625,35.26758 69.429588,69.429588 0 0 0 2.125,17.04297 l -73.54102,18.70508 a 38.47958,38.47958 0 0 0 -35.90234,-24.63672 38.47958,38.47958 0 0 0 -2.98047,0.11523 l -25.6875,-135.16992 a 38.47958,38.47958 0 0 0 10.2793,-8.44336 z m 1250.88484,4.67188 a 38.47958,38.47958 0 0 0 14.834,7.21093 l -15.1622,148.90625 a 38.47958,38.47958 0 0 0 -33.9414,38.20899 38.47958,38.47958 0 0 0 10.121,26.01172 L 1357.2314,-40.1615 a 38.47958,38.47958 0 0 0 -7.9004,-6.12696 l 9.0333,-188.67773 a 38.47958,38.47958 0 0 0 28.2655,-37.09766 38.47958,38.47958 0 0 0 -2.3222,-13.16211 z m -594.16605,6.14648 a 38.47958,38.47958 0 0 0 16.8906,3.90625 38.47958,38.47958 0 0 0 5.5332,-0.40039 l 28.4023,103.70703 a 38.47958,38.47958 0 0 0 -27.7363,25.36133 l -66.7949,-12.07813 a 38.47958,38.47958 0 0 0 -9.9141,-17.71093 z m -291.2383,37.66797 175.6992,75.03711 a 38.47958,38.47958 0 0 0 -3.9902,17.06641 38.47958,38.47958 0 0 0 12.3652,28.25976 l -65.0254,90.13672 a 38.47958,38.47958 0 0 0 -15.9277,-3.45117 38.47958,38.47958 0 0 0 -24.2871,8.63476 l -75.6973,-45.23242 a 38.47958,38.47958 0 0 0 2.8867,-14.62305 38.47958,38.47958 0 0 0 -29.99803,-37.53124 l -0.2461,-91.31055 a 38.47958,38.47958 0 0 0 24.22073,-26.98633 z m -609.49417,9.05469 58.49219,40.55859 a 38.47958,38.47958 0 0 0 -2.84765,14.52539 38.47958,38.47958 0 0 0 15.84765,31.11914 l -11.89258,139.16992 a 38.47958,38.47958 0 0 0 -1.19531,-0.0195 38.47958,38.47958 0 0 0 -30.13867,14.55664 l -143.91602,-98.38476 a 38.47958,38.47958 0 0 0 0.66797,-7.14453 38.47958,38.47958 0 0 0 -6.11719,-20.81641 l 77.57813,-106.29883 a 38.47958,38.47958 0 0 0 16.57031,3.75 38.47958,38.47958 0 0 0 26.95117,-11.01562 z m 546.68555,10.63867 a 38.47958,38.47958 0 0 0 23.59375,9.56445 l 0.23828,88.64844 a 38.47958,38.47958 0 0 0 -23.45703,13.79883 l -42.15039,-25.5332 a 69.429588,69.429588 0 0 0 3.66992,-22.27149 69.429588,69.429588 0 0 0 -7.90625,-32.17383 z m -422,67.82422 99.39063,42.54297 a 38.47958,38.47958 0 0 0 -0.15235,3.43164 38.47958,38.47958 0 0 0 2.95899,14.79687 L 86.79783,-91.35291 a 38.47958,38.47958 0 0 0 -16.13282,-13.78125 l 11.63086,-136.12695 a 38.47958,38.47958 0 0 0 8.13281,0.86914 38.47958,38.47958 0 0 0 30.56055,-15.09961 z m 1196.22267,6.30469 a 38.47958,38.47958 0 0 0 26.084,15.29296 l -8.7441,182.62305 a 38.47958,38.47958 0 0 0 -4.6466,-0.28125 38.47958,38.47958 0 0 0 -15.7792,3.38477 l -61.0273,-73.9668 a 38.47958,38.47958 0 0 0 4.8711,-18.73633 38.47958,38.47958 0 0 0 -38.4805,-38.47851 38.47958,38.47958 0 0 0 -24.7716,9.03515 l -55.1308,-28.76562 a 38.47958,38.47958 0 0 0 0.8907,-8.23633 38.47958,38.47958 0 0 0 0,-0.27148 z m -463.23245,4.36523 64.2969,11.625 a 38.47958,38.47958 0 0 0 38.375,35.67383 38.47958,38.47958 0 0 0 2.7812,-0.10156 l -0.1347,76.84765 a 38.47958,38.47958 0 0 0 -28.7461,24.0625 l -184.5176,-10.92187 a 38.47958,38.47958 0 0 0 -9.0039,-16.1211 l 65.6719,-91.03515 a 38.47958,38.47958 0 0 0 13.2851,2.36523 38.47958,38.47958 0 0 0 37.9922,-32.39453 z m -480.56053,16.89258 a 69.429588,69.429588 0 0 0 22.94141,26.19531 L 291.13376,-11.81385 a 38.47958,38.47958 0 0 0 -8.61523,-1.5664 l -14.1211,-158.89844 a 38.47958,38.47958 0 0 0 28.77735,-36.25586 z m 121.43164,4.77344 41.55859,25.17773 a 38.47958,38.47958 0 0 0 -1.54687,10.79687 38.47958,38.47958 0 0 0 32.62305,38.03126 l 9.11914,162.1914 -103.38282,-213.89258 a 69.429588,69.429588 0 0 0 21.62891,-22.30468 z m 496.83009,3.07812 52.79875,9.23242 19.0391,3.33008 a 38.47958,38.47958 0 0 0 0,0.19922 38.47958,38.47958 0 0 0 7.1915,22.40039 l -80.40435,71.71094 a 38.47958,38.47958 0 0 0 -16.0078,-7.45313 l 0.1426,-81.22461 a 38.47958,38.47958 0 0 0 17.2402,-18.19531 z m -582.084,25.4043 a 69.429588,69.429588 0 0 0 25.85742,4.99414 69.429588,69.429588 0 0 0 24.3711,-4.41797 L 568.36228,30.45959 A 38.47958,38.47958 0 0 0 543.55368,53.4967 L 318.41892,23.07873 A 38.47958,38.47958 0 0 0 304.36814,-4.7533 Z m 723.96295,9.36914 51.6523,26.95117 a 38.47958,38.47958 0 0 0 -4.2011,17.48242 38.47958,38.47958 0 0 0 18.1678,32.68164 L 1155.6319,2.54943 a 38.47958,38.47958 0 0 0 -14.2989,-2.75586 38.47958,38.47958 0 0 0 -38.4786,38.47852 38.47958,38.47958 0 0 0 0.6154,6.84961 l -78.7422,25.05664 A 38.47958,38.47958 0 0 0 988.90325,45.7467 38.47958,38.47958 0 0 0 961.91695,56.79748 l -59.8535,-29.64453 a 38.47958,38.47958 0 0 0 0.1895,-3.8125 38.47958,38.47958 0 0 0 -7.6329,-23 l 51.2579,-50.82813 a 38.47958,38.47958 0 0 0 20.6191,5.99024 38.47958,38.47958 0 0 0 38.47845,-38.47852 38.47958,38.47958 0 0 0 -4.9199,-18.82812 l 81.6484,-72.81836 a 38.47958,38.47958 0 0 0 20.295,5.78711 38.47958,38.47958 0 0 0 31.5606,-16.46875 z m -1325.74224,1.66601 a 38.47958,38.47958 0 0 0 35.02539,22.54297 38.47958,38.47958 0 0 0 32.00976,-17.1289 l 142.82617,97.63867 a 38.47958,38.47958 0 0 0 -1.45117,10.46484 38.47958,38.47958 0 0 0 0.12891,3.13867 L -256.59671,46.0885 a 38.47958,38.47958 0 0 0 -26.73828,-10.8086 38.47958,38.47958 0 0 0 -8.30078,0.90625 L -370.55178,-88.474 a 38.47958,38.47958 0 0 0 10.76367,-26.69336 38.47958,38.47958 0 0 0 -0.63477,-6.95508 z m 423.74414,1.39258 a 38.47958,38.47958 0 0 0 21.85156,10.83985 l 14.21875,159.97851 A 38.47958,38.47958 0 0 0 247.77829,3.9635 l -154.625,-75.68555 a 38.47958,38.47958 0 0 0 -0.57226,-5.19141 z m 369.06445,22.19727 74.3574,44.43164 a 38.47958,38.47958 0 0 0 -4.5429,18.13672 38.47958,38.47958 0 0 0 10.0527,25.93164 l -78.7051,107.5 a 38.47958,38.47958 0 0 0 -9.14257,-4.8086 L 582.4697,-149.80018 a 38.47958,38.47958 0 0 0 18.15625,-10.24804 z m 878.57625,2.44922 a 38.47958,38.47958 0 0 0 16.2109,3.58203 38.47958,38.47958 0 0 0 2.0526,-0.0547 l 0.6583,179.46289 a 38.47958,38.47958 0 0 0 -28.6542,16.06445 l -102.75,-43.33789 a 38.47958,38.47958 0 0 0 1.664,-11.1914 38.47958,38.47958 0 0 0 -2.6427,-14.01172 z m -236.0039,47.03515 58.6815,71.125 a 38.47958,38.47958 0 0 0 -10.455,26.36524 38.47958,38.47958 0 0 0 20.5899,34.06836 l -88.7051,138.88867 a 38.47958,38.47958 0 0 0 -8.9902,-1.06446 38.47958,38.47958 0 0 0 -31.7013,16.67383 L 1026.0889,94.11975 a 38.47958,38.47958 0 0 0 1.2851,-9.04297 l 81.6114,-25.96875 a 38.47958,38.47958 0 0 0 32.3476,17.64453 38.47958,38.47958 0 0 0 38.4805,-38.48047 38.47958,38.47958 0 0 0 -11.375,-27.31055 l 44.7792,-113.86718 a 38.47958,38.47958 0 0 0 6.2716,0.51562 38.47958,38.47958 0 0 0 23.709,-8.17383 z m -496.11725,18.01367 180.9531,10.7129 a 38.47958,38.47958 0 0 0 6.9863,20.99218 l -51.5566,51.12696 a 38.47958,38.47958 0 0 0 -19.6895,-5.41993 38.47958,38.47958 0 0 0 -20.0566,5.64063 l -98.1621,-76.21289 a 38.47958,38.47958 0 0 0 1.5254,-6.83985 z m -8.9239,20.08594 94.4083,73.29883 a 38.47958,38.47958 0 0 0 -7.2715,22.50586 38.47958,38.47958 0 0 0 6.4707,21.35742 l -72.4903,80.5625 a 38.47958,38.47958 0 0 0 -30.5254,-15.05273 38.47958,38.47958 0 0 0 -33.1132,18.8789 l -79.2852,-50.80859 a 38.47958,38.47958 0 0 0 1.6016,-10.98047 38.47958,38.47958 0 0 0 -5.7305,-20.20117 l 80.3477,-109.74609 a 38.47958,38.47958 0 0 0 16.3496,3.64843 38.47958,38.47958 0 0 0 29.2382,-13.46289 z m -647.55073,16.19531 151.5625,74.1875 a 38.47958,38.47958 0 0 0 -0.66016,7.09766 38.47958,38.47958 0 0 0 6.53711,21.45508 L 113.37009,148.05529 a 38.47958,38.47958 0 0 0 -17.9375,-6.32422 L 70.11228,-34.86072 a 38.47958,38.47958 0 0 0 20.49414,-21.40821 z m -70.08985,3.80079 a 38.47958,38.47958 0 0 0 6.13086,8.67578 l -160.38867,240.91797 a 38.47958,38.47958 0 0 0 -9.68164,-1.24024 38.47958,38.47958 0 0 0 -10.11719,1.35547 L -252.84671,97.23498 a 38.47958,38.47958 0 0 0 7.99219,-23.47461 38.47958,38.47958 0 0 0 -3.05859,-15.0332 z m 18.3379,17.4082 a 38.47958,38.47958 0 0 0 15.85351,3.41797 38.47958,38.47958 0 0 0 0.71094,-0.0098 l 25.08984,174.98438 a 38.47958,38.47958 0 0 0 -26.43164,30.20898 l -165.91601,38.84375 a 38.47958,38.47958 0 0 0 -8.28711,-8.64648 z m 1320.74813,46.45703 103.7109,43.74219 a 38.47958,38.47958 0 0 0 -0.9825,8.63867 38.47958,38.47958 0 0 0 1.752,11.47266 l -219.8437,97.85156 a 38.47958,38.47958 0 0 0 -7.1934,-6.85547 l 90.0156,-140.94727 a 38.47958,38.47958 0 0 0 2.8437,0.10743 38.47958,38.47958 0 0 0 29.6974,-14.00977 z M 316.23923,37.92053 541.00486,68.28576 a 38.47958,38.47958 0 0 0 2.24023,11.98047 L 394.58298,147.776 a 38.47958,38.47958 0 0 0 -31.40234,-16.24024 38.47958,38.47958 0 0 0 -8.59766,0.97461 L 303.18064,55.71936 a 38.47958,38.47958 0 0 0 13.05859,-17.79883 z m 581.36132,3.76172 55.8262,27.64843 a 38.47958,38.47958 0 0 0 -3.002,14.89649 38.47958,38.47958 0 0 0 16.4082,31.51758 l -55.9863,87.15625 a 38.47958,38.47958 0 0 0 -25.7148,-9.85352 38.47958,38.47958 0 0 0 -30.0411,14.43164 l -89.5488,-47.5293 a 38.47958,38.47958 0 0 0 1.6856,-11.26171 38.47958,38.47958 0 0 0 -1.0039,-8.72657 l 76.1562,-84.63672 a 38.47958,38.47958 0 0 0 21.3945,6.4961 38.47958,38.47958 0 0 0 33.8262,-20.13867 z M 258.80954,57.14123 a 38.47958,38.47958 0 0 0 21.17969,6.35352 38.47958,38.47958 0 0 0 9.54297,-1.20313 l 51.19141,76.47852 a 38.47958,38.47958 0 0 0 -16.02149,31.24609 38.47958,38.47958 0 0 0 2.76953,14.33594 L 209.55954,256.80139 129.6865,187.83264 a 38.47958,38.47958 0 0 0 0.79492,-7.77539 38.47958,38.47958 0 0 0 -6.41797,-21.27735 z M 1471.2919,88.45959 a 38.47958,38.47958 0 0 0 1,1.15039 l -15.8633,78.85938 a 38.47958,38.47958 0 0 0 -33.3768,38.14062 38.47958,38.47958 0 0 0 15.8086,31.0918 l -76.8906,198.03125 a 38.47958,38.47958 0 0 0 -11.9279,-4.27149 L 1235.2782,229.56896 a 38.47958,38.47958 0 0 0 17.5216,-32.27148 38.47958,38.47958 0 0 0 -1.5742,-10.88867 z m -861.97455,3.12695 81.2793,52.08399 a 38.47958,38.47958 0 0 0 -0.3281,5.01758 38.47958,38.47958 0 0 0 2.1133,12.57421 l -132.81254,97.85743 a 38.47958,38.47958 0 0 0 -28.69336,-12.83789 38.47958,38.47958 0 0 0 -29.19922,13.42187 l -101.8418,-77.97461 a 38.47958,38.47958 0 0 0 1.82618,-11.71289 38.47958,38.47958 0 0 0 -0.96094,-8.54492 L 551.02439,93.20568 a 38.47958,38.47958 0 0 0 28.44922,12.57227 38.47958,38.47958 0 0 0 29.84374,-14.19141 z m -873.48242,15.53711 96.59766,97.2793 a 38.47958,38.47958 0 0 0 -14.33594,29.96289 38.47958,38.47958 0 0 0 8.23633,23.78906 l -162.83203,149.85547 a 38.47958,38.47958 0 0 0 -28.83789,-13.00781 38.47958,38.47958 0 0 0 -23.78906,8.23633 l -163.96485,-119.97657 252.5625,-175.08007 a 38.47958,38.47958 0 0 0 17.19336,4.05664 38.47958,38.47958 0 0 0 19.16992,-5.11524 z m 1283.64257,0.46485 157.2011,81.7207 a 38.47958,38.47958 0 0 0 -0.6601,4.2832 l -253.20305,30.14649 a 38.47958,38.47958 0 0 0 -2.5079,-7.81446 l 60.4414,-94.09179 a 38.47958,38.47958 0 0 0 8.1543,0.87304 38.47958,38.47958 0 0 0 30.57425,-15.11718 z m -261.03705,65.57422 89.7402,47.6289 a 38.47958,38.47958 0 0 0 -1.5293,10.73438 38.47958,38.47958 0 0 0 0.1934,3.83203 l -278.26177,41.73242 a 38.47958,38.47958 0 0 0 -1.36523,-4.97461 l 132.791,-97.8418 a 38.47958,38.47958 0 0 0 28.7402,12.89258 38.47958,38.47958 0 0 0 29.6915,-14.0039 z M 54.53806,188.8385 a 38.47958,38.47958 0 0 0 6.57812,14.16796 l -181.45507,199.86329 a 38.47958,38.47958 0 0 0 -22.31641,-7.13086 38.47958,38.47958 0 0 0 -37.7168,30.86523 l -147.51757,-1.96875 a 38.47958,38.47958 0 0 0 -0.93555,-3.29687 l 166.64844,-153.37305 a 38.47958,38.47958 0 0 0 18.7539,4.87891 38.47958,38.47958 0 0 0 38.47852,-38.47852 38.47958,38.47958 0 0 0 -0.83985,-7.99023 z m 337.92578,6.13867 101.80273,77.94336 a 38.47958,38.47958 0 0 0 -1.86914,11.83984 38.47958,38.47958 0 0 0 1.38477,10.22461 l -140.79883,48.75 a 38.47958,38.47958 0 0 0 -19.58398,-22.29883 l 31.91211,-113 a 38.47958,38.47958 0 0 0 27.15234,-13.45898 z m -56.79297,1.9414 a 38.47958,38.47958 0 0 0 14.66211,9.36719 l -31.43945,111.32227 a 38.47958,38.47958 0 0 0 -2.37696,-0.0742 38.47958,38.47958 0 0 0 -25.46484,9.63281 l -69.58008,-60.08008 z m -212.23633,5.33399 72.71485,62.78711 -114.40821,70.29492 a 38.47958,38.47958 0 0 0 -4.6289,-4.13477 L 91.15525,218.526 a 38.47958,38.47958 0 0 0 0.84765,0.01 38.47958,38.47958 0 0 0 31.43164,-16.2832 z m 1054.08016,6.26953 a 38.47958,38.47958 0 0 0 7.4159,13.61328 l -51.873,87.81836 a 38.47958,38.47958 0 0 0 -35.8516,30.05273 L 970.41115,393.1842 a 38.47958,38.47958 0 0 0 -24.2305,-17.35156 l -32.2578,-118.77539 a 38.47958,38.47958 0 0 0 8.9883,-18.22266 z M 72.23728,213.07092 a 38.47958,38.47958 0 0 0 4.21094,2.18164 l -13.60938,109.1914 a 38.47958,38.47958 0 0 0 -8.9707,-1.06054 38.47958,38.47958 0 0 0 -38.48047,38.48047 38.47958,38.47958 0 0 0 0.26953,4.52929 l -123.81836,50.76954 a 38.47958,38.47958 0 0 0 -1.86328,-3.3379 z m 1418.78712,18.25195 253.1797,67.72656 -126.8554,82.97657 a 38.47958,38.47958 0 0 0 -29.0645,-13.26368 38.47958,38.47958 0 0 0 -38.4806,38.47852 38.47958,38.47958 0 0 0 0.07,2.32812 l -168.9863,51.93946 a 38.47958,38.47958 0 0 0 -6.9023,-15.2793 l 78.5156,-202.21484 a 38.47958,38.47958 0 0 0 9.0292,1.07422 38.47958,38.47958 0 0 0 29.4942,-13.76563 z m -294.2325,0.23047 a 38.47958,38.47958 0 0 0 17.5275,4.22461 38.47958,38.47958 0 0 0 6.8846,-0.62109 l 111.9923,197.02148 a 38.47958,38.47958 0 0 0 -22.623,16.77539 l -138.3576,-91.74219 a 38.47958,38.47958 0 0 0 1.0236,-8.81445 38.47958,38.47958 0 0 0 -24.3281,-35.7832 z m -345.49215,18.30469 a 38.47958,38.47958 0 0 0 11.1407,12.74414 l -187.7989,240.68747 a 38.47958,38.47958 0 0 0 -22.6816,-7.3945 38.47958,38.47958 0 0 0 -7.0469,0.6523 L 551.80173,317.05139 a 38.47958,38.47958 0 0 0 16.81836,-24.79883 z m 49.67,16.73828 29.5839,108.93555 a 38.47958,38.47958 0 0 0 -31.3925,37.82031 38.47958,38.47958 0 0 0 1.2285,9.64453 l -215,92.32034 a 38.47958,38.47958 0 0 0 -0.4746,-0.8106 l 191.5449,-245.49021 a 38.47958,38.47958 0 0 0 8.6719,0.99023 38.47958,38.47958 0 0 0 15.8379,-3.41015 z m -692.90825,8.72851 73.88281,63.79493 a 38.47958,38.47958 0 0 0 -3.89844,16.0039 l -186.3418,-0.25586 a 38.47958,38.47958 0 0 0 -1.9375,-6.85742 z m 292.5332,33.17579 a 38.47958,38.47958 0 0 0 7.07617,6.95312 l -65.6543,122.09961 a 38.47958,38.47958 0 0 0 -22.16015,-7.02344 38.47958,38.47958 0 0 0 -15.87891,3.42969 l -56.04297,-55.73242 a 38.47958,38.47958 0 0 0 6.94922,-19.27735 z m 20.58984,13.49804 a 38.47958,38.47958 0 0 0 9.69141,1.24219 38.47958,38.47958 0 0 0 6.91406,-0.62695 l 93.13474,179.54105 a 38.47958,38.47958 0 0 0 -17.4433,32.2187 38.47958,38.47958 0 0 0 1.4648,10.5117 l -87.15233,51.0977 a 38.47958,38.47958 0 0 0 -35.28906,-23.9375 l -41.83203,-79.9942 a 38.47958,38.47958 0 0 0 7.6621,-23.04292 38.47958,38.47958 0 0 0 -5.52148,-19.85938 z m 575.91986,34.31641 a 38.47958,38.47958 0 0 0 37.6564,30.56055 38.47958,38.47958 0 0 0 31.1289,-15.85938 l 139.3066,92.37109 a 38.47958,38.47958 0 0 0 -0.4629,5.94336 38.47958,38.47958 0 0 0 4.6192,18.27736 l -125.1778,54.25 a 38.47958,38.47958 0 0 0 -29.5879,-13.8809 38.47958,38.47958 0 0 0 -28.2129,12.3125 L 975.04005,422.401 a 38.47958,38.47958 0 0 0 1.08,-9.04883 38.47958,38.47958 0 0 0 -0.4863,-6.09375 z M 91.50486,369.86975 277.63181,370.1217 170.999,455.61779 a 38.47958,38.47958 0 0 0 -27.45508,-11.52148 38.47958,38.47958 0 0 0 -8.15039,0.875 L 88.13572,379.36389 a 38.47958,38.47958 0 0 0 3.36914,-9.49414 z M 20.3115,380.69592 a 38.47958,38.47958 0 0 0 11.91601,12.98437 l -28.5,54.88477 -107.91211,-13.49805 a 38.47958,38.47958 0 0 0 0.01,-0.84961 38.47958,38.47958 0 0 0 -0.0781,-2.44726 z m 267.26562,0.67969 a 38.47958,38.47958 0 0 0 28.93945,13.11718 38.47958,38.47958 0 0 0 20.53126,-5.9375 l 54.59179,54.29102 a 38.47958,38.47958 0 0 0 -10.26367,26.16211 38.47958,38.47958 0 0 0 4.83789,18.68162 l -243.42383,127.3555 a 38.47958,38.47958 0 0 0 -7.71484,-6.5059 l 11.44922,-87.5996 a 38.47958,38.47958 0 0 0 35.49804,-38.3652 38.47958,38.47958 0 0 0 -2.77343,-14.34377 z m -209.17773,10.13281 42.95312,59.63086 a 38.47958,38.47958 0 0 0 -10.31445,10.84375 l -91.43945,-11.43555 26.48437,-51 a 38.47958,38.47958 0 0 0 7.78516,0.79492 38.47958,38.47958 0 0 0 24.53125,-8.83398 z M 1553.6885,424.0885 a 38.47958,38.47958 0 0 0 34.5957,21.63281 38.47958,38.47958 0 0 0 4.0234,-0.21289 l -5.6171,217.12502 a 38.47958,38.47958 0 0 0 -13.4123,6.582 l -190.119,-192.7129 z m -585.17975,12.23632 149.96885,116.83202 a 38.47958,38.47958 0 0 0 -2.3712,13.3008 38.47958,38.47958 0 0 0 38.4805,38.4785 38.47958,38.47958 0 0 0 0.9844,-0.0117 l 39.6406,93.4687 a 38.47958,38.47958 0 0 0 -16.2462,16.8086 l -282.86705,-129.539 a 38.47958,38.47958 0 0 0 0.291,-4.7266 38.47958,38.47958 0 0 0 -16.0782,-31.2871 l 53.7149,-97.98828 a 38.47958,38.47958 0 0 0 3.6133,0.17188 38.47958,38.47958 0 0 0 30.8691,-15.50782 z m -61.5918,0.19336 a 38.47958,38.47958 0 0 0 12.4434,10.69336 l -52.7578,96.2402 a 38.47958,38.47958 0 0 0 -8.6934,-0.9941 38.47958,38.47958 0 0 0 -33.252,19.1172 l -134.2343,-28.3379 a 38.47958,38.47958 0 0 0 -0.2793,-3.6367 z m -1234.27342,3.125 146.93945,1.96289 a 38.47958,38.47958 0 0 0 16.73047,24.83594 L -275.8721,641.72714 a 38.47958,38.47958 0 0 0 -5.88867,-0.455 38.47958,38.47958 0 0 0 -6.93555,0.6308 l -53.83593,-177.42968 a 38.47958,38.47958 0 0 0 15.17578,-24.83008 z m 219.89648,10.12891 103.81641,12.98828 -25.80274,49.68947 -79.62109,-59.45705 a 38.47958,38.47958 0 0 0 1.60742,-3.2207 z m -11.36328,14.65625 82.3711,61.5117 -103.03907,198.4278 a 38.47958,38.47958 0 0 0 -15.63476,-3.3184 38.47958,38.47958 0 0 0 -22.69141,7.4043 l -69.10742,-32.3613 a 38.47958,38.47958 0 0 0 3.64453,-16.3399 38.47958,38.47958 0 0 0 -18.19336,-32.6992 l 111.98242,-174.96875 a 38.47958,38.47958 0 0 0 6.83594,0.61328 38.47958,38.47958 0 0 0 23.83203,-8.26953 z m 131.05078,0.31641 93.33203,11.67379 a 38.47958,38.47958 0 0 0 -0.49609,6.1563 38.47958,38.47958 0 0 0 26.56641,36.5879 l -10.95703,83.8418 a 38.47958,38.47958 0 0 0 -6.32422,-0.5235 38.47958,38.47958 0 0 0 -17.55664,4.2383 l -114.06055,-85.1738 z m 1363.33799,25.41599 187.7734,190.3379 a 38.47958,38.47958 0 0 0 -5.1954,19.3086 38.47958,38.47958 0 0 0 5.3359,19.5469 l -189.5742,190.4336 -130.502,-153.3574 a 38.47958,38.47958 0 0 0 7.2951,-14.504 l 150.0117,-75.4277 a 38.47958,38.47958 0 0 0 23.0488,7.6699 38.47958,38.47958 0 0 0 38.4805,-38.4804 38.47958,38.47958 0 0 0 -38.4805,-38.4786 38.47958,38.47958 0 0 0 -6.5566,0.5626 l -52.672,-96.4083 a 38.47958,38.47958 0 0 0 11.0353,-11.2031 z m -979.33603,9.2207 a 38.47958,38.47958 0 0 0 23.62695,8.1074 38.47958,38.47958 0 0 0 19.25976,-5.1679 l 38.05274,72.7676 a 38.47958,38.47958 0 0 0 -23.48047,35.4336 38.47958,38.47958 0 0 0 15.19141,30.6328 l -148.05664,133.0273 a 38.47958,38.47958 0 0 0 -17.08594,-4.0019 38.47958,38.47958 0 0 0 -22.80078,7.4824 L 151.04001,652.54944 a 38.47958,38.47958 0 0 0 1.78711,-11.5879 38.47958,38.47958 0 0 0 -2.27929,-13.0469 z m 923.20903,0.2031 a 38.47958,38.47958 0 0 0 11.5449,6.2286 l -92.7715,197.0117 a 38.47958,38.47958 0 0 0 -24.7617,-9.0274 38.47958,38.47958 0 0 0 -3.8144,0.1914 l -39.2129,-92.4628 a 38.47958,38.47958 0 0 0 22.6426,-35.0684 38.47958,38.47958 0 0 0 -1.7149,-11.3594 z m 31.1348,7.5137 52.5174,96.1328 a 38.47958,38.47958 0 0 0 -17.8105,32.4571 38.47958,38.47958 0 0 0 5.1329,19.1992 l -139.2031,69.9941 a 38.47958,38.47958 0 0 0 -2.7598,-8.5918 l 98.2481,-208.6406 a 38.47958,38.47958 0 0 0 3.875,-0.5508 z m -1374.84579,27.9375 108.98438,81.3828 a 38.47958,38.47958 0 0 0 -8.84375,24.543 38.47958,38.47958 0 0 0 0.76953,7.6484 l -198.6836,91.2657 a 38.47958,38.47958 0 0 0 -5.09179,-6.75 z m 712.20504,13.0039 131.8321,27.8321 a 38.47958,38.47958 0 0 0 -0.334,5.0644 38.47958,38.47958 0 0 0 38.4785,38.4805 38.47958,38.47958 0 0 0 33.4356,-19.4317 l 283.69915,129.92 a 38.47958,38.47958 0 0 0 -0.074,2.3711 38.47958,38.47958 0 0 0 1.7382,11.4335 l -261.08795,45.5098 a 38.47958,38.47958 0 0 0 -36.8847,-27.5195 38.47958,38.47958 0 0 0 -7.5977,0.7578 l -185.2773,-209.875 a 38.47958,38.47958 0 0 0 2.0722,-4.543 z m -66.1386,10.2188 a 38.47958,38.47958 0 0 0 20.6328,13.3945 l -22.6504,223.2442 -279.41798,1.9511 a 38.47958,38.47958 0 0 0 -7.49023,-13.3261 l 150.78125,-135.4747 a 38.47958,38.47958 0 0 0 8.51953,0.9551 38.47958,38.47958 0 0 0 38.45898,-37.291 z m 54.3828,6.0195 180.4492,204.4063 a 38.47958,38.47958 0 0 0 -15.7598,24.6699 l -206.0019,1.4375 22.5586,-222.3281 a 38.47958,38.47958 0 0 0 18.7539,-8.1856 z m -984.709,143.1113 a 38.47958,38.47958 0 0 0 26.77148,10.8418 38.47958,38.47958 0 0 0 25.70899,-9.8496 l 67.71679,31.709 a 38.47958,38.47958 0 0 0 -5.27148,19.4375 38.47958,38.47958 0 0 0 9.99804,25.8731 l -96.1621,120.8554 -217.92383,-100.5527 z" />
  </g>
</svg>
