<?xml version="1.0" encoding="UTF-8" standalone="no"?>
<svg
   xmlns:dc="http://purl.org/dc/elements/1.1/"
   xmlns:cc="http://creativecommons.org/ns#"
   xmlns:rdf="http://www.w3.org/1999/02/22-rdf-syntax-ns#"
   xmlns:svg="http://www.w3.org/2000/svg"
   xmlns="http://www.w3.org/2000/svg"
   xmlns:xlink="http://www.w3.org/1999/xlink"
   xmlns:sodipodi="http://sodipodi.sourceforge.net/DTD/sodipodi-0.dtd"
   xmlns:inkscape="http://www.inkscape.org/namespaces/inkscape"
   version="1.1"
   id="svg97467"
   width="286.44586"
   height="205.0076"
   viewBox="0 0 286.44586 205.0076"
   sodipodi:docname="ChRISlogo-white.svg"
   inkscape:version="1.0.2 (e86c870879, 2021-01-15)"
   inkscape:export-filename="/home/duffy/SparkleShare/github.com/cube-design/_common-assets/ChRISlogo-white.png"
   inkscape:export-xdpi="96"
   inkscape:export-ydpi="96">
  <metadata
     id="metadata97473">
    <rdf:RDF>
      <cc:Work
         rdf:about="">
        <dc:format>image/svg+xml</dc:format>
        <dc:type
           rdf:resource="http://purl.org/dc/dcmitype/StillImage" />
        <dc:title></dc:title>
      </cc:Work>
    </rdf:RDF>
  </metadata>
  <defs
     id="defs97471">
    <linearGradient
       x1="0"
       y1="0"
       x2="1"
       y2="0"
       gradientUnits="userSpaceOnUse"
       gradientTransform="matrix(2873.01,0,0,-2873.01,699.055,1444.61)"
       spreadMethod="pad"
       id="linearGradient161468">
      <stop
         style="stop-opacity:1;stop-color:#3a7cc7"
         offset="0"
         id="stop161464" />
      <stop
         style="stop-opacity:1;stop-color:#7ad4ed"
         offset="1"
         id="stop161466" />
    </linearGradient>
    <linearGradient
       inkscape:collect="always"
       xlink:href="#linearGradient161468"
       id="linearGradient97728"
       gradientUnits="userSpaceOnUse"
       gradientTransform="matrix(72.95139,0,0,72.95139,709.28536,1156.7155)"
       x1="0"
       y1="0"
       x2="1"
       y2="0"
       spreadMethod="pad" />
  </defs>
  <sodipodi:namedview
     pagecolor="#ffffff"
     bordercolor="#666666"
     borderopacity="1"
     objecttolerance="10"
     gridtolerance="10"
     guidetolerance="10"
     inkscape:pageopacity="0"
     inkscape:pageshadow="2"
     inkscape:window-width="2560"
     inkscape:window-height="1403"
     id="namedview97469"
     showgrid="false"
     fit-margin-top="0"
     fit-margin-left="0"
     fit-margin-right="0"
     fit-margin-bottom="0"
     inkscape:zoom="0.3995"
     inkscape:cx="-90.065256"
     inkscape:cy="518.79267"
     inkscape:window-x="0"
     inkscape:window-y="0"
     inkscape:window-maximized="1"
     inkscape:current-layer="g97475"
     inkscape:document-rotation="0" />
  <g
     inkscape:groupmode="layer"
     inkscape:label="Image"
     id="g97475"
     transform="translate(-1090.0653,122.54736)">
    <g
       id="g98313"
       style="fill:#ffffff;stroke-width:0.302139"
       transform="matrix(3.3097404,0,0,3.3097404,-1209.4948,-3853.6528)">
      <g
         inkscape:export-ydpi="105.08642"
         inkscape:export-xdpi="105.08642"
         inkscape:export-filename="/home/duffy/Repositories/ChRIS_store_ui/src/assets/img/chris-plugin-store_logo.png"
         id="g97722"
         transform="matrix(17.178215,0,0,17.178215,742.70684,1329.142)"
         style="fill:#ffffff;fill-opacity:1;stroke-width:1.08005"
         clip-path="none">
        <path
           d="m -2.6631705,-8.1974663 c -0.044549,-0.034651 -0.076743,-0.079422 -0.09663,-0.134287 -0.019925,-0.054784 -0.029849,-0.1138256 -0.029849,-0.177065 0,-0.058578 0.010129,-0.1155706 0.030341,-0.1710983 0.02026,-0.055528 0.052783,-0.1014355 0.097657,-0.1377361 0.044842,-0.036391 0.1016971,-0.054531 0.1704926,-0.054531 0.064058,0 0.1186946,0.0165 0.1638967,0.049444 0.045209,0.032996 0.077235,0.073004 0.096139,0.1201564 l -0.1376354,0.061515 c -0.019556,-0.028912 -0.038292,-0.050101 -0.056159,-0.063584 -0.01786,-0.013451 -0.03993,-0.020192 -0.066241,-0.020192 -0.04792,0 -0.082998,0.021754 -0.1052361,0.065125 -0.022274,0.043375 -0.033387,0.093713 -0.033387,0.1508999 0,0.035633 0.00506,0.06997 0.015154,0.1029131 0.010124,0.033002 0.025646,0.060027 0.046564,0.081298 0.020913,0.021189 0.046521,0.031789 0.076904,0.031789 0.02429,0 0.046031,-0.00797 0.065252,-0.023733 0.019227,-0.01585 0.037591,-0.038197 0.055127,-0.067104 l 0.1406449,0.052466 c -0.057311,0.1237897 -0.1443445,0.1857194 -0.261024,0.1857194 -0.070151,0 -0.1275101,-0.017326 -0.1720108,-0.051998"
           style="fill:#ffffff;fill-opacity:1;fill-rule:nonzero;stroke:none;stroke-width:0.00150006"
           id="path97712"
           inkscape:connector-curvature="0" />
        <path
           d="m -2.1452641,-8.862737 h 0.146733 v 0.2877974 c 0.033015,-0.039679 0.079909,-0.059559 0.1406436,-0.059559 0.047877,0 0.089709,0.015122 0.1254465,0.045418 0.035738,0.030306 0.053647,0.079432 0.053647,0.147349 v 0.2861639 H -1.8255271 V -8.383169 c 0,-0.038354 -0.00622,-0.06629 -0.018692,-0.083766 -0.012523,-0.01751 -0.033598,-0.026298 -0.063248,-0.026298 -0.060725,0 -0.091064,0.036063 -0.091064,0.1080216 v 0.2296444 h -0.146733 v -0.7071697"
           style="fill:#ffffff;fill-opacity:1;fill-rule:nonzero;stroke:none;stroke-width:0.00150006"
           id="path97714"
           inkscape:connector-curvature="0" />
        <path
           d="m -1.2386074,-8.5514787 c 0.028324,0 0.048711,-0.00773 0.061227,-0.023161 0.012475,-0.015537 0.018685,-0.035735 0.018685,-0.060632 0,-0.023484 -0.00621,-0.043197 -0.018685,-0.059046 -0.012516,-0.015769 -0.032903,-0.023664 -0.061227,-0.023664 h -0.1932533 v 0.1665031 z m -0.347069,-0.3118805 h 0.3450498 c 0.084988,0 0.1465338,0.02119 0.1846507,0.063584 0.038089,0.042379 0.057148,0.097233 0.057148,0.1645026 0,0.041732 -0.01148,0.082468 -0.034369,0.1221456 -0.022931,0.03976 -0.054313,0.067583 -0.094116,0.083766 l 0.1325592,0.2725352 h -0.1720037 l -0.128499,-0.2492756 h -0.1366037 v 0.2492756 h -0.1538157 v -0.7065337"
           style="fill:#ffffff;fill-opacity:1;fill-rule:nonzero;stroke:none;stroke-width:0.00150006"
           id="path97716"
           inkscape:connector-curvature="0" />
        <path
           d="m -0.84573181,-8.1568254 v -0.7065337 h 0.14831802 v 0.7065337 h -0.14831802"
           style="fill:#ffffff;fill-opacity:1;fill-rule:nonzero;stroke:none;stroke-width:0.00150006"
           id="path97718"
           inkscape:connector-curvature="0"
           sodipodi:nodetypes="ccccc" />
        <path
           d="m -0.50424041,-8.198447 c -0.0495686,-0.03672 -0.0851961,-0.087311 -0.10675754,-0.1519415 l 0.13758562,-0.051502 c 0.0162235,0.034339 0.0374667,0.061764 0.0637726,0.082295 0.0263198,0.020536 0.0553084,0.030803 0.0870075,0.030803 0.0330544,0 0.0590287,-0.00624 0.0779209,-0.018731 0.0188643,-0.01239 0.0283244,-0.030395 0.0283244,-0.05396 0,-0.022169 -0.0106082,-0.039344 -0.0318654,-0.051496 -0.0212433,-0.012072 -0.0554876,-0.025548 -0.10270516,-0.040325 -0.04925,-0.016184 -0.089013,-0.031455 -0.11939845,-0.045915 -0.0303438,-0.014457 -0.0566497,-0.035894 -0.0789306,-0.06416 -0.0222391,-0.028244 -0.033387,-0.065201 -0.033387,-0.1109587 0,-0.037028 0.009789,-0.070633 0.029348,-0.1009459 0.0195564,-0.030296 0.048047,-0.054352 0.0855138,-0.072179 0.0374249,-0.017822 0.0817656,-0.026709 0.13303534,-0.026709 0.0633992,0 0.11670164,0.016513 0.15985266,0.049444 0.0431925,0.032942 0.0718495,0.075327 0.08601168,0.1271576 l -0.13758562,0.044432 c -0.0222948,-0.050516 -0.0610611,-0.075735 -0.1163558,-0.075735 -0.0276612,0 -0.0489184,0.00494 -0.0637308,0.014625 -0.0148682,0.00978 -0.0222809,0.024057 -0.0222809,0.042956 0,0.016102 0.009271,0.029084 0.0278404,0.038849 0.0185188,0.00978 0.0494023,0.022008 0.092553,0.036812 0.0499281,0.016166 0.0912257,0.032101 0.12396257,0.047951 0.0326819,0.015768 0.0612274,0.038863 0.08549984,0.069155 0.02424459,0.030228 0.03640223,0.069572 0.03640223,0.1180235 0,0.044438 -0.01161792,0.083135 -0.03490854,0.1160619 -0.02326273,0.033018 -0.05479653,0.058082 -0.09457251,0.075246 -0.0398178,0.017158 -0.0846843,0.025699 -0.1345844,0.025699 -0.0688064,0 -0.12800101,-0.018322 -0.17756943,-0.054951"
           style="fill:#ffffff;fill-opacity:1;fill-rule:nonzero;stroke:none;stroke-width:0.00150006"
           id="path97720"
           inkscape:connector-curvature="0" />
      </g>
      <path
         style="fill:#ffffff;fill-opacity:1;fill-rule:nonzero;stroke:none;stroke-width:0.060522"
         d="m 740.03848,1127.3106 2.81395,8.9201 c 0.0397,0 0.0773,-0.012 0.11712,-0.012 1.47456,0 2.67015,1.1956 2.67015,2.6701 0,0.1 -0.0185,0.1968 -0.0293,0.2938 l 13.08967,5.0967 c 0.4848,-0.6748 1.27056,-1.1178 2.16557,-1.1178 0.31776,0 0.6192,0.063 0.90048,0.1651 l 6.08266,-8.7028 z m -1.37587,0.044 -19.50112,7.051 11.01518,8.0281 c 0.88992,-0.9206 2.12918,-1.4935 3.50947,-1.4935 1.36445,0 2.59594,0.5597 3.48298,1.4613 l 3.33331,-2.4942 c -0.12864,-0.3139 -0.20448,-0.6576 -0.20448,-1.0182 0,-0.9658 0.51936,-1.8052 1.28793,-2.2739 z m -20.80098,7.7465 -7.32692,8.9788 8.38023,3.3362 c 0.48672,-0.6652 1.26633,-1.1033 2.15366,-1.1033 1.01539,0 1.88563,0.5741 2.33856,1.4062 l 5.44023,-1.3644 c -0.0187,-0.1728 -0.0528,-0.3437 -0.0528,-0.5213 0,-0.8448 0.23328,-1.6272 0.6096,-2.3209 z m 50.63362,0.9158 -5.63097,8.0574 c 0.36288,0.4118 0.59328,0.935 0.64992,1.5111 l 4.42195,0.7171 c 0.28896,-0.6576 0.8352,-1.1696 1.51113,-1.4234 z m 1.39603,0.5923 0.87168,8.1337 c 1.2721,0.1853 2.25072,1.2547 2.27991,2.5703 l 5.80387,1.35 z m -24.74173,3.8116 h -0.003 c -0.33504,0.478 -0.82752,0.8332 -1.39891,1.0096 l 0.26688,7.1038 c 1.20288,0.2592 2.10681,1.3283 2.10681,2.6086 0,0.3379 -0.07,0.6576 -0.18528,0.9562 l 4.70074,3.3479 c 0.46368,-0.3927 1.05725,-0.6432 1.7135,-0.6432 0.34848,0 0.68256,0.072 0.9866,0.1929 l 5.45779,-7.5028 c -0.3696,-0.4599 -0.59808,-1.0341 -0.59808,-1.6667 0,-0.1085 0.0199,-0.2093 0.0323,-0.3139 z m -3.84672,0.5395 -3.35683,2.5117 c 0.3888,0.7017 0.63072,1.4995 0.63072,2.359 0,0.6048 -0.12384,1.1812 -0.3264,1.7167 l 3.25411,1.7753 c 0.31968,-0.3437 0.72672,-0.5923 1.18838,-0.7315 l -0.26688,-7.0862 c -0.4224,-0.087 -0.79776,-0.2841 -1.12349,-0.5462 z m -30.70412,4.5686 5.12621,13.345 5.85984,5.1525 -0.97373,-12.4178 c -1.25626,-0.217 -2.21242,-1.3052 -2.21242,-2.6232 0,-0.1152 0.0182,-0.2266 0.0323,-0.3379 z m 52.71402,1.3644 c -0.41088,0.9447 -1.35149,1.6079 -2.44723,1.6079 -0.36288,0 -0.70368,-0.072 -1.01818,-0.2016 l -5.44598,7.4852 c 0.38208,0.4628 0.62112,1.0471 0.62112,1.6931 0,0.3379 -0.07,0.6605 -0.18528,0.959 l 7.76409,5.5253 c 0.46368,-0.3936 1.05725,-0.6403 1.7136,-0.6403 0.47328,0 0.912,0.1325 1.29946,0.3485 l 3.93187,-4.0728 c -0.25152,-0.4061 -0.40416,-0.8775 -0.40416,-1.3904 0,-1.122 0.696,-2.0813 1.67549,-2.4765 l -0.76032,-5.7217 c -1.2433,-0.1507 -2.21338,-1.1423 -2.32685,-2.3973 z m -34.16364,0.7498 -5.41075,1.3586 c -0.006,1.164 -0.7632,2.1409 -1.80768,2.4999 l 1.01242,12.9195 7.87555,-14.6419 c -0.74112,-0.5396 -1.32557,-1.2737 -1.66963,-2.1361 z m 43.58555,0.959 c -0.2928,0.5616 -0.77088,1.0052 -1.36157,1.2447 l 0.75744,5.7246 c 0.38784,0.046 0.75168,0.169 1.06877,0.3629 l 5.97715,-5.8361 -6.43785,-1.4966 z m -35.11724,0.1143 c -0.88992,1.2114 -2.31341,2.0069 -3.93197,2.0069 -0.6,0 -1.16822,-0.1219 -1.69901,-0.3196 l -8.22758,15.2934 8.80867,4.8825 8.7119,-1.4119 c 0.12192,-1.0571 0.85344,-1.9184 1.83975,-2.2299 l -0.27552,-13.1983 c -1.18119,-0.2756 -2.05978,-1.3327 -2.05978,-2.5967 0,-0.2266 0.0349,-0.4445 0.0882,-0.6538 z m 42.28272,2.5293 -5.78045,5.6366 c 0.2256,0.3927 0.36672,0.8429 0.36672,1.3268 0,1.1698 -0.75744,2.1497 -1.80461,2.5117 l 0.55104,6.8573 c 0.50784,0.097 0.96096,0.3436 1.32106,0.6835 l 6.77808,-4.0553 z m -34.73287,1.9278 c -0.28896,0.2439 -0.62784,0.4272 -1.00089,0.5309 l 0.27552,13.1484 c 0.11712,0.023 0.22656,0.065 0.33792,0.1037 l 5.53699,-7.7641 c -0.39072,-0.4637 -0.63456,-1.0586 -0.63456,-1.7136 0,-0.3379 0.0671,-0.6576 0.1824,-0.9561 z m 8.89968,6.338 c -0.46368,0.3926 -1.05725,0.6345 -1.71369,0.6345 -0.33888,0 -0.66048,-0.066 -0.95904,-0.1824 l -5.50464,7.7171 c 0.43008,0.4752 0.7008,1.099 0.7008,1.79 0,0.2294 -0.0398,0.4483 -0.0947,0.6605 l 5.81846,3.1954 c 0.48864,-0.5203 1.17687,-0.8476 1.94544,-0.8476 0.54048,0 1.04266,0.1564 1.4641,0.4339 l 6.23529,-5.6895 c -0.19488,-0.3696 -0.31392,-0.7814 -0.31392,-1.2289 0,-0.3379 0.0706,-0.6556 0.18528,-0.9532 z m 16.43482,1.0096 -3.92909,4.0612 c 0.25632,0.4109 0.41088,0.8928 0.41088,1.412 0,0.1948 -0.0223,0.3849 -0.0616,0.5673 l 3.79104,1.8927 c 0.31488,-0.3629 0.72576,-0.6356 1.19414,-0.7853 l -0.54912,-6.8339 c -0.30912,-0.053 -0.59328,-0.1641 -0.85728,-0.312 z m -4.17562,7.2155 c -0.4896,0.5644 -1.20422,0.9312 -2.00995,0.9312 -0.5472,0 -1.05427,-0.1671 -1.47898,-0.4484 l -6.22646,5.6836 c 0.19872,0.3744 0.31968,0.7949 0.31968,1.2476 0,0.3821 -0.0817,0.7431 -0.22656,1.0716 l 6.34982,3.6766 8.99924,-3.7324 -0.0323,-3.4008 c -1.13222,-0.3101 -1.96877,-1.3341 -1.96877,-2.5646 0,-0.1949 0.0223,-0.385 0.0616,-0.5674 z m -20.46354,3.5563 c -0.097,0.1046 -0.20256,0.1987 -0.3168,0.2861 l 6.06499,15.0967 h 6.99216 l -3.80563,-8.9142 c -0.1728,0.036 -0.35136,0.056 -0.53664,0.056 -1.47447,0 -2.67015,-1.1955 -2.67015,-2.6701 0,-0.2295 0.0368,-0.4484 0.0908,-0.6605 z"
         id="path97724"
         inkscape:connector-curvature="0"
         clip-path="none" />
    </g>
  </g>
</svg>
