<?xml version="1.0" encoding="UTF-8" standalone="no"?>
<!-- Created with Inkscape (http://www.inkscape.org/) -->

<svg
   xmlns:dc="http://purl.org/dc/elements/1.1/"
   xmlns:cc="http://creativecommons.org/ns#"
   xmlns:rdf="http://www.w3.org/1999/02/22-rdf-syntax-ns#"
   xmlns:svg="http://www.w3.org/2000/svg"
   xmlns="http://www.w3.org/2000/svg"
   xmlns:xlink="http://www.w3.org/1999/xlink"
   xmlns:sodipodi="http://sodipodi.sourceforge.net/DTD/sodipodi-0.dtd"
   xmlns:inkscape="http://www.inkscape.org/namespaces/inkscape"
   width="111"
   height="78"
   viewBox="0 0 1.15625 0.8125"
   version="1.1"
   id="svg80330"
   sodipodi:docname="ChRISlogo-color.svg"
   inkscape:version="0.92.2 2405546, 2018-03-11">
  <defs
     id="defs80323">
    <clipPath
       clipPathUnits="userSpaceOnUse"
       id="clipPath161462">
      <path
         d="m 1032.96,2313.28 -333.905,-372.74 229.562,-597.75 286.953,-272.01 415.65,-193.51 426.52,73.21 293.68,-701.64 h 332.56 L 2477.24,727.012 2800.11,486.23 3187,650.969 v 256.429 l 385.07,239.412 -69.57,568.83 -440.82,622.99 -1155.7,301.75 z"
         id="path161460"
         inkscape:connector-curvature="0" />
    </clipPath>
    <linearGradient
       inkscape:collect="always"
       xlink:href="#linearGradient161468"
       id="linearGradient243972"
       gradientUnits="userSpaceOnUse"
       gradientTransform="matrix(0.75991031,0,0,0.75991031,-3.8006025,-3.4080861)"
       x1="0"
       y1="0"
       x2="1"
       y2="0"
       spreadMethod="pad" />
    <linearGradient
       x1="0"
       y1="0"
       x2="1"
       y2="0"
       gradientUnits="userSpaceOnUse"
       gradientTransform="matrix(2873.01,0,0,-2873.01,699.055,1444.61)"
       spreadMethod="pad"
       id="linearGradient161468">
      <stop
         style="stop-opacity:1;stop-color:#3a7cc7"
         offset="0"
         id="stop161464" />
      <stop
         style="stop-opacity:1;stop-color:#7ad4ed"
         offset="1"
         id="stop161466" />
    </linearGradient>
  </defs>
  <sodipodi:namedview
     inkscape:document-units="px"
     pagecolor="#ffffff"
     bordercolor="#666666"
     borderopacity="1.0"
     inkscape:pageopacity="0.0"
     inkscape:pageshadow="2"
     inkscape:zoom="2.8284271"
     inkscape:cx="58.664317"
     inkscape:cy="-41.18356"
     inkscape:current-layer="layer1"
     id="namedview80325"
     showgrid="false"
     inkscape:window-width="1024"
     inkscape:window-height="1088"
     inkscape:window-x="1024"
     inkscape:window-y="27"
     inkscape:window-maximized="0"
     units="px"
     width="1080px"
     inkscape:pagecheckerboard="false"
     objecttolerance="2"
     inkscape:snap-path-clip="false"
     inkscape:snap-path-mask="false"
     gridtolerance="2"
     guidetolerance="10"
     inkscape:snap-perpendicular="true"
     inkscape:snap-tangential="true"
     fit-margin-top="0"
     fit-margin-left="0"
     fit-margin-right="0"
     fit-margin-bottom="0" />
  <metadata
     id="metadata80327">
    <rdf:RDF>
      <cc:Work
         rdf:about="">
        <dc:format>image/svg+xml</dc:format>
        <dc:type
           rdf:resource="http://purl.org/dc/dcmitype/StillImage" />
        <dc:title></dc:title>
        <dc:creator>
          <cc:Agent>
            <dc:title>Máirín Duffy &lt;duffy@redhat.com&gt;</dc:title>
          </cc:Agent>
        </dc:creator>
      </cc:Work>
    </rdf:RDF>
  </metadata>
  <g
     inkscape:label="Layer 1"
     inkscape:groupmode="layer"
     id="layer1"
     transform="translate(4.0677104,3.7781985)">
    <g
       inkscape:export-ydpi="105.08642"
       inkscape:export-xdpi="105.08642"
       inkscape:export-filename="/home/duffy/Repositories/ChRIS_store_ui/src/assets/img/chris-plugin-store_logo.png"
       id="g244340"
       transform="matrix(0.17893974,0,0,0.17893974,-3.4524621,-1.6119766)"
       style="fill:#509bd4;fill-opacity:1;stroke-width:3.57466865">
      <path
         d="m -2.6631705,-8.1974663 c -0.044549,-0.034651 -0.076743,-0.079422 -0.09663,-0.134287 -0.019925,-0.054784 -0.029849,-0.1138256 -0.029849,-0.177065 0,-0.058578 0.010129,-0.1155706 0.030341,-0.1710983 0.02026,-0.055528 0.052783,-0.1014355 0.097657,-0.1377361 0.044842,-0.036391 0.1016971,-0.054531 0.1704926,-0.054531 0.064058,0 0.1186946,0.0165 0.1638967,0.049444 0.045209,0.032996 0.077235,0.073004 0.096139,0.1201564 l -0.1376354,0.061515 c -0.019556,-0.028912 -0.038292,-0.050101 -0.056159,-0.063584 -0.01786,-0.013451 -0.03993,-0.020192 -0.066241,-0.020192 -0.04792,0 -0.082998,0.021754 -0.1052361,0.065125 -0.022274,0.043375 -0.033387,0.093713 -0.033387,0.1508999 0,0.035633 0.00506,0.06997 0.015154,0.1029131 0.010124,0.033002 0.025646,0.060027 0.046564,0.081298 0.020913,0.021189 0.046521,0.031789 0.076904,0.031789 0.02429,0 0.046031,-0.00797 0.065252,-0.023733 0.019227,-0.01585 0.037591,-0.038197 0.055127,-0.067104 l 0.1406449,0.052466 c -0.057311,0.1237897 -0.1443445,0.1857194 -0.261024,0.1857194 -0.070151,0 -0.1275101,-0.017326 -0.1720108,-0.051998"
         style="fill:#509bd4;fill-opacity:1;fill-rule:nonzero;stroke:none;stroke-width:0.00496482"
         id="path244330"
         inkscape:connector-curvature="0" />
      <path
         d="m -2.1452641,-8.862737 h 0.146733 v 0.2877974 c 0.033015,-0.039679 0.079909,-0.059559 0.1406436,-0.059559 0.047877,0 0.089709,0.015122 0.1254465,0.045418 0.035738,0.030306 0.053647,0.079432 0.053647,0.147349 v 0.2861639 H -1.8255271 V -8.383169 c 0,-0.038354 -0.00622,-0.06629 -0.018692,-0.083766 -0.012523,-0.01751 -0.033598,-0.026298 -0.063248,-0.026298 -0.060725,0 -0.091064,0.036063 -0.091064,0.1080216 v 0.2296444 h -0.146733 v -0.7071697"
         style="fill:#509bd4;fill-opacity:1;fill-rule:nonzero;stroke:none;stroke-width:0.00496482"
         id="path244332"
         inkscape:connector-curvature="0" />
      <path
         d="m -1.2386074,-8.5514787 c 0.028324,0 0.048711,-0.00773 0.061227,-0.023161 0.012475,-0.015537 0.018685,-0.035735 0.018685,-0.060632 0,-0.023484 -0.00621,-0.043197 -0.018685,-0.059046 -0.012516,-0.015769 -0.032903,-0.023664 -0.061227,-0.023664 h -0.1932533 v 0.1665031 z m -0.347069,-0.3118805 h 0.3450498 c 0.084988,0 0.1465338,0.02119 0.1846507,0.063584 0.038089,0.042379 0.057148,0.097233 0.057148,0.1645026 0,0.041732 -0.01148,0.082468 -0.034369,0.1221456 -0.022931,0.03976 -0.054313,0.067583 -0.094116,0.083766 l 0.1325592,0.2725352 h -0.1720037 l -0.128499,-0.2492756 h -0.1366037 v 0.2492756 h -0.1538157 v -0.7065337"
         style="fill:#509bd4;fill-opacity:1;fill-rule:nonzero;stroke:none;stroke-width:0.00496482"
         id="path244334"
         inkscape:connector-curvature="0" />
      <path
         d="m -0.84573181,-8.1568254 v -0.7065337 h 0.14831802 v 0.7065337 h -0.14831802"
         style="fill:#509bd4;fill-opacity:1;fill-rule:nonzero;stroke:none;stroke-width:0.00496482"
         id="path244336"
         inkscape:connector-curvature="0"
         sodipodi:nodetypes="ccccc" />
      <path
         d="m -0.50424041,-8.198447 c -0.0495686,-0.03672 -0.0851961,-0.087311 -0.10675754,-0.1519415 l 0.13758562,-0.051502 c 0.0162235,0.034339 0.0374667,0.061764 0.0637726,0.082295 0.0263198,0.020536 0.0553084,0.030803 0.0870075,0.030803 0.0330544,0 0.0590287,-0.00624 0.0779209,-0.018731 0.0188643,-0.01239 0.0283244,-0.030395 0.0283244,-0.05396 0,-0.022169 -0.0106082,-0.039344 -0.0318654,-0.051496 -0.0212433,-0.012072 -0.0554876,-0.025548 -0.10270516,-0.040325 -0.04925,-0.016184 -0.089013,-0.031455 -0.11939845,-0.045915 -0.0303438,-0.014457 -0.0566497,-0.035894 -0.0789306,-0.06416 -0.0222391,-0.028244 -0.033387,-0.065201 -0.033387,-0.1109587 0,-0.037028 0.009789,-0.070633 0.029348,-0.1009459 0.0195564,-0.030296 0.048047,-0.054352 0.0855138,-0.072179 0.0374249,-0.017822 0.0817656,-0.026709 0.13303534,-0.026709 0.0633992,0 0.11670164,0.016513 0.15985266,0.049444 0.0431925,0.032942 0.0718495,0.075327 0.08601168,0.1271576 l -0.13758562,0.044432 c -0.0222948,-0.050516 -0.0610611,-0.075735 -0.1163558,-0.075735 -0.0276612,0 -0.0489184,0.00494 -0.0637308,0.014625 -0.0148682,0.00978 -0.0222809,0.024057 -0.0222809,0.042956 0,0.016102 0.009271,0.029084 0.0278404,0.038849 0.0185188,0.00978 0.0494023,0.022008 0.092553,0.036812 0.0499281,0.016166 0.0912257,0.032101 0.12396257,0.047951 0.0326819,0.015768 0.0612274,0.038863 0.08549984,0.069155 0.02424459,0.030228 0.03640223,0.069572 0.03640223,0.1180235 0,0.044438 -0.01161792,0.083135 -0.03490854,0.1160619 -0.02326273,0.033018 -0.05479653,0.058082 -0.09457251,0.075246 -0.0398178,0.017158 -0.0846843,0.025699 -0.1345844,0.025699 -0.0688064,0 -0.12800101,-0.018322 -0.17756943,-0.054951"
         style="fill:#509bd4;fill-opacity:1;fill-rule:nonzero;stroke:none;stroke-width:0.00496482"
         id="path244338"
         inkscape:connector-curvature="0" />
    </g>
    <rect
       y="-3.7604172"
       x="-3.8385437"
       height="0.72916764"
       width="3.0937538"
       id="rect244687"
       style="opacity:1;fill:none;fill-opacity:1;stroke:none;stroke-width:0.01041668;stroke-linecap:square;stroke-linejoin:bevel;stroke-miterlimit:4;stroke-dasharray:none;stroke-dashoffset:0;stroke-opacity:1"
       inkscape:export-filename="/home/duffy/Repositories/ChRIS_store_ui/src/assets/img/chris_logo-white.png"
       inkscape:export-xdpi="96"
       inkscape:export-ydpi="96" />
    <path
       style="fill:url(#linearGradient243972);fill-opacity:1;fill-rule:nonzero;stroke:none;stroke-width:0.00208658"
       d="m -3.4802575,-3.7143874 0.029312,0.092918 c 4.132e-4,-1.81e-5 8.051e-4,-1.223e-4 0.00122,-1.223e-4 0.01536,0 0.027814,0.012454 0.027814,0.027814 0,0.00104 -1.926e-4,0.00205 -3.055e-4,0.00306 l 0.1363508,0.053091 c 0.00505,-0.00703 0.013235,-0.011644 0.022558,-0.011644 0.00331,0 0.00645,6.515e-4 0.00938,0.00172 l 0.063361,-0.090655 z m -0.014332,4.586e-4 -0.2031366,0.073448 0.1147414,0.083626 c 0.00927,-0.00959 0.022179,-0.015558 0.036557,-0.015558 0.014213,0 0.027041,0.00583 0.036281,0.015222 l 0.034722,-0.025981 c -0.00134,-0.00327 -0.00213,-0.00685 -0.00213,-0.010606 0,-0.010061 0.00541,-0.018805 0.013416,-0.023687 z m -0.2166769,0.080692 -0.076322,0.09353 0.087294,0.034752 c 0.00507,-0.00693 0.013191,-0.011493 0.022434,-0.011493 0.010577,0 0.019642,0.00598 0.02436,0.014648 l 0.056669,-0.014213 c -1.949e-4,-0.0018 -5.499e-4,-0.00358 -5.499e-4,-0.00543 0,-0.0088 0.00243,-0.01695 0.00635,-0.024176 z m 0.5274336,0.00954 -0.058656,0.083931 c 0.00378,0.00429 0.00618,0.00974 0.00677,0.015741 l 0.046062,0.00747 c 0.00301,-0.00685 0.0087,-0.012184 0.015741,-0.014828 z m 0.014542,0.00617 0.00908,0.084726 c 0.013251,0.00193 0.023445,0.01307 0.023749,0.026774 l 0.060457,0.014062 z m -0.2577264,0.039704 -3.04e-5,3.07e-5 c -0.00349,0.00498 -0.00862,0.00868 -0.014572,0.010517 l 0.00278,0.073998 c 0.01253,0.0027 0.021946,0.013836 0.021946,0.027173 0,0.00352 -7.295e-4,0.00685 -0.00193,0.00996 l 0.048966,0.034874 c 0.00483,-0.00409 0.011013,-0.0067 0.017849,-0.0067 0.00363,0 0.00711,7.545e-4 0.010277,0.00201 l 0.056852,-0.078155 c -0.00385,-0.00479 -0.00623,-0.010771 -0.00623,-0.017361 0,-0.00113 2.069e-4,-0.00218 3.363e-4,-0.00327 z m -0.04007,0.00562 -0.034967,0.026163 c 0.00405,0.00731 0.00657,0.01562 0.00657,0.024573 0,0.0063 -0.00129,0.012304 -0.0034,0.017882 l 0.033897,0.018493 c 0.00333,-0.00358 0.00757,-0.00617 0.012379,-0.00762 l -0.00278,-0.073814 c -0.0044,-9.013e-4 -0.00831,-0.00296 -0.011703,-0.00569 z m -0.3198346,0.047589 0.053398,0.1390102 0.06104,0.053672 -0.010143,-0.1293517 c -0.013086,-0.00226 -0.023046,-0.013596 -0.023046,-0.027325 0,-0.0012 1.892e-4,-0.00236 3.363e-4,-0.00352 z m 0.5491044,0.014213 c -0.00428,0.00984 -0.014078,0.016749 -0.025492,0.016749 -0.00378,0 -0.00733,-7.549e-4 -0.010606,-0.0021 l -0.056729,0.077971 c 0.00398,0.00482 0.00647,0.010907 0.00647,0.017636 0,0.00352 -7.291e-4,0.00688 -0.00193,0.00999 l 0.080876,0.057555 c 0.00483,-0.0041 0.011013,-0.00667 0.01785,-0.00667 0.00493,0 0.0095,0.00138 0.013536,0.00363 l 0.040957,-0.042425 c -0.00262,-0.00423 -0.00421,-0.00914 -0.00421,-0.014483 0,-0.011688 0.00725,-0.02168 0.017453,-0.025797 l -0.00792,-0.059601 c -0.012951,-0.00157 -0.023056,-0.011899 -0.024238,-0.024972 z m -0.3558712,0.00781 -0.056362,0.014152 c -6.62e-5,0.012125 -0.00795,0.022301 -0.01883,0.026041 l 0.010546,0.1345781 0.082037,-0.1525203 c -0.00772,-0.00562 -0.013808,-0.013267 -0.017392,-0.022251 z m 0.4540161,0.00999 c -0.00305,0.00585 -0.00803,0.010471 -0.014183,0.012965 l 0.00789,0.059632 c 0.00404,4.808e-4 0.00783,0.00176 0.011133,0.00378 l 0.062262,-0.060793 -0.067061,-0.015589 z m -0.3658046,0.00119 c -0.00927,0.012619 -0.024098,0.020906 -0.040958,0.020906 -0.00625,0 -0.012169,-0.00127 -0.017698,-0.00333 l -0.085704,0.1593062 0.091757,0.05086 0.090749,-0.014707 c 0.00127,-0.011012 0.00889,-0.019984 0.019164,-0.023229 l -0.00287,-0.1374822 c -0.012304,-0.00287 -0.021456,-0.013882 -0.021456,-0.027049 0,-0.00236 3.639e-4,-0.00463 9.182e-4,-0.00681 z m 0.440445,0.026347 -0.060213,0.058715 c 0.00235,0.00409 0.00382,0.00878 0.00382,0.013821 0,0.012185 -0.00789,0.022392 -0.018798,0.026163 l 0.00574,0.07143 c 0.00529,0.00101 0.01001,0.00358 0.013761,0.00712 l 0.070605,-0.042242 z m -0.3618007,0.020082 c -0.00301,0.00254 -0.00654,0.00445 -0.010426,0.00553 l 0.00287,0.1369625 c 0.00122,2.42e-4 0.00236,6.745e-4 0.00352,0.00108 l 0.057677,-0.080876 c -0.00407,-0.00483 -0.00661,-0.011027 -0.00661,-0.01785 0,-0.00352 6.986e-4,-0.00685 0.0019,-0.00996 z m 0.092705,0.06602 c -0.00483,0.00409 -0.011013,0.00661 -0.017851,0.00661 -0.00353,0 -0.00688,-6.932e-4 -0.00999,-0.0019 l -0.05734,0.080386 c 0.00448,0.00495 0.0073,0.011448 0.0073,0.018646 0,0.00239 -4.15e-4,0.00467 -9.859e-4,0.00688 l 0.060609,0.033286 c 0.00509,-0.00542 0.012259,-0.00883 0.020265,-0.00883 0.00563,0 0.010861,0.00163 0.015251,0.00452 l 0.064951,-0.059265 c -0.00203,-0.00385 -0.00327,-0.00814 -0.00327,-0.012801 0,-0.00352 7.358e-4,-0.00683 0.00193,-0.00993 z m 0.171196,0.010517 -0.040928,0.042304 c 0.00267,0.00428 0.00428,0.0093 0.00428,0.014708 0,0.00203 -2.32e-4,0.00401 -6.418e-4,0.00591 l 0.03949,0.019715 c 0.00328,-0.00378 0.00756,-0.00662 0.012439,-0.00818 l -0.00572,-0.071186 c -0.00322,-5.558e-4 -0.00618,-0.00171 -0.00893,-0.00325 z m -0.043496,0.075161 c -0.0051,0.00588 -0.012544,0.0097 -0.020937,0.0097 -0.0057,0 -0.010982,-0.00174 -0.015406,-0.00467 l -0.064859,0.059204 c 0.00207,0.0039 0.00333,0.00828 0.00333,0.012996 0,0.00398 -8.512e-4,0.00774 -0.00236,0.011162 l 0.066144,0.038298 0.093742,-0.038879 -3.361e-4,-0.035425 c -0.011794,-0.00323 -0.020508,-0.013897 -0.020508,-0.026715 0,-0.00203 2.319e-4,-0.00401 6.417e-4,-0.00591 z m -0.2131619,0.037045 c -0.00101,0.00109 -0.00211,0.00207 -0.0033,0.00298 l 0.063177,0.157258 h 0.072835 l -0.039642,-0.092856 c -0.0018,3.707e-4 -0.00366,5.808e-4 -0.00559,5.808e-4 -0.015359,0 -0.027814,-0.012453 -0.027814,-0.027814 0,-0.00239 3.831e-4,-0.00467 9.454e-4,-0.00688 z"
       id="path243834"
       inkscape:connector-curvature="0" />
  </g>
</svg>
