<?xml version="1.0" encoding="UTF-8" standalone="no"?>
<!-- Created with Inkscape (http://www.inkscape.org/) -->

<svg
   xmlns:dc="http://purl.org/dc/elements/1.1/"
   xmlns:cc="http://creativecommons.org/ns#"
   xmlns:rdf="http://www.w3.org/1999/02/22-rdf-syntax-ns#"
   xmlns:svg="http://www.w3.org/2000/svg"
   xmlns="http://www.w3.org/2000/svg"
   xmlns:sodipodi="http://sodipodi.sourceforge.net/DTD/sodipodi-0.dtd"
   xmlns:inkscape="http://www.inkscape.org/namespaces/inkscape"
   width="297.00037"
   height="70.000092"
   viewBox="0 0 3.0937538 0.72916762"
   version="1.1"
   id="svg80330"
   sodipodi:docname="ChRISstorelogo-white.svg"
   inkscape:version="0.92.2 2405546, 2018-03-11">
  <defs
     id="defs80323" />
  <sodipodi:namedview
     inkscape:document-units="px"
     pagecolor="#ffffff"
     bordercolor="#666666"
     borderopacity="1.0"
     inkscape:pageopacity="0.0"
     inkscape:pageshadow="2"
     inkscape:zoom="1"
     inkscape:cx="585.50019"
     inkscape:cy="-101.99996"
     inkscape:current-layer="layer1"
     id="namedview80325"
     showgrid="false"
     inkscape:window-width="2560"
     inkscape:window-height="1376"
     inkscape:window-x="2560"
     inkscape:window-y="27"
     inkscape:window-maximized="1"
     units="px"
     width="1080px"
     inkscape:pagecheckerboard="false"
     objecttolerance="2"
     inkscape:snap-path-clip="false"
     inkscape:snap-path-mask="false"
     gridtolerance="2"
     guidetolerance="10"
     inkscape:snap-perpendicular="true"
     inkscape:snap-tangential="true"
     fit-margin-top="0"
     fit-margin-left="0"
     fit-margin-right="0"
     fit-margin-bottom="0" />
  <metadata
     id="metadata80327">
    <rdf:RDF>
      <cc:Work
         rdf:about="">
        <dc:format>image/svg+xml</dc:format>
        <dc:type
           rdf:resource="http://purl.org/dc/dcmitype/StillImage" />
        <dc:title></dc:title>
        <dc:creator>
          <cc:Agent>
            <dc:title>Máirín Duffy &lt;duffy@redhat.com&gt;</dc:title>
          </cc:Agent>
        </dc:creator>
      </cc:Work>
    </rdf:RDF>
  </metadata>
  <g
     inkscape:label="Layer 1"
     inkscape:groupmode="layer"
     id="layer1"
     transform="translate(3.8385437,3.7604172)">
    <text
       xml:space="preserve"
       style="font-style:normal;font-weight:normal;font-size:0.21965457px;line-height:0.161975px;font-family:Sans;letter-spacing:0px;word-spacing:0px;fill:#ffffff;fill-opacity:1;stroke:none;stroke-width:0.01041669px;stroke-linecap:butt;stroke-linejoin:miter;stroke-opacity:1"
       x="-1.9896202"
       y="-3.3012021"
       id="text243897"><tspan
         id="tspan243895"
         sodipodi:role="line"
         x="-1.9896202"
         y="-3.3012021"
         style="font-style:normal;font-variant:normal;font-weight:normal;font-stretch:normal;font-size:0.21965457px;line-height:0.28926098px;font-family:Overpass;-inkscape-font-specification:Overpass;fill:#ffffff;stroke-width:0.01041669px">Plugin Store</tspan></text>
    <g
       id="g243847"
       transform="matrix(0.64618833,0,0,0.64618833,-5.2698084,-8.2270552)"
       style="stroke-width:1.54753649">
      <path
         inkscape:connector-curvature="0"
         id="path243835"
         d="m 2.7680123,6.9762568 -0.00277,0.00104 0.048604,0.1539511 c 6.187e-4,0 0.00121,-1.875e-4 0.00183,-1.875e-4 0.02315,0 0.041911,0.01878 0.041911,0.041931 0,0.00157 -3e-4,0.00305 -4.677e-4,0.00458 l 0.2054647,0.080017 c 0.00761,-0.010587 0.019964,-0.017557 0.033997,-0.017557 0.00499,0 0.00968,0.00103 0.01412,0.00262 l 0.1044719,-0.1494552 0.0085,0.00596 0.00631,-6.875e-4 -0.0014,-0.00197 z M 2.7457543,6.9845968 2.438137,7.099851 2.6148744,7.2286146 c 0.013954,-0.014409 0.033472,-0.023417 0.055115,-0.023417 0.021399,0 0.040747,0.00878 0.054667,0.022908 l 0.052287,-0.039103 c -0.00204,-0.00493 -0.00319,-0.010323 -0.00319,-0.015991 0,-0.015165 0.00814,-0.028346 0.020203,-0.035706 z m 0.4890341,0.1206667 0.01709,0.1595657 c 0.019966,0.00289 0.035344,0.019725 0.035807,0.040385 l 0.1060383,0.024658 z m -0.8178307,0.00484 -0.1243286,0.138774 0.1455485,0.057943 c 0.00762,-0.010433 0.019861,-0.017273 0.033773,-0.017273 0.015906,0 0.02956,0.00896 0.036662,0.022012 l 0.085083,-0.021321 c -2.916e-4,-0.00272 -4.677e-4,-0.00546 -4.677e-4,-0.00826 0,-0.013265 0.00338,-0.025755 0.0093,-0.036642 z M 3.216315,7.1278845 3.127895,7.25437 c 0.0057,0.00647 0.00937,0.014659 0.010213,0.023743 L 3.207485,7.289384 C 3.212015,7.279049 3.220605,7.270978 3.231228,7.267005 Z m -0.366414,0.069197 c -0.00529,0.0075 -0.012984,0.013047 -0.021952,0.015808 l 0.00419,0.1114907 c 0.018888,0.00407 0.033061,0.020826 0.033061,0.040934 0,0.00531 -0.00108,0.010356 -0.00289,0.015035 l 0.07373,0.05251 c 0.0073,-0.00616 0.016616,-0.01001 0.026917,-0.01001 0.00546,0 0.010639,0.00111 0.015421,0.00301 L 3.064031,7.3081023 c -0.00578,-0.00718 -0.00938,-0.016188 -0.00938,-0.026123 0,-0.00169 3.136e-4,-0.00331 5.083e-4,-0.00494 z m -0.060364,0.00844 -0.052429,0.039225 c 0.00613,0.011029 0.00964,0.023718 0.00964,0.037231 0,0.00953 -0.00181,0.018601 -0.00498,0.027018 l 0.050964,0.027792 c 0.00501,-0.00537 0.011396,-0.0093 0.018616,-0.011454 L 2.807178,7.2140463 c -0.00663,-0.00136 -0.012555,-0.00443 -0.017639,-0.00852 z m -0.497335,0.043823 -0.00519,0.0058 0.00142,0.00368 z m 0.0011,0.022196 0.085205,0.221823 0.1033936,0.098002 -0.017151,-0.2187094 c -0.0197,-0.00343 -0.034709,-0.020517 -0.034709,-0.041199 0,-0.00181 3.073e-4,-0.00352 5.291e-4,-0.00527 z m 0.8416953,0.027141 c -0.00646,0.014829 -0.021204,0.025207 -0.038411,0.025207 -0.00567,0 -0.01106,-0.00116 -0.015991,-0.00319 l -0.085449,0.1174928 c 0.00599,0.00725 0.00972,0.016429 0.00972,0.026571 0,0.00532 -0.00108,0.01037 -0.00289,0.015055 l 0.1218261,0.08671 c 0.0073,-0.00617 0.016626,-0.01003 0.026937,-0.01003 0.00743,0 0.014312,0.0021 0.020366,0.00549 l 0.061706,-0.063884 c -0.00394,-0.00639 -0.00633,-0.013839 -0.00633,-0.021891 0,-0.017613 0.010897,-0.032632 0.026286,-0.038839 l -0.011902,-0.089803 c -0.019514,-0.00234 -0.034749,-0.017938 -0.03654,-0.037619 z m -0.5362549,0.01174 -0.0849,0.02126 c -9.37e-5,0.018288 -0.011958,0.03364 -0.028361,0.039266 l 0.01591,0.2027386 0.1235556,-0.2296553 c -0.011629,-0.00846 -0.02079,-0.020062 -0.026205,-0.033609 z m 0.6841432,0.015015 c -0.0046,0.00881 -0.012102,0.015808 -0.021383,0.019551 l 0.011902,0.089803 c 0.00607,7.292e-4 0.011734,0.00268 0.016724,0.00572 l 0.093811,-0.091552 z M 2.73186,7.3272669 c -0.013969,0.019037 -0.036447,0.031453 -0.061869,0.031453 -0.00941,0 -0.018381,-0.00178 -0.026713,-0.00488 l -0.134238,0.2494723 -0.013774,-0.00741 -0.00789,6.458e-4 0.00549,0.00521 0.1656495,0.077128 0.1305135,-0.0224 c -9.37e-5,-0.00117 -3.458e-4,-0.0023 -3.458e-4,-0.0035 0,-0.018742 0.012383,-0.034415 0.029358,-0.039775 l -0.00431,-0.2071938 c -0.018532,-0.00434 -0.032369,-0.020883 -0.032369,-0.040731 0,-0.00356 5.698e-4,-0.00695 0.0014,-0.010253 z m 0.6738691,0.029479 -0.1011354,0.098633 c 0.00355,0.00616 0.00574,0.013196 0.00574,0.020812 0,0.018361 -0.011882,0.033779 -0.02832,0.039449 l 0.00865,0.1076052 c 0.011613,0.00224 0.021447,0.00931 0.027507,0.018982 l 0.1138102,-0.07076 z m -0.5555422,0.040467 c -0.00453,0.00382 -0.00982,0.00668 -0.015686,0.00832 l 0.00431,0.2064011 c 0.00184,3.646e-4 0.00355,9.896e-4 0.00529,0.00159 l 0.086934,-0.1218875 c -0.00615,-0.00729 -0.00999,-0.016589 -0.00999,-0.026875 0,-0.00531 0.00109,-0.010341 0.00289,-0.015015 z m 0.1396688,0.099467 c -0.0073,0.00615 -0.016604,0.01001 -0.026896,0.01001 -0.00532,0 -0.01037,-0.0011 -0.015055,-0.00291 l -0.086406,0.1211344 c 0.00678,0.00744 0.011027,0.017237 0.011027,0.028096 0,0.00359 -5.958e-4,0.00701 -0.00144,0.010336 l 0.091329,0.05013 c 0.00765,-0.00815 0.018441,-0.013326 0.030497,-0.013326 0.00849,0 0.016368,0.00256 0.02297,0.0069 l 0.09788,-0.089315 c -0.00304,-0.00581 -0.00492,-0.012315 -0.00492,-0.019328 0,-0.00529 0.0011,-0.010309 0.00289,-0.014973 z m 0.257955,0.015808 -0.061605,0.063781 c 0.00403,0.00644 0.00645,0.013984 0.00645,0.022136 0,0.00304 -3.604e-4,0.00599 -9.761e-4,0.00885 l 0.059469,0.029744 c 0.00496,-0.00571 0.011386,-0.00998 0.018758,-0.012349 l -0.00863,-0.1072386 c -0.00485,-8.333e-4 -0.00934,-0.00257 -0.013469,-0.00492 z m -0.065552,0.1132604 c -0.00769,0.00885 -0.018877,0.014568 -0.031515,0.014568 -0.00858,0 -0.016548,-0.00261 -0.023193,-0.00704 l -0.097799,0.089213 c 0.00313,0.00587 0.00507,0.012462 0.00507,0.019572 0,0.00784 -0.00229,0.015104 -0.00604,0.021382 l 0.095561,0.07129 0.1541952,-0.065654 V 7.7058508 C 3.257354,7.7037446 3.24075,7.6860779 3.24075,7.6643466 c 0,-0.00304 3.604e-4,-0.00599 9.761e-4,-0.00885 z m -0.3211466,0.055807 c -0.00416,0.00444 -0.0093,0.00789 -0.015015,0.010212 l 0.099426,0.2375699 H 3.0780506 L 3.012926,7.7786654 c -0.00597,0.00327 -0.012726,0.00531 -0.02002,0.00531 -0.023146,0 -0.041911,-0.018759 -0.041911,-0.04191 0,-0.0036 5.708e-4,-0.00704 0.00142,-0.010376 z"
         style="fill:#ffffff;fill-opacity:1;fill-rule:nonzero;stroke:none;stroke-width:0.00214936" />
    </g>
    <g
       inkscape:export-ydpi="105.08642"
       inkscape:export-xdpi="105.08642"
       inkscape:export-filename="/home/duffy/Repositories/ChRIS_store_ui/src/assets/img/chris-plugin-store_logo.png"
       id="g244340"
       transform="matrix(0.27974619,0,0,0.27974619,-2.0815672,-0.99939305)"
       style="fill:#ffffff;stroke-width:3.57466865">
      <path
         d="m -2.6631705,-8.1974663 c -0.044549,-0.034651 -0.076743,-0.079422 -0.09663,-0.134287 -0.019925,-0.054784 -0.029849,-0.1138256 -0.029849,-0.177065 0,-0.058578 0.010129,-0.1155706 0.030341,-0.1710983 0.02026,-0.055528 0.052783,-0.1014355 0.097657,-0.1377361 0.044842,-0.036391 0.1016971,-0.054531 0.1704926,-0.054531 0.064058,0 0.1186946,0.0165 0.1638967,0.049444 0.045209,0.032996 0.077235,0.073004 0.096139,0.1201564 l -0.1376354,0.061515 c -0.019556,-0.028912 -0.038292,-0.050101 -0.056159,-0.063584 -0.01786,-0.013451 -0.03993,-0.020192 -0.066241,-0.020192 -0.04792,0 -0.082998,0.021754 -0.1052361,0.065125 -0.022274,0.043375 -0.033387,0.093713 -0.033387,0.1508999 0,0.035633 0.00506,0.06997 0.015154,0.1029131 0.010124,0.033002 0.025646,0.060027 0.046564,0.081298 0.020913,0.021189 0.046521,0.031789 0.076904,0.031789 0.02429,0 0.046031,-0.00797 0.065252,-0.023733 0.019227,-0.01585 0.037591,-0.038197 0.055127,-0.067104 l 0.1406449,0.052466 c -0.057311,0.1237897 -0.1443445,0.1857194 -0.261024,0.1857194 -0.070151,0 -0.1275101,-0.017326 -0.1720108,-0.051998"
         style="fill:#ffffff;fill-opacity:1;fill-rule:nonzero;stroke:none;stroke-width:0.00496482"
         id="path244330"
         inkscape:connector-curvature="0" />
      <path
         d="m -2.1452641,-8.862737 h 0.146733 v 0.2877974 c 0.033015,-0.039679 0.079909,-0.059559 0.1406436,-0.059559 0.047877,0 0.089709,0.015122 0.1254465,0.045418 0.035738,0.030306 0.053647,0.079432 0.053647,0.147349 v 0.2861639 H -1.8255271 V -8.383169 c 0,-0.038354 -0.00622,-0.06629 -0.018692,-0.083766 -0.012523,-0.01751 -0.033598,-0.026298 -0.063248,-0.026298 -0.060725,0 -0.091064,0.036063 -0.091064,0.1080216 v 0.2296444 h -0.146733 v -0.7071697"
         style="fill:#ffffff;fill-opacity:1;fill-rule:nonzero;stroke:none;stroke-width:0.00496482"
         id="path244332"
         inkscape:connector-curvature="0" />
      <path
         d="m -1.2386074,-8.5514787 c 0.028324,0 0.048711,-0.00773 0.061227,-0.023161 0.012475,-0.015537 0.018685,-0.035735 0.018685,-0.060632 0,-0.023484 -0.00621,-0.043197 -0.018685,-0.059046 -0.012516,-0.015769 -0.032903,-0.023664 -0.061227,-0.023664 h -0.1932533 v 0.1665031 z m -0.347069,-0.3118805 h 0.3450498 c 0.084988,0 0.1465338,0.02119 0.1846507,0.063584 0.038089,0.042379 0.057148,0.097233 0.057148,0.1645026 0,0.041732 -0.01148,0.082468 -0.034369,0.1221456 -0.022931,0.03976 -0.054313,0.067583 -0.094116,0.083766 l 0.1325592,0.2725352 h -0.1720037 l -0.128499,-0.2492756 h -0.1366037 v 0.2492756 h -0.1538157 v -0.7065337"
         style="fill:#ffffff;fill-opacity:1;fill-rule:nonzero;stroke:none;stroke-width:0.00496482"
         id="path244334"
         inkscape:connector-curvature="0" />
      <path
         d="m -0.84573181,-8.1568254 v -0.7065337 h 0.14831802 v 0.7065337 h -0.14831802"
         style="fill:#ffffff;fill-opacity:1;fill-rule:nonzero;stroke:none;stroke-width:0.00496482"
         id="path244336"
         inkscape:connector-curvature="0"
         sodipodi:nodetypes="ccccc" />
      <path
         d="m -0.50424041,-8.198447 c -0.0495686,-0.03672 -0.0851961,-0.087311 -0.10675754,-0.1519415 l 0.13758562,-0.051502 c 0.0162235,0.034339 0.0374667,0.061764 0.0637726,0.082295 0.0263198,0.020536 0.0553084,0.030803 0.0870075,0.030803 0.0330544,0 0.0590287,-0.00624 0.0779209,-0.018731 0.0188643,-0.01239 0.0283244,-0.030395 0.0283244,-0.05396 0,-0.022169 -0.0106082,-0.039344 -0.0318654,-0.051496 -0.0212433,-0.012072 -0.0554876,-0.025548 -0.10270516,-0.040325 -0.04925,-0.016184 -0.089013,-0.031455 -0.11939845,-0.045915 -0.0303438,-0.014457 -0.0566497,-0.035894 -0.0789306,-0.06416 -0.0222391,-0.028244 -0.033387,-0.065201 -0.033387,-0.1109587 0,-0.037028 0.009789,-0.070633 0.029348,-0.1009459 0.0195564,-0.030296 0.048047,-0.054352 0.0855138,-0.072179 0.0374249,-0.017822 0.0817656,-0.026709 0.13303534,-0.026709 0.0633992,0 0.11670164,0.016513 0.15985266,0.049444 0.0431925,0.032942 0.0718495,0.075327 0.08601168,0.1271576 l -0.13758562,0.044432 c -0.0222948,-0.050516 -0.0610611,-0.075735 -0.1163558,-0.075735 -0.0276612,0 -0.0489184,0.00494 -0.0637308,0.014625 -0.0148682,0.00978 -0.0222809,0.024057 -0.0222809,0.042956 0,0.016102 0.009271,0.029084 0.0278404,0.038849 0.0185188,0.00978 0.0494023,0.022008 0.092553,0.036812 0.0499281,0.016166 0.0912257,0.032101 0.12396257,0.047951 0.0326819,0.015768 0.0612274,0.038863 0.08549984,0.069155 0.02424459,0.030228 0.03640223,0.069572 0.03640223,0.1180235 0,0.044438 -0.01161792,0.083135 -0.03490854,0.1160619 -0.02326273,0.033018 -0.05479653,0.058082 -0.09457251,0.075246 -0.0398178,0.017158 -0.0846843,0.025699 -0.1345844,0.025699 -0.0688064,0 -0.12800101,-0.018322 -0.17756943,-0.054951"
         style="fill:#ffffff;fill-opacity:1;fill-rule:nonzero;stroke:none;stroke-width:0.00496482"
         id="path244338"
         inkscape:connector-curvature="0" />
    </g>
    <rect
       y="-3.7604172"
       x="-3.8385437"
       height="0.72916764"
       width="3.0937538"
       id="rect244687"
       style="opacity:1;fill:none;fill-opacity:1;stroke:none;stroke-width:0.01041668;stroke-linecap:square;stroke-linejoin:bevel;stroke-miterlimit:4;stroke-dasharray:none;stroke-dashoffset:0;stroke-opacity:1"
       inkscape:export-filename="/home/duffy/Repositories/ChRIS_store_ui/src/assets/img/chris_logo-white.png"
       inkscape:export-xdpi="96"
       inkscape:export-ydpi="96" />
  </g>
</svg>
