<?xml version="1.0" encoding="UTF-8" standalone="no"?>
<!-- Created with Inkscape (http://www.inkscape.org/) -->

<svg
   xmlns:dc="http://purl.org/dc/elements/1.1/"
   xmlns:cc="http://creativecommons.org/ns#"
   xmlns:rdf="http://www.w3.org/1999/02/22-rdf-syntax-ns#"
   xmlns:svg="http://www.w3.org/2000/svg"
   xmlns="http://www.w3.org/2000/svg"
   xmlns:sodipodi="http://sodipodi.sourceforge.net/DTD/sodipodi-0.dtd"
   xmlns:inkscape="http://www.inkscape.org/namespaces/inkscape"
   width="1640"
   height="856"
   viewBox="0 0 433.91667 226.48333"
   version="1.1"
   id="svg23659"
   inkscape:version="1.0 (4035a4fb49, 2020-05-01)"
   sodipodi:docname="MDLA.svg"
   inkscape:export-filename="/home/duffy/Cáipéisí/Personal/MDLA/mdla.png"
   inkscape:export-xdpi="95.894516"
   inkscape:export-ydpi="95.894516">
  <defs
     id="defs23653" />
  <sodipodi:namedview
     id="base"
     pagecolor="#ffffff"
     bordercolor="#666666"
     borderopacity="1.0"
     inkscape:pageopacity="0.0"
     inkscape:pageshadow="2"
     inkscape:zoom="0.7"
     inkscape:cx="779.99671"
     inkscape:cy="142.00023"
     inkscape:document-units="px"
     inkscape:current-layer="layer1"
     inkscape:document-rotation="0"
     showgrid="false"
     fit-margin-top="0"
     fit-margin-left="0"
     fit-margin-right="0"
     fit-margin-bottom="0"
     inkscape:window-width="2560"
     inkscape:window-height="1369"
     inkscape:window-x="0"
     inkscape:window-y="34"
     inkscape:window-maximized="1"
     units="px" />
  <metadata
     id="metadata23656">
    <rdf:RDF>
      <cc:Work
         rdf:about="">
        <dc:format>image/svg+xml</dc:format>
        <dc:type
           rdf:resource="http://purl.org/dc/dcmitype/StillImage" />
        <dc:title></dc:title>
      </cc:Work>
    </rdf:RDF>
  </metadata>
  <g
     inkscape:label="Layer 1"
     inkscape:groupmode="layer"
     id="layer1"
     transform="translate(-54.93341,40.079108)">
    <rect
       style="fill:#bfbfbf;stroke:none;stroke-width:2.25558;stroke-linecap:square"
       id="rect24400"
       width="773.35895"
       height="367.92883"
       x="-12.460516"
       y="-110.84279" />
    <rect
       style="fill:#b31b1b;stroke:none;stroke-width:1.32426;stroke-linecap:square;fill-opacity:1"
       id="rect24393"
       width="433.47815"
       height="226.25771"
       x="55.51326"
       y="-39.779148" />
    <path
       id="rect24395"
       style="fill:#ffffff;stroke:none;stroke-width:0.913297;stroke-linecap:square"
       d="M 54.776886,-40.515522 H 258.83681 V 92.84358 L 156.80685,135.17691 54.776886,92.84358 Z"
       sodipodi:nodetypes="cccccc" />
    <g
       id="g24391"
       transform="translate(42.70433,-87.793351)">
      <path
         id="path2507"
         d="M 60.655406,154.82188 H 169.44163"
         style="fill:none;stroke:#b31b1b;stroke-width:1.7813;stroke-linecap:butt;stroke-linejoin:miter;stroke-miterlimit:4;stroke-dasharray:none;stroke-opacity:1" />
      <path
         id="rect1521"
         style="fill:#ffffff;fill-opacity:1;stroke:#b31b1b;stroke-width:4.44709;stroke-linecap:square;stroke-linejoin:miter;stroke-miterlimit:4;stroke-dasharray:none;stroke-opacity:1"
         d="M 86.408296,96.324689 H 141.33462 V 145.95933 L 113.87147,162.94269 86.408296,145.95933 Z"
         sodipodi:nodetypes="cccccc" />
      <path
         sodipodi:nodetypes="cccccccccccccccccccccccccccc"
         d="m 96.245636,106.09023 v 7.16317 h 2.1146 v 17.08049 l -1.97585,-0.006 v 6.90988 h 12.636044 v -6.87424 l -2.0486,-0.006 v -8.35831 l 7.0126,11.67943 6.64755,-11.18123 v 7.8359 l -1.97585,-0.006 v 6.90986 h 12.63603 v -6.87426 l -2.04859,-0.006 v -17.10414 h 1.95728 v -7.16318 h -1.95728 -8.61159 v 0.24581 l -6.7591,11.70718 -6.90105,-11.953 h -0.15731 z"
         style="fill:#b31b1b;fill-opacity:1;stroke:none;stroke-width:0.0959988px;stroke-linecap:butt;stroke-linejoin:miter;stroke-opacity:1"
         id="path1524" />
      <text
         id="text2468"
         y="165.05882"
         x="128.66331"
         style="font-size:7.10496px;line-height:1.25;font-family:sans-serif;word-spacing:0px;fill:#b31b1b;fill-opacity:1;stroke-width:0.177625"
         xml:space="preserve"><tspan
           style="font-style:normal;font-variant:normal;font-weight:normal;font-stretch:normal;font-family:Montserrat;-inkscape-font-specification:Montserrat;fill:#b31b1b;fill-opacity:1;stroke-width:0.177625"
           y="165.05882"
           x="128.66331"
           id="tspan2466"
           sodipodi:role="line">LEARNING</tspan></text>
      <text
         xml:space="preserve"
         style="font-size:7.10496px;line-height:1.25;font-family:sans-serif;word-spacing:0px;fill:#b31b1b;fill-opacity:1;stroke-width:0.177625"
         x="61.459156"
         y="165.588"
         id="text2511"><tspan
           sodipodi:role="line"
           id="tspan2509"
           x="61.459156"
           y="165.588"
           style="font-style:normal;font-variant:normal;font-weight:normal;font-stretch:normal;font-family:Montserrat;-inkscape-font-specification:Montserrat;fill:#b31b1b;fill-opacity:1;stroke-width:0.177625">DISTANCE</tspan></text>
      <path
         style="fill:none;stroke:#b31b1b;stroke-width:1.7813;stroke-linecap:butt;stroke-linejoin:miter;stroke-miterlimit:4;stroke-dasharray:none;stroke-opacity:1"
         d="M 60.655406,185.51357 H 169.44163"
         id="path2513" />
      <text
         xml:space="preserve"
         style="font-size:17.151px;line-height:1.25;font-family:sans-serif;letter-spacing:2.00621px;word-spacing:0px;fill:#b31b1b;fill-opacity:1;stroke-width:0.428776"
         x="61.819386"
         y="181.23869"
         id="text2521"><tspan
           sodipodi:role="line"
           id="tspan2519"
           x="61.819386"
           y="181.23869"
           style="font-style:normal;font-variant:normal;font-weight:900;font-stretch:normal;font-family:Montserrat;-inkscape-font-specification:'Montserrat Heavy';fill:#b31b1b;fill-opacity:1;stroke-width:0.428776">ACADEMY</tspan></text>
      <text
         id="text2699"
         y="146.05113"
         x="94.976913"
         style="font-size:7.60722px;line-height:1.25;font-family:sans-serif;word-spacing:0px;fill:#b31b1b;fill-opacity:1;stroke-width:0.190181"
         xml:space="preserve"><tspan
           style="font-style:normal;font-variant:normal;font-weight:normal;font-stretch:normal;font-family:Stafford-Serial;-inkscape-font-specification:Stafford-Serial;fill:#b31b1b;fill-opacity:1;stroke-width:0.190181"
           y="146.05113"
           x="94.976913"
           id="tspan2697"
           sodipodi:role="line">MELROSE</tspan></text>
      <rect
         style="fill:#b31b1b;fill-opacity:1;stroke:none;stroke-width:1.5875;stroke-linecap:square;stroke-linejoin:miter;stroke-miterlimit:4;stroke-dasharray:none;stroke-opacity:1"
         id="rect2709"
         width="30.605299"
         height="7.1345315"
         x="98.820358"
         y="86.007042" />
      <circle
         style="fill:#b31b1b;fill-opacity:1;stroke:none;stroke-width:1.89091;stroke-linecap:square;stroke-linejoin:miter;stroke-miterlimit:4;stroke-dasharray:none;stroke-opacity:1"
         id="path2701"
         cx="114.12297"
         cy="87.736259"
         r="6.8139415" />
      <circle
         r="3.6762822"
         cy="87.736259"
         cx="114.12297"
         id="circle2705"
         style="fill:#ffffff;fill-opacity:1;stroke:none;stroke-width:1.02019;stroke-linecap:square;stroke-linejoin:miter;stroke-miterlimit:4;stroke-dasharray:none;stroke-opacity:1" />
      <circle
         style="fill:#b31b1b;fill-opacity:1;stroke:none;stroke-width:0.343241;stroke-linecap:square;stroke-linejoin:miter;stroke-miterlimit:4;stroke-dasharray:none;stroke-opacity:1"
         id="circle2707"
         cx="113.06468"
         cy="-87.207085"
         r="1.2368774"
         transform="scale(1,-1)" />
      <circle
         r="1.2368774"
         cy="89.323753"
         cx="125.23546"
         id="circle2711"
         style="fill:#ffffff;fill-opacity:1;stroke:none;stroke-width:0.343241;stroke-linecap:square;stroke-linejoin:miter;stroke-miterlimit:4;stroke-dasharray:none;stroke-opacity:1" />
      <circle
         r="0.84608018"
         cy="-88.127037"
         cx="115.57213"
         id="circle2713"
         style="fill:#b31b1b;fill-opacity:1;stroke:none;stroke-width:0.234792;stroke-linecap:square;stroke-linejoin:miter;stroke-miterlimit:4;stroke-dasharray:none;stroke-opacity:1"
         transform="scale(1,-1)" />
      <g
         id="g22647"
         transform="matrix(0.66067165,0.08779232,-0.08779232,0.66067165,80.372056,24.898269)">
        <g
           transform="translate(2.1166667,-3.7041663)"
           style="fill:#b31b1b;fill-opacity:1"
           id="g2667">
          <g
             style="fill:#b31b1b;fill-opacity:1"
             transform="rotate(-59.325684,222.80764,62.628377)"
             id="g2558">
            <g
               style="fill:#b31b1b;fill-opacity:1"
               id="g2553"
               transform="translate(57.19283,-13.802091)">
              <path
                 d="m -66.159002,-60.061157 c 1.75304,1.33527 5.38332,2.14736 1.41943,3.65696 -1.5291,0.58238 -1.98316,2.58953 -0.59336,3.60511 4.21449,1.68933 7.03961,0.84827 7.39775,1.76564 0.51295,1.12198 -2.86808,2.35521 -1.82882,3.8536 1.00588,1.45007 3.94166,0.93777 5.70505,0.98588 1.89118,0.0516 4.96591,1.61385 4.17872,2.38273 -2.15392,2.10374 -5.11259,2.83126 0.70621,4.04368 2.48094,0.51687 4.11649,-0.10232 5.81618,3.35513 0.72999,1.48488 2.16513,2.46528 1.97779,4.971199 l 3.357802,-1.033557 c 1.28289,-1.336339 2.011378,-4.167452 1.011338,-3.587062 -0.5842,0.33907 -2.34337,1.66032 -2.34337,1.66032 0,0 -1.64689,-5.88455 -1.73814,-7.69493 -0.11305,-2.24282 -1.19018,-9.69053 -2.29574,-10.27642 -1.27048,-0.67331 -2.4621,6.35021 -3.12356,0.45904 -0.47824,-4.26021 -0.49405,-5.18498 -0.70788,-6.25411 -0.21382,-1.06909 -0.79914,-3.42138 -2.14841,-3.00757 -2.15117,0.65978 -2.0349,4.54638 -3.22136,4.826 -2.60181,-0.67666 -3.14388,-6.36376 -4.01002,-8.56891 -0.42116,-1.05509 -2.64224,-0.95142 -2.79633,1.37738 -0.17753,4.55613 -1.56176,1.18218 -4.08834,0.20252 -3.16167,-1.00218 -4.82664,0.95732 -2.67484,3.27744 z"
                 inkscape:connector-curvature="0"
                 style="fill:#b31b1b;fill-opacity:1;stroke:none;stroke-width:0.211667px"
                 sodipodi:nodetypes="csccsssssccscssssscccccc"
                 id="path2523" />
            </g>
          </g>
        </g>
        <g
           transform="matrix(0.41750451,0,0,0.41750451,35.66199,94.474379)"
           id="g22628">
          <path
             id="path22572"
             style="display:inline;fill:#b31b1b;fill-opacity:1;fill-rule:nonzero;stroke-width:0.264583"
             d="m -24.950931,216.5568 c -0.237403,-0.004 -0.479996,-0.003 -0.729155,0.004 -1.993269,0.0508 -4.775376,0.44344 -6.660575,0.61495 -1.489069,0.13547 -2.891385,0.52859 -3.916558,0.51883 0.0017,2.00061 0.344681,4.4239 1.173573,6.0172 1.341501,2.5787 5.436695,5.43143 7.230567,6.52467 1.793869,1.09319 1.81595,1.0516 3.5326,0.0346 1.71667,-1.01698 5.448863,-3.34459 6.767545,-6.13606 0.808289,-1.71105 1.243572,-4.61292 1.344621,-7.03161 -1.162055,0.10759 -2.83932,-0.19005 -4.172872,-0.23254 -1.507633,-0.048 -2.907931,-0.2884 -4.569746,-0.31368 z" />
          <g
             id="g22622"
             transform="translate(0,-10.583333)">
            <path
               transform="scale(0.26458333)"
               d="m -100.58594,817.70508 c -1.01989,0.0891 -1.90164,0.4797 -2.1582,1.2207 -0.3371,0.97365 -0.0897,3.99087 0.36719,6.81445 -1.07936,0.13638 -2.16878,0.27817 -3.4961,0.42383 -6.64709,0.72922 -17.17462,1.74385 -23.22851,3.95117 -6.05401,2.20736 -10.39661,6.1444 -13.09375,9.29297 -2.69719,3.14861 -3.48764,6.43671 -3.08985,9.59961 0.39776,3.16298 1.63456,8.07686 5.47657,9.37891 3.84196,1.30208 10.45096,-0.91818 17.57617,-1.56641 7.12516,-0.64822 17.64021,-2.13222 25.173826,-2.32422 7.533619,-0.192 13.51518,0.96438 20.027344,1.17188 6.512202,0.20749 15.208508,2.03855 19.046875,0.0742 3.838413,-1.96441 4.636627,-8.05149 3.984375,-11.86133 -0.652218,-3.80988 -2.028729,-7.97454 -7.898438,-10.99805 -5.869746,-3.02347 -19.99143,-6.02285 -27.320312,-7.14258 -3.661609,-0.55938 -6.161734,-0.63486 -8.576172,-0.48046 0.774509,-2.40531 1.356476,-4.80574 1.207031,-5.71485 -0.213543,-1.29952 -2.298234,-1.98839 -3.998049,-1.83984 z"
               style="display:inline;fill:#b31b1b;fill-opacity:1;fill-rule:nonzero;stroke-width:0.999999"
               id="path22574" />
            <path
               id="path22618"
               style="display:inline;fill:#b31b1b;fill-opacity:1;fill-rule:nonzero;stroke-width:0.264583"
               d="m -24.950931,227.14014 c -0.237403,-0.004 -0.479996,-0.003 -0.729155,0.004 -1.993269,0.0508 -4.775376,0.44344 -6.660575,0.61495 -1.489069,0.13547 -2.891385,0.52859 -3.916558,0.51883 0.0017,2.00061 0.344681,4.4239 1.173573,6.0172 1.341501,2.5787 5.436695,5.43143 7.230567,6.52467 1.793869,1.09319 1.81595,1.0516 3.5326,0.0346 1.71667,-1.01698 5.448863,-3.34459 6.767545,-6.13606 0.808289,-1.71105 1.243572,-4.61292 1.344621,-7.03161 -1.162055,0.10759 -2.83932,-0.19005 -4.172872,-0.23254 -1.507633,-0.048 -2.907931,-0.2884 -4.569746,-0.31368 z" />
          </g>
        </g>
      </g>
      <g
         transform="matrix(-0.66067165,0.08779232,0.08779232,0.66067165,147.36386,24.898269)"
         id="g22707">
        <g
           id="g22695"
           style="fill:#b31b1b;fill-opacity:1"
           transform="translate(2.1166667,-3.7041663)">
          <g
             id="g22693"
             transform="rotate(-59.325684,222.80764,62.628377)"
             style="fill:#b31b1b;fill-opacity:1">
            <g
               transform="translate(57.19283,-13.802091)"
               id="g22691"
               style="fill:#b31b1b;fill-opacity:1">
              <path
                 id="path22689"
                 sodipodi:nodetypes="csccsssssccscssssscccccc"
                 style="fill:#b31b1b;fill-opacity:1;stroke:none;stroke-width:0.211667px"
                 inkscape:connector-curvature="0"
                 d="m -66.159002,-60.061157 c 1.75304,1.33527 5.38332,2.14736 1.41943,3.65696 -1.5291,0.58238 -1.98316,2.58953 -0.59336,3.60511 4.21449,1.68933 7.03961,0.84827 7.39775,1.76564 0.51295,1.12198 -2.86808,2.35521 -1.82882,3.8536 1.00588,1.45007 3.94166,0.93777 5.70505,0.98588 1.89118,0.0516 4.96591,1.61385 4.17872,2.38273 -2.15392,2.10374 -5.11259,2.83126 0.70621,4.04368 2.48094,0.51687 4.11649,-0.10232 5.81618,3.35513 0.72999,1.48488 2.16513,2.46528 1.97779,4.971199 l 3.357802,-1.033557 c 1.28289,-1.336339 2.011378,-4.167452 1.011338,-3.587062 -0.5842,0.33907 -2.34337,1.66032 -2.34337,1.66032 0,0 -1.64689,-5.88455 -1.73814,-7.69493 -0.11305,-2.24282 -1.19018,-9.69053 -2.29574,-10.27642 -1.27048,-0.67331 -2.4621,6.35021 -3.12356,0.45904 -0.47824,-4.26021 -0.49405,-5.18498 -0.70788,-6.25411 -0.21382,-1.06909 -0.79914,-3.42138 -2.14841,-3.00757 -2.15117,0.65978 -2.0349,4.54638 -3.22136,4.826 -2.60181,-0.67666 -3.14388,-6.36376 -4.01002,-8.56891 -0.42116,-1.05509 -2.64224,-0.95142 -2.79633,1.37738 -0.17753,4.55613 -1.56176,1.18218 -4.08834,0.20252 -3.16167,-1.00218 -4.82664,0.95732 -2.67484,3.27744 z" />
            </g>
          </g>
        </g>
        <g
           id="g22705"
           transform="matrix(0.41750451,0,0,0.41750451,35.66199,94.474379)">
          <path
             d="m -24.950931,216.5568 c -0.237403,-0.004 -0.479996,-0.003 -0.729155,0.004 -1.993269,0.0508 -4.775376,0.44344 -6.660575,0.61495 -1.489069,0.13547 -2.891385,0.52859 -3.916558,0.51883 0.0017,2.00061 0.344681,4.4239 1.173573,6.0172 1.341501,2.5787 5.436695,5.43143 7.230567,6.52467 1.793869,1.09319 1.81595,1.0516 3.5326,0.0346 1.71667,-1.01698 5.448863,-3.34459 6.767545,-6.13606 0.808289,-1.71105 1.243572,-4.61292 1.344621,-7.03161 -1.162055,0.10759 -2.83932,-0.19005 -4.172872,-0.23254 -1.507633,-0.048 -2.907931,-0.2884 -4.569746,-0.31368 z"
             style="display:inline;fill:#b31b1b;fill-opacity:1;fill-rule:nonzero;stroke-width:0.264583"
             id="path22697" />
          <g
             transform="translate(0,-10.583333)"
             id="g22703">
            <path
               id="path22699"
               style="display:inline;fill:#b31b1b;fill-opacity:1;fill-rule:nonzero;stroke-width:0.999999"
               d="m -100.58594,817.70508 c -1.01989,0.0891 -1.90164,0.4797 -2.1582,1.2207 -0.3371,0.97365 -0.0897,3.99087 0.36719,6.81445 -1.07936,0.13638 -2.16878,0.27817 -3.4961,0.42383 -6.64709,0.72922 -17.17462,1.74385 -23.22851,3.95117 -6.05401,2.20736 -10.39661,6.1444 -13.09375,9.29297 -2.69719,3.14861 -3.48764,6.43671 -3.08985,9.59961 0.39776,3.16298 1.63456,8.07686 5.47657,9.37891 3.84196,1.30208 10.45096,-0.91818 17.57617,-1.56641 7.12516,-0.64822 17.64021,-2.13222 25.173826,-2.32422 7.533619,-0.192 13.51518,0.96438 20.027344,1.17188 6.512202,0.20749 15.208508,2.03855 19.046875,0.0742 3.838413,-1.96441 4.636627,-8.05149 3.984375,-11.86133 -0.652218,-3.80988 -2.028729,-7.97454 -7.898438,-10.99805 -5.869746,-3.02347 -19.99143,-6.02285 -27.320312,-7.14258 -3.661609,-0.55938 -6.161734,-0.63486 -8.576172,-0.48046 0.774509,-2.40531 1.356476,-4.80574 1.207031,-5.71485 -0.213543,-1.29952 -2.298234,-1.98839 -3.998049,-1.83984 z"
               transform="scale(0.26458333)" />
            <path
               d="m -24.950931,227.14014 c -0.237403,-0.004 -0.479996,-0.003 -0.729155,0.004 -1.993269,0.0508 -4.775376,0.44344 -6.660575,0.61495 -1.489069,0.13547 -2.891385,0.52859 -3.916558,0.51883 0.0017,2.00061 0.344681,4.4239 1.173573,6.0172 1.341501,2.5787 5.436695,5.43143 7.230567,6.52467 1.793869,1.09319 1.81595,1.0516 3.5326,0.0346 1.71667,-1.01698 5.448863,-3.34459 6.767545,-6.13606 0.808289,-1.71105 1.243572,-4.61292 1.344621,-7.03161 -1.162055,0.10759 -2.83932,-0.19005 -4.172872,-0.23254 -1.507633,-0.048 -2.907931,-0.2884 -4.569746,-0.31368 z"
               style="display:inline;fill:#b31b1b;fill-opacity:1;fill-rule:nonzero;stroke-width:0.264583"
               id="path22701" />
          </g>
        </g>
      </g>
      <g
         id="g22860"
         transform="matrix(0.11901976,0,0,0.11901976,65.586176,52.006366)"
         style="fill:#b31b1b;fill-opacity:1">
        <path
           id="path22842"
           d="m 31.991352,334.075 c 2.774,0.013 5.573,0.038 8.359,0.23 8.397,0.882 16.82,1.508 25.243,2.007 3.374,0.256 6.748,0.486 10.135004,0.639 1.163,11.733 -1.01,23.428 -2.428004,35.046 -6.442,0.358 -12.934,0.064 -19.274,-1.15 -7.95,-1.483 -16.066,-0.997 -24.092,-1.38 -0.103,-11.824 -0.013,-23.723 2.057,-35.392 z"
           fill="#ed008c"
           style="fill:#b31b1b;fill-opacity:1" />
        <g
           id="g23511">
          <path
             style="fill:#b31b1b;fill-opacity:1;stroke-width:1.05077"
             fill="#231f20"
             d="m 765.91613,310.42804 c 2.92148,9.305 5.10872,18.763 7.88887,28.093 -11.79743,1.253 -23.65116,1.892 -35.50489,2.467 -25.82515,-121.707 -143.31245,-270.609 -350.05718,-263.969 -138.42236,6.716 -268.96026,101.584 -311.926723,263.853 -1.975253,-0.013 -3.951612,-0.051 -5.912511,-0.115 -9.299925,-0.498 -18.599849,-1.125 -27.871067,-2.007 0.168929,-2.518 0.366565,-5.036 0.874456,-7.515 21.91991,-89.131 76.434275,-169.862 158.263225,-224.718 207.55183,-138.236 491.01788,-35.458 564.24582,203.911 z"
             id="path22840" />
          <path
             style="fill:#b31b1b;fill-opacity:1"
             fill="#ed008c"
             d="m 773.805,334.075 c 2.326,-0.192 4.665,-0.268 7.03,-0.358 0.818,11.848 3.042,23.607 2.71,35.532 -6.506,0.166 -12.986,0.511 -19.414,1.431 -1.547,0.089 -3.093,0.179 -4.614,0.281 -6.774,0.447 -13.51,1.751 -20.322,0.933 -1.7,-11.644 -1.61,-23.453 -2.48,-35.174 1.623,-0.064 3.272,-0.128 4.933,-0.179 10.736,-0.575 21.472,-1.214 32.157,-2.466 z"
             id="path22844" />
          <path
             style="fill:#b31b1b;fill-opacity:1"
             fill="#231f20"
             d="m 40.197352,370.808 c 4.844,0.268 9.701,0.588 14.545,1.074 -8.18,31.812 -6.863,64.966 -6.544,97.507 4.857,0.204 9.726,0.268 14.583,0.243 -0.013,5.33 0,10.659 0.128,16.002 -15.465,7.975 -26.61,22.533 -32.771,38.573 -4,10.084 -6.672,20.693 -7.95,31.467 -0.422,2.786 -1.15,5.521 -1.866,8.257 -0.716,-31.429 -0.447,-62.87 -0.256,-94.286 4.448,-0.013 8.896,-0.102 13.343,-0.371 -0.051,-17.548 -0.665,-35.135 0.78,-52.645 0.844,-15.377 1.815,-30.931 6.008,-45.821 z"
             id="path22846" />
          <path
             style="fill:#b31b1b;fill-opacity:1"
             fill="#231f20"
             d="m 759.516,370.961 c 1.521,-0.102 3.067,-0.192 4.614,-0.281 3.004,0 6.007,0.268 9.036,0.422 7.49,32.208 6.084,65.516 6.429,98.351 4.589,0.141 9.202,0.204 13.804,0.204 -0.332,33.129 0.217,66.257 -0.23,99.373 -0.447,-1.457 -0.907,-2.914 -1.176,-4.384 -1.483,-16.155 -4.921,-32.349 -12.001,-47.022 -6.212,-13.356 -16.552,-24.91 -29.652,-31.787 -0.038,-5.419 0.089,-10.838 0.358,-16.245 4.678,0.038 9.369,-0.013 14.072,-0.166 0.524,-15.849 0.486,-31.723 0.115,-47.571 -1.189,-14.634 -1.227,-29.55 -5.406,-43.75 -0.32,-2.16 -1.789,-4.499 -0.588,-6.595 z"
             id="path22848" />
          <path
             style="fill:#b31b1b;fill-opacity:1"
             fill="#231f20"
             d="m 120.01536,464.647 c 6.212,-1.265 13.331,-0.703 18.43,3.4 2.978,2.365 2.799,6.518 3.004,9.957 -0.115,74.603 -0.038,149.207 -0.038,223.81 -0.179,3.323 -0.307,7.451 -3.528,9.407 -7.145,4.652 -17.012,4.818 -24.22,0.217 -2.441,-1.47 -3.195,-4.473 -3.349,-7.106 0.204,-76.7 0.128,-153.425 0.038,-230.124 -0.192,-5.459 4.87,-8.692 9.663,-9.561 z"
             id="path22850" />
          <path
             style="fill:#b31b1b;fill-opacity:1"
             fill="#231f20"
             d="m 681.883,464.57 c 6.212,-1.227 13.267,-0.447 18.29,3.694 1.802,1.393 2.224,3.758 2.288,5.918 -0.128,77.134 -0.013,154.294 -0.051,231.428 0.153,3.234 -2.403,5.624 -5.138,6.838 -7.03,3.489 -16.066,3.093 -22.533,-1.457 -2.927,-2.083 -3.093,-5.943 -3.119,-9.177 0.166,-70.322 0.026,-140.643 0.077,-210.965 0.128,-6.224 -0.511,-12.487 0.32,-18.66 0.817,-4.654 5.789,-6.66 9.866,-7.619 z"
             id="path22852" />
          <path
             style="fill:#b31b1b;fill-opacity:1"
             fill="#ed008c"
             d="m 64.110352,485.633 c 14.675004,-6.659 31.242004,-8.934 47.335008,-8.423 0.815,13.049 0.342,26.125 0.46,39.2 0,42.599 0,85.199 0,127.811 -0.223,18.75 0.552,37.525 -0.565,56.263 -10.918,1.38 -21.927004,-0.281 -32.595004,-2.48 -18.262004,-4.116 -33.817004,-16.552 -42.777004,-32.426 -10.826,-19.415 -14.688,-41.667 -15.949,-63.484 0.013,-11.056 -0.775,-22.214 1.209,-33.154 0.749,-4.397 0.723,-8.845 1.025,-13.267 1.314,-10.774 4.06,-21.383 8.172,-31.467 6.332,-16.04 17.788,-30.597 33.685,-38.573 z"
             id="path22854" />
          <path
             style="fill:#b31b1b;fill-opacity:1"
             fill="#ed008c"
             d="m 700.86,477.338 c 16.282,-0.153 33.383,1.035 48.054,8.499 13.535,6.876 24.218,18.43 30.636,31.787 7.316,14.673 10.868,30.866 12.4,47.022 0.357,11.605 1.941,23.185 1.083,34.829 -0.687,9.126 -1.453,18.251 -2.72,27.326 -3.05,14.404 -7.104,28.898 -14.962,41.628 -5.018,7.694 -11.753,14.251 -19.174,19.785 -10.709,7.758 -24.126,10.941 -37.225,12.232 -0.647,0.077 -1.928,0.23 -2.575,0.294 -5.269,0.409 -10.577,0.307 -15.833,-0.23 -1.136,-11.49 -0.449,-23.044 -0.621,-34.56 -0.013,-56.672 0.04,-113.33 -0.026,-169.989 -0.054,-6.225 0.501,-12.424 0.963,-18.623 z"
             id="path22856" />
        </g>
      </g>
    </g>
    <rect
       y="-39.958508"
       x="259.02499"
       height="226.16026"
       width="230.1458"
       id="rect24398"
       style="fill:#000000;stroke:none;stroke-width:0.964709;stroke-linecap:square" />
    <text
       xml:space="preserve"
       style="font-size:23.4705px;line-height:1.25;font-family:sans-serif;word-spacing:0px;fill:#ffffff;stroke-width:0.586762"
       x="101.36644"
       y="167.61215"
       id="text24404"><tspan
         sodipodi:role="line"
         id="tspan24402"
         x="101.36644"
         y="167.61215"
         style="font-style:normal;font-variant:normal;font-weight:normal;font-stretch:normal;font-family:Stafford-Serial;-inkscape-font-specification:Stafford-Serial;fill:#ffffff;stroke-width:0.586762">FAMILIES</tspan></text>
  </g>
</svg>
