<?xml version="1.0" encoding="UTF-8" standalone="no"?>
<svg
   xmlns:dc="http://purl.org/dc/elements/1.1/"
   xmlns:cc="http://creativecommons.org/ns#"
   xmlns:rdf="http://www.w3.org/1999/02/22-rdf-syntax-ns#"
   xmlns:svg="http://www.w3.org/2000/svg"
   xmlns="http://www.w3.org/2000/svg"
   xmlns:sodipodi="http://sodipodi.sourceforge.net/DTD/sodipodi-0.dtd"
   xmlns:inkscape="http://www.inkscape.org/namespaces/inkscape"
   inkscape:export-ydpi="96"
   inkscape:export-xdpi="96"
   inkscape:export-filename="/home/duffy/Cáipéisí/Personal/MDLA/mdla-logo.png"
   sodipodi:docname="MDLA-logo.svg"
   inkscape:version="1.0 (4035a4fb49, 2020-05-01)"
   id="svg2378"
   version="1.1"
   viewBox="0 0 123.16076 134.41383"
   height="508.02075"
   width="465.4895">
  <defs
     id="defs2372" />
  <sodipodi:namedview
     inkscape:window-maximized="1"
     inkscape:window-y="34"
     inkscape:window-x="1920"
     inkscape:window-height="1369"
     inkscape:window-width="2560"
     fit-margin-bottom="10"
     fit-margin-right="10"
     fit-margin-left="10"
     fit-margin-top="10"
     units="px"
     showgrid="false"
     inkscape:document-rotation="0"
     inkscape:current-layer="g24391"
     inkscape:document-units="mm"
     inkscape:cy="228.23101"
     inkscape:cx="218.83977"
     inkscape:zoom="2"
     inkscape:pageshadow="2"
     inkscape:pageopacity="0.0"
     borderopacity="1.0"
     bordercolor="#666666"
     pagecolor="#ffffff"
     id="base" />
  <metadata
     id="metadata2375">
    <rdf:RDF>
      <cc:Work
         rdf:about="">
        <dc:format>image/svg+xml</dc:format>
        <dc:type
           rdf:resource="http://purl.org/dc/dcmitype/StillImage" />
        <dc:title></dc:title>
      </cc:Work>
    </rdf:RDF>
  </metadata>
  <g
     transform="translate(-56.663227,-49.046545)"
     id="layer1"
     inkscape:groupmode="layer"
     inkscape:label="Layer 1">
    <g
       transform="translate(4.3756507,-5.5896842)"
       id="g24391">
      <path
         transform="matrix(0.26458333,0,0,0.26458333,52.287576,54.636229)"
         d="M 31.628906 375.28906 L 31.628906 382.02148 L 188.57031 382.02148 L 177.68359 375.28906 L 31.628906 375.28906 z M 287.83203 375.28906 L 276.94531 382.02148 L 442.78711 382.02148 L 442.78711 375.28906 L 287.83203 375.28906 z "
         style="color:#000000;font-style:normal;font-variant:normal;font-weight:normal;font-stretch:normal;font-size:medium;line-height:normal;font-family:sans-serif;font-variant-ligatures:normal;font-variant-position:normal;font-variant-caps:normal;font-variant-numeric:normal;font-variant-alternates:normal;font-variant-east-asian:normal;font-feature-settings:normal;font-variation-settings:normal;text-indent:0;text-align:start;text-decoration:none;text-decoration-line:none;text-decoration-style:solid;text-decoration-color:#000000;letter-spacing:normal;word-spacing:normal;text-transform:none;writing-mode:lr-tb;direction:ltr;text-orientation:mixed;dominant-baseline:auto;baseline-shift:baseline;text-anchor:start;white-space:normal;shape-padding:0;shape-margin:0;inline-size:0;clip-rule:nonzero;display:inline;overflow:visible;visibility:visible;opacity:1;isolation:auto;mix-blend-mode:normal;color-interpolation:sRGB;color-interpolation-filters:linearRGB;solid-color:#000000;solid-opacity:1;vector-effect:none;fill:#b31b1b;fill-opacity:1;fill-rule:nonzero;stroke:none;stroke-width:6.73247;stroke-linecap:butt;stroke-linejoin:miter;stroke-miterlimit:4;stroke-dasharray:none;stroke-dashoffset:0;stroke-opacity:1;color-rendering:auto;image-rendering:auto;shape-rendering:auto;text-rendering:auto;enable-background:accumulate;stop-color:#000000;stop-opacity:1"
         id="path3142" />
      <path
         sodipodi:nodetypes="cccccc"
         d="M 86.408296,96.324689 H 141.33462 V 145.95933 L 113.87147,162.94269 86.408296,145.95933 Z"
         style="fill:none;fill-opacity:1;stroke:#b31b1b;stroke-width:4.44709;stroke-linecap:square;stroke-linejoin:miter;stroke-miterlimit:4;stroke-dasharray:none;stroke-opacity:1"
         id="rect1521" />
      <path
         id="path1524"
         style="fill:#b31b1b;fill-opacity:1;stroke:none;stroke-width:0.0959988px;stroke-linecap:butt;stroke-linejoin:miter;stroke-opacity:1"
         d="m 96.245636,106.09023 v 7.16317 h 2.1146 v 17.08049 l -1.97585,-0.006 v 6.90988 h 12.636044 v -6.87424 l -2.0486,-0.006 v -8.35831 l 7.0126,11.67943 6.64755,-11.18123 v 7.8359 l -1.97585,-0.006 v 6.90986 h 12.63603 v -6.87426 l -2.04859,-0.006 v -17.10414 h 1.95728 v -7.16318 h -1.95728 -8.61159 v 0.24581 l -6.7591,11.70718 -6.90105,-11.953 h -0.15731 z"
         sodipodi:nodetypes="cccccccccccccccccccccccccccc" />
      <g
         style="font-size:7.10496px;line-height:1.25;font-family:sans-serif;word-spacing:0px;fill:#b31b1b;fill-opacity:1;stroke-width:0.177625"
         id="text2468"
         aria-label="LEARNING">
        <path
           id="path3106"
           style="font-style:normal;font-variant:normal;font-weight:normal;font-stretch:normal;font-family:Montserrat;-inkscape-font-specification:Montserrat;fill:#b31b1b;fill-opacity:1;stroke-width:0.177625"
           d="m 129.3525,165.05882 v -4.96636 h 0.83838 v 4.17061 h 2.26648 v 0.79575 z" />
        <path
           id="path3108"
           style="font-style:normal;font-variant:normal;font-weight:normal;font-stretch:normal;font-family:Montserrat;-inkscape-font-specification:Montserrat;fill:#b31b1b;fill-opacity:1;stroke-width:0.177625"
           d="m 136.86244,160.09246 v 0.78865 h -2.65015 v 1.31441 h 2.38016 v 0.74602 h -2.38016 v 1.32863 h 2.73541 v 0.78865 h -3.5738 v -4.96636 z" />
        <path
           id="path3110"
           style="font-style:normal;font-variant:normal;font-weight:normal;font-stretch:normal;font-family:Montserrat;-inkscape-font-specification:Montserrat;fill:#b31b1b;fill-opacity:1;stroke-width:0.177625"
           d="m 138.72393,163.92913 -0.49734,1.12969 h -0.89523 l 2.18833,-4.96636 h 0.89522 l 2.18833,4.96636 h -0.89522 l -0.49735,-1.12969 z m 2.1457,-0.77444 -0.90233,-2.04623 -0.90233,2.04623 z" />
        <path
           id="path3112"
           style="font-style:normal;font-variant:normal;font-weight:normal;font-stretch:normal;font-family:Montserrat;-inkscape-font-specification:Montserrat;fill:#b31b1b;fill-opacity:1;stroke-width:0.177625"
           d="m 147.25698,161.70528 q 0,1.22916 -1.07285,1.54888 l 1.30021,1.80466 h -1.06575 l -1.18652,-1.66966 h -1.10127 v 1.66966 h -0.83839 v -4.96636 h 1.84729 q 1.1368,0 1.62704,0.38366 0.49024,0.38367 0.49024,1.22916 z m -2.08175,0.92365 q 0.71049,0 0.96627,-0.22026 0.25578,-0.22025 0.25578,-0.70339 0,-0.49024 -0.26288,-0.66786 -0.26289,-0.18473 -0.93786,-0.18473 h -1.06574 v 1.77624 z" />
        <path
           id="path3114"
           style="font-style:normal;font-variant:normal;font-weight:normal;font-stretch:normal;font-family:Montserrat;-inkscape-font-specification:Montserrat;fill:#b31b1b;fill-opacity:1;stroke-width:0.177625"
           d="m 152.18781,160.09246 h 0.83839 v 4.96636 h -0.90943 l -2.81357,-3.62353 v 3.62353 h -0.83838 v -4.96636 h 0.83838 l 2.88461,3.70878 z" />
        <path
           id="path3116"
           style="font-style:normal;font-variant:normal;font-weight:normal;font-stretch:normal;font-family:Montserrat;-inkscape-font-specification:Montserrat;fill:#b31b1b;fill-opacity:1;stroke-width:0.177625"
           d="m 154.40455,160.09246 h 0.83839 v 4.96636 h -0.83839 z" />
        <path
           id="path3118"
           style="font-style:normal;font-variant:normal;font-weight:normal;font-stretch:normal;font-family:Montserrat;-inkscape-font-specification:Montserrat;fill:#b31b1b;fill-opacity:1;stroke-width:0.177625"
           d="m 160.34429,160.09246 h 0.83838 v 4.96636 h -0.90943 l -2.81357,-3.62353 v 3.62353 h -0.83838 v -4.96636 h 0.83838 l 2.88462,3.70878 z" />
        <path
           id="path3120"
           style="font-style:normal;font-variant:normal;font-weight:normal;font-stretch:normal;font-family:Montserrat;-inkscape-font-specification:Montserrat;fill:#b31b1b;fill-opacity:1;stroke-width:0.177625"
           d="m 165.99982,162.64314 h 0.83839 v 1.69808 q -0.70339,0.77444 -2.01071,0.77444 -1.10126,0 -1.84728,-0.7247 -0.73892,-0.72471 -0.73892,-1.83308 0,-1.10838 0.75313,-1.84729 0.76023,-0.73892 1.83307,-0.73892 1.07285,0 1.78335,0.62524 l -0.44761,0.63944 q -0.29131,-0.24867 -0.58971,-0.34103 -0.29131,-0.0995 -0.68208,-0.0995 -0.75313,0 -1.26468,0.49024 -0.51156,0.48314 -0.51156,1.27889 0,0.78865 0.49735,1.27179 0.49734,0.47603 1.20073,0.47603 0.7105,0 1.18653,-0.30551 z" />
      </g>
      <g
         style="font-size:7.10496px;line-height:1.25;font-family:sans-serif;word-spacing:0px;fill:#b31b1b;fill-opacity:1;stroke-width:0.177625"
         id="text2511"
         aria-label="DISTANCE">
        <path
           id="path3089"
           style="font-style:normal;font-variant:normal;font-weight:normal;font-stretch:normal;font-family:Montserrat;-inkscape-font-specification:Montserrat;fill:#b31b1b;fill-opacity:1;stroke-width:0.177625"
           d="m 63.853528,160.62163 q 1.335732,0 2.053333,0.65366 0.717601,0.64655 0.717601,1.80466 0,1.15811 -0.696286,1.83308 -0.696286,0.67497 -2.131488,0.67497 h -1.648351 v -4.96637 z m 1.925444,2.47963 q 0,-1.70519 -1.953864,-1.70519 h -0.838386 v 3.40328 h 0.93075 q 0.90233,0 1.378362,-0.4263 0.483138,-0.4334 0.483138,-1.27179 z" />
        <path
           id="path3091"
           style="font-style:normal;font-variant:normal;font-weight:normal;font-stretch:normal;font-family:Montserrat;-inkscape-font-specification:Montserrat;fill:#b31b1b;fill-opacity:1;stroke-width:0.177625"
           d="m 67.704413,160.62163 h 0.838385 v 4.96637 h -0.838385 z" />
        <path
           id="path3093"
           style="font-style:normal;font-variant:normal;font-weight:normal;font-stretch:normal;font-family:Montserrat;-inkscape-font-specification:Montserrat;fill:#b31b1b;fill-opacity:1;stroke-width:0.177625"
           d="m 71.420295,161.27529 q -0.362353,0 -0.596817,0.1492 -0.234463,0.14921 -0.234463,0.45472 0,0.29841 0.234463,0.46182 0.234464,0.15631 0.994695,0.34104 0.767336,0.18473 1.151003,0.51866 0.390773,0.33393 0.390773,0.98759 0,0.64655 -0.490242,1.05153 -0.490242,0.40499 -1.285998,0.40499 -1.165213,0 -2.067543,-0.80286 l 0.525767,-0.63234 q 0.753126,0.65365 1.563091,0.65365 0.404983,0 0.639446,-0.17052 0.241569,-0.17762 0.241569,-0.46182 0,-0.2913 -0.227359,-0.44761 -0.220253,-0.16342 -0.767335,-0.29131 -0.547082,-0.13499 -0.831281,-0.24156 -0.284198,-0.11368 -0.504452,-0.29131 -0.440507,-0.33393 -0.440507,-1.02311 0,-0.68918 0.497347,-1.05864 0.504452,-0.37656 1.243368,-0.37656 0.476032,0 0.94496,0.15631 0.468927,0.1563 0.809965,0.4405 L 72.763133,161.73 q -0.220254,-0.19893 -0.596817,-0.32682 -0.376563,-0.12789 -0.746021,-0.12789 z" />
        <path
           id="path3095"
           style="font-style:normal;font-variant:normal;font-weight:normal;font-stretch:normal;font-family:Montserrat;-inkscape-font-specification:Montserrat;fill:#b31b1b;fill-opacity:1;stroke-width:0.177625"
           d="m 76.272977,161.38897 v 4.19903 h -0.838386 v -4.19903 H 73.92834 v -0.76734 h 3.850888 v 0.76734 z" />
        <path
           id="path3097"
           style="font-style:normal;font-variant:normal;font-weight:normal;font-stretch:normal;font-family:Montserrat;-inkscape-font-specification:Montserrat;fill:#b31b1b;fill-opacity:1;stroke-width:0.177625"
           d="m 79.001266,164.45831 -0.497347,1.12969 h -0.895225 l 2.188328,-4.96637 h 0.895225 l 2.188327,4.96637 h -0.895225 l -0.497347,-1.12969 z m 2.145698,-0.77444 -0.90233,-2.04623 -0.90233,2.04623 z" />
        <path
           id="path3099"
           style="font-style:normal;font-variant:normal;font-weight:normal;font-stretch:normal;font-family:Montserrat;-inkscape-font-specification:Montserrat;fill:#b31b1b;fill-opacity:1;stroke-width:0.177625"
           d="m 87.292746,160.62163 h 0.838385 v 4.96637 h -0.909435 l -2.813564,-3.62353 v 3.62353 h -0.838385 v -4.96637 h 0.838385 l 2.884614,3.70879 z" />
        <path
           id="path3101"
           style="font-style:normal;font-variant:normal;font-weight:normal;font-stretch:normal;font-family:Montserrat;-inkscape-font-specification:Montserrat;fill:#b31b1b;fill-opacity:1;stroke-width:0.177625"
           d="m 91.775964,164.82777 q 0.433403,0 0.746021,-0.1421 0.312618,-0.14921 0.653657,-0.46893 l 0.539976,0.55419 q -0.78865,0.87391 -1.918339,0.87391 -1.122583,0 -1.868604,-0.72471 -0.738916,-0.7247 -0.738916,-1.83308 0,-1.10837 0.753126,-1.84729 0.76023,-0.73891 1.911234,-0.73891 1.158108,0 1.932549,0.85259 l -0.532872,0.58261 q -0.355248,-0.34104 -0.674971,-0.47603 -0.312618,-0.135 -0.738916,-0.135 -0.753126,0 -1.264683,0.49024 -0.511557,0.48314 -0.511557,1.24337 0,0.75313 0.504452,1.26468 0.511557,0.50446 1.207843,0.50446 z" />
        <path
           id="path3103"
           style="font-style:normal;font-variant:normal;font-weight:normal;font-stretch:normal;font-family:Montserrat;-inkscape-font-specification:Montserrat;fill:#b31b1b;fill-opacity:1;stroke-width:0.177625"
           d="m 98.227254,160.62163 v 0.78865 h -2.65015 v 1.31442 h 2.380162 v 0.74602 h -2.380162 v 1.32863 h 2.73541 v 0.78865 h -3.573795 v -4.96637 z" />
      </g>
      <path
         id="path3146"
         d="M 60.65625 184.62305 L 60.65625 186.4043 L 169.44141 186.4043 L 169.44141 184.62305 L 60.65625 184.62305 z "
         style="color:#000000;font-style:normal;font-variant:normal;font-weight:normal;font-stretch:normal;font-size:medium;line-height:normal;font-family:sans-serif;font-variant-ligatures:normal;font-variant-position:normal;font-variant-caps:normal;font-variant-numeric:normal;font-variant-alternates:normal;font-variant-east-asian:normal;font-feature-settings:normal;font-variation-settings:normal;text-indent:0;text-align:start;text-decoration:none;text-decoration-line:none;text-decoration-style:solid;text-decoration-color:#000000;letter-spacing:normal;word-spacing:normal;text-transform:none;writing-mode:lr-tb;direction:ltr;text-orientation:mixed;dominant-baseline:auto;baseline-shift:baseline;text-anchor:start;white-space:normal;shape-padding:0;shape-margin:0;inline-size:0;clip-rule:nonzero;display:inline;overflow:visible;visibility:visible;isolation:auto;mix-blend-mode:normal;color-interpolation:sRGB;color-interpolation-filters:linearRGB;solid-color:#000000;solid-opacity:1;vector-effect:none;fill:#b31b1b;fill-opacity:1;fill-rule:nonzero;stroke:none;stroke-width:1.7813;stroke-linecap:butt;stroke-linejoin:miter;stroke-miterlimit:4;stroke-dasharray:none;stroke-dashoffset:0;stroke-opacity:1;color-rendering:auto;image-rendering:auto;shape-rendering:auto;text-rendering:auto;enable-background:accumulate;stop-color:#000000;stop-opacity:1;opacity:1" />
      <g
         style="font-size:17.151px;line-height:1.25;font-family:sans-serif;letter-spacing:2.00621px;word-spacing:0px;fill:#b31b1b;fill-opacity:1;stroke-width:0.428776"
         id="text2521"
         aria-label="ACADEMY">
        <path
           id="path3123"
           style="font-style:normal;font-variant:normal;font-weight:900;font-stretch:normal;font-family:Montserrat;-inkscape-font-specification:'Montserrat Heavy';fill:#b31b1b;fill-opacity:1;stroke-width:0.428776"
           d="m 71.784116,181.23869 h 4.184844 l -5.248206,-12.0057 h -3.979032 l -5.248205,12.0057 h 4.116239 l 0.806097,-2.09242 h 4.562166 z m -4.253448,-5.00809 1.166268,-3.01857 1.166268,3.01857 z" />
        <path
           id="path3125"
           style="font-style:normal;font-variant:normal;font-weight:900;font-stretch:normal;font-family:Montserrat;-inkscape-font-specification:'Montserrat Heavy';fill:#b31b1b;fill-opacity:1;stroke-width:0.428776"
           d="m 84.664052,181.51311 c 2.349687,0 4.201995,-0.85755 5.385414,-2.40114 l -2.555499,-2.28108 c -0.703191,0.89185 -1.54359,1.40638 -2.624103,1.40638 -1.680798,0 -2.812764,-1.16627 -2.812764,-3.00143 0,-1.83515 1.131966,-3.00142 2.812764,-3.00142 1.080513,0 1.920912,0.51453 2.624103,1.40638 l 2.555499,-2.28108 c -1.183419,-1.54359 -3.035727,-2.40114 -5.385414,-2.40114 -3.858975,0 -6.68889,2.5898 -6.68889,6.27726 0,3.68747 2.829915,6.27727 6.68889,6.27727 z" />
        <path
           id="path3127"
           style="font-style:normal;font-variant:normal;font-weight:900;font-stretch:normal;font-family:Montserrat;-inkscape-font-specification:'Montserrat Heavy';fill:#b31b1b;fill-opacity:1;stroke-width:0.428776"
           d="m 102.03754,181.23869 h 4.18485 l -5.24821,-12.0057 h -3.97903 l -5.248206,12.0057 h 4.11624 l 0.806097,-2.09242 h 4.562169 z m -4.253444,-5.00809 1.166268,-3.01857 1.166266,3.01857 z" />
        <path
           id="path3129"
           style="font-style:normal;font-variant:normal;font-weight:900;font-stretch:normal;font-family:Montserrat;-inkscape-font-specification:'Montserrat Heavy';fill:#b31b1b;fill-opacity:1;stroke-width:0.428776"
           d="m 108.88033,181.23869 h 5.9171 c 4.01333,0 6.77464,-2.28108 6.77464,-6.00285 0,-3.72176 -2.76131,-6.00285 -6.77464,-6.00285 h -5.9171 z m 4.04764,-3.15578 v -5.69413 h 1.69795 c 1.69795,0 2.86421,1.01191 2.86421,2.84706 0,1.83516 -1.16626,2.84707 -2.86421,2.84707 z" />
        <path
           id="path3131"
           style="font-style:normal;font-variant:normal;font-weight:900;font-stretch:normal;font-family:Montserrat;-inkscape-font-specification:'Montserrat Heavy';fill:#b31b1b;fill-opacity:1;stroke-width:0.428776"
           d="m 129.03227,178.18582 v -1.5779 h 5.07669 v -2.91567 h -5.07669 v -1.40638 h 5.77989 v -3.05288 h -9.75892 v 12.0057 h 9.98188 v -3.05287 z" />
        <path
           id="path3133"
           style="font-style:normal;font-variant:normal;font-weight:900;font-stretch:normal;font-family:Montserrat;-inkscape-font-specification:'Montserrat Heavy';fill:#b31b1b;fill-opacity:1;stroke-width:0.428776"
           d="m 153.00889,181.23869 -0.0343,-12.0057 h -3.32729 l -3.80752,6.39733 -3.91043,-6.39733 h -3.32729 v 12.0057 h 3.68746 v -5.2825 l 2.60695,4.20199 h 1.78371 l 2.60695,-4.39066 0.0343,5.47117 z" />
        <path
           id="path3135"
           style="font-style:normal;font-variant:normal;font-weight:900;font-stretch:normal;font-family:Montserrat;-inkscape-font-specification:'Montserrat Heavy';fill:#b31b1b;fill-opacity:1;stroke-width:0.428776"
           d="m 168.63296,169.23299 h -3.91043 l -2.46974,4.15055 -2.4526,-4.15055 h -4.2706 l 4.52787,7.5979 v 4.4078 h 4.04763 v -4.35635 z" />
      </g>
      <g
         style="font-size:7.60722px;line-height:1.25;font-family:sans-serif;word-spacing:0px;fill:#b31b1b;fill-opacity:1;stroke-width:0.190181"
         id="text2699"
         aria-label="MELROSE">
        <path
           id="path3074"
           style="font-style:normal;font-variant:normal;font-weight:normal;font-stretch:normal;font-family:Stafford-Serial;-inkscape-font-specification:Stafford-Serial;fill:#b31b1b;fill-opacity:1;stroke-width:0.190181"
           d="m 95.060593,141.50201 v -0.92047 l 1.3693,0.0228 1.346477,-0.0228 1.04219,2.92117 q 0.06086,0.19018 0.09129,0.41079 0.03043,0.21301 0.03043,0.45644 l 0.07607,-0.6314 0.09889,-0.28908 0.973729,-2.86792 1.30083,0.0228 1.35409,-0.0228 v 0.92047 l -0.60858,-0.0228 v 3.67429 l 0.6314,-0.0152 v 0.91286 l -1.30844,-0.0228 -1.32366,0.0228 v -0.91286 l 0.6314,0.0152 v -2.85271 q 0,-0.17496 0.008,-0.30429 0.008,-0.12932 0.0533,-0.47925 l -0.15976,0.43361 -0.12171,0.32711 -1.414944,3.77318 h -0.82158 l -1.407336,-3.81122 -0.129323,-0.3195 -0.129322,-0.41079 0.02282,0.38036 0.0076,0.40319 v 2.86031 l 0.616184,-0.0152 v 0.91286 l -1.087832,-0.0228 -1.125869,0.0228 v -0.91286 l 0.608578,0.0152 v -3.67429 z" />
        <path
           id="path3076"
           style="font-style:normal;font-variant:normal;font-weight:normal;font-stretch:normal;font-family:Stafford-Serial;-inkscape-font-specification:Stafford-Serial;fill:#b31b1b;fill-opacity:1;stroke-width:0.190181"
           d="m 102.93406,146.05113 v -0.91286 l 0.61619,0.0152 v -3.67429 l -0.61619,0.0228 v -0.92047 l 2.28978,0.0228 2.25174,-0.0228 -0.0152,1.10305 v 0.69225 l -1.01937,0.008 v -0.89004 h -1.52905 v 1.33887 l 1.30844,-0.008 v 0.91287 l -1.30083,-0.008 v 1.40734 h 1.61273 v -0.85201 h 1.01937 l -0.0152,0.98894 0.008,0.77593 -2.25934,-0.0228 z" />
        <path
           id="path3078"
           style="font-style:normal;font-variant:normal;font-weight:normal;font-stretch:normal;font-family:Stafford-Serial;-inkscape-font-specification:Stafford-Serial;fill:#b31b1b;fill-opacity:1;stroke-width:0.190181"
           d="m 107.88636,146.05113 v -0.91286 l 0.61618,0.0152 v -3.67429 l -0.60857,0.0228 v -0.92047 l 1.30844,0.0228 1.30844,-0.0228 v 0.92047 l -0.63901,-0.0228 v 3.66668 l 1.60513,-0.008 0.008,-0.61619 -0.0304,-1.03458 0.97373,-0.008 q 0,0.44883 -0.0152,0.7379 -0.008,0.28908 -0.0228,0.66183 l 0.0152,1.17151 -2.28217,-0.0228 z" />
        <path
           id="path3080"
           style="font-style:normal;font-variant:normal;font-weight:normal;font-stretch:normal;font-family:Stafford-Serial;-inkscape-font-specification:Stafford-Serial;fill:#b31b1b;fill-opacity:1;stroke-width:0.190181"
           d="m 112.64847,146.05113 v -0.91286 l 0.61619,0.0152 v -3.67429 l -0.61619,0.0228 v -0.92047 l 1.23237,0.0228 1.25519,-0.0228 0.24344,-0.008 q 0.50207,0 0.76833,0.0533 0.26625,0.0532 0.54772,0.2054 0.3195,0.18257 0.50968,0.5249 0.19018,0.34232 0.19018,0.75311 0,0.38036 -0.15975,0.69987 -0.12933,0.26625 -0.28147,0.41079 -0.14454,0.13693 -0.47165,0.30429 l 0.85201,1.62794 0.60097,-0.0152 v 0.91286 l -0.78354,-0.0228 -0.80637,0.0228 -1.1639,-2.33541 h -0.55533 v 1.43776 l 0.60858,-0.0152 v 0.91286 l -1.27041,-0.0228 z m 1.98549,-4.54912 v 1.28562 l 0.47925,0.0152 q 0.82158,0 0.82158,-0.67704 0,-0.63901 -0.86722,-0.63901 -0.0989,0 -0.19018,0 -0.0913,0 -0.24343,0.0152 z" />
        <path
           id="path3082"
           style="font-style:normal;font-variant:normal;font-weight:normal;font-stretch:normal;font-family:Stafford-Serial;-inkscape-font-specification:Stafford-Serial;fill:#b31b1b;fill-opacity:1;stroke-width:0.190181"
           d="m 117.85178,143.31253 q 0,-1.30844 0.79116,-2.09198 0.79115,-0.78355 2.1072,-0.78355 1.32365,0 2.1148,0.78355 0.79115,0.78354 0.79115,2.09198 0,1.31605 -0.79115,2.0996 -0.79115,0.78354 -2.1148,0.78354 -1.31605,0 -2.1072,-0.78354 -0.79116,-0.78355 -0.79116,-2.0996 z m 2.89836,-1.89419 q -0.65423,0 -1.01937,0.50207 -0.36515,0.49447 -0.36515,1.39212 0,0.89005 0.36515,1.39973 0.37275,0.50208 1.01937,0.50208 0.66182,0 1.02697,-0.50208 0.36515,-0.50208 0.36515,-1.39973 0,-0.89765 -0.37276,-1.39212 -0.36514,-0.50207 -1.01936,-0.50207 z" />
        <path
           id="path3084"
           style="font-style:normal;font-variant:normal;font-weight:normal;font-stretch:normal;font-family:Stafford-Serial;-inkscape-font-specification:Stafford-Serial;fill:#b31b1b;fill-opacity:1;stroke-width:0.190181"
           d="m 126.88916,140.88583 v -0.3195 l 0.89765,0.008 -0.0228,0.86723 0.0152,0.77593 -0.80636,-0.008 q -0.0304,-0.2054 -0.0761,-0.3119 -0.038,-0.11411 -0.12933,-0.213 -0.12932,-0.14454 -0.34993,-0.23583 -0.22061,-0.0913 -0.44122,-0.0913 -0.26625,0 -0.44122,0.14453 -0.17496,0.14454 -0.17496,0.36515 0,0.25865 0.27386,0.4184 l 0.28147,0.13693 0.28146,0.13693 0.36515,0.15975 0.32711,0.16736 q 0.0913,0.0533 0.19018,0.11411 0.1065,0.0532 0.15975,0.0913 0.79115,0.47165 0.79115,1.39973 0,0.7303 -0.49447,1.20194 -0.48686,0.46404 -1.2628,0.46404 -0.33471,0 -0.57054,-0.0761 -0.23582,-0.0685 -0.38036,-0.15214 -0.13693,-0.0913 -0.34232,-0.28147 v 0.40318 h -0.85962 l 0.0304,-0.93569 q 0,-0.0685 -0.0152,-0.36514 -0.0152,-0.29668 -0.0152,-0.51729 l 0.92048,-0.008 v 0.15975 q 0,0.41079 0.25103,0.66944 0.25865,0.25103 0.67705,0.25103 0.28146,0 0.45643,-0.15214 0.18257,-0.15975 0.18257,-0.4184 0,-0.12932 -0.0609,-0.24343 -0.0609,-0.12171 -0.16735,-0.20539 -0.0152,-0.0152 -0.0761,-0.0532 -0.0609,-0.038 -0.12171,-0.0761 l -0.27386,-0.14453 -0.40318,-0.17497 q -0.79876,-0.34993 -1.1563,-0.7379 -0.35754,-0.39557 -0.35754,-0.94329 0,-0.76073 0.47165,-1.22477 0.47925,-0.47164 1.23997,-0.47164 0.28147,0 0.50969,0.0761 0.29668,0.0837 0.67704,0.34993 z" />
        <path
           id="path3086"
           style="font-style:normal;font-variant:normal;font-weight:normal;font-stretch:normal;font-family:Stafford-Serial;-inkscape-font-specification:Stafford-Serial;fill:#b31b1b;fill-opacity:1;stroke-width:0.190181"
           d="m 128.25084,146.05113 v -0.91286 l 0.61619,0.0152 v -3.67429 l -0.61619,0.0228 v -0.92047 l 2.28978,0.0228 2.25173,-0.0228 -0.0152,1.10305 v 0.69225 l -1.01937,0.008 v -0.89004 h -1.52905 v 1.33887 l 1.30844,-0.008 v 0.91287 l -1.30083,-0.008 v 1.40734 h 1.61273 v -0.85201 h 1.01937 l -0.0152,0.98894 0.008,0.77593 -2.25935,-0.0228 z" />
      </g>
      <path
         transform="matrix(0.26458333,0,0,0.26458333,52.287576,54.636229)"
         d="M 233.70898 99.349609 A 25.75348 25.75348 0 0 0 208.79883 118.56641 L 175.87109 118.56641 L 175.87109 145.53125 L 218.0293 145.53125 A 25.75348 25.75348 0 0 0 233.70898 150.85547 A 25.75348 25.75348 0 0 0 249.38867 145.53125 L 291.54492 145.53125 L 291.54492 118.56641 L 258.61719 118.56641 A 25.75348 25.75348 0 0 0 233.70898 99.349609 z M 233.70898 111.20703 A 13.89461 13.89461 0 0 1 247.60352 125.10156 A 13.89461 13.89461 0 0 1 233.70898 138.99805 A 13.89461 13.89461 0 0 1 219.81445 125.10156 A 13.89461 13.89461 0 0 1 233.70898 111.20703 z M 275.63867 126.42773 A 4.6748122 4.6748122 0 0 1 275.70898 126.42773 A 4.6748122 4.6748122 0 0 1 280.38281 131.10156 A 4.6748122 4.6748122 0 0 1 275.70898 135.77734 A 4.6748122 4.6748122 0 0 1 271.0332 131.10156 A 4.6748122 4.6748122 0 0 1 275.63867 126.42773 z "
         style="fill:#b31b1b;fill-opacity:1;stroke:none;stroke-width:6;stroke-linecap:square;stroke-linejoin:miter;stroke-miterlimit:4;stroke-dasharray:none;stroke-opacity:1"
         id="rect2709" />
      <circle
         transform="scale(1,-1)"
         r="1.2368774"
         cy="-87.207085"
         cx="113.06468"
         id="circle2707"
         style="fill:#b31b1b;fill-opacity:1;stroke:none;stroke-width:0.343241;stroke-linecap:square;stroke-linejoin:miter;stroke-miterlimit:4;stroke-dasharray:none;stroke-opacity:1" />
      <circle
         transform="scale(1,-1)"
         style="fill:#b31b1b;fill-opacity:1;stroke:none;stroke-width:0.234792;stroke-linecap:square;stroke-linejoin:miter;stroke-miterlimit:4;stroke-dasharray:none;stroke-opacity:1"
         id="circle2713"
         cx="115.57213"
         cy="-88.127037"
         r="0.84608018" />
      <g
         transform="matrix(0.66067165,0.08779232,-0.08779232,0.66067165,80.372056,24.898269)"
         id="g22647">
        <g
           id="g2667"
           style="fill:#b31b1b;fill-opacity:1"
           transform="translate(2.1166667,-3.7041663)">
          <g
             id="g2558"
             transform="rotate(-59.325684,222.80764,62.628377)"
             style="fill:#b31b1b;fill-opacity:1">
            <g
               transform="translate(57.19283,-13.802091)"
               id="g2553"
               style="fill:#b31b1b;fill-opacity:1">
              <path
                 id="path2523"
                 sodipodi:nodetypes="csccsssssccscssssscccccc"
                 style="fill:#b31b1b;fill-opacity:1;stroke:none;stroke-width:0.211667px"
                 inkscape:connector-curvature="0"
                 d="m -66.159002,-60.061157 c 1.75304,1.33527 5.38332,2.14736 1.41943,3.65696 -1.5291,0.58238 -1.98316,2.58953 -0.59336,3.60511 4.21449,1.68933 7.03961,0.84827 7.39775,1.76564 0.51295,1.12198 -2.86808,2.35521 -1.82882,3.8536 1.00588,1.45007 3.94166,0.93777 5.70505,0.98588 1.89118,0.0516 4.96591,1.61385 4.17872,2.38273 -2.15392,2.10374 -5.11259,2.83126 0.70621,4.04368 2.48094,0.51687 4.11649,-0.10232 5.81618,3.35513 0.72999,1.48488 2.16513,2.46528 1.97779,4.971199 l 3.357802,-1.033557 c 1.28289,-1.336339 2.011378,-4.167452 1.011338,-3.587062 -0.5842,0.33907 -2.34337,1.66032 -2.34337,1.66032 0,0 -1.64689,-5.88455 -1.73814,-7.69493 -0.11305,-2.24282 -1.19018,-9.69053 -2.29574,-10.27642 -1.27048,-0.67331 -2.4621,6.35021 -3.12356,0.45904 -0.47824,-4.26021 -0.49405,-5.18498 -0.70788,-6.25411 -0.21382,-1.06909 -0.79914,-3.42138 -2.14841,-3.00757 -2.15117,0.65978 -2.0349,4.54638 -3.22136,4.826 -2.60181,-0.67666 -3.14388,-6.36376 -4.01002,-8.56891 -0.42116,-1.05509 -2.64224,-0.95142 -2.79633,1.37738 -0.17753,4.55613 -1.56176,1.18218 -4.08834,0.20252 -3.16167,-1.00218 -4.82664,0.95732 -2.67484,3.27744 z" />
            </g>
          </g>
        </g>
        <g
           id="g22628"
           transform="matrix(0.41750451,0,0,0.41750451,35.66199,94.474379)">
          <path
             d="m -24.950931,216.5568 c -0.237403,-0.004 -0.479996,-0.003 -0.729155,0.004 -1.993269,0.0508 -4.775376,0.44344 -6.660575,0.61495 -1.489069,0.13547 -2.891385,0.52859 -3.916558,0.51883 0.0017,2.00061 0.344681,4.4239 1.173573,6.0172 1.341501,2.5787 5.436695,5.43143 7.230567,6.52467 1.793869,1.09319 1.81595,1.0516 3.5326,0.0346 1.71667,-1.01698 5.448863,-3.34459 6.767545,-6.13606 0.808289,-1.71105 1.243572,-4.61292 1.344621,-7.03161 -1.162055,0.10759 -2.83932,-0.19005 -4.172872,-0.23254 -1.507633,-0.048 -2.907931,-0.2884 -4.569746,-0.31368 z"
             style="display:inline;fill:#b31b1b;fill-opacity:1;fill-rule:nonzero;stroke-width:0.264583"
             id="path22572" />
          <g
             transform="translate(0,-10.583333)"
             id="g22622">
            <path
               id="path22574"
               style="display:inline;fill:#b31b1b;fill-opacity:1;fill-rule:nonzero;stroke-width:0.999999"
               d="m -100.58594,817.70508 c -1.01989,0.0891 -1.90164,0.4797 -2.1582,1.2207 -0.3371,0.97365 -0.0897,3.99087 0.36719,6.81445 -1.07936,0.13638 -2.16878,0.27817 -3.4961,0.42383 -6.64709,0.72922 -17.17462,1.74385 -23.22851,3.95117 -6.05401,2.20736 -10.39661,6.1444 -13.09375,9.29297 -2.69719,3.14861 -3.48764,6.43671 -3.08985,9.59961 0.39776,3.16298 1.63456,8.07686 5.47657,9.37891 3.84196,1.30208 10.45096,-0.91818 17.57617,-1.56641 7.12516,-0.64822 17.64021,-2.13222 25.173826,-2.32422 7.533619,-0.192 13.51518,0.96438 20.027344,1.17188 6.512202,0.20749 15.208508,2.03855 19.046875,0.0742 3.838413,-1.96441 4.636627,-8.05149 3.984375,-11.86133 -0.652218,-3.80988 -2.028729,-7.97454 -7.898438,-10.99805 -5.869746,-3.02347 -19.99143,-6.02285 -27.320312,-7.14258 -3.661609,-0.55938 -6.161734,-0.63486 -8.576172,-0.48046 0.774509,-2.40531 1.356476,-4.80574 1.207031,-5.71485 -0.213543,-1.29952 -2.298234,-1.98839 -3.998049,-1.83984 z"
               transform="scale(0.26458333)" />
            <path
               d="m -24.950931,227.14014 c -0.237403,-0.004 -0.479996,-0.003 -0.729155,0.004 -1.993269,0.0508 -4.775376,0.44344 -6.660575,0.61495 -1.489069,0.13547 -2.891385,0.52859 -3.916558,0.51883 0.0017,2.00061 0.344681,4.4239 1.173573,6.0172 1.341501,2.5787 5.436695,5.43143 7.230567,6.52467 1.793869,1.09319 1.81595,1.0516 3.5326,0.0346 1.71667,-1.01698 5.448863,-3.34459 6.767545,-6.13606 0.808289,-1.71105 1.243572,-4.61292 1.344621,-7.03161 -1.162055,0.10759 -2.83932,-0.19005 -4.172872,-0.23254 -1.507633,-0.048 -2.907931,-0.2884 -4.569746,-0.31368 z"
               style="display:inline;fill:#b31b1b;fill-opacity:1;fill-rule:nonzero;stroke-width:0.264583"
               id="path22618" />
          </g>
        </g>
      </g>
      <g
         id="g22707"
         transform="matrix(-0.66067165,0.08779232,0.08779232,0.66067165,147.36386,24.898269)">
        <g
           transform="translate(2.1166667,-3.7041663)"
           style="fill:#b31b1b;fill-opacity:1"
           id="g22695">
          <g
             style="fill:#b31b1b;fill-opacity:1"
             transform="rotate(-59.325684,222.80764,62.628377)"
             id="g22693">
            <g
               style="fill:#b31b1b;fill-opacity:1"
               id="g22691"
               transform="translate(57.19283,-13.802091)">
              <path
                 d="m -66.159002,-60.061157 c 1.75304,1.33527 5.38332,2.14736 1.41943,3.65696 -1.5291,0.58238 -1.98316,2.58953 -0.59336,3.60511 4.21449,1.68933 7.03961,0.84827 7.39775,1.76564 0.51295,1.12198 -2.86808,2.35521 -1.82882,3.8536 1.00588,1.45007 3.94166,0.93777 5.70505,0.98588 1.89118,0.0516 4.96591,1.61385 4.17872,2.38273 -2.15392,2.10374 -5.11259,2.83126 0.70621,4.04368 2.48094,0.51687 4.11649,-0.10232 5.81618,3.35513 0.72999,1.48488 2.16513,2.46528 1.97779,4.971199 l 3.357802,-1.033557 c 1.28289,-1.336339 2.011378,-4.167452 1.011338,-3.587062 -0.5842,0.33907 -2.34337,1.66032 -2.34337,1.66032 0,0 -1.64689,-5.88455 -1.73814,-7.69493 -0.11305,-2.24282 -1.19018,-9.69053 -2.29574,-10.27642 -1.27048,-0.67331 -2.4621,6.35021 -3.12356,0.45904 -0.47824,-4.26021 -0.49405,-5.18498 -0.70788,-6.25411 -0.21382,-1.06909 -0.79914,-3.42138 -2.14841,-3.00757 -2.15117,0.65978 -2.0349,4.54638 -3.22136,4.826 -2.60181,-0.67666 -3.14388,-6.36376 -4.01002,-8.56891 -0.42116,-1.05509 -2.64224,-0.95142 -2.79633,1.37738 -0.17753,4.55613 -1.56176,1.18218 -4.08834,0.20252 -3.16167,-1.00218 -4.82664,0.95732 -2.67484,3.27744 z"
                 inkscape:connector-curvature="0"
                 style="fill:#b31b1b;fill-opacity:1;stroke:none;stroke-width:0.211667px"
                 sodipodi:nodetypes="csccsssssccscssssscccccc"
                 id="path22689" />
            </g>
          </g>
        </g>
        <g
           transform="matrix(0.41750451,0,0,0.41750451,35.66199,94.474379)"
           id="g22705">
          <path
             id="path22697"
             style="display:inline;fill:#b31b1b;fill-opacity:1;fill-rule:nonzero;stroke-width:0.264583"
             d="m -24.950931,216.5568 c -0.237403,-0.004 -0.479996,-0.003 -0.729155,0.004 -1.993269,0.0508 -4.775376,0.44344 -6.660575,0.61495 -1.489069,0.13547 -2.891385,0.52859 -3.916558,0.51883 0.0017,2.00061 0.344681,4.4239 1.173573,6.0172 1.341501,2.5787 5.436695,5.43143 7.230567,6.52467 1.793869,1.09319 1.81595,1.0516 3.5326,0.0346 1.71667,-1.01698 5.448863,-3.34459 6.767545,-6.13606 0.808289,-1.71105 1.243572,-4.61292 1.344621,-7.03161 -1.162055,0.10759 -2.83932,-0.19005 -4.172872,-0.23254 -1.507633,-0.048 -2.907931,-0.2884 -4.569746,-0.31368 z" />
          <g
             id="g22703"
             transform="translate(0,-10.583333)">
            <path
               transform="scale(0.26458333)"
               d="m -100.58594,817.70508 c -1.01989,0.0891 -1.90164,0.4797 -2.1582,1.2207 -0.3371,0.97365 -0.0897,3.99087 0.36719,6.81445 -1.07936,0.13638 -2.16878,0.27817 -3.4961,0.42383 -6.64709,0.72922 -17.17462,1.74385 -23.22851,3.95117 -6.05401,2.20736 -10.39661,6.1444 -13.09375,9.29297 -2.69719,3.14861 -3.48764,6.43671 -3.08985,9.59961 0.39776,3.16298 1.63456,8.07686 5.47657,9.37891 3.84196,1.30208 10.45096,-0.91818 17.57617,-1.56641 7.12516,-0.64822 17.64021,-2.13222 25.173826,-2.32422 7.533619,-0.192 13.51518,0.96438 20.027344,1.17188 6.512202,0.20749 15.208508,2.03855 19.046875,0.0742 3.838413,-1.96441 4.636627,-8.05149 3.984375,-11.86133 -0.652218,-3.80988 -2.028729,-7.97454 -7.898438,-10.99805 -5.869746,-3.02347 -19.99143,-6.02285 -27.320312,-7.14258 -3.661609,-0.55938 -6.161734,-0.63486 -8.576172,-0.48046 0.774509,-2.40531 1.356476,-4.80574 1.207031,-5.71485 -0.213543,-1.29952 -2.298234,-1.98839 -3.998049,-1.83984 z"
               style="display:inline;fill:#b31b1b;fill-opacity:1;fill-rule:nonzero;stroke-width:0.999999"
               id="path22699" />
            <path
               id="path22701"
               style="display:inline;fill:#b31b1b;fill-opacity:1;fill-rule:nonzero;stroke-width:0.264583"
               d="m -24.950931,227.14014 c -0.237403,-0.004 -0.479996,-0.003 -0.729155,0.004 -1.993269,0.0508 -4.775376,0.44344 -6.660575,0.61495 -1.489069,0.13547 -2.891385,0.52859 -3.916558,0.51883 0.0017,2.00061 0.344681,4.4239 1.173573,6.0172 1.341501,2.5787 5.436695,5.43143 7.230567,6.52467 1.793869,1.09319 1.81595,1.0516 3.5326,0.0346 1.71667,-1.01698 5.448863,-3.34459 6.767545,-6.13606 0.808289,-1.71105 1.243572,-4.61292 1.344621,-7.03161 -1.162055,0.10759 -2.83932,-0.19005 -4.172872,-0.23254 -1.507633,-0.048 -2.907931,-0.2884 -4.569746,-0.31368 z" />
          </g>
        </g>
      </g>
      <g
         id="g3072">
        <path
           style="fill:#b31b1b;fill-opacity:1;stroke-width:0.11902"
           fill="#ed008c"
           d="m 69.393779,92.29706 c 0.330161,0.0015 0.663297,0.0045 0.994886,0.02737 0.999409,0.104975 2.001913,0.179482 3.004416,0.238873 0.401573,0.03047 0.803145,0.05784 1.206266,0.07605 0.13842,1.396459 -0.12021,2.788395 -0.288981,4.171167 -0.766725,0.04261 -1.539401,0.0076 -2.293987,-0.136873 -0.946207,-0.176506 -1.912171,-0.118663 -2.867424,-0.164247 -0.01226,-1.40729 -0.0015,-2.823506 0.244824,-4.212348 z"
           id="path22842" />
        <path
           style="fill:#b31b1b;fill-opacity:1;stroke-width:0.125062"
           fill="#231f20"
           d="m 156.74533,89.482605 c 0.34771,1.107479 0.60804,2.233168 0.93893,3.343622 -1.40413,0.149132 -2.81495,0.225185 -4.22578,0.293622 -3.07371,-14.485538 -17.05702,-32.207819 -41.66372,-31.417527 -16.475,0.799336 -32.011589,12.090503 -37.125447,31.40372 -0.235094,-0.0015 -0.47032,-0.0061 -0.703706,-0.01369 -1.106875,-0.05927 -2.21375,-0.133897 -3.317208,-0.238873 0.02011,-0.299691 0.04363,-0.599383 0.104078,-0.894433 2.608902,-10.60835 9.097189,-20.216935 18.836451,-26.745882 24.702772,-16.452816 58.440832,-4.220203 67.156402,24.269438 z"
           id="path22840" />
        <path
           style="fill:#b31b1b;fill-opacity:1;stroke-width:0.11902"
           fill="#ed008c"
           d="m 157.68426,92.29706 c 0.27684,-0.02285 0.55523,-0.0319 0.83671,-0.04261 0.0974,1.410146 0.36206,2.8097 0.32254,4.22901 -0.77434,0.01976 -1.54559,0.06082 -2.31065,0.170318 -0.18412,0.01059 -0.36812,0.0213 -0.54915,0.03344 -0.80624,0.0532 -1.60796,0.208404 -2.41872,0.111046 -0.20234,-1.385866 -0.19162,-2.791371 -0.29517,-4.186401 0.19317,-0.0076 0.38943,-0.01524 0.58712,-0.0213 1.2778,-0.06844 2.5556,-0.14449 3.82732,-0.293503 z"
           id="path22844" />
        <path
           style="fill:#b31b1b;fill-opacity:1;stroke-width:0.11902"
           fill="#231f20"
           d="m 70.370455,96.139845 c 0.576532,0.0319 1.154611,0.06998 1.731143,0.127827 -0.973582,3.786258 -0.816833,7.732238 -0.778866,11.605258 0.578079,0.0243 1.157586,0.0319 1.735665,0.0289 -0.0015,0.63438 0,1.26864 0.01524,1.90456 -1.840641,0.94918 -3.167116,2.68187 -3.900397,4.59095 -0.476079,1.20019 -0.794099,2.46287 -0.946207,3.74519 -0.05023,0.33159 -0.136872,0.65711 -0.222091,0.98275 -0.08522,-3.74067 -0.0532,-7.48277 -0.03047,-11.2219 0.5294,-0.002 1.0588,-0.0121 1.588081,-0.0442 -0.0061,-2.08855 -0.07915,-4.18175 0.09283,-6.26579 0.100453,-1.830167 0.216021,-3.681401 0.715071,-5.453605 z"
           id="path22846" />
        <path
           style="fill:#b31b1b;fill-opacity:1;stroke-width:0.11902"
           fill="#231f20"
           d="m 155.98359,96.158055 c 0.18103,-0.01214 0.36503,-0.02285 0.54916,-0.03344 0.35753,0 0.71495,0.0319 1.07546,0.05023 0.89146,3.833395 0.72411,7.797705 0.76518,11.705715 0.54618,0.0168 1.09522,0.0243 1.64294,0.0243 -0.0395,3.94301 0.0258,7.88589 -0.0274,11.82735 -0.0532,-0.17341 -0.10795,-0.34682 -0.13997,-0.52178 -0.1765,-1.92277 -0.58569,-3.85017 -1.42835,-5.59655 -0.73935,-1.58963 -1.97002,-2.96478 -3.52918,-3.78328 -0.005,-0.64497 0.0106,-1.28994 0.0426,-1.93348 0.55678,0.005 1.1151,-0.002 1.67485,-0.0198 0.0624,-1.88635 0.0578,-3.77567 0.0137,-5.66189 -0.14152,-1.74174 -0.14604,-3.517039 -0.64343,-5.20712 -0.0381,-0.257082 -0.21292,-0.53547 -0.07,-0.784935 z"
           id="path22848" />
        <path
           style="fill:#b31b1b;fill-opacity:1;stroke-width:0.11902"
           fill="#231f20"
           d="m 79.870375,107.30854 c 0.739351,-0.15056 1.586653,-0.0837 2.193535,0.40467 0.35444,0.28148 0.333136,0.77577 0.357535,1.18508 -0.01369,8.87923 -0.0045,17.75858 -0.0045,26.63781 -0.0213,0.3955 -0.03654,0.88682 -0.419902,1.11962 -0.850396,0.55368 -2.024764,0.57344 -2.882658,0.0258 -0.290527,-0.17496 -0.380268,-0.53238 -0.398597,-0.84576 0.02428,-9.12881 0.01523,-18.26061 0.0045,-27.3893 -0.02285,-0.64973 0.579627,-1.03452 1.150088,-1.13795 z"
           id="path22850" />
        <path
           style="fill:#b31b1b;fill-opacity:1;stroke-width:0.11902"
           fill="#231f20"
           d="m 146.74373,107.29938 c 0.73935,-0.14604 1.57903,-0.0532 2.17687,0.43965 0.21447,0.1658 0.2647,0.44728 0.27232,0.70436 -0.0152,9.18047 -0.002,18.36404 -0.006,27.54451 0.0182,0.38491 -0.28601,0.66937 -0.61153,0.81386 -0.83671,0.41526 -1.91217,0.36812 -2.68187,-0.17342 -0.34837,-0.24791 -0.36813,-0.70733 -0.37122,-1.09224 0.0197,-8.36971 0.003,-16.7393 0.009,-25.109 0.0152,-0.74078 -0.0608,-1.4862 0.0381,-2.22091 0.0972,-0.55392 0.689,-0.79267 1.17425,-0.90681 z"
           id="path22852" />
        <path
           style="fill:#b31b1b;fill-opacity:1;stroke-width:0.11902"
           fill="#ed008c"
           d="m 73.084283,109.80629 c 1.746615,-0.79255 3.718416,-1.06332 5.633801,-1.0025 0.097,1.55308 0.04071,3.10939 0.05475,4.66557 0,5.07012 0,10.14036 0,15.21203 -0.02654,2.23163 0.0657,4.46622 -0.06725,6.69641 -1.299458,0.16425 -2.609747,-0.0334 -3.87945,-0.29517 -2.173539,-0.48988 -4.024891,-1.97001 -5.091308,-3.85933 -1.288508,-2.31077 -1.748163,-4.9592 -1.898247,-7.55585 0.0015,-1.31588 -0.09224,-2.64391 0.143895,-3.94598 0.08915,-0.52333 0.08605,-1.05273 0.121996,-1.57904 0.156392,-1.28232 0.48322,-2.545 0.972629,-3.74519 0.753633,-1.90908 2.117124,-3.64165 4.009181,-4.59095 z"
           id="path22854" />
        <path
           style="fill:#b31b1b;fill-opacity:1;stroke-width:0.11902"
           fill="#ed008c"
           d="m 149.13465,108.81902 c 1.93788,-0.0182 3.97324,0.12319 5.71938,1.01155 1.61093,0.81838 2.88242,2.19353 3.64629,3.78328 0.87075,1.74638 1.29351,3.67366 1.47584,5.59655 0.0425,1.38122 0.23102,2.75947 0.1289,4.14534 -0.0818,1.08617 -0.17293,2.17223 -0.32373,3.25233 -0.36301,1.71436 -0.84552,3.43943 -1.78077,4.95456 -0.59725,0.91573 -1.39884,1.69615 -2.28209,2.3548 -1.27458,0.92336 -2.87147,1.3022 -4.43051,1.45585 -0.077,0.009 -0.22947,0.0274 -0.30648,0.035 -0.62711,0.0487 -1.25887,0.0365 -1.88444,-0.0274 -0.1352,-1.36754 -0.0534,-2.74269 -0.0739,-4.11332 -0.002,-6.74509 0.005,-13.48851 -0.003,-20.23205 -0.006,-0.7409 0.0596,-1.47871 0.11461,-2.21651 z"
           id="path22856" />
      </g>
    </g>
  </g>
</svg>
