<?xml version="1.0" encoding="UTF-8" standalone="no"?>
<svg
   xmlns:dc="http://purl.org/dc/elements/1.1/"
   xmlns:cc="http://creativecommons.org/ns#"
   xmlns:rdf="http://www.w3.org/1999/02/22-rdf-syntax-ns#"
   xmlns:svg="http://www.w3.org/2000/svg"
   xmlns="http://www.w3.org/2000/svg"
   xmlns:xlink="http://www.w3.org/1999/xlink"
   xmlns:sodipodi="http://sodipodi.sourceforge.net/DTD/sodipodi-0.dtd"
   xmlns:inkscape="http://www.inkscape.org/namespaces/inkscape"
   width="440"
   height="240"
   viewBox="0 0 116.41667 63.500002"
   version="1.1"
   id="svg1222"
   inkscape:version="1.0 (4035a4fb49, 2020-05-01)"
   inkscape:export-filename="/home/duffy/Repositories/website/assets/images/library/thumb-designassets.png"
   inkscape:export-xdpi="96"
   inkscape:export-ydpi="96"
   sodipodi:docname="library-template.svg">
  <defs
     id="defs1216">
    <linearGradient
       id="linearGradient100536"
       inkscape:collect="always">
      <stop
         id="stop100532"
         offset="0"
         style="stop-color:#fafafa;stop-opacity:1" />
      <stop
         id="stop100534"
         offset="1"
         style="stop-color:#7cdbf3;stop-opacity:1" />
    </linearGradient>
    <linearGradient
       inkscape:collect="always"
       id="linearGradient100137">
      <stop
         style="stop-color:#75cdea;stop-opacity:1;"
         offset="0"
         id="stop100133" />
      <stop
         style="stop-color:#00659c;stop-opacity:1"
         offset="1"
         id="stop100135" />
    </linearGradient>
    <clipPath
       id="clipPath161462"
       clipPathUnits="userSpaceOnUse">
      <path
         inkscape:connector-curvature="0"
         id="path161460"
         d="m 1032.96,2313.28 -333.905,-372.74 229.562,-597.75 286.953,-272.01 415.65,-193.51 426.52,73.21 293.68,-701.64 h 332.56 L 2477.24,727.012 2800.11,486.23 3187,650.969 v 256.429 l 385.07,239.412 -69.57,568.83 -440.82,622.99 -1155.7,301.75 z" />
    </clipPath>
    <linearGradient
       id="linearGradient161468"
       spreadMethod="pad"
       gradientTransform="matrix(2873.01,0,0,-2873.01,699.055,1444.61)"
       gradientUnits="userSpaceOnUse"
       y2="0"
       x2="1"
       y1="0"
       x1="0">
      <stop
         id="stop161464"
         offset="0"
         style="stop-opacity:1;stop-color:#3a7cc7" />
      <stop
         id="stop161466"
         offset="1"
         style="stop-opacity:1;stop-color:#7ad4ed" />
    </linearGradient>
    <symbol
       viewBox="0 0 576 512"
       id="road">
      <title
         id="road-title">road</title>
      <path
         id="path70684"
         d="M 150.09812,101.49417 113.74437,20.690417 C 112.7125,18.388542 110.43708,16.933333 107.95,16.933333 H 82.523542 L 83.02625,21.9075 c 0.185208,1.878542 -1.27,3.4925 -3.148542,3.4925 h -7.381875 c -1.878541,0 -3.360208,-1.640417 -3.148541,-3.4925 L 69.85,16.933333 h -25.4 c -2.487083,0 -4.7625,1.455209 -5.794375,3.757084 L 2.301875,101.49417 C 0.84666667,104.72208 0,108.37333 0,112.18333 c 0,3.51896 2.8310417,6.35 6.35,6.35 h 56.515 c -1.878542,0 -3.360208,-1.64041 -3.148542,-3.4925 l 2.8575,-27.516663 c 0.15875,-1.613959 1.534584,-2.8575 3.148542,-2.8575 h 20.955 c 1.613958,0 2.989792,1.217083 3.148542,2.8575 l 2.8575,27.516663 c 0.185208,1.87854 -1.27,3.4925 -3.148542,3.4925 h 56.515 c 3.4925,0 6.35,-2.83104 6.35,-6.35 0,-3.67771 -0.79375,-7.32896 -2.30188,-10.68916 z M 67.389375,40.9575 68.2625,32.490833 c 0.15875,-1.613958 1.534583,-2.8575 3.148542,-2.8575 h 9.577916 c 1.613959,0 2.989792,1.217084 3.148542,2.8575 l 0.873125,8.466667 c 0.185208,1.878542 -1.27,3.4925 -3.148542,3.4925 H 70.537917 c -1.878542,0 -3.360209,-1.640417 -3.148542,-3.4925 z M 85.142917,76.2 H 67.257083 c -1.878541,0 -3.360208,-1.640417 -3.148541,-3.4925 l 1.957916,-19.05 C 66.225208,52.043542 67.601042,50.8 69.215,50.8 h 13.943542 c 1.613958,0 2.989791,1.217083 3.148541,2.8575 L 88.265,72.7075 C 88.503125,74.559583 87.021458,76.2 85.142917,76.2 Z"
         style="stroke-width:0.264583" />
    </symbol>
    <symbol
       id="sitemap">
      <title
         id="title4240">sitemap</title>
      <path
         id="path4242"
         d="M 3.7041667,2.9837062 V 2.6458333 c 0,-0.4384146 -0.3556,-0.79375 -0.79375,-0.79375 H 2.38125 V 1.2496271 C 2.5389417,1.1578167 2.6458333,0.9890125 2.6458333,0.79375 c 0,-0.2921 -0.2370666,-0.52916667 -0.5291666,-0.52916667 -0.2921,0 -0.5291667,0.23706667 -0.5291667,0.52916667 0,0.1952625 0.1071562,0.3640667 0.2645833,0.4558771 V 1.8520833 H 1.3229167 c -0.43841462,0 -0.79375003,0.3553354 -0.79375003,0.79375 v 0.3378729 c -0.15742709,0.091811 -0.26458334,0.2606146 -0.26458334,0.4558771 0,0.2921 0.23706667,0.5291667 0.52916667,0.5291667 0.2921,0 0.5291667,-0.2370667 0.5291667,-0.5291667 0,-0.1952625 -0.1071563,-0.3640666 -0.2645834,-0.4558771 V 2.6458333 c 0,-0.1463146 0.1185334,-0.2645833 0.2645834,-0.2645833 H 1.8520833 V 2.9837062 C 1.6946562,3.0755167 1.5875,3.2443208 1.5875,3.4395833 c 0,0.2921 0.2370667,0.5291667 0.5291667,0.5291667 0.2921,0 0.5291666,-0.2370667 0.5291666,-0.5291667 0,-0.1952625 -0.1068916,-0.3640666 -0.2645833,-0.4558771 V 2.38125 H 2.9104167 C 3.0567312,2.38125 3.175,2.4995187 3.175,2.6458333 v 0.3378729 c -0.1576917,0.091811 -0.2645833,0.26035 -0.2645833,0.4558771 0,0.2921 0.2370666,0.5291667 0.5291666,0.5291667 0.2921,0 0.5291667,-0.2370667 0.5291667,-0.5291667 0,-0.1952625 -0.1068917,-0.3640666 -0.2645833,-0.4558771 z m -1.5875,-2.45453953 c 0.14605,0 0.2645833,0.11853333 0.2645833,0.26458333 0,0.14605 -0.1185333,0.2645833 -0.2645833,0.2645833 -0.14605,0 -0.2645834,-0.1185333 -0.2645834,-0.2645833 0,-0.14605 0.1185334,-0.26458333 0.2645834,-0.26458333 z M 0.79375,3.7041667 C 0.6477,3.7041667 0.52916667,3.5858979 0.52916667,3.4395833 0.52916667,3.2932687 0.6477,3.175 0.79375,3.175 c 0.14605,0 0.2645833,0.1182687 0.2645833,0.2645833 0,0.1463146 -0.1185333,0.2645834 -0.2645833,0.2645834 z m 1.3229167,0 c -0.14605,0 -0.2645834,-0.1182688 -0.2645834,-0.2645834 0,-0.1463146 0.1185334,-0.2645833 0.2645834,-0.2645833 0.14605,0 0.2645833,0.1182687 0.2645833,0.2645833 0,0.1463146 -0.1185333,0.2645834 -0.2645833,0.2645834 z m 1.3229166,0 C 3.2932687,3.7041667 3.175,3.5858979 3.175,3.4395833 3.175,3.2932687 3.2932687,3.175 3.4395833,3.175 c 0.1463146,0 0.2645834,0.1182687 0.2645834,0.2645833 0,0.1463146 -0.1182688,0.2645834 -0.2645834,0.2645834 z"
         style="stroke-width:0.264583" />
    </symbol>
    <linearGradient
       inkscape:collect="always"
       xlink:href="#linearGradient100137"
       id="linearGradient100141"
       x1="26.477001"
       y1="194.26094"
       x2="26.477001"
       y2="275.05344"
       gradientUnits="userSpaceOnUse"
       gradientTransform="translate(-0.2645835,0.26456723)" />
    <linearGradient
       inkscape:collect="always"
       xlink:href="#linearGradient100137"
       id="linearGradient100204"
       gradientUnits="userSpaceOnUse"
       gradientTransform="translate(-0.2645835,-174.36048)"
       x1="26.477001"
       y1="194.26094"
       x2="26.477001"
       y2="275.05344" />
    <symbol
       viewBox="0 0 640 512"
       id="laptop">
      <title
         id="laptop-title">Laptop</title>
      <path
         id="path70308"
         d="M 135.46667,16.933333 V 84.666667 H 33.866667 V 16.933333 H 135.46667 M 139.7,0 H 29.633333 c -7.011458,0 -12.7,5.6885417 -12.7,12.7 v 76.2 c 0,7.011458 5.688542,12.7 12.7,12.7 H 139.7 c 7.01146,0 12.7,-5.688542 12.7,-12.7 V 12.7 C 152.4,5.6885417 146.71146,0 139.7,0 Z m 26.45833,110.06667 h -63.10312 c -0.79375,0 -1.45521,0.55562 -1.56104,1.34937 -0.635,4.02167 -4.127503,7.11729 -8.360837,7.11729 H 76.2 c -4.233333,0 -7.725833,-3.09562 -8.360833,-7.11729 -0.132292,-0.76729 -0.79375,-1.34937 -1.561042,-1.34937 H 3.175 c -1.74625,0 -3.175,1.42875 -3.175,3.175 v 9.525 c 0,7.01145 5.6885417,12.7 12.7,12.7 h 143.93333 c 7.01146,0 12.7,-5.68855 12.7,-12.7 v -9.525 c 0,-1.74625 -1.42875,-3.175 -3.175,-3.175 z"
         style="stroke-width:0.264583" />
    </symbol>
    <linearGradient
       inkscape:collect="always"
       xlink:href="#linearGradient100536"
       id="linearGradient100377"
       gradientUnits="userSpaceOnUse"
       gradientTransform="translate(-0.2645835,-73.81877)"
       x1="26.477001"
       y1="215.44958"
       x2="26.477001"
       y2="275.05344" />
    <linearGradient
       inkscape:collect="always"
       xlink:href="#linearGradient100137"
       id="linearGradient100429"
       gradientUnits="userSpaceOnUse"
       gradientTransform="translate(-0.2645835,74.347905)"
       x1="26.477001"
       y1="194.26094"
       x2="26.477001"
       y2="275.05344" />
    <symbol
       viewBox="0 0 20 20"
       id="store">
      <title
         id="title7471">store</title>
      <path
         id="path7473"
         d="m 0.26458333,2.6458333 c 0.10847917,0.076729 0.254,0.1137709 0.396875,0.1137709 0.14552084,0 0.28839584,-0.037042 0.39687497,-0.1137709 C 1.222375,2.524125 1.3229167,2.3362708 1.3229167,2.1166667 c 0,0.2196041 0.097896,0.4074583 0.2645833,0.5291666 0.1084792,0.076729 0.254,0.1137709 0.396875,0.1137709 0.1455208,0 0.2883958,-0.037042 0.396875,-0.1137709 0.1640417,-0.1217083 0.2645833,-0.3095625 0.2645833,-0.5291666 0,0.2196041 0.097896,0.4074583 0.2645834,0.5291666 0.1084791,0.076729 0.254,0.1137709 0.3995208,0.1137709 0.142875,0 0.28575,-0.037042 0.3942292,-0.1137709 C 3.8682083,2.524125 3.96875,2.3362708 3.96875,2.1166667 c 0,0.2196041 0.097896,0.4074583 0.2645833,0.5291666 0.1084792,0.076729 0.254,0.1137709 0.396875,0.1137709 0.1455209,0 0.2883959,-0.037042 0.396875,-0.1137709 C 5.1937708,2.524125 5.2916667,2.3362708 5.2916667,2.1166667 V 1.8520833 L 4.4979167,0 H 1.0583333 L 0,1.8520833 V 2.1166667 C 0,2.3362708 0.09789583,2.524125 0.26458333,2.6458333 Z M 0.79375,5.0244375 H 2.1166667 V 3.7015208 H 3.175 V 5.0244375 H 4.4979167 V 3.1723542 C 4.4000208,3.159125 4.3074167,3.1141458 4.2333333,3.0585833 4.0666458,2.9395208 3.96875,2.8654375 3.96875,2.6458333 c 0,0.2196042 -0.1005417,0.2936875 -0.2645833,0.41275 C 3.5956875,3.1379583 3.4528125,3.1723542 3.3099375,3.175 3.1644167,3.175 3.0188958,3.1379583 2.9104167,3.0585833 2.7437292,2.9395208 2.6458333,2.8654375 2.6458333,2.6458333 c 0,0.2196042 -0.1005416,0.2936875 -0.2645833,0.41275 C 2.2727708,3.1379583 2.1298958,3.1723542 1.984375,3.175 1.8415,3.175 1.6959792,3.1379583 1.5875,3.0585833 1.4208125,2.9395208 1.3229167,2.8654375 1.3229167,2.6431875 c 0,0.22225 -0.1005417,0.2963333 -0.2645834,0.4153958 C 0.98160417,3.1141458 0.89164583,3.159125 0.79375,3.175 Z"
         style="stroke-width:0.264583" />
    </symbol>
    <clipPath
       id="clipPath161462-6"
       clipPathUnits="userSpaceOnUse">
      <path
         inkscape:connector-curvature="0"
         id="path161460-7"
         d="m 1032.96,2313.28 -333.905,-372.74 229.562,-597.75 286.953,-272.01 415.65,-193.51 426.52,73.21 293.68,-701.64 h 332.56 L 2477.24,727.012 2800.11,486.23 3187,650.969 v 256.429 l 385.07,239.412 -69.57,568.83 -440.82,622.99 -1155.7,301.75 z" />
    </clipPath>
    <linearGradient
       spreadMethod="pad"
       y2="0"
       x2="1"
       y1="0"
       x1="0"
       gradientTransform="matrix(19.301722,0,0,19.301722,142.63929,192.06605)"
       gradientUnits="userSpaceOnUse"
       id="linearGradient243972"
       xlink:href="#linearGradient161468"
       inkscape:collect="always" />
    <linearGradient
       inkscape:collect="always"
       xlink:href="#linearGradient100137"
       id="linearGradient100675"
       gradientUnits="userSpaceOnUse"
       gradientTransform="translate(-0.2645835,153.72294)"
       x1="26.477001"
       y1="194.26094"
       x2="26.477001"
       y2="275.05344" />
    <symbol
       viewBox="0 0 576 512"
       id="puzzle-piece">
      <title
         id="puzzle-piece-title">Puzzle Piece</title>
      <path
         id="path70628"
         d="m 137.4357,76.372244 c -10.98524,0 -15.74271,8.358981 -21.71118,8.358981 C 99.856131,84.731225 114.3,38.1 114.3,38.1 c 0,0 -51.934533,21.166667 -51.934533,-0.872331 0,-9.479227 9.6012,-12.236979 9.6012,-22.750198 C 71.966667,5.0842333 64.527906,0 55.70511,0 46.53624,0 38.145773,4.9982437 38.145773,14.908212 c 0,10.944225 8.390202,15.683707 8.390202,21.629688 C 46.53624,54.958985 0,44.121387 0,44.121387 v 88.168953 c 0,0 47.263844,10.86036 47.263844,-7.58348 0,-5.94599 -10.583334,-10.61165 -10.583334,-21.55587 0,-9.910236 7.739063,-14.908215 16.821415,-14.908215 8.909315,0 16.348075,5.084233 16.348075,14.477205 0,10.51322 -9.6012,13.27097 -9.6012,22.7502 0,16.08746 34.309844,6.80773 47.95044,6.80773 0,0 -9.187659,-31.77672 6.83339,-31.77672 9.51495,0 12.28275,9.56521 22.83566,9.56521 9.42843,2.7e-4 14.53171,-7.41071 14.53171,-16.28669 0,-9.048485 -5.01703,-17.407466 -14.9643,-17.407466 z"
         style="stroke-width:0.264583" />
    </symbol>
    <linearGradient
       inkscape:collect="always"
       xlink:href="#linearGradient100137"
       id="linearGradient100739"
       gradientUnits="userSpaceOnUse"
       gradientTransform="translate(-0.2645835,233.09798)"
       x1="26.477001"
       y1="194.26094"
       x2="26.477001"
       y2="275.05344" />
    <symbol
       viewBox="0 0 12 16"
       id="paintcan">
      <title
         id="title83795">paintcan</title>
      <path
         id="path83797"
         d="M 1.5875,0 C 0.71172917,0 0,0.71172917 0,1.5875 V 1.8520833 C 0,1.9976042 0.1190625,2.1166667 0.26458333,2.1166667 V 3.4395833 C 0.26458333,3.730625 0.85725,3.96875 1.5875,3.96875 c 0.73025,0 1.3229167,-0.238125 1.3229167,-0.5291667 V 2.1166667 C 3.0559375,2.1166667 3.175,1.9976042 3.175,1.8520833 V 1.5875 C 3.175,0.71172917 2.4632708,0 1.5875,0 Z M 2.38125,2.6458333 V 2.778125 c 0,0.074083 -0.058208,0.1322917 -0.1322917,0.1322917 -0.074083,0 -0.1322916,-0.058208 -0.1322916,-0.1322917 V 2.6458333 c 0,-0.074083 -0.058208,-0.1322916 -0.1322917,-0.1322916 -0.074083,0 -0.1322917,0.058208 -0.1322917,0.1322916 v 0.6614584 c 0,0.074083 -0.058208,0.1322916 -0.1322916,0.1322916 C 1.6457083,3.4395833 1.5875,3.381375 1.5875,3.3072917 V 2.778125 c 0,-0.074083 -0.058208,-0.1322917 -0.1322917,-0.1322917 -0.074083,0 -0.1322916,0.058208 -0.1322916,0.1322917 V 2.9104167 C 1.3229167,3.0559375 1.2038542,3.175 1.0583333,3.175 0.9128125,3.175 0.79375,3.0559375 0.79375,2.9104167 V 2.6458333 c -0.14552083,0 -0.26458333,-0.1190625 -0.26458333,-0.2645833 V 1.905 C 0.7699375,2.0346458 1.1535833,2.1166667 1.5875,2.1166667 c 0.4339167,0 0.8175625,-0.082021 1.0583333,-0.2116667 v 0.47625 c 0,0.1455208 -0.1190625,0.2645833 -0.2645833,0.2645833 z M 1.5875,1.8520833 C 1.143,1.8520833 0.762,1.7436042 0.60589583,1.5875 0.762,1.4313958 1.143,1.3229167 1.5875,1.3229167 2.032,1.3229167 2.413,1.4313958 2.5691042,1.5875 2.413,1.7436042 2.032,1.8520833 1.5875,1.8520833 Z m 0,-0.79375 c -0.73025,0 -1.32291667,0.2354792 -1.32291667,0.5291667 0,-0.73025 0.59266667,-1.32291667 1.32291667,-1.32291667 0.73025,0 1.3229167,0.59266667 1.3229167,1.32291667 0,-0.2910417 -0.5926667,-0.5291667 -1.3229167,-0.5291667 z"
         style="stroke-width:0.264583" />
    </symbol>
  </defs>
  <sodipodi:namedview
     id="base"
     pagecolor="#ffffff"
     bordercolor="#666666"
     borderopacity="1.0"
     inkscape:pageopacity="0.0"
     inkscape:pageshadow="2"
     inkscape:zoom="1.4142136"
     inkscape:cx="467.98041"
     inkscape:cy="363.37689"
     inkscape:document-units="mm"
     inkscape:current-layer="layer1"
     inkscape:document-rotation="0"
     showgrid="false"
     units="px"
     inkscape:snap-global="false"
     inkscape:window-width="2560"
     inkscape:window-height="1369"
     inkscape:window-x="1920"
     inkscape:window-y="34"
     inkscape:window-maximized="1" />
  <metadata
     id="metadata1219">
    <rdf:RDF>
      <cc:Work
         rdf:about="">
        <dc:format>image/svg+xml</dc:format>
        <dc:type
           rdf:resource="http://purl.org/dc/dcmitype/StillImage" />
        <dc:title />
      </cc:Work>
    </rdf:RDF>
  </metadata>
  <g
     inkscape:label="Layer 1"
     inkscape:groupmode="layer"
     id="layer1"
     transform="translate(0,-233.49999)">
    <rect
       style="fill:url(#linearGradient100141);fill-opacity:1;stroke:none;stroke-width:0.529167;stroke-linecap:round;stroke-linejoin:round"
       id="rect1785"
       width="116.41666"
       height="63.5"
       x="0"
       y="233.49998"
       rx="0.88767707"
       ry="0.89791119"
       inkscape:export-xdpi="96"
       inkscape:export-ydpi="96" />
    <rect
       y="193.90552"
       x="-67.597702"
       height="18.520859"
       width="78.581345"
       id="rect244687"
       style="fill:none;fill-opacity:1;stroke:none;stroke-width:0.264584;stroke-linecap:square;stroke-linejoin:bevel;stroke-miterlimit:4;stroke-dasharray:none;stroke-dashoffset:0;stroke-opacity:1"
       inkscape:export-filename="/home/duffy/Repositories/ChRIS_store_ui/src/assets/img/chris_logo-white.png"
       inkscape:export-xdpi="96"
       inkscape:export-ydpi="96" />
    <g
       id="g100176"
       transform="translate(157.56117,44.674761)">
      <path
         d="m -69.895526,211.21786 c -0.202478,-0.15749 -0.348802,-0.36098 -0.43919,-0.61035 -0.09056,-0.24899 -0.135666,-0.51734 -0.135666,-0.80477 0,-0.26624 0.04604,-0.52528 0.137902,-0.77765 0.09208,-0.25238 0.239903,-0.46103 0.443858,-0.62602 0.20381,-0.1654 0.462221,-0.24785 0.774901,-0.24785 0.291148,0 0.539475,0.075 0.744922,0.22473 0.205478,0.14996 0.351038,0.3318 0.436958,0.54611 l -0.625562,0.27959 c -0.08888,-0.1314 -0.17404,-0.22771 -0.255247,-0.28899 -0.08118,-0.0611 -0.181484,-0.0918 -0.30107,-0.0918 -0.217799,0 -0.377231,0.0989 -0.478305,0.29599 -0.101237,0.19715 -0.151746,0.42594 -0.151746,0.68586 0,0.16195 0.023,0.31801 0.06888,0.46774 0.04601,0.15 0.116562,0.27283 0.211636,0.36951 0.09505,0.0963 0.211441,0.14448 0.349534,0.14448 0.1104,0 0.209214,-0.0362 0.296575,-0.10787 0.08739,-0.072 0.170854,-0.17361 0.250556,-0.30499 l 0.639241,0.23846 c -0.260482,0.56263 -0.656056,0.84411 -1.186372,0.84411 -0.318841,0 -0.579542,-0.0788 -0.781801,-0.23634"
         style="fill:#fafafa;fill-opacity:1;fill-rule:nonzero;stroke:none;stroke-width:0.0225655"
         id="path244330"
         inkscape:connector-curvature="0" />
      <path
         d="m -67.541605,208.19416 h 0.666911 v 1.30805 c 0.150056,-0.18034 0.363192,-0.2707 0.639235,-0.2707 0.217605,0 0.407734,0.0687 0.570163,0.20643 0.162432,0.13775 0.24383,0.36103 0.24383,0.66971 v 1.30064 h -0.666912 v -1.03446 c 0,-0.17433 -0.02827,-0.3013 -0.08496,-0.38073 -0.05692,-0.0796 -0.152705,-0.11952 -0.287466,-0.11952 -0.276,0 -0.413893,0.16391 -0.413893,0.49096 v 1.04375 h -0.666911 v -3.21413"
         style="fill:#fafafa;fill-opacity:1;fill-rule:nonzero;stroke:none;stroke-width:0.0225655"
         id="path244332"
         inkscape:connector-curvature="0" />
      <path
         d="m -63.420788,209.60885 c 0.128735,0 0.221395,-0.0351 0.278281,-0.10527 0.0567,-0.0706 0.08493,-0.16242 0.08493,-0.27558 0,-0.10674 -0.02823,-0.19633 -0.08493,-0.26837 -0.05689,-0.0717 -0.149546,-0.10755 -0.278281,-0.10755 h -0.878349 v 0.75677 z m -1.577452,-1.41752 h 1.568275 c 0.386276,0 0.666006,0.0963 0.83925,0.28899 0.173117,0.19262 0.259742,0.44193 0.259742,0.74768 0,0.18967 -0.05218,0.37482 -0.15621,0.55516 -0.104223,0.18071 -0.246856,0.30717 -0.427763,0.38072 l 0.60249,1.23869 h -0.781768 l -0.584037,-1.13297 h -0.620874 v 1.13297 h -0.699103 v -3.21124"
         style="fill:#fafafa;fill-opacity:1;fill-rule:nonzero;stroke:none;stroke-width:0.0225655"
         id="path244334"
         inkscape:connector-curvature="0" />
      <path
         d="m -61.635141,211.40257 v -3.21124 h 0.674116 v 3.21124 h -0.674116"
         style="fill:#fafafa;fill-opacity:1;fill-rule:nonzero;stroke:none;stroke-width:0.0225655"
         id="path244336"
         inkscape:connector-curvature="0"
         sodipodi:nodetypes="ccccc" />
      <path
         d="m -60.083039,211.2134 c -0.225292,-0.1669 -0.387222,-0.39684 -0.48522,-0.69059 l 0.625336,-0.23408 c 0.07374,0.15608 0.170289,0.28073 0.289851,0.37404 0.119625,0.0933 0.251381,0.14 0.395455,0.14 0.150235,0 0.26829,-0.0284 0.354156,-0.0851 0.08574,-0.0563 0.128736,-0.13815 0.128736,-0.24525 0,-0.10076 -0.04822,-0.17882 -0.14483,-0.23406 -0.09655,-0.0549 -0.252195,-0.11611 -0.466802,-0.18328 -0.223845,-0.0735 -0.40457,-0.14296 -0.542674,-0.20868 -0.137915,-0.0657 -0.257477,-0.16314 -0.358745,-0.29161 -0.101079,-0.12838 -0.151747,-0.29635 -0.151747,-0.50432 0,-0.16829 0.04449,-0.32103 0.133389,-0.45881 0.08888,-0.13769 0.218377,-0.24703 0.388666,-0.32805 0.170099,-0.081 0.371631,-0.1214 0.604655,-0.1214 0.288154,0 0.530417,0.0751 0.726541,0.22473 0.196313,0.14972 0.326561,0.34236 0.39093,0.57794 l -0.625337,0.20194 c -0.101331,-0.22959 -0.277527,-0.34422 -0.528845,-0.34422 -0.125722,0 -0.222337,0.0225 -0.289661,0.0665 -0.06758,0.0445 -0.101268,0.10934 -0.101268,0.19523 0,0.0732 0.04214,0.13219 0.126537,0.17658 0.08417,0.0445 0.224536,0.10002 0.420659,0.16731 0.226927,0.0735 0.414627,0.1459 0.563419,0.21794 0.148541,0.0717 0.278283,0.17663 0.388603,0.31431 0.110193,0.13739 0.16545,0.31621 0.16545,0.53643 0,0.20197 -0.0528,0.37785 -0.158662,0.52751 -0.10573,0.15007 -0.249054,0.26398 -0.429838,0.342 -0.180975,0.078 -0.384896,0.1168 -0.611696,0.1168 -0.312729,0 -0.581773,-0.0833 -0.807065,-0.24976"
         style="fill:#fafafa;fill-opacity:1;fill-rule:nonzero;stroke:none;stroke-width:0.0225655"
         id="path244338"
         inkscape:connector-curvature="0" />
      <path
         inkscape:connector-curvature="0"
         id="path243834"
         d="m -58.497234,195.07468 0.744524,2.36012 c 0.0105,-4.6e-4 0.02045,-0.003 0.03099,-0.003 0.390144,0 0.706476,0.31633 0.706476,0.70648 0,0.0264 -0.0049,0.0521 -0.0078,0.0777 l 3.463311,1.34851 c 0.12827,-0.17856 0.336169,-0.29576 0.572973,-0.29576 0.08407,0 0.16383,0.0165 0.238252,0.0437 l 1.609369,-2.30263 z m -0.364033,0.0117 -5.15967,1.86558 2.914432,2.1241 c 0.235458,-0.24359 0.563346,-0.39518 0.928547,-0.39518 0.361011,0 0.686842,0.14809 0.921538,0.38664 l 0.881939,-0.65991 c -0.03404,-0.0831 -0.0541,-0.17399 -0.0541,-0.2694 0,-0.25555 0.137414,-0.47764 0.340766,-0.60165 z m -5.503594,2.04958 -1.938578,2.37566 2.217267,0.8827 c 0.128778,-0.17602 0.335052,-0.29192 0.569824,-0.29192 0.268656,0 0.498907,0.15189 0.618744,0.37206 l 1.439392,-0.36102 c -0.0049,-0.0457 -0.01397,-0.0909 -0.01397,-0.13792 0,-0.22352 0.06172,-0.43053 0.16129,-0.61407 z m 13.396814,0.24231 -1.489863,2.13185 c 0.09601,0.10896 0.156972,0.24739 0.171958,0.39982 l 1.169975,0.18974 c 0.07645,-0.17399 0.22098,-0.30948 0.399822,-0.37663 z m 0.369367,0.15672 0.230632,2.15204 c 0.336575,0.049 0.595503,0.33198 0.603224,0.68006 l 1.535608,0.35717 z m -6.546251,1.00848 -7.72e-4,7.8e-4 c -0.08865,0.12649 -0.218948,0.22047 -0.370129,0.26713 l 0.07061,1.87955 c 0.318262,0.0686 0.557429,0.35144 0.557429,0.6902 0,0.0894 -0.01853,0.17399 -0.04902,0.25298 l 1.243736,0.8858 c 0.122682,-0.10389 0.27973,-0.17018 0.453365,-0.17018 0.0922,0 0.180594,0.0192 0.261035,0.0511 l 1.444041,-1.98513 c -0.09779,-0.12167 -0.158242,-0.27359 -0.158242,-0.44097 0,-0.0287 0.0053,-0.0554 0.0085,-0.0831 z m -1.017778,0.14275 -0.888162,0.66454 c 0.10287,0.18567 0.166878,0.39675 0.166878,0.62415 0,0.16002 -0.03277,0.31252 -0.08636,0.45421 l 0.860984,0.46972 c 0.08458,-0.0909 0.192278,-0.15672 0.314427,-0.19355 l -0.07061,-1.87488 c -0.11176,-0.0229 -0.211074,-0.0752 -0.297256,-0.14452 z m -8.123799,1.20876 1.356309,3.53086 1.550416,1.36327 -0.257632,-3.28554 c -0.332384,-0.0574 -0.585368,-0.34533 -0.585368,-0.69405 0,-0.0305 0.0048,-0.0599 0.0085,-0.0894 z m 13.947252,0.36101 c -0.108712,0.24994 -0.357581,0.42542 -0.647497,0.42542 -0.09601,0 -0.186182,-0.0192 -0.269392,-0.0533 l -1.440917,1.98047 c 0.101092,0.12243 0.164338,0.27704 0.164338,0.44795 0,0.0894 -0.01852,0.17475 -0.04902,0.25375 l 2.054251,1.4619 c 0.122682,-0.10414 0.27973,-0.16942 0.45339,-0.16942 0.125222,0 0.2413,0.0351 0.343814,0.0922 l 1.040308,-1.0776 c -0.06655,-0.10744 -0.106934,-0.23215 -0.106934,-0.36786 0,-0.29688 0.18415,-0.55068 0.443306,-0.65525 l -0.201168,-1.51386 c -0.328955,-0.0399 -0.585622,-0.30224 -0.615645,-0.63429 z m -9.039128,0.19837 -1.431595,0.35946 c -0.0017,0.30798 -0.20193,0.56645 -0.478282,0.66145 l 0.267868,3.41828 2.08374,-3.87402 c -0.196088,-0.14274 -0.350723,-0.33698 -0.441757,-0.56517 z m 11.532008,0.25375 c -0.07747,0.14859 -0.203962,0.26596 -0.360248,0.32931 l 0.200406,1.51465 c 0.102616,0.0122 0.198882,0.0447 0.282779,0.096 l 1.581454,-1.54415 -1.703349,-0.39596 z m -9.291436,0.0302 c -0.235458,0.32052 -0.61209,0.53101 -1.040334,0.53101 -0.15875,0 -0.309092,-0.0323 -0.449529,-0.0846 l -2.176881,4.04637 2.330627,1.29185 2.305025,-0.37356 c 0.03226,-0.27971 0.225806,-0.50759 0.486766,-0.59002 l -0.0729,-3.49204 c -0.312522,-0.0729 -0.544983,-0.35261 -0.544983,-0.68705 0,-0.0599 0.0092,-0.1176 0.02332,-0.17297 z m 11.187303,0.66921 -1.529411,1.49136 c 0.05969,0.10389 0.09703,0.22301 0.09703,0.35105 0,0.3095 -0.200406,0.56876 -0.477469,0.66454 l 0.145796,1.81433 c 0.134366,0.0257 0.254254,0.0909 0.34953,0.18084 l 1.793367,-1.07294 z m -9.189738,0.51008 c -0.07645,0.0645 -0.166116,0.11303 -0.264821,0.14046 l 0.0729,3.47885 c 0.03099,0.006 0.05994,0.0171 0.08941,0.0274 l 1.464996,-2.05425 c -0.103378,-0.12268 -0.167894,-0.28008 -0.167894,-0.45339 0,-0.0894 0.01774,-0.17399 0.04826,-0.25298 z m 2.354707,1.67691 c -0.122682,0.10389 -0.27973,0.16789 -0.453416,0.16789 -0.08966,0 -0.174752,-0.0176 -0.253746,-0.0483 l -1.456436,2.04181 c 0.113792,0.12573 0.18542,0.29078 0.18542,0.47361 0,0.0607 -0.01054,0.11862 -0.02504,0.17475 l 1.539468,0.84546 c 0.129286,-0.13766 0.311379,-0.22428 0.514731,-0.22428 0.143002,0 0.27587,0.0414 0.387376,0.11481 l 1.649755,-1.50533 c -0.05156,-0.0978 -0.08306,-0.20676 -0.08306,-0.32515 0,-0.0894 0.01869,-0.17348 0.04902,-0.25222 z m 4.348378,0.26713 -1.039571,1.07452 c 0.06782,0.10872 0.108712,0.23622 0.108712,0.37359 0,0.0516 -0.0059,0.10185 -0.0163,0.15011 l 1.003046,0.50076 c 0.08331,-0.096 0.192024,-0.16815 0.315951,-0.20777 l -0.145288,-1.80812 c -0.08179,-0.0141 -0.156972,-0.0434 -0.226822,-0.0825 z m -1.104798,1.90909 c -0.12954,0.14935 -0.318618,0.24638 -0.5318,0.24638 -0.14478,0 -0.278943,-0.0442 -0.391312,-0.11862 l -1.647419,1.50379 c 0.05258,0.0991 0.08458,0.21031 0.08458,0.33009 0,0.1011 -0.02162,0.1966 -0.05994,0.28352 l 1.680058,0.97277 2.381046,-0.98753 -0.0085,-0.89979 c -0.299568,-0.082 -0.520904,-0.35299 -0.520904,-0.67857 0,-0.0516 0.0059,-0.10185 0.0163,-0.15011 z m -5.414312,0.94094 c -0.02565,0.0277 -0.05359,0.0526 -0.08382,0.0757 l 1.604695,3.99435 h 1.850009 l -1.006906,-2.35854 c -0.04572,0.009 -0.09296,0.0147 -0.141986,0.0147 -0.390119,0 -0.706476,-0.31631 -0.706476,-0.70648 0,-0.0607 0.0097,-0.11861 0.02401,-0.17475 z"
         style="fill:#fafafa;fill-opacity:1;fill-rule:nonzero;stroke:none;stroke-width:0.0529991" />
    </g>
    <text
       xml:space="preserve"
       style="font-size:11.3211px;line-height:0;font-family:sans-serif;word-spacing:0px;fill:#fafafa;fill-opacity:1;stroke-width:0.283028"
       x="11.84903"
       y="265.45251"
       id="text87214"><tspan
         style="font-style:normal;font-variant:normal;font-weight:300;font-stretch:normal;font-size:6.35px;line-height:1;font-family:Overpass;-inkscape-font-specification:'Overpass Light';fill:#fafafa;fill-opacity:1;stroke-width:0.283028"
         sodipodi:role="line"
         id="tspan100317"
         x="11.84903"
         y="265.45251">HOW-TO:</tspan><tspan
         sodipodi:role="line"
         x="11.84903"
         y="269.98083"
         style="font-style:normal;font-variant:normal;font-weight:300;font-stretch:normal;font-size:9.17222px;line-height:1;font-family:Overpass;-inkscape-font-specification:'Overpass Light';fill:#fafafa;fill-opacity:1;stroke-width:0.283028"
         id="tspan100292" /></text>
    <use
       xlink:href="#road"
       style="fill:#000000;stroke:none"
       transform="translate(170.46608,242.0328)"
       id="use96974"
       x="0"
       y="0"
       width="100%"
       height="100%" />
    <use
       xlink:href="#laptop"
       style="opacity:0.25;fill:#fafafa;stroke:none"
       transform="matrix(0.92952797,0,0,0.92952797,-6.2094289,238.96712)"
       id="use100272"
       x="0"
       y="0"
       width="100%"
       height="100%" />
    <use
       xlink:href="#sitemap"
       style="fill:#fafafa;fill-opacity:1;stroke:none"
       transform="matrix(3.4107623,0,0,3.4107623,149.75276,267.93519)"
       id="use100117"
       x="0"
       y="0"
       width="100%"
       height="100%" />
    <rect
       ry="0.90381026"
       rx="0.039495081"
       y="235.67262"
       x="-58.152344"
       height="63.917183"
       width="5.1796823"
       id="rect100131"
       style="fill:#1f81b1;fill-opacity:1;stroke:#9a9fa6;stroke-width:0.111984;stroke-linecap:round;stroke-linejoin:round" />
    <rect
       ry="0.89791119"
       rx="0.88767707"
       y="58.874912"
       x="0"
       height="63.5"
       width="116.41666"
       id="rect100178"
       style="fill:url(#linearGradient100204);fill-opacity:1;stroke:none;stroke-width:0.529167;stroke-linecap:round;stroke-linejoin:round" />
    <g
       transform="translate(82.332749,-129.83872)"
       id="g100192">
      <path
         inkscape:connector-curvature="0"
         id="path100180"
         style="fill:#fafafa;fill-opacity:1;fill-rule:nonzero;stroke:none;stroke-width:0.0225655"
         d="m -69.895526,211.21786 c -0.202478,-0.15749 -0.348802,-0.36098 -0.43919,-0.61035 -0.09056,-0.24899 -0.135666,-0.51734 -0.135666,-0.80477 0,-0.26624 0.04604,-0.52528 0.137902,-0.77765 0.09208,-0.25238 0.239903,-0.46103 0.443858,-0.62602 0.20381,-0.1654 0.462221,-0.24785 0.774901,-0.24785 0.291148,0 0.539475,0.075 0.744922,0.22473 0.205478,0.14996 0.351038,0.3318 0.436958,0.54611 l -0.625562,0.27959 c -0.08888,-0.1314 -0.17404,-0.22771 -0.255247,-0.28899 -0.08118,-0.0611 -0.181484,-0.0918 -0.30107,-0.0918 -0.217799,0 -0.377231,0.0989 -0.478305,0.29599 -0.101237,0.19715 -0.151746,0.42594 -0.151746,0.68586 0,0.16195 0.023,0.31801 0.06888,0.46774 0.04601,0.15 0.116562,0.27283 0.211636,0.36951 0.09505,0.0963 0.211441,0.14448 0.349534,0.14448 0.1104,0 0.209214,-0.0362 0.296575,-0.10787 0.08739,-0.072 0.170854,-0.17361 0.250556,-0.30499 l 0.639241,0.23846 c -0.260482,0.56263 -0.656056,0.84411 -1.186372,0.84411 -0.318841,0 -0.579542,-0.0788 -0.781801,-0.23634" />
      <path
         inkscape:connector-curvature="0"
         id="path100182"
         style="fill:#fafafa;fill-opacity:1;fill-rule:nonzero;stroke:none;stroke-width:0.0225655"
         d="m -67.541605,208.19416 h 0.666911 v 1.30805 c 0.150056,-0.18034 0.363192,-0.2707 0.639235,-0.2707 0.217605,0 0.407734,0.0687 0.570163,0.20643 0.162432,0.13775 0.24383,0.36103 0.24383,0.66971 v 1.30064 h -0.666912 v -1.03446 c 0,-0.17433 -0.02827,-0.3013 -0.08496,-0.38073 -0.05692,-0.0796 -0.152705,-0.11952 -0.287466,-0.11952 -0.276,0 -0.413893,0.16391 -0.413893,0.49096 v 1.04375 h -0.666911 v -3.21413" />
      <path
         inkscape:connector-curvature="0"
         id="path100184"
         style="fill:#fafafa;fill-opacity:1;fill-rule:nonzero;stroke:none;stroke-width:0.0225655"
         d="m -63.420788,209.60885 c 0.128735,0 0.221395,-0.0351 0.278281,-0.10527 0.0567,-0.0706 0.08493,-0.16242 0.08493,-0.27558 0,-0.10674 -0.02823,-0.19633 -0.08493,-0.26837 -0.05689,-0.0717 -0.149546,-0.10755 -0.278281,-0.10755 h -0.878349 v 0.75677 z m -1.577452,-1.41752 h 1.568275 c 0.386276,0 0.666006,0.0963 0.83925,0.28899 0.173117,0.19262 0.259742,0.44193 0.259742,0.74768 0,0.18967 -0.05218,0.37482 -0.15621,0.55516 -0.104223,0.18071 -0.246856,0.30717 -0.427763,0.38072 l 0.60249,1.23869 h -0.781768 l -0.584037,-1.13297 h -0.620874 v 1.13297 h -0.699103 v -3.21124" />
      <path
         sodipodi:nodetypes="ccccc"
         inkscape:connector-curvature="0"
         id="path100186"
         style="fill:#fafafa;fill-opacity:1;fill-rule:nonzero;stroke:none;stroke-width:0.0225655"
         d="m -61.635141,211.40257 v -3.21124 h 0.674116 v 3.21124 h -0.674116" />
      <path
         inkscape:connector-curvature="0"
         id="path100188"
         style="fill:#fafafa;fill-opacity:1;fill-rule:nonzero;stroke:none;stroke-width:0.0225655"
         d="m -60.083039,211.2134 c -0.225292,-0.1669 -0.387222,-0.39684 -0.48522,-0.69059 l 0.625336,-0.23408 c 0.07374,0.15608 0.170289,0.28073 0.289851,0.37404 0.119625,0.0933 0.251381,0.14 0.395455,0.14 0.150235,0 0.26829,-0.0284 0.354156,-0.0851 0.08574,-0.0563 0.128736,-0.13815 0.128736,-0.24525 0,-0.10076 -0.04822,-0.17882 -0.14483,-0.23406 -0.09655,-0.0549 -0.252195,-0.11611 -0.466802,-0.18328 -0.223845,-0.0735 -0.40457,-0.14296 -0.542674,-0.20868 -0.137915,-0.0657 -0.257477,-0.16314 -0.358745,-0.29161 -0.101079,-0.12838 -0.151747,-0.29635 -0.151747,-0.50432 0,-0.16829 0.04449,-0.32103 0.133389,-0.45881 0.08888,-0.13769 0.218377,-0.24703 0.388666,-0.32805 0.170099,-0.081 0.371631,-0.1214 0.604655,-0.1214 0.288154,0 0.530417,0.0751 0.726541,0.22473 0.196313,0.14972 0.326561,0.34236 0.39093,0.57794 l -0.625337,0.20194 c -0.101331,-0.22959 -0.277527,-0.34422 -0.528845,-0.34422 -0.125722,0 -0.222337,0.0225 -0.289661,0.0665 -0.06758,0.0445 -0.101268,0.10934 -0.101268,0.19523 0,0.0732 0.04214,0.13219 0.126537,0.17658 0.08417,0.0445 0.224536,0.10002 0.420659,0.16731 0.226927,0.0735 0.414627,0.1459 0.563419,0.21794 0.148541,0.0717 0.278283,0.17663 0.388603,0.31431 0.110193,0.13739 0.16545,0.31621 0.16545,0.53643 0,0.20197 -0.0528,0.37785 -0.158662,0.52751 -0.10573,0.15007 -0.249054,0.26398 -0.429838,0.342 -0.180975,0.078 -0.384896,0.1168 -0.611696,0.1168 -0.312729,0 -0.581773,-0.0833 -0.807065,-0.24976" />
      <path
         style="fill:#fafafa;fill-opacity:1;fill-rule:nonzero;stroke:none;stroke-width:0.0529991"
         d="m -58.497234,195.07468 0.744524,2.36012 c 0.0105,-4.6e-4 0.02045,-0.003 0.03099,-0.003 0.390144,0 0.706476,0.31633 0.706476,0.70648 0,0.0264 -0.0049,0.0521 -0.0078,0.0777 l 3.463311,1.34851 c 0.12827,-0.17856 0.336169,-0.29576 0.572973,-0.29576 0.08407,0 0.16383,0.0165 0.238252,0.0437 l 1.609369,-2.30263 z m -0.364033,0.0117 -5.15967,1.86558 2.914432,2.1241 c 0.235458,-0.24359 0.563346,-0.39518 0.928547,-0.39518 0.361011,0 0.686842,0.14809 0.921538,0.38664 l 0.881939,-0.65991 c -0.03404,-0.0831 -0.0541,-0.17399 -0.0541,-0.2694 0,-0.25555 0.137414,-0.47764 0.340766,-0.60165 z m -5.503594,2.04958 -1.938578,2.37566 2.217267,0.8827 c 0.128778,-0.17602 0.335052,-0.29192 0.569824,-0.29192 0.268656,0 0.498907,0.15189 0.618744,0.37206 l 1.439392,-0.36102 c -0.0049,-0.0457 -0.01397,-0.0909 -0.01397,-0.13792 0,-0.22352 0.06172,-0.43053 0.16129,-0.61407 z m 13.396814,0.24231 -1.489863,2.13185 c 0.09601,0.10896 0.156972,0.24739 0.171958,0.39982 l 1.169975,0.18974 c 0.07645,-0.17399 0.22098,-0.30948 0.399822,-0.37663 z m 0.369367,0.15672 0.230632,2.15204 c 0.336575,0.049 0.595503,0.33198 0.603224,0.68006 l 1.535608,0.35717 z m -6.546251,1.00848 -7.72e-4,7.8e-4 c -0.08865,0.12649 -0.218948,0.22047 -0.370129,0.26713 l 0.07061,1.87955 c 0.318262,0.0686 0.557429,0.35144 0.557429,0.6902 0,0.0894 -0.01853,0.17399 -0.04902,0.25298 l 1.243736,0.8858 c 0.122682,-0.10389 0.27973,-0.17018 0.453365,-0.17018 0.0922,0 0.180594,0.0192 0.261035,0.0511 l 1.444041,-1.98513 c -0.09779,-0.12167 -0.158242,-0.27359 -0.158242,-0.44097 0,-0.0287 0.0053,-0.0554 0.0085,-0.0831 z m -1.017778,0.14275 -0.888162,0.66454 c 0.10287,0.18567 0.166878,0.39675 0.166878,0.62415 0,0.16002 -0.03277,0.31252 -0.08636,0.45421 l 0.860984,0.46972 c 0.08458,-0.0909 0.192278,-0.15672 0.314427,-0.19355 l -0.07061,-1.87488 c -0.11176,-0.0229 -0.211074,-0.0752 -0.297256,-0.14452 z m -8.123799,1.20876 1.356309,3.53086 1.550416,1.36327 -0.257632,-3.28554 c -0.332384,-0.0574 -0.585368,-0.34533 -0.585368,-0.69405 0,-0.0305 0.0048,-0.0599 0.0085,-0.0894 z m 13.947252,0.36101 c -0.108712,0.24994 -0.357581,0.42542 -0.647497,0.42542 -0.09601,0 -0.186182,-0.0192 -0.269392,-0.0533 l -1.440917,1.98047 c 0.101092,0.12243 0.164338,0.27704 0.164338,0.44795 0,0.0894 -0.01852,0.17475 -0.04902,0.25375 l 2.054251,1.4619 c 0.122682,-0.10414 0.27973,-0.16942 0.45339,-0.16942 0.125222,0 0.2413,0.0351 0.343814,0.0922 l 1.040308,-1.0776 c -0.06655,-0.10744 -0.106934,-0.23215 -0.106934,-0.36786 0,-0.29688 0.18415,-0.55068 0.443306,-0.65525 l -0.201168,-1.51386 c -0.328955,-0.0399 -0.585622,-0.30224 -0.615645,-0.63429 z m -9.039128,0.19837 -1.431595,0.35946 c -0.0017,0.30798 -0.20193,0.56645 -0.478282,0.66145 l 0.267868,3.41828 2.08374,-3.87402 c -0.196088,-0.14274 -0.350723,-0.33698 -0.441757,-0.56517 z m 11.532008,0.25375 c -0.07747,0.14859 -0.203962,0.26596 -0.360248,0.32931 l 0.200406,1.51465 c 0.102616,0.0122 0.198882,0.0447 0.282779,0.096 l 1.581454,-1.54415 -1.703349,-0.39596 z m -9.291436,0.0302 c -0.235458,0.32052 -0.61209,0.53101 -1.040334,0.53101 -0.15875,0 -0.309092,-0.0323 -0.449529,-0.0846 l -2.176881,4.04637 2.330627,1.29185 2.305025,-0.37356 c 0.03226,-0.27971 0.225806,-0.50759 0.486766,-0.59002 l -0.0729,-3.49204 c -0.312522,-0.0729 -0.544983,-0.35261 -0.544983,-0.68705 0,-0.0599 0.0092,-0.1176 0.02332,-0.17297 z m 11.187303,0.66921 -1.529411,1.49136 c 0.05969,0.10389 0.09703,0.22301 0.09703,0.35105 0,0.3095 -0.200406,0.56876 -0.477469,0.66454 l 0.145796,1.81433 c 0.134366,0.0257 0.254254,0.0909 0.34953,0.18084 l 1.793367,-1.07294 z m -9.189738,0.51008 c -0.07645,0.0645 -0.166116,0.11303 -0.264821,0.14046 l 0.0729,3.47885 c 0.03099,0.006 0.05994,0.0171 0.08941,0.0274 l 1.464996,-2.05425 c -0.103378,-0.12268 -0.167894,-0.28008 -0.167894,-0.45339 0,-0.0894 0.01774,-0.17399 0.04826,-0.25298 z m 2.354707,1.67691 c -0.122682,0.10389 -0.27973,0.16789 -0.453416,0.16789 -0.08966,0 -0.174752,-0.0176 -0.253746,-0.0483 l -1.456436,2.04181 c 0.113792,0.12573 0.18542,0.29078 0.18542,0.47361 0,0.0607 -0.01054,0.11862 -0.02504,0.17475 l 1.539468,0.84546 c 0.129286,-0.13766 0.311379,-0.22428 0.514731,-0.22428 0.143002,0 0.27587,0.0414 0.387376,0.11481 l 1.649755,-1.50533 c -0.05156,-0.0978 -0.08306,-0.20676 -0.08306,-0.32515 0,-0.0894 0.01869,-0.17348 0.04902,-0.25222 z m 4.348378,0.26713 -1.039571,1.07452 c 0.06782,0.10872 0.108712,0.23622 0.108712,0.37359 0,0.0516 -0.0059,0.10185 -0.0163,0.15011 l 1.003046,0.50076 c 0.08331,-0.096 0.192024,-0.16815 0.315951,-0.20777 l -0.145288,-1.80812 c -0.08179,-0.0141 -0.156972,-0.0434 -0.226822,-0.0825 z m -1.104798,1.90909 c -0.12954,0.14935 -0.318618,0.24638 -0.5318,0.24638 -0.14478,0 -0.278943,-0.0442 -0.391312,-0.11862 l -1.647419,1.50379 c 0.05258,0.0991 0.08458,0.21031 0.08458,0.33009 0,0.1011 -0.02162,0.1966 -0.05994,0.28352 l 1.680058,0.97277 2.381046,-0.98753 -0.0085,-0.89979 c -0.299568,-0.082 -0.520904,-0.35299 -0.520904,-0.67857 0,-0.0516 0.0059,-0.10185 0.0163,-0.15011 z m -5.414312,0.94094 c -0.02565,0.0277 -0.05359,0.0526 -0.08382,0.0757 l 1.604695,3.99435 h 1.850009 l -1.006906,-2.35854 c -0.04572,0.009 -0.09296,0.0147 -0.141986,0.0147 -0.390119,0 -0.706476,-0.31631 -0.706476,-0.70648 0,-0.0607 0.0097,-0.11861 0.02401,-0.17475 z"
         id="path100190"
         inkscape:connector-curvature="0" />
    </g>
    <text
       id="text100198"
       y="97.177322"
       x="11.84903"
       style="font-size:11.3211px;line-height:1;font-family:sans-serif;word-spacing:0px;fill:#fafafa;fill-opacity:1;stroke-width:0.283028"
       xml:space="preserve"><tspan
         style="font-style:normal;font-variant:normal;font-weight:300;font-stretch:normal;font-family:Overpass;-inkscape-font-specification:'Overpass Light';fill:#fafafa;fill-opacity:1;stroke-width:0.283028"
         y="97.177322"
         x="11.84903"
         id="tspan100194"
         sodipodi:role="line">Architectural</tspan><tspan
         id="tspan100196"
         style="font-style:normal;font-variant:normal;font-weight:300;font-stretch:normal;font-family:Overpass;-inkscape-font-specification:'Overpass Light';fill:#fafafa;fill-opacity:1;stroke-width:0.283028"
         y="108.60898"
         x="11.84903"
         sodipodi:role="line">Overview</tspan></text>
    <rect
       style="fill:#1f81b1;fill-opacity:1;stroke:#9a9fa6;stroke-width:0.111984;stroke-linecap:round;stroke-linejoin:round"
       id="rect100202"
       width="5.1796823"
       height="63.917183"
       x="0.055992406"
       y="58.401756"
       rx="0.039495081"
       ry="0.90381026" />
    <text
       xml:space="preserve"
       style="font-size:11.3211px;line-height:1;font-family:sans-serif;word-spacing:0px;fill:#fafafa;fill-opacity:1;stroke-width:0.283028"
       x="11.84903"
       y="276.56488"
       id="text100339"><tspan
         sodipodi:role="line"
         x="11.84903"
         y="276.56488"
         style="font-style:normal;font-variant:normal;font-weight:300;font-stretch:normal;font-family:Overpass;-inkscape-font-specification:'Overpass Light';fill:#fafafa;fill-opacity:1;stroke-width:0.283028"
         id="tspan100337">Set up ChRIS on</tspan><tspan
         sodipodi:role="line"
         x="11.84903"
         y="287.99655"
         style="font-style:normal;font-variant:normal;font-weight:300;font-stretch:normal;font-family:Overpass;-inkscape-font-specification:'Overpass Light';fill:#fafafa;fill-opacity:1;stroke-width:0.283028"
         id="tspan100343">Your Laptop</tspan></text>
    <rect
       inkscape:export-ydpi="96"
       inkscape:export-xdpi="96"
       ry="0.89791119"
       rx="0.88767707"
       y="159.41658"
       x="0"
       height="63.5"
       width="116.41666"
       id="rect100345"
       style="fill:url(#linearGradient100377);fill-opacity:1;stroke:none;stroke-width:0.529167;stroke-linecap:round;stroke-linejoin:round" />
    <text
       id="text100365"
       y="190.83995"
       x="11.84903"
       style="font-size:11.3211px;line-height:0;font-family:sans-serif;word-spacing:0px;fill:#005c73;fill-opacity:1;stroke-width:0.283028;"
       xml:space="preserve"><tspan
         y="190.83995"
         x="11.84903"
         id="tspan100361"
         sodipodi:role="line"
         style="font-style:normal;font-variant:normal;font-weight:300;font-stretch:normal;font-size:6.35px;line-height:1;font-family:Overpass;-inkscape-font-specification:'Overpass Light';fill:#005c73;fill-opacity:1;stroke-width:0.283028;">OVERVIEW</tspan><tspan
         id="tspan100363"
         style="font-style:normal;font-variant:normal;font-weight:300;font-stretch:normal;font-size:9.17222px;line-height:1;font-family:Overpass;-inkscape-font-specification:'Overpass Light';fill:#005c73;fill-opacity:1;stroke-width:0.283028;"
         y="195.36829"
         x="11.84903"
         sodipodi:role="line" /></text>
    <rect
       style="fill:#35caed;fill-opacity:1;stroke:#9a9fa6;stroke-width:0.111984;stroke-linecap:round;stroke-linejoin:round"
       id="rect100369"
       width="5.1796823"
       height="63.917183"
       x="-58.152344"
       y="158.94342"
       rx="0.039495081"
       ry="0.90381026" />
    <text
       id="text100375"
       y="202.48152"
       x="11.84903"
       style="font-size:11.3211px;line-height:1;font-family:sans-serif;word-spacing:0px;fill:#005c73;fill-opacity:1;stroke-width:0.283028;"
       xml:space="preserve"><tspan
         id="tspan100373"
         style="font-style:normal;font-variant:normal;font-weight:300;font-stretch:normal;font-family:Overpass;-inkscape-font-specification:'Overpass Light';fill:#005c73;fill-opacity:1;stroke-width:0.283028;"
         y="202.48152"
         x="11.84903"
         sodipodi:role="line">ChRIS Architecture</tspan><tspan
         style="font-style:normal;font-variant:normal;font-weight:300;font-stretch:normal;font-family:Overpass;-inkscape-font-specification:'Overpass Light';fill:#005c73;fill-opacity:1;stroke-width:0.283028;"
         y="213.91318"
         x="11.84903"
         sodipodi:role="line"
         id="tspan100381">Overview</tspan></text>
    <use
       height="100%"
       width="100%"
       y="0"
       x="0"
       id="use100200"
       transform="matrix(4.2706867,0,0,4.2706867,11.053737,162.8718)"
       style="opacity:0.257757;fill:#39a5dc;fill-opacity:1;stroke:none"
       xlink:href="#sitemap" />
    <rect
       inkscape:export-ydpi="96"
       inkscape:export-xdpi="96"
       ry="0.89791119"
       rx="0.88767707"
       y="307.58325"
       x="0"
       height="63.5"
       width="116.41666"
       id="rect100397"
       style="fill:url(#linearGradient100429);fill-opacity:1;stroke:none;stroke-width:0.529167;stroke-linecap:round;stroke-linejoin:round" />
    <g
       transform="translate(157.56117,118.75812)"
       id="g100411">
      <path
         inkscape:connector-curvature="0"
         id="path100399"
         style="fill:#fafafa;fill-opacity:1;fill-rule:nonzero;stroke:none;stroke-width:0.0225655"
         d="m -69.895526,211.21786 c -0.202478,-0.15749 -0.348802,-0.36098 -0.43919,-0.61035 -0.09056,-0.24899 -0.135666,-0.51734 -0.135666,-0.80477 0,-0.26624 0.04604,-0.52528 0.137902,-0.77765 0.09208,-0.25238 0.239903,-0.46103 0.443858,-0.62602 0.20381,-0.1654 0.462221,-0.24785 0.774901,-0.24785 0.291148,0 0.539475,0.075 0.744922,0.22473 0.205478,0.14996 0.351038,0.3318 0.436958,0.54611 l -0.625562,0.27959 c -0.08888,-0.1314 -0.17404,-0.22771 -0.255247,-0.28899 -0.08118,-0.0611 -0.181484,-0.0918 -0.30107,-0.0918 -0.217799,0 -0.377231,0.0989 -0.478305,0.29599 -0.101237,0.19715 -0.151746,0.42594 -0.151746,0.68586 0,0.16195 0.023,0.31801 0.06888,0.46774 0.04601,0.15 0.116562,0.27283 0.211636,0.36951 0.09505,0.0963 0.211441,0.14448 0.349534,0.14448 0.1104,0 0.209214,-0.0362 0.296575,-0.10787 0.08739,-0.072 0.170854,-0.17361 0.250556,-0.30499 l 0.639241,0.23846 c -0.260482,0.56263 -0.656056,0.84411 -1.186372,0.84411 -0.318841,0 -0.579542,-0.0788 -0.781801,-0.23634" />
      <path
         inkscape:connector-curvature="0"
         id="path100401"
         style="fill:#fafafa;fill-opacity:1;fill-rule:nonzero;stroke:none;stroke-width:0.0225655"
         d="m -67.541605,208.19416 h 0.666911 v 1.30805 c 0.150056,-0.18034 0.363192,-0.2707 0.639235,-0.2707 0.217605,0 0.407734,0.0687 0.570163,0.20643 0.162432,0.13775 0.24383,0.36103 0.24383,0.66971 v 1.30064 h -0.666912 v -1.03446 c 0,-0.17433 -0.02827,-0.3013 -0.08496,-0.38073 -0.05692,-0.0796 -0.152705,-0.11952 -0.287466,-0.11952 -0.276,0 -0.413893,0.16391 -0.413893,0.49096 v 1.04375 h -0.666911 v -3.21413" />
      <path
         inkscape:connector-curvature="0"
         id="path100403"
         style="fill:#fafafa;fill-opacity:1;fill-rule:nonzero;stroke:none;stroke-width:0.0225655"
         d="m -63.420788,209.60885 c 0.128735,0 0.221395,-0.0351 0.278281,-0.10527 0.0567,-0.0706 0.08493,-0.16242 0.08493,-0.27558 0,-0.10674 -0.02823,-0.19633 -0.08493,-0.26837 -0.05689,-0.0717 -0.149546,-0.10755 -0.278281,-0.10755 h -0.878349 v 0.75677 z m -1.577452,-1.41752 h 1.568275 c 0.386276,0 0.666006,0.0963 0.83925,0.28899 0.173117,0.19262 0.259742,0.44193 0.259742,0.74768 0,0.18967 -0.05218,0.37482 -0.15621,0.55516 -0.104223,0.18071 -0.246856,0.30717 -0.427763,0.38072 l 0.60249,1.23869 h -0.781768 l -0.584037,-1.13297 h -0.620874 v 1.13297 h -0.699103 v -3.21124" />
      <path
         sodipodi:nodetypes="ccccc"
         inkscape:connector-curvature="0"
         id="path100405"
         style="fill:#fafafa;fill-opacity:1;fill-rule:nonzero;stroke:none;stroke-width:0.0225655"
         d="m -61.635141,211.40257 v -3.21124 h 0.674116 v 3.21124 h -0.674116" />
      <path
         inkscape:connector-curvature="0"
         id="path100407"
         style="fill:#fafafa;fill-opacity:1;fill-rule:nonzero;stroke:none;stroke-width:0.0225655"
         d="m -60.083039,211.2134 c -0.225292,-0.1669 -0.387222,-0.39684 -0.48522,-0.69059 l 0.625336,-0.23408 c 0.07374,0.15608 0.170289,0.28073 0.289851,0.37404 0.119625,0.0933 0.251381,0.14 0.395455,0.14 0.150235,0 0.26829,-0.0284 0.354156,-0.0851 0.08574,-0.0563 0.128736,-0.13815 0.128736,-0.24525 0,-0.10076 -0.04822,-0.17882 -0.14483,-0.23406 -0.09655,-0.0549 -0.252195,-0.11611 -0.466802,-0.18328 -0.223845,-0.0735 -0.40457,-0.14296 -0.542674,-0.20868 -0.137915,-0.0657 -0.257477,-0.16314 -0.358745,-0.29161 -0.101079,-0.12838 -0.151747,-0.29635 -0.151747,-0.50432 0,-0.16829 0.04449,-0.32103 0.133389,-0.45881 0.08888,-0.13769 0.218377,-0.24703 0.388666,-0.32805 0.170099,-0.081 0.371631,-0.1214 0.604655,-0.1214 0.288154,0 0.530417,0.0751 0.726541,0.22473 0.196313,0.14972 0.326561,0.34236 0.39093,0.57794 l -0.625337,0.20194 c -0.101331,-0.22959 -0.277527,-0.34422 -0.528845,-0.34422 -0.125722,0 -0.222337,0.0225 -0.289661,0.0665 -0.06758,0.0445 -0.101268,0.10934 -0.101268,0.19523 0,0.0732 0.04214,0.13219 0.126537,0.17658 0.08417,0.0445 0.224536,0.10002 0.420659,0.16731 0.226927,0.0735 0.414627,0.1459 0.563419,0.21794 0.148541,0.0717 0.278283,0.17663 0.388603,0.31431 0.110193,0.13739 0.16545,0.31621 0.16545,0.53643 0,0.20197 -0.0528,0.37785 -0.158662,0.52751 -0.10573,0.15007 -0.249054,0.26398 -0.429838,0.342 -0.180975,0.078 -0.384896,0.1168 -0.611696,0.1168 -0.312729,0 -0.581773,-0.0833 -0.807065,-0.24976" />
      <path
         style="fill:#fafafa;fill-opacity:1;fill-rule:nonzero;stroke:none;stroke-width:0.0529991"
         d="m -58.497234,195.07468 0.744524,2.36012 c 0.0105,-4.6e-4 0.02045,-0.003 0.03099,-0.003 0.390144,0 0.706476,0.31633 0.706476,0.70648 0,0.0264 -0.0049,0.0521 -0.0078,0.0777 l 3.463311,1.34851 c 0.12827,-0.17856 0.336169,-0.29576 0.572973,-0.29576 0.08407,0 0.16383,0.0165 0.238252,0.0437 l 1.609369,-2.30263 z m -0.364033,0.0117 -5.15967,1.86558 2.914432,2.1241 c 0.235458,-0.24359 0.563346,-0.39518 0.928547,-0.39518 0.361011,0 0.686842,0.14809 0.921538,0.38664 l 0.881939,-0.65991 c -0.03404,-0.0831 -0.0541,-0.17399 -0.0541,-0.2694 0,-0.25555 0.137414,-0.47764 0.340766,-0.60165 z m -5.503594,2.04958 -1.938578,2.37566 2.217267,0.8827 c 0.128778,-0.17602 0.335052,-0.29192 0.569824,-0.29192 0.268656,0 0.498907,0.15189 0.618744,0.37206 l 1.439392,-0.36102 c -0.0049,-0.0457 -0.01397,-0.0909 -0.01397,-0.13792 0,-0.22352 0.06172,-0.43053 0.16129,-0.61407 z m 13.396814,0.24231 -1.489863,2.13185 c 0.09601,0.10896 0.156972,0.24739 0.171958,0.39982 l 1.169975,0.18974 c 0.07645,-0.17399 0.22098,-0.30948 0.399822,-0.37663 z m 0.369367,0.15672 0.230632,2.15204 c 0.336575,0.049 0.595503,0.33198 0.603224,0.68006 l 1.535608,0.35717 z m -6.546251,1.00848 -7.72e-4,7.8e-4 c -0.08865,0.12649 -0.218948,0.22047 -0.370129,0.26713 l 0.07061,1.87955 c 0.318262,0.0686 0.557429,0.35144 0.557429,0.6902 0,0.0894 -0.01853,0.17399 -0.04902,0.25298 l 1.243736,0.8858 c 0.122682,-0.10389 0.27973,-0.17018 0.453365,-0.17018 0.0922,0 0.180594,0.0192 0.261035,0.0511 l 1.444041,-1.98513 c -0.09779,-0.12167 -0.158242,-0.27359 -0.158242,-0.44097 0,-0.0287 0.0053,-0.0554 0.0085,-0.0831 z m -1.017778,0.14275 -0.888162,0.66454 c 0.10287,0.18567 0.166878,0.39675 0.166878,0.62415 0,0.16002 -0.03277,0.31252 -0.08636,0.45421 l 0.860984,0.46972 c 0.08458,-0.0909 0.192278,-0.15672 0.314427,-0.19355 l -0.07061,-1.87488 c -0.11176,-0.0229 -0.211074,-0.0752 -0.297256,-0.14452 z m -8.123799,1.20876 1.356309,3.53086 1.550416,1.36327 -0.257632,-3.28554 c -0.332384,-0.0574 -0.585368,-0.34533 -0.585368,-0.69405 0,-0.0305 0.0048,-0.0599 0.0085,-0.0894 z m 13.947252,0.36101 c -0.108712,0.24994 -0.357581,0.42542 -0.647497,0.42542 -0.09601,0 -0.186182,-0.0192 -0.269392,-0.0533 l -1.440917,1.98047 c 0.101092,0.12243 0.164338,0.27704 0.164338,0.44795 0,0.0894 -0.01852,0.17475 -0.04902,0.25375 l 2.054251,1.4619 c 0.122682,-0.10414 0.27973,-0.16942 0.45339,-0.16942 0.125222,0 0.2413,0.0351 0.343814,0.0922 l 1.040308,-1.0776 c -0.06655,-0.10744 -0.106934,-0.23215 -0.106934,-0.36786 0,-0.29688 0.18415,-0.55068 0.443306,-0.65525 l -0.201168,-1.51386 c -0.328955,-0.0399 -0.585622,-0.30224 -0.615645,-0.63429 z m -9.039128,0.19837 -1.431595,0.35946 c -0.0017,0.30798 -0.20193,0.56645 -0.478282,0.66145 l 0.267868,3.41828 2.08374,-3.87402 c -0.196088,-0.14274 -0.350723,-0.33698 -0.441757,-0.56517 z m 11.532008,0.25375 c -0.07747,0.14859 -0.203962,0.26596 -0.360248,0.32931 l 0.200406,1.51465 c 0.102616,0.0122 0.198882,0.0447 0.282779,0.096 l 1.581454,-1.54415 -1.703349,-0.39596 z m -9.291436,0.0302 c -0.235458,0.32052 -0.61209,0.53101 -1.040334,0.53101 -0.15875,0 -0.309092,-0.0323 -0.449529,-0.0846 l -2.176881,4.04637 2.330627,1.29185 2.305025,-0.37356 c 0.03226,-0.27971 0.225806,-0.50759 0.486766,-0.59002 l -0.0729,-3.49204 c -0.312522,-0.0729 -0.544983,-0.35261 -0.544983,-0.68705 0,-0.0599 0.0092,-0.1176 0.02332,-0.17297 z m 11.187303,0.66921 -1.529411,1.49136 c 0.05969,0.10389 0.09703,0.22301 0.09703,0.35105 0,0.3095 -0.200406,0.56876 -0.477469,0.66454 l 0.145796,1.81433 c 0.134366,0.0257 0.254254,0.0909 0.34953,0.18084 l 1.793367,-1.07294 z m -9.189738,0.51008 c -0.07645,0.0645 -0.166116,0.11303 -0.264821,0.14046 l 0.0729,3.47885 c 0.03099,0.006 0.05994,0.0171 0.08941,0.0274 l 1.464996,-2.05425 c -0.103378,-0.12268 -0.167894,-0.28008 -0.167894,-0.45339 0,-0.0894 0.01774,-0.17399 0.04826,-0.25298 z m 2.354707,1.67691 c -0.122682,0.10389 -0.27973,0.16789 -0.453416,0.16789 -0.08966,0 -0.174752,-0.0176 -0.253746,-0.0483 l -1.456436,2.04181 c 0.113792,0.12573 0.18542,0.29078 0.18542,0.47361 0,0.0607 -0.01054,0.11862 -0.02504,0.17475 l 1.539468,0.84546 c 0.129286,-0.13766 0.311379,-0.22428 0.514731,-0.22428 0.143002,0 0.27587,0.0414 0.387376,0.11481 l 1.649755,-1.50533 c -0.05156,-0.0978 -0.08306,-0.20676 -0.08306,-0.32515 0,-0.0894 0.01869,-0.17348 0.04902,-0.25222 z m 4.348378,0.26713 -1.039571,1.07452 c 0.06782,0.10872 0.108712,0.23622 0.108712,0.37359 0,0.0516 -0.0059,0.10185 -0.0163,0.15011 l 1.003046,0.50076 c 0.08331,-0.096 0.192024,-0.16815 0.315951,-0.20777 l -0.145288,-1.80812 c -0.08179,-0.0141 -0.156972,-0.0434 -0.226822,-0.0825 z m -1.104798,1.90909 c -0.12954,0.14935 -0.318618,0.24638 -0.5318,0.24638 -0.14478,0 -0.278943,-0.0442 -0.391312,-0.11862 l -1.647419,1.50379 c 0.05258,0.0991 0.08458,0.21031 0.08458,0.33009 0,0.1011 -0.02162,0.1966 -0.05994,0.28352 l 1.680058,0.97277 2.381046,-0.98753 -0.0085,-0.89979 c -0.299568,-0.082 -0.520904,-0.35299 -0.520904,-0.67857 0,-0.0516 0.0059,-0.10185 0.0163,-0.15011 z m -5.414312,0.94094 c -0.02565,0.0277 -0.05359,0.0526 -0.08382,0.0757 l 1.604695,3.99435 h 1.850009 l -1.006906,-2.35854 c -0.04572,0.009 -0.09296,0.0147 -0.141986,0.0147 -0.390119,0 -0.706476,-0.31631 -0.706476,-0.70648 0,-0.0607 0.0097,-0.11861 0.02401,-0.17475 z"
         id="path100409"
         inkscape:connector-curvature="0" />
    </g>
    <text
       id="text100417"
       y="339.53571"
       x="11.84903"
       style="font-size:11.3211px;line-height:0;font-family:sans-serif;word-spacing:0px;fill:#fafafa;fill-opacity:1;stroke-width:0.283028"
       xml:space="preserve"><tspan
         y="339.53571"
         x="11.84903"
         id="tspan100413"
         sodipodi:role="line"
         style="font-style:normal;font-variant:normal;font-weight:300;font-stretch:normal;font-size:6.35px;line-height:1;font-family:Overpass;-inkscape-font-specification:'Overpass Light';fill:#fafafa;fill-opacity:1;stroke-width:0.283028">HOW-TO:</tspan><tspan
         id="tspan100415"
         style="font-style:normal;font-variant:normal;font-weight:300;font-stretch:normal;font-size:9.17222px;line-height:1;font-family:Overpass;-inkscape-font-specification:'Overpass Light';fill:#fafafa;fill-opacity:1;stroke-width:0.283028"
         y="344.06403"
         x="11.84903"
         sodipodi:role="line" /></text>
    <rect
       style="fill:#1f81b1;fill-opacity:1;stroke:#9a9fa6;stroke-width:0.111984;stroke-linecap:round;stroke-linejoin:round"
       id="rect100421"
       width="5.1796823"
       height="63.917183"
       x="-58.152344"
       y="309.75586"
       rx="0.039495081"
       ry="0.90381026" />
    <text
       id="text100427"
       y="350.64807"
       x="11.84903"
       style="font-size:11.3211px;line-height:1;font-family:sans-serif;word-spacing:0px;fill:#fafafa;fill-opacity:1;stroke-width:0.283028"
       xml:space="preserve"><tspan
         id="tspan100425"
         style="font-style:normal;font-variant:normal;font-weight:300;font-stretch:normal;font-family:Overpass;-inkscape-font-specification:'Overpass Light';fill:#fafafa;fill-opacity:1;stroke-width:0.283028"
         y="350.64807"
         x="11.84903"
         sodipodi:role="line">Set up the ChRIS</tspan><tspan
         style="font-style:normal;font-variant:normal;font-weight:300;font-stretch:normal;font-family:Overpass;-inkscape-font-specification:'Overpass Light';fill:#fafafa;fill-opacity:1;stroke-width:0.283028"
         y="362.07974"
         x="11.84903"
         sodipodi:role="line"
         id="tspan100530">Store Locally</tspan></text>
    <use
       xlink:href="#store"
       style="opacity:0.25;fill:#fafafa;stroke:none"
       transform="translate(-14.865518,313.28073)"
       id="use100514"
       x="0"
       y="0"
       width="100%"
       height="100%" />
    <g
       id="g100643"
       transform="translate(-51.954053,-18.710638)">
      <path
         inkscape:connector-curvature="0"
         id="path243834-0"
         d="m 150.77605,184.286 0.74452,2.36012 c 0.0105,-4.6e-4 0.0205,-0.003 0.031,-0.003 0.39015,0 0.70648,0.31633 0.70648,0.70648 0,0.0264 -0.005,0.0521 -0.008,0.0777 l 3.46331,1.34851 c 0.12827,-0.17856 0.33617,-0.29576 0.57297,-0.29576 0.0841,0 0.16383,0.0165 0.23825,0.0437 l 1.60937,-2.30263 z m -0.36403,0.0117 -5.15967,1.86558 2.91443,2.1241 c 0.23546,-0.24359 0.56335,-0.39518 0.92855,-0.39518 0.36101,0 0.68684,0.14809 0.92153,0.38664 l 0.88194,-0.65991 c -0.034,-0.0831 -0.0541,-0.17399 -0.0541,-0.2694 0,-0.25555 0.13741,-0.47764 0.34077,-0.60165 z m -5.5036,2.04958 -1.93858,2.37566 2.21727,0.8827 c 0.12878,-0.17602 0.33505,-0.29192 0.56983,-0.29192 0.26865,0 0.4989,0.15189 0.61874,0.37206 l 1.43939,-0.36102 c -0.005,-0.0457 -0.014,-0.0909 -0.014,-0.13792 0,-0.22352 0.0617,-0.43053 0.16129,-0.61407 z m 13.39682,0.24231 -1.48987,2.13185 c 0.096,0.10896 0.15698,0.24739 0.17196,0.39982 l 1.16998,0.18974 c 0.0764,-0.17399 0.22098,-0.30948 0.39982,-0.37663 z m 0.36936,0.15672 0.23064,2.15204 c 0.33657,0.049 0.5955,0.33198 0.60322,0.68006 l 1.53561,0.35717 z m -6.54625,1.00848 -7.7e-4,7.8e-4 c -0.0887,0.12649 -0.21895,0.22047 -0.37013,0.26713 l 0.0706,1.87955 c 0.31827,0.0686 0.55743,0.35144 0.55743,0.6902 0,0.0894 -0.0185,0.17399 -0.049,0.25298 l 1.24374,0.8858 c 0.12268,-0.10389 0.27973,-0.17018 0.45336,-0.17018 0.0922,0 0.1806,0.0192 0.26104,0.0511 l 1.44404,-1.98513 c -0.0978,-0.12167 -0.15824,-0.27359 -0.15824,-0.44097 0,-0.0287 0.005,-0.0554 0.009,-0.0831 z m -1.01777,0.14275 -0.88817,0.66454 c 0.10287,0.18567 0.16688,0.39675 0.16688,0.62415 0,0.16002 -0.0328,0.31252 -0.0864,0.45421 l 0.86099,0.46972 c 0.0846,-0.0909 0.19227,-0.15672 0.31442,-0.19355 l -0.0706,-1.87488 c -0.11176,-0.0229 -0.21107,-0.0752 -0.29726,-0.14452 z m -8.1238,1.20876 1.35631,3.53086 1.55041,1.36327 -0.25763,-3.28554 c -0.33239,-0.0574 -0.58537,-0.34533 -0.58537,-0.69405 0,-0.0305 0.005,-0.0599 0.009,-0.0894 z m 13.94725,0.36101 c -0.10871,0.24994 -0.35758,0.42542 -0.6475,0.42542 -0.096,0 -0.18618,-0.0192 -0.26939,-0.0533 l -1.44092,1.98047 c 0.10109,0.12243 0.16434,0.27704 0.16434,0.44795 0,0.0894 -0.0185,0.17475 -0.049,0.25375 l 2.05425,1.4619 c 0.12268,-0.10414 0.27973,-0.16942 0.45339,-0.16942 0.12522,0 0.2413,0.0351 0.34381,0.0922 l 1.04031,-1.0776 c -0.0666,-0.10744 -0.10693,-0.23215 -0.10693,-0.36786 0,-0.29688 0.18415,-0.55068 0.4433,-0.65525 l -0.20116,-1.51386 c -0.32896,-0.0399 -0.58563,-0.30224 -0.61565,-0.63429 z m -9.03913,0.19837 -1.4316,0.35946 c -0.002,0.30798 -0.20193,0.56645 -0.47828,0.66145 l 0.26787,3.41828 2.08374,-3.87402 c -0.19609,-0.14274 -0.35072,-0.33698 -0.44176,-0.56517 z m 11.53201,0.25375 c -0.0775,0.14859 -0.20396,0.26596 -0.36025,0.32931 l 0.20041,1.51465 c 0.10261,0.0122 0.19888,0.0447 0.28277,0.096 l 1.58146,-1.54415 -1.70335,-0.39596 z m -9.29144,0.0302 c -0.23546,0.32052 -0.61209,0.53101 -1.04033,0.53101 -0.15875,0 -0.30909,-0.0323 -0.44953,-0.0846 l -2.17688,4.04637 2.33063,1.29185 2.30502,-0.37356 c 0.0323,-0.27971 0.22581,-0.50759 0.48677,-0.59002 l -0.0729,-3.49204 c -0.31252,-0.0729 -0.54498,-0.35261 -0.54498,-0.68705 0,-0.0599 0.009,-0.1176 0.0233,-0.17297 z m 11.1873,0.66921 -1.52941,1.49136 c 0.0597,0.10389 0.097,0.22301 0.097,0.35105 0,0.3095 -0.2004,0.56876 -0.47747,0.66454 l 0.1458,1.81433 c 0.13437,0.0257 0.25425,0.0909 0.34953,0.18084 l 1.79337,-1.07294 z m -9.18973,0.51008 c -0.0765,0.0645 -0.16612,0.11303 -0.26482,0.14046 l 0.0729,3.47885 c 0.031,0.006 0.0599,0.0171 0.0894,0.0274 l 1.465,-2.05425 c -0.10338,-0.12268 -0.1679,-0.28008 -0.1679,-0.45339 0,-0.0894 0.0178,-0.17399 0.0483,-0.25298 z m 2.3547,1.67691 c -0.12268,0.10389 -0.27973,0.16789 -0.45341,0.16789 -0.0897,0 -0.17475,-0.0176 -0.25375,-0.0483 l -1.45643,2.04181 c 0.11379,0.12573 0.18542,0.29078 0.18542,0.47361 0,0.0607 -0.0105,0.11862 -0.025,0.17475 l 1.53947,0.84546 c 0.12929,-0.13766 0.31138,-0.22428 0.51473,-0.22428 0.14301,0 0.27587,0.0414 0.38738,0.11481 l 1.64976,-1.50533 c -0.0516,-0.0978 -0.0831,-0.20676 -0.0831,-0.32515 0,-0.0894 0.0187,-0.17348 0.049,-0.25222 z m 4.34838,0.26713 -1.03957,1.07452 c 0.0678,0.10872 0.10871,0.23622 0.10871,0.37359 0,0.0516 -0.006,0.10185 -0.0163,0.15011 l 1.00305,0.50076 c 0.0833,-0.096 0.19202,-0.16815 0.31595,-0.20777 l -0.14529,-1.80812 c -0.0818,-0.0141 -0.15697,-0.0434 -0.22682,-0.0825 z m -1.1048,1.90909 c -0.12954,0.14935 -0.31861,0.24638 -0.5318,0.24638 -0.14478,0 -0.27894,-0.0442 -0.39131,-0.11862 l -1.64742,1.50379 c 0.0526,0.0991 0.0846,0.21031 0.0846,0.33009 0,0.1011 -0.0216,0.1966 -0.06,0.28352 l 1.68006,0.97277 2.38105,-0.98753 -0.009,-0.89979 c -0.29957,-0.082 -0.5209,-0.35299 -0.5209,-0.67857 0,-0.0516 0.006,-0.10185 0.0163,-0.15011 z m -5.41431,0.94094 c -0.0257,0.0277 -0.0536,0.0526 -0.0838,0.0757 l 1.6047,3.99435 h 1.85001 l -1.00691,-2.35854 c -0.0457,0.009 -0.093,0.0147 -0.14199,0.0147 -0.39011,0 -0.70647,-0.31631 -0.70647,-0.70648 0,-0.0607 0.01,-0.11861 0.024,-0.17475 z"
         style="fill:url(#linearGradient243972);fill-opacity:1;fill-rule:nonzero;stroke:none;stroke-width:0.0529991" />
      <path
         d="m 139.37776,200.42918 c -0.20248,-0.15749 -0.34881,-0.36098 -0.43919,-0.61035 -0.0906,-0.24899 -0.13567,-0.51734 -0.13567,-0.80477 0,-0.26624 0.046,-0.52528 0.1379,-0.77765 0.0921,-0.25238 0.2399,-0.46103 0.44386,-0.62602 0.20381,-0.1654 0.46222,-0.24785 0.7749,-0.24785 0.29115,0 0.53948,0.075 0.74492,0.22473 0.20548,0.14996 0.35104,0.3318 0.43696,0.54611 l -0.62556,0.27959 c -0.0889,-0.1314 -0.17404,-0.22771 -0.25525,-0.28899 -0.0812,-0.0611 -0.18148,-0.0918 -0.30107,-0.0918 -0.2178,0 -0.37723,0.0989 -0.4783,0.29599 -0.10124,0.19715 -0.15175,0.42594 -0.15175,0.68586 0,0.16195 0.023,0.31801 0.0689,0.46774 0.046,0.15 0.11656,0.27283 0.21163,0.36951 0.095,0.0963 0.21144,0.14448 0.34954,0.14448 0.1104,0 0.20921,-0.0362 0.29657,-0.10787 0.0874,-0.072 0.17085,-0.17361 0.25056,-0.30499 l 0.63924,0.23846 c -0.26048,0.56263 -0.65606,0.84411 -1.18637,0.84411 -0.31885,0 -0.57955,-0.0788 -0.78181,-0.23634"
         style="fill:#509bd4;fill-opacity:1;fill-rule:nonzero;stroke:none;stroke-width:0.0225655"
         id="path244330-6"
         inkscape:connector-curvature="0" />
      <path
         d="m 141.73168,197.40548 h 0.66691 v 1.30805 c 0.15005,-0.18034 0.36319,-0.2707 0.63923,-0.2707 0.21761,0 0.40774,0.0687 0.57017,0.20643 0.16243,0.13775 0.24382,0.36103 0.24382,0.66971 v 1.30064 h -0.66691 v -1.03446 c 0,-0.17433 -0.0283,-0.3013 -0.0849,-0.38073 -0.0569,-0.0796 -0.15271,-0.11952 -0.28747,-0.11952 -0.276,0 -0.41389,0.16391 -0.41389,0.49096 v 1.04375 h -0.66691 v -3.21413"
         style="fill:#509bd4;fill-opacity:1;fill-rule:nonzero;stroke:none;stroke-width:0.0225655"
         id="path244332-2"
         inkscape:connector-curvature="0" />
      <path
         d="m 145.85249,198.82017 c 0.12874,0 0.2214,-0.0351 0.27828,-0.10527 0.0567,-0.0706 0.0849,-0.16242 0.0849,-0.27558 0,-0.10674 -0.0282,-0.19633 -0.0849,-0.26837 -0.0569,-0.0717 -0.14954,-0.10755 -0.27828,-0.10755 h -0.87835 v 0.75677 z m -1.57745,-1.41752 h 1.56828 c 0.38627,0 0.666,0.0963 0.83925,0.28899 0.17311,0.19262 0.25974,0.44193 0.25974,0.74768 0,0.18967 -0.0522,0.37482 -0.15621,0.55516 -0.10422,0.18071 -0.24686,0.30717 -0.42777,0.38072 l 0.6025,1.23869 h -0.78177 l -0.58404,-1.13297 h -0.62087 v 1.13297 h -0.69911 v -3.21124"
         style="fill:#509bd4;fill-opacity:1;fill-rule:nonzero;stroke:none;stroke-width:0.0225655"
         id="path244334-9"
         inkscape:connector-curvature="0" />
      <path
         d="m 147.63814,200.61389 v -3.21124 h 0.67412 v 3.21124 h -0.67412"
         style="fill:#509bd4;fill-opacity:1;fill-rule:nonzero;stroke:none;stroke-width:0.0225655"
         id="path244336-1"
         inkscape:connector-curvature="0"
         sodipodi:nodetypes="ccccc" />
      <path
         d="m 149.19024,200.42472 c -0.22529,-0.1669 -0.38722,-0.39684 -0.48522,-0.69059 l 0.62534,-0.23408 c 0.0737,0.15608 0.17029,0.28073 0.28985,0.37404 0.11962,0.0933 0.25138,0.14 0.39545,0.14 0.15024,0 0.26829,-0.0284 0.35416,-0.0851 0.0857,-0.0563 0.12874,-0.13815 0.12874,-0.24525 0,-0.10076 -0.0482,-0.17882 -0.14483,-0.23406 -0.0966,-0.0549 -0.2522,-0.11611 -0.46681,-0.18328 -0.22384,-0.0735 -0.40457,-0.14296 -0.54267,-0.20868 -0.13792,-0.0657 -0.25748,-0.16314 -0.35875,-0.29161 -0.10107,-0.12838 -0.15174,-0.29635 -0.15174,-0.50432 0,-0.16829 0.0445,-0.32103 0.13339,-0.45881 0.0889,-0.13769 0.21837,-0.24703 0.38866,-0.32805 0.1701,-0.081 0.37163,-0.1214 0.60466,-0.1214 0.28815,0 0.53042,0.0751 0.72654,0.22473 0.19631,0.14972 0.32656,0.34236 0.39093,0.57794 l -0.62534,0.20194 c -0.10133,-0.22959 -0.27752,-0.34422 -0.52884,-0.34422 -0.12572,0 -0.22234,0.0225 -0.28966,0.0665 -0.0676,0.0445 -0.10127,0.10934 -0.10127,0.19523 0,0.0732 0.0421,0.13219 0.12653,0.17658 0.0842,0.0445 0.22454,0.10002 0.42066,0.16731 0.22693,0.0735 0.41463,0.1459 0.56342,0.21794 0.14854,0.0717 0.27829,0.17663 0.38861,0.31431 0.11019,0.13739 0.16545,0.31621 0.16545,0.53643 0,0.20197 -0.0528,0.37785 -0.15867,0.52751 -0.10573,0.15007 -0.24905,0.26398 -0.42983,0.342 -0.18098,0.078 -0.3849,0.1168 -0.6117,0.1168 -0.31273,0 -0.58177,-0.0833 -0.80706,-0.24976"
         style="fill:#509bd4;fill-opacity:1;fill-rule:nonzero;stroke:none;stroke-width:0.0225655"
         id="path244338-2"
         inkscape:connector-curvature="0" />
    </g>
    <rect
       y="183.11684"
       x="141.67558"
       height="18.520859"
       width="78.581345"
       id="rect244687-7"
       style="fill:none;fill-opacity:1;stroke:none;stroke-width:0.264584;stroke-linecap:square;stroke-linejoin:bevel;stroke-miterlimit:4;stroke-dasharray:none;stroke-dashoffset:0;stroke-opacity:1"
       inkscape:export-filename="/home/duffy/Repositories/ChRIS_store_ui/src/assets/img/chris_logo-white.png"
       inkscape:export-xdpi="96"
       inkscape:export-ydpi="96" />
    <rect
       style="fill:url(#linearGradient100675);fill-opacity:1;stroke:none;stroke-width:0.529167;stroke-linecap:round;stroke-linejoin:round"
       id="rect100645"
       width="116.41666"
       height="63.5"
       x="0"
       y="386.9581"
       rx="0.88767707"
       ry="0.89791119"
       inkscape:export-xdpi="96"
       inkscape:export-ydpi="96" />
    <g
       id="g100659"
       transform="translate(157.56117,198.13317)">
      <path
         d="m -69.895526,211.21786 c -0.202478,-0.15749 -0.348802,-0.36098 -0.43919,-0.61035 -0.09056,-0.24899 -0.135666,-0.51734 -0.135666,-0.80477 0,-0.26624 0.04604,-0.52528 0.137902,-0.77765 0.09208,-0.25238 0.239903,-0.46103 0.443858,-0.62602 0.20381,-0.1654 0.462221,-0.24785 0.774901,-0.24785 0.291148,0 0.539475,0.075 0.744922,0.22473 0.205478,0.14996 0.351038,0.3318 0.436958,0.54611 l -0.625562,0.27959 c -0.08888,-0.1314 -0.17404,-0.22771 -0.255247,-0.28899 -0.08118,-0.0611 -0.181484,-0.0918 -0.30107,-0.0918 -0.217799,0 -0.377231,0.0989 -0.478305,0.29599 -0.101237,0.19715 -0.151746,0.42594 -0.151746,0.68586 0,0.16195 0.023,0.31801 0.06888,0.46774 0.04601,0.15 0.116562,0.27283 0.211636,0.36951 0.09505,0.0963 0.211441,0.14448 0.349534,0.14448 0.1104,0 0.209214,-0.0362 0.296575,-0.10787 0.08739,-0.072 0.170854,-0.17361 0.250556,-0.30499 l 0.639241,0.23846 c -0.260482,0.56263 -0.656056,0.84411 -1.186372,0.84411 -0.318841,0 -0.579542,-0.0788 -0.781801,-0.23634"
         style="fill:#fafafa;fill-opacity:1;fill-rule:nonzero;stroke:none;stroke-width:0.0225655"
         id="path100647"
         inkscape:connector-curvature="0" />
      <path
         d="m -67.541605,208.19416 h 0.666911 v 1.30805 c 0.150056,-0.18034 0.363192,-0.2707 0.639235,-0.2707 0.217605,0 0.407734,0.0687 0.570163,0.20643 0.162432,0.13775 0.24383,0.36103 0.24383,0.66971 v 1.30064 h -0.666912 v -1.03446 c 0,-0.17433 -0.02827,-0.3013 -0.08496,-0.38073 -0.05692,-0.0796 -0.152705,-0.11952 -0.287466,-0.11952 -0.276,0 -0.413893,0.16391 -0.413893,0.49096 v 1.04375 h -0.666911 v -3.21413"
         style="fill:#fafafa;fill-opacity:1;fill-rule:nonzero;stroke:none;stroke-width:0.0225655"
         id="path100649"
         inkscape:connector-curvature="0" />
      <path
         d="m -63.420788,209.60885 c 0.128735,0 0.221395,-0.0351 0.278281,-0.10527 0.0567,-0.0706 0.08493,-0.16242 0.08493,-0.27558 0,-0.10674 -0.02823,-0.19633 -0.08493,-0.26837 -0.05689,-0.0717 -0.149546,-0.10755 -0.278281,-0.10755 h -0.878349 v 0.75677 z m -1.577452,-1.41752 h 1.568275 c 0.386276,0 0.666006,0.0963 0.83925,0.28899 0.173117,0.19262 0.259742,0.44193 0.259742,0.74768 0,0.18967 -0.05218,0.37482 -0.15621,0.55516 -0.104223,0.18071 -0.246856,0.30717 -0.427763,0.38072 l 0.60249,1.23869 h -0.781768 l -0.584037,-1.13297 h -0.620874 v 1.13297 h -0.699103 v -3.21124"
         style="fill:#fafafa;fill-opacity:1;fill-rule:nonzero;stroke:none;stroke-width:0.0225655"
         id="path100651"
         inkscape:connector-curvature="0" />
      <path
         d="m -61.635141,211.40257 v -3.21124 h 0.674116 v 3.21124 h -0.674116"
         style="fill:#fafafa;fill-opacity:1;fill-rule:nonzero;stroke:none;stroke-width:0.0225655"
         id="path100653"
         inkscape:connector-curvature="0"
         sodipodi:nodetypes="ccccc" />
      <path
         d="m -60.083039,211.2134 c -0.225292,-0.1669 -0.387222,-0.39684 -0.48522,-0.69059 l 0.625336,-0.23408 c 0.07374,0.15608 0.170289,0.28073 0.289851,0.37404 0.119625,0.0933 0.251381,0.14 0.395455,0.14 0.150235,0 0.26829,-0.0284 0.354156,-0.0851 0.08574,-0.0563 0.128736,-0.13815 0.128736,-0.24525 0,-0.10076 -0.04822,-0.17882 -0.14483,-0.23406 -0.09655,-0.0549 -0.252195,-0.11611 -0.466802,-0.18328 -0.223845,-0.0735 -0.40457,-0.14296 -0.542674,-0.20868 -0.137915,-0.0657 -0.257477,-0.16314 -0.358745,-0.29161 -0.101079,-0.12838 -0.151747,-0.29635 -0.151747,-0.50432 0,-0.16829 0.04449,-0.32103 0.133389,-0.45881 0.08888,-0.13769 0.218377,-0.24703 0.388666,-0.32805 0.170099,-0.081 0.371631,-0.1214 0.604655,-0.1214 0.288154,0 0.530417,0.0751 0.726541,0.22473 0.196313,0.14972 0.326561,0.34236 0.39093,0.57794 l -0.625337,0.20194 c -0.101331,-0.22959 -0.277527,-0.34422 -0.528845,-0.34422 -0.125722,0 -0.222337,0.0225 -0.289661,0.0665 -0.06758,0.0445 -0.101268,0.10934 -0.101268,0.19523 0,0.0732 0.04214,0.13219 0.126537,0.17658 0.08417,0.0445 0.224536,0.10002 0.420659,0.16731 0.226927,0.0735 0.414627,0.1459 0.563419,0.21794 0.148541,0.0717 0.278283,0.17663 0.388603,0.31431 0.110193,0.13739 0.16545,0.31621 0.16545,0.53643 0,0.20197 -0.0528,0.37785 -0.158662,0.52751 -0.10573,0.15007 -0.249054,0.26398 -0.429838,0.342 -0.180975,0.078 -0.384896,0.1168 -0.611696,0.1168 -0.312729,0 -0.581773,-0.0833 -0.807065,-0.24976"
         style="fill:#fafafa;fill-opacity:1;fill-rule:nonzero;stroke:none;stroke-width:0.0225655"
         id="path100655"
         inkscape:connector-curvature="0" />
      <path
         inkscape:connector-curvature="0"
         id="path100657"
         d="m -58.497234,195.07468 0.744524,2.36012 c 0.0105,-4.6e-4 0.02045,-0.003 0.03099,-0.003 0.390144,0 0.706476,0.31633 0.706476,0.70648 0,0.0264 -0.0049,0.0521 -0.0078,0.0777 l 3.463311,1.34851 c 0.12827,-0.17856 0.336169,-0.29576 0.572973,-0.29576 0.08407,0 0.16383,0.0165 0.238252,0.0437 l 1.609369,-2.30263 z m -0.364033,0.0117 -5.15967,1.86558 2.914432,2.1241 c 0.235458,-0.24359 0.563346,-0.39518 0.928547,-0.39518 0.361011,0 0.686842,0.14809 0.921538,0.38664 l 0.881939,-0.65991 c -0.03404,-0.0831 -0.0541,-0.17399 -0.0541,-0.2694 0,-0.25555 0.137414,-0.47764 0.340766,-0.60165 z m -5.503594,2.04958 -1.938578,2.37566 2.217267,0.8827 c 0.128778,-0.17602 0.335052,-0.29192 0.569824,-0.29192 0.268656,0 0.498907,0.15189 0.618744,0.37206 l 1.439392,-0.36102 c -0.0049,-0.0457 -0.01397,-0.0909 -0.01397,-0.13792 0,-0.22352 0.06172,-0.43053 0.16129,-0.61407 z m 13.396814,0.24231 -1.489863,2.13185 c 0.09601,0.10896 0.156972,0.24739 0.171958,0.39982 l 1.169975,0.18974 c 0.07645,-0.17399 0.22098,-0.30948 0.399822,-0.37663 z m 0.369367,0.15672 0.230632,2.15204 c 0.336575,0.049 0.595503,0.33198 0.603224,0.68006 l 1.535608,0.35717 z m -6.546251,1.00848 -7.72e-4,7.8e-4 c -0.08865,0.12649 -0.218948,0.22047 -0.370129,0.26713 l 0.07061,1.87955 c 0.318262,0.0686 0.557429,0.35144 0.557429,0.6902 0,0.0894 -0.01853,0.17399 -0.04902,0.25298 l 1.243736,0.8858 c 0.122682,-0.10389 0.27973,-0.17018 0.453365,-0.17018 0.0922,0 0.180594,0.0192 0.261035,0.0511 l 1.444041,-1.98513 c -0.09779,-0.12167 -0.158242,-0.27359 -0.158242,-0.44097 0,-0.0287 0.0053,-0.0554 0.0085,-0.0831 z m -1.017778,0.14275 -0.888162,0.66454 c 0.10287,0.18567 0.166878,0.39675 0.166878,0.62415 0,0.16002 -0.03277,0.31252 -0.08636,0.45421 l 0.860984,0.46972 c 0.08458,-0.0909 0.192278,-0.15672 0.314427,-0.19355 l -0.07061,-1.87488 c -0.11176,-0.0229 -0.211074,-0.0752 -0.297256,-0.14452 z m -8.123799,1.20876 1.356309,3.53086 1.550416,1.36327 -0.257632,-3.28554 c -0.332384,-0.0574 -0.585368,-0.34533 -0.585368,-0.69405 0,-0.0305 0.0048,-0.0599 0.0085,-0.0894 z m 13.947252,0.36101 c -0.108712,0.24994 -0.357581,0.42542 -0.647497,0.42542 -0.09601,0 -0.186182,-0.0192 -0.269392,-0.0533 l -1.440917,1.98047 c 0.101092,0.12243 0.164338,0.27704 0.164338,0.44795 0,0.0894 -0.01852,0.17475 -0.04902,0.25375 l 2.054251,1.4619 c 0.122682,-0.10414 0.27973,-0.16942 0.45339,-0.16942 0.125222,0 0.2413,0.0351 0.343814,0.0922 l 1.040308,-1.0776 c -0.06655,-0.10744 -0.106934,-0.23215 -0.106934,-0.36786 0,-0.29688 0.18415,-0.55068 0.443306,-0.65525 l -0.201168,-1.51386 c -0.328955,-0.0399 -0.585622,-0.30224 -0.615645,-0.63429 z m -9.039128,0.19837 -1.431595,0.35946 c -0.0017,0.30798 -0.20193,0.56645 -0.478282,0.66145 l 0.267868,3.41828 2.08374,-3.87402 c -0.196088,-0.14274 -0.350723,-0.33698 -0.441757,-0.56517 z m 11.532008,0.25375 c -0.07747,0.14859 -0.203962,0.26596 -0.360248,0.32931 l 0.200406,1.51465 c 0.102616,0.0122 0.198882,0.0447 0.282779,0.096 l 1.581454,-1.54415 -1.703349,-0.39596 z m -9.291436,0.0302 c -0.235458,0.32052 -0.61209,0.53101 -1.040334,0.53101 -0.15875,0 -0.309092,-0.0323 -0.449529,-0.0846 l -2.176881,4.04637 2.330627,1.29185 2.305025,-0.37356 c 0.03226,-0.27971 0.225806,-0.50759 0.486766,-0.59002 l -0.0729,-3.49204 c -0.312522,-0.0729 -0.544983,-0.35261 -0.544983,-0.68705 0,-0.0599 0.0092,-0.1176 0.02332,-0.17297 z m 11.187303,0.66921 -1.529411,1.49136 c 0.05969,0.10389 0.09703,0.22301 0.09703,0.35105 0,0.3095 -0.200406,0.56876 -0.477469,0.66454 l 0.145796,1.81433 c 0.134366,0.0257 0.254254,0.0909 0.34953,0.18084 l 1.793367,-1.07294 z m -9.189738,0.51008 c -0.07645,0.0645 -0.166116,0.11303 -0.264821,0.14046 l 0.0729,3.47885 c 0.03099,0.006 0.05994,0.0171 0.08941,0.0274 l 1.464996,-2.05425 c -0.103378,-0.12268 -0.167894,-0.28008 -0.167894,-0.45339 0,-0.0894 0.01774,-0.17399 0.04826,-0.25298 z m 2.354707,1.67691 c -0.122682,0.10389 -0.27973,0.16789 -0.453416,0.16789 -0.08966,0 -0.174752,-0.0176 -0.253746,-0.0483 l -1.456436,2.04181 c 0.113792,0.12573 0.18542,0.29078 0.18542,0.47361 0,0.0607 -0.01054,0.11862 -0.02504,0.17475 l 1.539468,0.84546 c 0.129286,-0.13766 0.311379,-0.22428 0.514731,-0.22428 0.143002,0 0.27587,0.0414 0.387376,0.11481 l 1.649755,-1.50533 c -0.05156,-0.0978 -0.08306,-0.20676 -0.08306,-0.32515 0,-0.0894 0.01869,-0.17348 0.04902,-0.25222 z m 4.348378,0.26713 -1.039571,1.07452 c 0.06782,0.10872 0.108712,0.23622 0.108712,0.37359 0,0.0516 -0.0059,0.10185 -0.0163,0.15011 l 1.003046,0.50076 c 0.08331,-0.096 0.192024,-0.16815 0.315951,-0.20777 l -0.145288,-1.80812 c -0.08179,-0.0141 -0.156972,-0.0434 -0.226822,-0.0825 z m -1.104798,1.90909 c -0.12954,0.14935 -0.318618,0.24638 -0.5318,0.24638 -0.14478,0 -0.278943,-0.0442 -0.391312,-0.11862 l -1.647419,1.50379 c 0.05258,0.0991 0.08458,0.21031 0.08458,0.33009 0,0.1011 -0.02162,0.1966 -0.05994,0.28352 l 1.680058,0.97277 2.381046,-0.98753 -0.0085,-0.89979 c -0.299568,-0.082 -0.520904,-0.35299 -0.520904,-0.67857 0,-0.0516 0.0059,-0.10185 0.0163,-0.15011 z m -5.414312,0.94094 c -0.02565,0.0277 -0.05359,0.0526 -0.08382,0.0757 l 1.604695,3.99435 h 1.850009 l -1.006906,-2.35854 c -0.04572,0.009 -0.09296,0.0147 -0.141986,0.0147 -0.390119,0 -0.706476,-0.31631 -0.706476,-0.70648 0,-0.0607 0.0097,-0.11861 0.02401,-0.17475 z"
         style="fill:#fafafa;fill-opacity:1;fill-rule:nonzero;stroke:none;stroke-width:0.0529991" />
    </g>
    <text
       xml:space="preserve"
       style="font-size:11.3211px;line-height:0;font-family:sans-serif;word-spacing:0px;fill:#fafafa;fill-opacity:1;stroke-width:0.283028"
       x="11.84903"
       y="418.91055"
       id="text100665"><tspan
         style="font-style:normal;font-variant:normal;font-weight:300;font-stretch:normal;font-size:6.35px;line-height:1;font-family:Overpass;-inkscape-font-specification:'Overpass Light';fill:#fafafa;fill-opacity:1;stroke-width:0.283028"
         sodipodi:role="line"
         id="tspan100661"
         x="11.84903"
         y="418.91055">HOW-TO:</tspan><tspan
         sodipodi:role="line"
         x="11.84903"
         y="423.43887"
         style="font-style:normal;font-variant:normal;font-weight:300;font-stretch:normal;font-size:9.17222px;line-height:1;font-family:Overpass;-inkscape-font-specification:'Overpass Light';fill:#fafafa;fill-opacity:1;stroke-width:0.283028"
         id="tspan100663" /></text>
    <text
       xml:space="preserve"
       style="font-size:11.3211px;line-height:1;font-family:sans-serif;word-spacing:0px;fill:#fafafa;fill-opacity:1;stroke-width:0.283028"
       x="11.84903"
       y="430.02292"
       id="text100671"><tspan
         id="tspan100669"
         sodipodi:role="line"
         x="11.84903"
         y="430.02292"
         style="font-style:normal;font-variant:normal;font-weight:300;font-stretch:normal;font-family:Overpass;-inkscape-font-specification:'Overpass Light';fill:#fafafa;fill-opacity:1;stroke-width:0.283028">Create Your First</tspan><tspan
         sodipodi:role="line"
         x="11.84903"
         y="441.45459"
         style="font-style:normal;font-variant:normal;font-weight:300;font-stretch:normal;font-family:Overpass;-inkscape-font-specification:'Overpass Light';fill:#fafafa;fill-opacity:1;stroke-width:0.283028"
         id="tspan100682">ChRIS Plugin</tspan></text>
    <use
       xlink:href="#puzzle-piece"
       style="opacity:0.25;fill:#fafafa;stroke:none"
       transform="translate(-9.3577665,392.02936)"
       id="use100695"
       x="0"
       y="0"
       width="100%"
       height="100%" />
    <rect
       inkscape:export-filename="/home/duffy/Repositories/website/assets/images/library/thumb-designassets.png"
       inkscape:export-ydpi="96"
       inkscape:export-xdpi="96"
       ry="0.89791119"
       rx="0.88767707"
       y="466.33298"
       x="0"
       height="63.5"
       width="116.41666"
       id="rect100709"
       style="fill:url(#linearGradient100739);fill-opacity:1;stroke:none;stroke-width:0.529167;stroke-linecap:round;stroke-linejoin:round" />
    <g
       transform="translate(157.56117,277.50821)"
       id="g100723">
      <path
         inkscape:connector-curvature="0"
         id="path100711"
         style="fill:#fafafa;fill-opacity:1;fill-rule:nonzero;stroke:none;stroke-width:0.0225655"
         d="m -69.895526,211.21786 c -0.202478,-0.15749 -0.348802,-0.36098 -0.43919,-0.61035 -0.09056,-0.24899 -0.135666,-0.51734 -0.135666,-0.80477 0,-0.26624 0.04604,-0.52528 0.137902,-0.77765 0.09208,-0.25238 0.239903,-0.46103 0.443858,-0.62602 0.20381,-0.1654 0.462221,-0.24785 0.774901,-0.24785 0.291148,0 0.539475,0.075 0.744922,0.22473 0.205478,0.14996 0.351038,0.3318 0.436958,0.54611 l -0.625562,0.27959 c -0.08888,-0.1314 -0.17404,-0.22771 -0.255247,-0.28899 -0.08118,-0.0611 -0.181484,-0.0918 -0.30107,-0.0918 -0.217799,0 -0.377231,0.0989 -0.478305,0.29599 -0.101237,0.19715 -0.151746,0.42594 -0.151746,0.68586 0,0.16195 0.023,0.31801 0.06888,0.46774 0.04601,0.15 0.116562,0.27283 0.211636,0.36951 0.09505,0.0963 0.211441,0.14448 0.349534,0.14448 0.1104,0 0.209214,-0.0362 0.296575,-0.10787 0.08739,-0.072 0.170854,-0.17361 0.250556,-0.30499 l 0.639241,0.23846 c -0.260482,0.56263 -0.656056,0.84411 -1.186372,0.84411 -0.318841,0 -0.579542,-0.0788 -0.781801,-0.23634" />
      <path
         inkscape:connector-curvature="0"
         id="path100713"
         style="fill:#fafafa;fill-opacity:1;fill-rule:nonzero;stroke:none;stroke-width:0.0225655"
         d="m -67.541605,208.19416 h 0.666911 v 1.30805 c 0.150056,-0.18034 0.363192,-0.2707 0.639235,-0.2707 0.217605,0 0.407734,0.0687 0.570163,0.20643 0.162432,0.13775 0.24383,0.36103 0.24383,0.66971 v 1.30064 h -0.666912 v -1.03446 c 0,-0.17433 -0.02827,-0.3013 -0.08496,-0.38073 -0.05692,-0.0796 -0.152705,-0.11952 -0.287466,-0.11952 -0.276,0 -0.413893,0.16391 -0.413893,0.49096 v 1.04375 h -0.666911 v -3.21413" />
      <path
         inkscape:connector-curvature="0"
         id="path100715"
         style="fill:#fafafa;fill-opacity:1;fill-rule:nonzero;stroke:none;stroke-width:0.0225655"
         d="m -63.420788,209.60885 c 0.128735,0 0.221395,-0.0351 0.278281,-0.10527 0.0567,-0.0706 0.08493,-0.16242 0.08493,-0.27558 0,-0.10674 -0.02823,-0.19633 -0.08493,-0.26837 -0.05689,-0.0717 -0.149546,-0.10755 -0.278281,-0.10755 h -0.878349 v 0.75677 z m -1.577452,-1.41752 h 1.568275 c 0.386276,0 0.666006,0.0963 0.83925,0.28899 0.173117,0.19262 0.259742,0.44193 0.259742,0.74768 0,0.18967 -0.05218,0.37482 -0.15621,0.55516 -0.104223,0.18071 -0.246856,0.30717 -0.427763,0.38072 l 0.60249,1.23869 h -0.781768 l -0.584037,-1.13297 h -0.620874 v 1.13297 h -0.699103 v -3.21124" />
      <path
         sodipodi:nodetypes="ccccc"
         inkscape:connector-curvature="0"
         id="path100717"
         style="fill:#fafafa;fill-opacity:1;fill-rule:nonzero;stroke:none;stroke-width:0.0225655"
         d="m -61.635141,211.40257 v -3.21124 h 0.674116 v 3.21124 h -0.674116" />
      <path
         inkscape:connector-curvature="0"
         id="path100719"
         style="fill:#fafafa;fill-opacity:1;fill-rule:nonzero;stroke:none;stroke-width:0.0225655"
         d="m -60.083039,211.2134 c -0.225292,-0.1669 -0.387222,-0.39684 -0.48522,-0.69059 l 0.625336,-0.23408 c 0.07374,0.15608 0.170289,0.28073 0.289851,0.37404 0.119625,0.0933 0.251381,0.14 0.395455,0.14 0.150235,0 0.26829,-0.0284 0.354156,-0.0851 0.08574,-0.0563 0.128736,-0.13815 0.128736,-0.24525 0,-0.10076 -0.04822,-0.17882 -0.14483,-0.23406 -0.09655,-0.0549 -0.252195,-0.11611 -0.466802,-0.18328 -0.223845,-0.0735 -0.40457,-0.14296 -0.542674,-0.20868 -0.137915,-0.0657 -0.257477,-0.16314 -0.358745,-0.29161 -0.101079,-0.12838 -0.151747,-0.29635 -0.151747,-0.50432 0,-0.16829 0.04449,-0.32103 0.133389,-0.45881 0.08888,-0.13769 0.218377,-0.24703 0.388666,-0.32805 0.170099,-0.081 0.371631,-0.1214 0.604655,-0.1214 0.288154,0 0.530417,0.0751 0.726541,0.22473 0.196313,0.14972 0.326561,0.34236 0.39093,0.57794 l -0.625337,0.20194 c -0.101331,-0.22959 -0.277527,-0.34422 -0.528845,-0.34422 -0.125722,0 -0.222337,0.0225 -0.289661,0.0665 -0.06758,0.0445 -0.101268,0.10934 -0.101268,0.19523 0,0.0732 0.04214,0.13219 0.126537,0.17658 0.08417,0.0445 0.224536,0.10002 0.420659,0.16731 0.226927,0.0735 0.414627,0.1459 0.563419,0.21794 0.148541,0.0717 0.278283,0.17663 0.388603,0.31431 0.110193,0.13739 0.16545,0.31621 0.16545,0.53643 0,0.20197 -0.0528,0.37785 -0.158662,0.52751 -0.10573,0.15007 -0.249054,0.26398 -0.429838,0.342 -0.180975,0.078 -0.384896,0.1168 -0.611696,0.1168 -0.312729,0 -0.581773,-0.0833 -0.807065,-0.24976" />
      <path
         style="fill:#fafafa;fill-opacity:1;fill-rule:nonzero;stroke:none;stroke-width:0.0529991"
         d="m -58.497234,195.07468 0.744524,2.36012 c 0.0105,-4.6e-4 0.02045,-0.003 0.03099,-0.003 0.390144,0 0.706476,0.31633 0.706476,0.70648 0,0.0264 -0.0049,0.0521 -0.0078,0.0777 l 3.463311,1.34851 c 0.12827,-0.17856 0.336169,-0.29576 0.572973,-0.29576 0.08407,0 0.16383,0.0165 0.238252,0.0437 l 1.609369,-2.30263 z m -0.364033,0.0117 -5.15967,1.86558 2.914432,2.1241 c 0.235458,-0.24359 0.563346,-0.39518 0.928547,-0.39518 0.361011,0 0.686842,0.14809 0.921538,0.38664 l 0.881939,-0.65991 c -0.03404,-0.0831 -0.0541,-0.17399 -0.0541,-0.2694 0,-0.25555 0.137414,-0.47764 0.340766,-0.60165 z m -5.503594,2.04958 -1.938578,2.37566 2.217267,0.8827 c 0.128778,-0.17602 0.335052,-0.29192 0.569824,-0.29192 0.268656,0 0.498907,0.15189 0.618744,0.37206 l 1.439392,-0.36102 c -0.0049,-0.0457 -0.01397,-0.0909 -0.01397,-0.13792 0,-0.22352 0.06172,-0.43053 0.16129,-0.61407 z m 13.396814,0.24231 -1.489863,2.13185 c 0.09601,0.10896 0.156972,0.24739 0.171958,0.39982 l 1.169975,0.18974 c 0.07645,-0.17399 0.22098,-0.30948 0.399822,-0.37663 z m 0.369367,0.15672 0.230632,2.15204 c 0.336575,0.049 0.595503,0.33198 0.603224,0.68006 l 1.535608,0.35717 z m -6.546251,1.00848 -7.72e-4,7.8e-4 c -0.08865,0.12649 -0.218948,0.22047 -0.370129,0.26713 l 0.07061,1.87955 c 0.318262,0.0686 0.557429,0.35144 0.557429,0.6902 0,0.0894 -0.01853,0.17399 -0.04902,0.25298 l 1.243736,0.8858 c 0.122682,-0.10389 0.27973,-0.17018 0.453365,-0.17018 0.0922,0 0.180594,0.0192 0.261035,0.0511 l 1.444041,-1.98513 c -0.09779,-0.12167 -0.158242,-0.27359 -0.158242,-0.44097 0,-0.0287 0.0053,-0.0554 0.0085,-0.0831 z m -1.017778,0.14275 -0.888162,0.66454 c 0.10287,0.18567 0.166878,0.39675 0.166878,0.62415 0,0.16002 -0.03277,0.31252 -0.08636,0.45421 l 0.860984,0.46972 c 0.08458,-0.0909 0.192278,-0.15672 0.314427,-0.19355 l -0.07061,-1.87488 c -0.11176,-0.0229 -0.211074,-0.0752 -0.297256,-0.14452 z m -8.123799,1.20876 1.356309,3.53086 1.550416,1.36327 -0.257632,-3.28554 c -0.332384,-0.0574 -0.585368,-0.34533 -0.585368,-0.69405 0,-0.0305 0.0048,-0.0599 0.0085,-0.0894 z m 13.947252,0.36101 c -0.108712,0.24994 -0.357581,0.42542 -0.647497,0.42542 -0.09601,0 -0.186182,-0.0192 -0.269392,-0.0533 l -1.440917,1.98047 c 0.101092,0.12243 0.164338,0.27704 0.164338,0.44795 0,0.0894 -0.01852,0.17475 -0.04902,0.25375 l 2.054251,1.4619 c 0.122682,-0.10414 0.27973,-0.16942 0.45339,-0.16942 0.125222,0 0.2413,0.0351 0.343814,0.0922 l 1.040308,-1.0776 c -0.06655,-0.10744 -0.106934,-0.23215 -0.106934,-0.36786 0,-0.29688 0.18415,-0.55068 0.443306,-0.65525 l -0.201168,-1.51386 c -0.328955,-0.0399 -0.585622,-0.30224 -0.615645,-0.63429 z m -9.039128,0.19837 -1.431595,0.35946 c -0.0017,0.30798 -0.20193,0.56645 -0.478282,0.66145 l 0.267868,3.41828 2.08374,-3.87402 c -0.196088,-0.14274 -0.350723,-0.33698 -0.441757,-0.56517 z m 11.532008,0.25375 c -0.07747,0.14859 -0.203962,0.26596 -0.360248,0.32931 l 0.200406,1.51465 c 0.102616,0.0122 0.198882,0.0447 0.282779,0.096 l 1.581454,-1.54415 -1.703349,-0.39596 z m -9.291436,0.0302 c -0.235458,0.32052 -0.61209,0.53101 -1.040334,0.53101 -0.15875,0 -0.309092,-0.0323 -0.449529,-0.0846 l -2.176881,4.04637 2.330627,1.29185 2.305025,-0.37356 c 0.03226,-0.27971 0.225806,-0.50759 0.486766,-0.59002 l -0.0729,-3.49204 c -0.312522,-0.0729 -0.544983,-0.35261 -0.544983,-0.68705 0,-0.0599 0.0092,-0.1176 0.02332,-0.17297 z m 11.187303,0.66921 -1.529411,1.49136 c 0.05969,0.10389 0.09703,0.22301 0.09703,0.35105 0,0.3095 -0.200406,0.56876 -0.477469,0.66454 l 0.145796,1.81433 c 0.134366,0.0257 0.254254,0.0909 0.34953,0.18084 l 1.793367,-1.07294 z m -9.189738,0.51008 c -0.07645,0.0645 -0.166116,0.11303 -0.264821,0.14046 l 0.0729,3.47885 c 0.03099,0.006 0.05994,0.0171 0.08941,0.0274 l 1.464996,-2.05425 c -0.103378,-0.12268 -0.167894,-0.28008 -0.167894,-0.45339 0,-0.0894 0.01774,-0.17399 0.04826,-0.25298 z m 2.354707,1.67691 c -0.122682,0.10389 -0.27973,0.16789 -0.453416,0.16789 -0.08966,0 -0.174752,-0.0176 -0.253746,-0.0483 l -1.456436,2.04181 c 0.113792,0.12573 0.18542,0.29078 0.18542,0.47361 0,0.0607 -0.01054,0.11862 -0.02504,0.17475 l 1.539468,0.84546 c 0.129286,-0.13766 0.311379,-0.22428 0.514731,-0.22428 0.143002,0 0.27587,0.0414 0.387376,0.11481 l 1.649755,-1.50533 c -0.05156,-0.0978 -0.08306,-0.20676 -0.08306,-0.32515 0,-0.0894 0.01869,-0.17348 0.04902,-0.25222 z m 4.348378,0.26713 -1.039571,1.07452 c 0.06782,0.10872 0.108712,0.23622 0.108712,0.37359 0,0.0516 -0.0059,0.10185 -0.0163,0.15011 l 1.003046,0.50076 c 0.08331,-0.096 0.192024,-0.16815 0.315951,-0.20777 l -0.145288,-1.80812 c -0.08179,-0.0141 -0.156972,-0.0434 -0.226822,-0.0825 z m -1.104798,1.90909 c -0.12954,0.14935 -0.318618,0.24638 -0.5318,0.24638 -0.14478,0 -0.278943,-0.0442 -0.391312,-0.11862 l -1.647419,1.50379 c 0.05258,0.0991 0.08458,0.21031 0.08458,0.33009 0,0.1011 -0.02162,0.1966 -0.05994,0.28352 l 1.680058,0.97277 2.381046,-0.98753 -0.0085,-0.89979 c -0.299568,-0.082 -0.520904,-0.35299 -0.520904,-0.67857 0,-0.0516 0.0059,-0.10185 0.0163,-0.15011 z m -5.414312,0.94094 c -0.02565,0.0277 -0.05359,0.0526 -0.08382,0.0757 l 1.604695,3.99435 h 1.850009 l -1.006906,-2.35854 c -0.04572,0.009 -0.09296,0.0147 -0.141986,0.0147 -0.390119,0 -0.706476,-0.31631 -0.706476,-0.70648 0,-0.0607 0.0097,-0.11861 0.02401,-0.17475 z"
         id="path100721"
         inkscape:connector-curvature="0" />
    </g>
    <text
       id="text100729"
       y="498.28543"
       x="11.84903"
       style="font-size:11.3211px;line-height:0;font-family:sans-serif;word-spacing:0px;fill:#fafafa;fill-opacity:1;stroke-width:0.283028"
       xml:space="preserve"><tspan
         y="498.28543"
         x="11.84903"
         id="tspan100725"
         sodipodi:role="line"
         style="font-style:normal;font-variant:normal;font-weight:300;font-stretch:normal;font-size:6.35px;line-height:1;font-family:Overpass;-inkscape-font-specification:'Overpass Light';fill:#fafafa;fill-opacity:1;stroke-width:0.283028">HOW-TO:</tspan><tspan
         id="tspan100727"
         style="font-style:normal;font-variant:normal;font-weight:300;font-stretch:normal;font-size:9.17222px;line-height:1;font-family:Overpass;-inkscape-font-specification:'Overpass Light';fill:#fafafa;fill-opacity:1;stroke-width:0.283028"
         y="502.81375"
         x="11.84903"
         sodipodi:role="line" /></text>
    <text
       id="text100735"
       y="509.3978"
       x="11.84903"
       style="font-size:9.87778px;line-height:1;font-family:sans-serif;word-spacing:0px;fill:#fafafa;fill-opacity:1;stroke-width:0.283028"
       xml:space="preserve"><tspan
         id="tspan100733"
         style="font-style:normal;font-variant:normal;font-weight:300;font-stretch:normal;font-size:9.87778px;font-family:Overpass;-inkscape-font-specification:'Overpass Light';fill:#fafafa;fill-opacity:1;stroke-width:0.283028"
         y="509.3978"
         x="11.84903"
         sodipodi:role="line">Get Started with</tspan><tspan
         style="font-style:normal;font-variant:normal;font-weight:300;font-stretch:normal;font-size:9.87778px;font-family:Overpass;-inkscape-font-specification:'Overpass Light';fill:#fafafa;fill-opacity:1;stroke-width:0.283028"
         y="519.37201"
         x="11.84903"
         sodipodi:role="line"
         id="tspan100743">ChRIS Design Assets</tspan></text>
    <use
       xlink:href="#paintcan"
       style="opacity:0.25;fill:#fafafa;stroke:none"
       transform="matrix(1.1292179,0,0,1.1292179,-27.138889,471.03687)"
       id="use100775"
       x="0"
       y="0"
       width="100%"
       height="100%" />
  </g>
  <inkscape:templateinfo>
    <inkscape:name>Twitter Stream Image</inkscape:name>
    <inkscape:author>Mirn Duffy</inkscape:author>
    <inkscape:shortdesc>twitter, social</inkscape:shortdesc>
    <inkscape:date>2020-08-24</inkscape:date>
    <inkscape:keywords>twitter, social</inkscape:keywords>
  </inkscape:templateinfo>
</svg>
